<svg xmlns="http://www.w3.org/2000/svg" width="133" height="34" fill="none" viewBox="0 0 133 34"><path fill="#000" fill-rule="evenodd" d="M28.089 7.512 15.431.186a1.38 1.38 0 0 0-1.382 0L1.391 7.512l-.626.363-.069.037-.005.004A1.39 1.39 0 0 0 0 9.116V24.57c0 .494.264.952.69 1.2l12.66 7.328.656.377.041.025a1.38 1.38 0 0 0 1.384-.002l.693-.402 6.674-3.863 4.366 2.528a1.84 1.84 0 0 0 1.847 0l4.827-2.795c.571-.331.924-.942.924-1.603v-5.587c0-.663-.351-1.275-.924-1.604l-4.363-2.526V9.094a1.39 1.39 0 0 0-.691-1.18zm-1.387 10.133v-6.12a10.62 10.62 0 0 0-5.287 9.18v-6.123l-5.291 3.062v12.243l5.289-3.06v-5.052c0-.66.353-1.272.924-1.603zm0-6.123v.002l-.011.004zm43.144 15.502a.57.57 0 0 1-.416-.171.57.57 0 0 1-.172-.416v-9.52h-1.982a.57.57 0 0 1-.416-.171.57.57 0 0 1-.171-.416v-1.444q0-.245.171-.416a.57.57 0 0 1 .416-.171h1.982v-.98q0-2.226 1.2-3.303 1.199-1.101 3.621-1.101h1.689q.245 0 .416.171a.57.57 0 0 1 .171.416v1.444a.57.57 0 0 1-.171.416.57.57 0 0 1-.416.172h-1.566q-.955 0-1.346.464-.392.466-.392 1.444v.857h3.06q.244 0 .415.171a.57.57 0 0 1 .171.416v1.444a.57.57 0 0 1-.17.416.57.57 0 0 1-.417.171h-3.059v9.52a.57.57 0 0 1-.171.416.52.52 0 0 1-.416.171zm-14.448-.244q1.053.489 2.3.489 1.47 0 2.448-.49.978-.513 1.517-1.296v.954q0 .245.171.416a.57.57 0 0 0 .416.171h2.031q.27 0 .416-.171a.57.57 0 0 0 .172-.416v-7.684q0-2.104-1.322-3.402-1.32-1.297-4.209-1.297-1.761 0-2.96.587-1.2.563-1.787 1.346-.563.76-.588 1.37a.53.53 0 0 0 .147.392.58.58 0 0 0 .392.147h1.909q.269 0 .367-.294l.391-.391q.318-.318.808-.612.489-.294 1.297-.294 1.174 0 1.713.539.538.54.538 1.59v.515l-3.352.489q-2.35.367-3.696 1.395-1.346 1.027-1.346 2.692 0 1.027.588 1.884.612.857 1.64 1.37m5.335-2.741q-.856.88-2.202.88-.906 0-1.566-.415-.637-.441-.637-1.224 0-1.444 2.814-1.884l2.447-.392v.49q0 1.663-.856 2.545m-16.62 2.814a.57.57 0 0 0 .417.171h2.178a.57.57 0 0 0 .416-.171.57.57 0 0 0 .171-.416v-6.705q0-1.15.66-1.811.662-.66 1.812-.661H51.7q.27 0 .416-.171a.57.57 0 0 0 .171-.416v-1.787a.52.52 0 0 0-.171-.416.52.52 0 0 0-.416-.171h-1.028q-2.3 0-3.524 1.615V14.91a.6.6 0 0 0-.171-.441.6.6 0 0 0-.44-.171H44.53a.57.57 0 0 0-.416.171.6.6 0 0 0-.171.44v11.527q0 .245.17.416m34.005-14.806a.57.57 0 0 0 .416.172h2.251a.57.57 0 0 0 .416-.172.53.53 0 0 0 .196-.416V9.845a.6.6 0 0 0-.171-.44.6.6 0 0 0-.44-.172h-2.252a.57.57 0 0 0-.416.171.6.6 0 0 0-.171.44v1.787q0 .245.171.416m.098 14.806a.57.57 0 0 0 .416.171h2.08a.57.57 0 0 0 .416-.171.57.57 0 0 0 .171-.416v-11.55a.57.57 0 0 0-.171-.417.57.57 0 0 0-.416-.171h-2.08a.57.57 0 0 0-.416.171.52.52 0 0 0-.171.416v11.551q0 .245.17.416m6.892.171a.57.57 0 0 1-.416-.171.57.57 0 0 1-.171-.416v-11.55q0-.27.171-.417a.57.57 0 0 1 .416-.171h2.031q.27 0 .416.171a.52.52 0 0 1 .172.416v1.003q1.492-1.835 4.086-1.835 2.251 0 3.573 1.468 1.322 1.47 1.322 4.038v6.877a.57.57 0 0 1-.172.416.52.52 0 0 1-.416.171h-2.202a.57.57 0 0 1-.416-.171.57.57 0 0 1-.171-.416v-6.73q0-1.419-.71-2.202-.686-.808-1.982-.808-1.248 0-2.007.808-.759.807-.759 2.202v6.73a.57.57 0 0 1-.17.416.52.52 0 0 1-.417.171zm16.102-.244q1.053.489 2.301.489 1.468 0 2.447-.49.979-.513 1.517-1.296v.954q0 .245.172.416a.56.56 0 0 0 .415.171h2.031a.52.52 0 0 0 .417-.171.57.57 0 0 0 .17-.416v-7.684q0-2.104-1.321-3.402-1.322-1.297-4.208-1.297-1.762 0-2.962.587-1.199.563-1.786 1.346-.562.76-.588 1.37a.53.53 0 0 0 .147.392.58.58 0 0 0 .392.147h1.909q.268 0 .367-.294l.391-.391q.318-.318.808-.612.489-.294 1.297-.294 1.174 0 1.713.539.538.54.538 1.59v.515l-3.352.489q-2.35.367-3.696 1.395-1.346 1.027-1.346 2.692 0 1.027.588 1.884.611.857 1.639 1.37m5.335-2.741q-.857.88-2.202.88-.906 0-1.567-.415-.636-.441-.636-1.224 0-1.444 2.814-1.884l2.448-.392v.49q0 1.663-.857 2.545m11.998 3.23q-2.472 0-3.794-1.566-1.321-1.59-1.443-4.234l-.025-.808.025-.807q.098-2.594 1.419-4.185 1.346-1.615 3.818-1.615 2.347 0 3.744 1.615v-5.433q0-.27.171-.416a.57.57 0 0 1 .416-.17h2.129q.269 0 .416.17a.52.52 0 0 1 .172.416v16.201a.57.57 0 0 1-.172.416.52.52 0 0 1-.416.171h-1.982a.57.57 0 0 1-.417-.171.57.57 0 0 1-.17-.416v-.905q-1.346 1.737-3.891 1.737m.929-2.643q1.396 0 2.056-.88.685-.907.759-2.228.023-.294.024-.93 0-.66-.024-.954-.049-1.225-.759-2.08-.71-.857-2.056-.857-2.618 0-2.789 3.23l-.025.735.025.734q.17 3.23 2.789 3.23m9.404 2.227a.57.57 0 0 0 .415.171h2.472a.52.52 0 0 0 .416-.171.56.56 0 0 0 .172-.416v-2.472a.56.56 0 0 0-.172-.416.56.56 0 0 0-.416-.171h-2.472a.57.57 0 0 0-.415.171.57.57 0 0 0-.172.416v2.472q0 .245.172.416" clip-rule="evenodd"/></svg>