<svg xmlns="http://www.w3.org/2000/svg" width="125" height="32" fill="none" viewBox="0 0 125 32"><path fill="#FDFDFD" fill-rule="evenodd" d="M26.46 7.07 14.537.175a1.3 1.3 0 0 0-1.301 0L1.31 7.07l-.59.342-.064.035-.005.003A1.31 1.31 0 0 0 0 8.58v14.545c0 .465.249.895.65 1.129l11.927 6.897.617.355.039.023a1.3 1.3 0 0 0 1.303-.002l.653-.378 6.287-3.635 4.113 2.378a1.74 1.74 0 0 0 1.74 0l4.548-2.63c.537-.312.87-.887.87-1.509v-5.259c0-.623-.33-1.199-.87-1.509l-4.111-2.377v-8.05a1.31 1.31 0 0 0-.651-1.11zm-1.306 9.537v-5.76a9.98 9.98 0 0 0-4.98 8.64v-5.763l-4.985 2.882v11.523l4.983-2.88v-4.754c0-.623.332-1.198.87-1.51zm0-5.763v.003l-.01.003zm40.643 14.59a.53.53 0 0 1-.392-.16.53.53 0 0 1-.162-.392v-8.96h-1.867a.53.53 0 0 1-.392-.161.53.53 0 0 1-.161-.392v-1.358q0-.231.161-.392a.53.53 0 0 1 .392-.161h1.867v-.922q0-2.095 1.13-3.109 1.13-1.037 3.412-1.037h1.59q.231 0 .392.162a.53.53 0 0 1 .162.391v1.36a.53.53 0 0 1-.162.39.53.53 0 0 1-.392.162H69.9q-.9 0-1.268.438-.369.436-.369 1.359v.806h2.882q.23 0 .392.16a.53.53 0 0 1 .161.393v1.358a.53.53 0 0 1-.161.392.53.53 0 0 1-.392.161h-2.882v8.96a.53.53 0 0 1-.161.391.49.49 0 0 1-.392.162zm-13.61-.23a5.1 5.1 0 0 0 2.167.461q1.383 0 2.305-.46.922-.485 1.43-1.221v.898q0 .23.16.391a.53.53 0 0 0 .393.162h1.913q.254 0 .392-.162a.53.53 0 0 0 .161-.391V17.65q0-1.98-1.245-3.202-1.244-1.22-3.965-1.22-1.659 0-2.79.552-1.128.53-1.682 1.267-.53.714-.553 1.29 0 .23.138.368.161.138.369.139h1.798q.254 0 .346-.277l.369-.369q.3-.3.76-.575.462-.277 1.222-.277 1.107 0 1.614.507t.507 1.497v.484l-3.158.46q-2.214.345-3.481 1.313-1.268.968-1.268 2.534 0 .967.553 1.774.577.805 1.545 1.29m5.025-2.58q-.808.83-2.074.83-.853 0-1.476-.392-.6-.414-.6-1.151 0-1.36 2.652-1.774l2.305-.368v.46q0 1.566-.807 2.396m-15.656 2.65a.53.53 0 0 0 .392.16H44a.53.53 0 0 0 .392-.16.53.53 0 0 0 .161-.392V18.57q0-1.083.623-1.705.622-.621 1.706-.621h1.82q.254 0 .393-.162a.53.53 0 0 0 .161-.391V14.01q0-.255-.161-.392a.49.49 0 0 0-.392-.161h-.968q-2.168 0-3.32 1.52v-.944a.56.56 0 0 0-.161-.415.56.56 0 0 0-.415-.161h-1.89a.53.53 0 0 0-.392.16.56.56 0 0 0-.162.415v10.849q0 .23.161.391M73.59 11.338a.53.53 0 0 0 .391.16h2.121a.53.53 0 0 0 .392-.16.5.5 0 0 0 .184-.392v-1.68a.56.56 0 0 0-.16-.415.56.56 0 0 0-.416-.161h-2.12a.53.53 0 0 0-.392.161.56.56 0 0 0-.162.415v1.681q0 .23.162.392m.092 13.934a.53.53 0 0 0 .392.162h1.959a.53.53 0 0 0 .392-.162.53.53 0 0 0 .161-.391V14.01a.53.53 0 0 0-.161-.391.53.53 0 0 0-.392-.161h-1.96a.53.53 0 0 0-.391.16.49.49 0 0 0-.162.393v10.87q0 .231.162.392m6.492.162a.53.53 0 0 1-.392-.162.53.53 0 0 1-.16-.391V14.01q0-.252.16-.391a.53.53 0 0 1 .392-.161h1.914q.254 0 .392.16a.49.49 0 0 1 .161.393v.944q1.406-1.728 3.85-1.728 2.121 0 3.365 1.382 1.245 1.383 1.245 3.8v6.473a.53.53 0 0 1-.161.391.49.49 0 0 1-.392.162h-2.075a.53.53 0 0 1-.392-.162.53.53 0 0 1-.161-.391v-6.334q0-1.336-.669-2.073-.645-.76-1.867-.76-1.176 0-1.89.76-.715.76-.715 2.073v6.334a.53.53 0 0 1-.161.391.49.49 0 0 1-.392.162zm15.17-.23a5.1 5.1 0 0 0 2.166.46q1.382 0 2.306-.46.921-.485 1.429-1.221v.898a.53.53 0 0 0 .161.391.53.53 0 0 0 .392.162h1.913q.254 0 .392-.162a.53.53 0 0 0 .161-.391V17.65q0-1.98-1.245-3.202-1.245-1.22-3.964-1.22-1.66 0-2.79.552-1.13.53-1.683 1.267-.53.714-.553 1.29 0 .23.138.368a.55.55 0 0 0 .37.139h1.797q.255 0 .346-.277l.369-.369q.3-.3.761-.575.46-.277 1.222-.277 1.106 0 1.614.507.507.507.506 1.497v.484l-3.158.46q-2.213.345-3.48 1.313-1.269.968-1.269 2.534 0 .967.553 1.774.578.805 1.545 1.29m5.025-2.58q-.808.829-2.075.829-.853 0-1.476-.392-.6-.414-.599-1.151 0-1.36 2.65-1.774l2.306-.368v.46q0 1.566-.806 2.396m11.302 3.04q-2.33 0-3.574-1.474-1.245-1.497-1.36-3.985l-.023-.76.023-.76q.093-2.441 1.338-3.938 1.266-1.52 3.596-1.52 2.212 0 3.527 1.52V9.634q0-.254.161-.391a.53.53 0 0 1 .392-.162h2.006q.252 0 .391.162a.49.49 0 0 1 .162.391v15.248a.54.54 0 0 1-.162.391.49.49 0 0 1-.391.162h-1.868a.54.54 0 0 1-.392-.162.54.54 0 0 1-.161-.391v-.852q-1.268 1.635-3.665 1.635m.875-2.488q1.314 0 1.937-.829.645-.852.715-2.096.021-.276.022-.875 0-.622-.022-.898-.046-1.152-.715-1.958-.668-.807-1.937-.806-2.466 0-2.627 3.04l-.024.691.024.691q.16 3.04 2.627 3.04m8.858 2.096a.54.54 0 0 0 .392.162h2.329a.49.49 0 0 0 .392-.162.53.53 0 0 0 .161-.391v-2.326a.53.53 0 0 0-.161-.392.53.53 0 0 0-.392-.161h-2.329a.54.54 0 0 0-.392.161.54.54 0 0 0-.161.392v2.326q0 .23.161.391" clip-rule="evenodd"/></svg>