<svg xmlns="http://www.w3.org/2000/svg" width="320" height="135" fill="none" viewBox="0 0 320 135"><g filter="url(#a)"><path fill="#000210" fill-opacity="0.1" d="M0 28.314V127a8 8 0 0 0 8 8h279.686a8 8 0 0 0 5.657-2.343l24.314-24.314a8 8 0 0 0 2.343-5.657V8a8 8 0 0 0-8-8H28.314a8 8 0 0 0-5.657 2.343L2.343 22.657A8 8 0 0 0 0 28.314Z"/><path stroke="#6B6B6B" stroke-width="1.5" d="M.75 127V28.314a7.25 7.25 0 0 1 2.123-5.127L23.187 2.873A7.25 7.25 0 0 1 28.314.75H312A7.25 7.25 0 0 1 319.25 8v94.686a7.254 7.254 0 0 1-2.123 5.127l-24.314 24.314a7.254 7.254 0 0 1-5.127 2.123H8A7.25 7.25 0 0 1 .75 127Z"/></g><path fill="#FDFDFD" d="M20.7 30h30.64v6H39.42v24h-6.8V36H20.7v-6Zm55.451 30-9.04-11.4h-5.22V60h-6.78V30h17.08c2.174 0 4.094.393 5.76 1.18 1.667.773 2.96 1.867 3.88 3.28.92 1.413 1.38 3.04 1.38 4.88 0 1.573-.346 2.993-1.04 4.26-.693 1.267-1.68 2.313-2.96 3.14-1.266.827-2.753 1.38-4.46 1.66l9.36 11.6h-7.96Zm-14.26-24.64v7.96h9.48c1.547 0 2.76-.353 3.64-1.06.894-.707 1.34-1.68 1.34-2.92s-.446-2.213-1.34-2.92c-.88-.707-2.093-1.06-3.64-1.06h-9.48ZM121.57 60h-7.24l-2.84-6.32H94.85L92.01 60h-7.24l14.02-30h8.76l14.02 30Zm-18.4-24.78-5.82 12.94h11.66l-5.84-12.94ZM150.46 30v5.82h-18.88v6.88h18.18v5.82h-18.18V60h-6.78V30h25.66Zm30.234 0v5.82h-18.88v6.88h18.18v5.82h-18.18V60h-6.78V30h25.66Zm4.575 30V30h6.78v30h-6.78Zm45.409-12.22c-.293 2.533-1.18 4.773-2.66 6.72-1.48 1.933-3.433 3.433-5.86 4.5-2.426 1.067-5.173 1.6-8.24 1.6-3.4 0-6.4-.647-9-1.94-2.586-1.307-4.593-3.14-6.02-5.5-1.426-2.36-2.14-5.08-2.14-8.16s.714-5.8 2.14-8.16c1.427-2.36 3.434-4.187 6.02-5.48 2.6-1.307 5.6-1.96 9-1.96 3.067 0 5.814.533 8.24 1.6 2.427 1.067 4.38 2.573 5.86 4.52 1.48 1.933 2.367 4.167 2.66 6.7h-6.82c-.28-1.413-.86-2.633-1.74-3.66-.866-1.04-2-1.833-3.4-2.38-1.4-.56-3.006-.84-4.82-.84-2.093 0-3.913.393-5.46 1.18-1.533.787-2.72 1.907-3.56 3.36-.826 1.453-1.24 3.16-1.24 5.12s.414 3.667 1.24 5.12c.84 1.453 2.027 2.573 3.56 3.36 1.547.787 3.367 1.18 5.46 1.18 2.747 0 4.987-.6 6.72-1.8 1.747-1.2 2.827-2.893 3.24-5.08h6.82ZM20.86 93.44h6.66v1.16c0 2.653.58 4.66 1.74 6.02 1.173 1.36 3.033 2.04 5.58 2.04 2.507 0 4.36-.647 5.56-1.94 1.2-1.307 1.8-3.187 1.8-5.64V78h6.78v17.4c0 2.787-.587 5.173-1.76 7.16-1.173 1.973-2.827 3.473-4.96 4.5-2.12 1.027-4.593 1.54-7.42 1.54-2.8 0-5.253-.527-7.36-1.58a11.412 11.412 0 0 1-4.88-4.62c-1.147-2.027-1.72-4.467-1.72-7.32l-.02-1.64ZM87.077 108h-7.24l-2.84-6.32h-16.64l-2.84 6.32h-7.24l14.02-30h8.76l14.02 30Zm-18.4-24.78-5.82 12.94h11.66l-5.84-12.94Zm42.71 18.28 10.58-23.5h10.44v30h-6.46V84.08L114.867 108h-7.02l-11.08-23.82V108h-6.46V78h10.44l10.64 23.5Zm46.935 1.02h18.2V108h-28.8v-4.8l12.82-7.5c2.2-1.307 3.88-2.393 5.04-3.26 1.174-.867 2.014-1.68 2.52-2.44a4.38 4.38 0 0 0 .76-2.48c0-.933-.26-1.76-.78-2.48-.506-.72-1.273-1.28-2.3-1.68-1.013-.413-2.253-.62-3.72-.62-2.546 0-4.473.54-5.78 1.62-1.306 1.067-2.053 2.467-2.24 4.2h-6.78c.16-2.24.9-4.2 2.22-5.88 1.32-1.693 3.087-2.993 5.3-3.9 2.227-.92 4.734-1.38 7.52-1.38 2.627 0 4.947.413 6.96 1.24 2.027.813 3.594 1.96 4.7 3.44 1.12 1.467 1.68 3.16 1.68 5.08a7.93 7.93 0 0 1-1.16 4.18c-.76 1.28-1.973 2.56-3.64 3.84-1.666 1.267-3.92 2.66-6.76 4.18l-5.76 3.16Zm38.081 6.08c-3.307 0-6.193-.647-8.66-1.94-2.467-1.293-4.367-3.113-5.7-5.46-1.333-2.36-2-5.093-2-8.2 0-3.107.667-5.833 2-8.18 1.333-2.36 3.233-4.187 5.7-5.48 2.467-1.293 5.353-1.94 8.66-1.94 3.293 0 6.167.647 8.62 1.94 2.467 1.293 4.367 3.12 5.7 5.48 1.333 2.347 2 5.073 2 8.18 0 3.107-.667 5.84-2 8.2-1.333 2.347-3.233 4.167-5.7 5.46-2.453 1.293-5.327 1.94-8.62 1.94Zm0-5.54c1.987 0 3.693-.393 5.12-1.18 1.427-.8 2.513-1.953 3.26-3.46.76-1.507 1.14-3.313 1.14-5.42 0-2.107-.38-3.913-1.14-5.42-.747-1.507-1.833-2.653-3.26-3.44-1.427-.8-3.133-1.2-5.12-1.2-2.013 0-3.74.393-5.18 1.18-1.427.787-2.52 1.933-3.28 3.44-.747 1.507-1.12 3.32-1.12 5.44 0 2.12.373 3.933 1.12 5.44.76 1.507 1.853 2.653 3.28 3.44 1.44.787 3.167 1.18 5.18 1.18Zm30.747-.54h18.2V108h-28.8v-4.8l12.82-7.5c2.2-1.307 3.88-2.393 5.04-3.26 1.174-.867 2.014-1.68 2.52-2.44a4.38 4.38 0 0 0 .76-2.48c0-.933-.26-1.76-.78-2.48-.506-.72-1.273-1.28-2.3-1.68-1.013-.413-2.253-.62-3.72-.62-2.546 0-4.473.54-5.78 1.62-1.306 1.067-2.053 2.467-2.24 4.2h-6.78c.16-2.24.9-4.2 2.22-5.88 1.32-1.693 3.087-2.993 5.3-3.9 2.227-.92 4.734-1.38 7.52-1.38 2.627 0 4.947.413 6.96 1.24 2.027.813 3.594 1.96 4.7 3.44 1.12 1.467 1.68 3.16 1.68 5.08a7.93 7.93 0 0 1-1.16 4.18c-.76 1.28-1.973 2.56-3.64 3.84-1.666 1.267-3.92 2.66-6.76 4.18l-5.76 3.16Zm43.701-10.06c2.28.413 4.034 1.207 5.26 2.38 1.24 1.16 1.86 2.653 1.86 4.48 0 1.813-.573 3.42-1.72 4.82-1.133 1.4-2.793 2.493-4.98 3.28-2.173.787-4.773 1.18-7.8 1.18-2.986 0-5.606-.42-7.86-1.26-2.24-.853-3.993-2.053-5.26-3.6-1.266-1.56-1.946-3.38-2.04-5.46h6.78c.227 1.627 1.034 2.867 2.42 3.72 1.4.84 3.387 1.26 5.96 1.26 2.48 0 4.367-.387 5.66-1.16 1.294-.773 1.94-1.867 1.94-3.28 0-.84-.226-1.533-.68-2.08-.44-.547-1.173-.96-2.2-1.24-1.013-.28-2.386-.42-4.12-.42h-5.3v-4.76h5.3c2.2 0 3.814-.327 4.84-.98 1.027-.653 1.54-1.567 1.54-2.74 0-1.24-.566-2.193-1.7-2.86-1.12-.667-2.8-1-5.04-1-2.293 0-4.1.407-5.42 1.22-1.32.813-2.113 1.98-2.38 3.5h-6.8c.16-1.893.847-3.6 2.06-5.12 1.214-1.533 2.914-2.74 5.1-3.62 2.2-.88 4.8-1.32 7.8-1.32 2.654 0 4.98.347 6.98 1.04 2 .68 3.54 1.647 4.62 2.9 1.094 1.253 1.64 2.7 1.64 4.34 0 1.613-.546 3.02-1.64 4.22-1.08 1.187-2.686 2.04-4.82 2.56Z"/><defs><filter id="a" width="342" height="157" x="-11" y="-11" color-interpolation-filters="sRGB" filterUnits="userSpaceOnUse"><feFlood flood-opacity="0" result="BackgroundImageFix"/><feGaussianBlur in="BackgroundImageFix" stdDeviation="5.5"/><feComposite in2="SourceAlpha" operator="in" result="effect1_backgroundBlur_187_1337"/><feBlend in="SourceGraphic" in2="effect1_backgroundBlur_187_1337" result="shape"/></filter></defs></svg>