<svg xmlns="http://www.w3.org/2000/svg" width="1214" height="1483" fill="none" viewBox="0 0 1214 1483"><g filter="url(#a)" opacity="0.3"><path fill="url(#b)" d="M343.747 373.642c-2.698 1.489 4.695-5.727 4.833-5.828a3408.97 3408.97 0 0 1 16.521-12.015c14.634-10.586 29.303-21.066 44.029-31.348 45.628-31.859 91.573-62.655 137.992-91.713 110.707-69.3 228.946-142.858 349.109-159.677 50.153-7.02 113.699.423 139.819 77.909 47.69 141.434-58.192 269.334-127.566 328.312C764.123 602.009 598.936 663.653 443.38 743.15c-49.975 25.539-100.314 51.641-147.948 86.41-18.421 13.446-43.864 29.241-56.804 55.044-1.328 2.647 1.925-6.042 2.481-9.272 1.251-7.266 1.285-14.871.605-22.284-2.021-22.009-11.154-47.848-25.184-56.914-2.218-1.433 4.666 1.844 7.04 2.445 4.942 1.251 9.942 1.96 14.938 2.427 14.631 1.367 29.339.773 43.963-.468 42.939-3.644 85.669-13.007 128.102-23.404 166.83-40.877 331.182-102.33 497.106-150.651a1747.743 1747.743 0 0 1 47.282-13.03c48.979-12.787 155.699-52.248 182.719 38.28 16.73 56.012-8.73 105.693-38.45 134.007-67.82 64.619-151.244 98.413-225.822 139.303-25.82 14.156-51.645 28.288-77.4 42.717-35.498 19.886-70.883 40.26-105.981 61.75-44.215 27.08-88.072 55.88-130.487 89.11-50.335 39.44-184.462 146.48-115.852 255.85 9.097 14.51 19.768 26.35 30.821 37.07 2.505 2.43-9.475-5.45-10.407-6.25-5.803-4.96-11.549-10.41-16.846-16.57-18.385-21.38-33.095-49.17-33.646-85.95-1.313-87.76 68.025-160.08 108.486-204.2C631.17 979.612 754.99 892.44 874.489 801.55c46.665-35.492 136.871-92.087 173.431-146.656 1.03-1.543-1.76 3.528-2.45 5.478-1.12 3.223-2.08 6.566-2.78 10.066-1.96 9.664-2.42 20.061-1.29 30.041 2.96 26.026 16.62 51.964 34.54 55.084 1.22.213-2.46-.032-3.69.107-2.35.268-4.71.71-7.05 1.183-7.13 1.437-14.2 3.57-21.24 5.812-21.38 6.813-42.52 15.666-63.541 24.695-64.63 27.755-128.615 58.962-192.784 89.094-160.347 75.293-365.473 181.836-532.871 185.976-77.986 1.93-174.828-37.1-183.197-180.17-7.135-121.974 54.249-209.209 119.313-259.891C329.398 514.47 500.519 478.904 650.587 424.937c54.093-19.453 108.206-39.99 160.962-66.896 23.331-11.899 46.433-25.018 68.761-40.859 20.999-14.897 126.46-105.725 55.594-130.153-6.877-2.37-13.867-3.91-20.88-4.967-11.881-1.79-23.849-2.232-35.781-1.989-94.592 1.928-189.71 36.801-280.827 72.897-86.049 34.088-171.05 74.522-254.669 120.672Z"/></g><defs><linearGradient id="b" x1="248.75" x2="938.97" y1="575.195" y2="524.488" gradientUnits="userSpaceOnUse"><stop stop-color="#FB25FF"/><stop offset="0.54658" stop-color="#4B75FF"/><stop offset="1" stop-color="#0BFFC4"/></linearGradient><filter id="a" width="1214" height="1483" x="0" y="0" color-interpolation-filters="sRGB" filterUnits="userSpaceOnUse"><feFlood flood-opacity="0" result="BackgroundImageFix"/><feBlend in="SourceGraphic" in2="BackgroundImageFix" result="shape"/><feGaussianBlur result="effect1_foregroundBlur_150_325" stdDeviation="35.5"/></filter></defs></svg>