<svg xmlns="http://www.w3.org/2000/svg" width="763" height="480" fill="none" viewBox="0 0 763 480"><g filter="url(#a)"><path fill="url(#b)" d="M-334.709 158.536c-.797-.67 14.782 3.159 17.273 3.841 11.603 3.18 23.243 6.253 34.976 8.965a1149.33 1149.33 0 0 0 106.715 19.437c108.692 14.513 220.06 15.511 325.554-2.977 84.568-14.82 157.228-43.812 226.493-84.75 41.397-24.467 89.181-36.7 141.915-29.363 120.345 16.743 201.481 126.64 163.848 221.93-40.451 102.424-181.486 111.896-294.145 112.394-242.946 1.076-541.209-97.017-722.629-249.477Z"/></g><defs><linearGradient id="b" x1="507.991" x2="-135.345" y1="309.501" y2="341.653" gradientUnits="userSpaceOnUse"><stop stop-color="#FB25FF"/><stop offset="0.54658" stop-color="#4B75FF"/><stop offset="1" stop-color="#0BFFC4"/></linearGradient><filter id="a" width="1168.09" height="478.447" x="-405.738" y="0.574951" color-interpolation-filters="sRGB" filterUnits="userSpaceOnUse"><feFlood flood-opacity="0" result="BackgroundImageFix"/><feBlend in="SourceGraphic" in2="BackgroundImageFix" result="shape"/><feGaussianBlur result="effect1_foregroundBlur_117_449" stdDeviation="35.5"/></filter></defs></svg>