<svg xmlns="http://www.w3.org/2000/svg" width="152" height="197" fill="none" viewBox="0 0 152 197"><g filter="url(#a)"><path fill="#FCFDFD" d="m30 27-10 4.773V20.227L30 25v2Zm96 138.667a5.332 5.332 0 0 1 5.333 5.333 5.332 5.332 0 0 1-5.333 5.333 5.332 5.332 0 0 1-5.333-5.333 5.332 5.332 0 0 1 5.333-5.333Zm-4.69-82.211.706-.707-.706.707ZM68.497 30.682l.707-.707-.707.707ZM29 25h28.188v2H29v-2Zm98 69.774V171h-2V94.774h2Zm-57.796-64.8 52.812 52.775-1.413 1.414L67.79 31.39l1.414-1.415ZM125 94.775a15 15 0 0 0-4.397-10.61l1.413-1.415A17 17 0 0 1 127 94.774h-2ZM57.188 25a17 17 0 0 1 12.016 4.975l-1.413 1.415A15 15 0 0 0 57.187 27v-2Z"/></g><defs><filter id="a" width="151.333" height="196.107" x="0" y="0.226562" color-interpolation-filters="sRGB" filterUnits="userSpaceOnUse"><feFlood flood-opacity="0" result="BackgroundImageFix"/><feGaussianBlur in="BackgroundImageFix" stdDeviation="5.5"/><feComposite in2="SourceAlpha" operator="in" result="effect1_backgroundBlur_187_1982"/><feColorMatrix in="SourceAlpha" result="hardAlpha" values="0 0 0 0 0 0 0 0 0 0 0 0 0 0 0 0 0 0 127 0"/><feOffset/><feGaussianBlur stdDeviation="10"/><feComposite in2="hardAlpha" operator="out"/><feColorMatrix values="0 0 0 0 0 0 0 0 0 0.52 0 0 0 0 1 0 0 0 1 0"/><feBlend in2="effect1_backgroundBlur_187_1982" result="effect2_dropShadow_187_1982"/><feColorMatrix in="SourceAlpha" result="hardAlpha" values="0 0 0 0 0 0 0 0 0 0 0 0 0 0 0 0 0 0 127 0"/><feOffset/><feGaussianBlur stdDeviation="10"/><feComposite in2="hardAlpha" operator="out"/><feColorMatrix values="0 0 0 0 0 0 0 0 0 0.52 0 0 0 0 1 0 0 0 1 0"/><feBlend in2="effect2_dropShadow_187_1982" result="effect3_dropShadow_187_1982"/><feColorMatrix in="SourceAlpha" result="hardAlpha" values="0 0 0 0 0 0 0 0 0 0 0 0 0 0 0 0 0 0 127 0"/><feOffset/><feGaussianBlur stdDeviation="3.5"/><feComposite in2="hardAlpha" operator="out"/><feColorMatrix values="0 0 0 0 1 0 0 0 0 1 0 0 0 0 1 0 0 0 1 0"/><feBlend in2="effect3_dropShadow_187_1982" result="effect4_dropShadow_187_1982"/><feBlend in="SourceGraphic" in2="effect4_dropShadow_187_1982" result="shape"/><feColorMatrix in="SourceAlpha" result="hardAlpha" values="0 0 0 0 0 0 0 0 0 0 0 0 0 0 0 0 0 0 127 0"/><feOffset/><feGaussianBlur stdDeviation="10"/><feComposite in2="hardAlpha" k2="-1" k3="1" operator="arithmetic"/><feColorMatrix values="0 0 0 0 0 0 0 0 0 0.88 0 0 0 0 1 0 0 0 1 0"/><feBlend in2="shape" result="effect5_innerShadow_187_1982"/><feColorMatrix in="SourceAlpha" result="hardAlpha" values="0 0 0 0 0 0 0 0 0 0 0 0 0 0 0 0 0 0 127 0"/><feOffset/><feGaussianBlur stdDeviation="10"/><feComposite in2="hardAlpha" k2="-1" k3="1" operator="arithmetic"/><feColorMatrix values="0 0 0 0 0 0 0 0 0 0.88 0 0 0 0 1 0 0 0 1 0"/><feBlend in2="effect5_innerShadow_187_1982" result="effect6_innerShadow_187_1982"/><feColorMatrix in="SourceAlpha" result="hardAlpha" values="0 0 0 0 0 0 0 0 0 0 0 0 0 0 0 0 0 0 127 0"/><feOffset/><feGaussianBlur stdDeviation="3.5"/><feComposite in2="hardAlpha" k2="-1" k3="1" operator="arithmetic"/><feColorMatrix values="0 0 0 0 1 0 0 0 0 1 0 0 0 0 1 0 0 0 1 0"/><feBlend in2="effect6_innerShadow_187_1982" result="effect7_innerShadow_187_1982"/></filter></defs></svg>