<svg xmlns="http://www.w3.org/2000/svg" width="52" height="50" fill="none" viewBox="0 0 52 50"><g filter="url(#a)" shape-rendering="crispEdges"><path fill="#000210" fill-opacity="0.5" d="M25.588 28.298a.49.49 0 0 0 .18.149.527.527 0 0 0 .642-.149l4.5-6.066a.447.447 0 0 0 .033-.482.482.482 0 0 0-.184-.183.527.527 0 0 0-.26-.067h-9a.53.53 0 0 0-.258.068.483.483 0 0 0-.184.183.441.441 0 0 0 .03.481l4.501 6.066Z"/><path stroke="#FCFDFD" stroke-width="2" d="M25.588 28.298a.49.49 0 0 0 .18.149.527.527 0 0 0 .642-.149l4.5-6.066a.447.447 0 0 0 .033-.482.482.482 0 0 0-.184-.183.527.527 0 0 0-.26-.067h-9a.53.53 0 0 0-.258.068.483.483 0 0 0-.184.183.441.441 0 0 0 .03.481l4.501 6.066Z"/></g><defs><filter id="a" width="52" height="49" x="0" y="0.5" color-interpolation-filters="sRGB" filterUnits="userSpaceOnUse"><feFlood flood-opacity="0" result="BackgroundImageFix"/><feGaussianBlur in="BackgroundImageFix" stdDeviation="5.5"/><feComposite in2="SourceAlpha" operator="in" result="effect1_backgroundBlur_201_44"/><feColorMatrix in="SourceAlpha" result="hardAlpha" values="0 0 0 0 0 0 0 0 0 0 0 0 0 0 0 0 0 0 127 0"/><feOffset/><feGaussianBlur stdDeviation="10"/><feComposite in2="hardAlpha" operator="out"/><feColorMatrix values="0 0 0 0 1 0 0 0 0 0.341176 0 0 0 0 0.341176 0 0 0 1 0"/><feBlend in2="effect1_backgroundBlur_201_44" result="effect2_dropShadow_201_44"/><feColorMatrix in="SourceAlpha" result="hardAlpha" values="0 0 0 0 0 0 0 0 0 0 0 0 0 0 0 0 0 0 127 0"/><feOffset/><feGaussianBlur stdDeviation="10"/><feComposite in2="hardAlpha" operator="out"/><feColorMatrix values="0 0 0 0 1 0 0 0 0 0.341176 0 0 0 0 0.341176 0 0 0 1 0"/><feBlend in2="effect2_dropShadow_201_44" result="effect3_dropShadow_201_44"/><feColorMatrix in="SourceAlpha" result="hardAlpha" values="0 0 0 0 0 0 0 0 0 0 0 0 0 0 0 0 0 0 127 0"/><feOffset/><feGaussianBlur stdDeviation="3.5"/><feComposite in2="hardAlpha" operator="out"/><feColorMatrix values="0 0 0 0 1 0 0 0 0 1 0 0 0 0 1 0 0 0 1 0"/><feBlend in2="effect3_dropShadow_201_44" result="effect4_dropShadow_201_44"/><feBlend in="SourceGraphic" in2="effect4_dropShadow_201_44" result="shape"/><feColorMatrix in="SourceAlpha" result="hardAlpha" values="0 0 0 0 0 0 0 0 0 0 0 0 0 0 0 0 0 0 127 0"/><feOffset/><feGaussianBlur stdDeviation="10"/><feComposite in2="hardAlpha" k2="-1" k3="1" operator="arithmetic"/><feColorMatrix values="0 0 0 0 1 0 0 0 0 0.341176 0 0 0 0 0.341176 0 0 0 1 0"/><feBlend in2="shape" result="effect5_innerShadow_201_44"/><feColorMatrix in="SourceAlpha" result="hardAlpha" values="0 0 0 0 0 0 0 0 0 0 0 0 0 0 0 0 0 0 127 0"/><feOffset/><feGaussianBlur stdDeviation="10"/><feComposite in2="hardAlpha" k2="-1" k3="1" operator="arithmetic"/><feColorMatrix values="0 0 0 0 1 0 0 0 0 0.341176 0 0 0 0 0.341176 0 0 0 1 0"/><feBlend in2="effect5_innerShadow_201_44" result="effect6_innerShadow_201_44"/><feColorMatrix in="SourceAlpha" result="hardAlpha" values="0 0 0 0 0 0 0 0 0 0 0 0 0 0 0 0 0 0 127 0"/><feOffset/><feGaussianBlur stdDeviation="3.5"/><feComposite in2="hardAlpha" k2="-1" k3="1" operator="arithmetic"/><feColorMatrix values="0 0 0 0 1 0 0 0 0 1 0 0 0 0 1 0 0 0 1 0"/><feBlend in2="effect6_innerShadow_201_44" result="effect7_innerShadow_201_44"/></filter></defs></svg>