<svg xmlns="http://www.w3.org/2000/svg" width="50" height="44" fill="none" viewBox="0 0 50 44"><path stroke="#FCFDFD" stroke-width="2" d="m25 6.444 15.333 8.89M25 6.443l-15.333 8.89M25 6.443 32.667 2 48 10.889l-7.667 4.444m0 0v17.778L25 42m15.333-26.667L25 24.223M25 42 9.667 33.111v-8.889l7.666 4.445M25 42V24.222M9.667 15.333 25 24.223m-15.333-8.89L2 19.778l15.333 8.889M25 24.222l-7.667 4.445"/><g filter="url(#a)"><path fill="#D9D9D9" d="m25 6 15.333 8.889L25 23.778l-15.333-8.89L25 6Z"/></g><path stroke="#FCFDFD" stroke-width="2" d="m25 6 15.333 8.889L25 23.778l-15.333-8.89L25 6Z"/><defs><filter id="a" width="34.6544" height="20.0895" x="7.67273" y="4.84412" color-interpolation-filters="sRGB" filterUnits="userSpaceOnUse"><feFlood flood-opacity="0" result="BackgroundImageFix"/><feBlend in="SourceGraphic" in2="BackgroundImageFix" result="shape"/><feColorMatrix in="SourceAlpha" result="hardAlpha" values="0 0 0 0 0 0 0 0 0 0 0 0 0 0 0 0 0 0 127 0"/><feOffset/><feGaussianBlur stdDeviation="10"/><feComposite in2="hardAlpha" k2="-1" k3="1" operator="arithmetic"/><feColorMatrix values="0 0 0 0 0 0 0 0 0 0.88 0 0 0 0 1 0 0 0 1 0"/><feBlend in2="shape" result="effect1_innerShadow_258_323"/></filter></defs></svg>