<svg xmlns="http://www.w3.org/2000/svg" width="41" height="41" fill="none" viewBox="0 0 41 41"><path stroke="#FCFDFD" stroke-width="2" d="M16.004 8.525c-3.973 4.459-6.7 10.866-6.953 11.47L2 16.975l9.369-9.367 4.635.916Zm3.857 20.739s7.284-3.019 11.472-7.206c10.518-10.515 8.765-18.733 8.2-20.583-1.85-.584-10.07-2.317-20.588 8.199-4.187 4.186-7.206 11.47-7.206 11.47l8.122 8.12Zm12.621-4.265c-4.46 3.972-10.868 6.699-11.472 6.952L24.029 39l9.369-9.366-.916-4.635ZM15.634 31.21a5.827 5.827 0 0 1-1.714 4.128C11.622 37.637 2 39 2 39s1.363-9.62 3.662-11.918a5.836 5.836 0 0 1 9.972 4.129Zm7.791-17.526a3.907 3.907 0 0 1 3.896-3.895 3.907 3.907 0 0 1 3.895 3.895 3.906 3.906 0 0 1-3.895 3.895 3.906 3.906 0 0 1-3.896-3.895Z"/></svg>