<svg xmlns="http://www.w3.org/2000/svg" width="32" height="32" fill="none" viewBox="0 0 32 32"><path fill="#252529" d="M20.086 2.594a1 1 0 0 1 1.32-.508c.232.104 3.956 1.878 6.454 6.06 1.262 2.12 1.794 4.29 2.012 5.946.124.95.168 1.909.13 2.866v.052-.008a1 1 0 0 1-2 0v-.1c.03-.686.18-4.312-1.86-7.73a14.426 14.426 0 0 0-4.98-4.952c-.342-.2-.552-.3-.568-.306a1 1 0 0 1-.508-1.32Zm.104 4.826a1 1 0 0 1 1.396-.224c-.006-.004.472.296 1.04.82a8.974 8.974 0 0 1 1.844 2.354 9.206 9.206 0 0 1 1.066 3.716c.008.12.01.214.012.288v.126a1 1 0 0 1-2 0v-.006a6.956 6.956 0 0 0-3.134-5.678 1 1 0 0 1-.224-1.396ZM5.074 21.414a8 8 0 0 1 13.854-8l1.64 2.84 3.812 2.774a1 1 0 0 1-.088 1.674l-5.06 2.92.008.006-5.476 3.16v-.006l-5.06 2.92a1.001 1.001 0 0 1-1.496-.76l-.494-4.686-1.64-2.842ZM20.5 25.21l-5.996 3.46a3.5 3.5 0 0 0 5.996-3.46Z"/></svg>