<svg xmlns="http://www.w3.org/2000/svg" width="32" height="32" fill="none" viewBox="0 0 32 32"><path fill="#24292B" d="M18.667 28.496v-9.83H5.67a2.997 2.997 0 0 0-3 3v1.226c0 .763.24 1.507.681 2.128 2.056 2.885 5.421 4.313 9.981 4.313 2.014 0 3.796-.277 5.334-.837ZM13.333 2.673a6.666 6.666 0 1 1 0 13.333 6.666 6.666 0 0 1 0-13.333Zm15.007 10.66a2.334 2.334 0 0 1 2.333 2.334v12.666a2.333 2.333 0 0 1-2.333 2.334h-6.007A2.334 2.334 0 0 1 20 28.333V15.667a2.334 2.334 0 0 1 2.333-2.334h6.007ZM25.67 25.33h-.666l-.136.01a1 1 0 0 0 .136 1.99h.667l.134-.009a1 1 0 0 0-.134-1.99Z"/></svg>