<svg xmlns="http://www.w3.org/2000/svg" width="141" height="138" fill="none" viewBox="0 0 141 138"><g fill="#9C2BFF" clip-path="url(#a)"><path d="M109.32 37.223v17.624c0 1.878.062 1.85 1.922 1.687 8.311-.717 16.276.282 23.528 4.773 4.928 3.058 7.816 8.317 5.305 14.37-.232.554-.093 1.392.128 1.98.936 2.494.974 5.238.108 7.758a4.726 4.726 0 0 0-.066 2.734c.869 2.668 1.018 5.242-.087 7.883a3.163 3.163 0 0 0 0 2.15 11.191 11.191 0 0 1 0 8.349 3.157 3.157 0 0 0 0 1.983c1.039 2.859 1.136 5.66-.083 8.502a2.633 2.633 0 0 0 0 1.847c2.591 6.161-.613 11.39-5.194 14.079-9.884 5.82-20.415 6.178-31.258 3.252a18.078 18.078 0 0 0-4.547-.734c-17.278-.045-34.555-.02-51.829-.02-.537 0-1.074 0-1.61-.053-1.988-.139-3.04-.873-2.77-2.783.93-6.682-2.04-12.248-4.607-17.985-5.194-11.643-10.337-23.308-15.49-34.983A22870.2 22870.2 0 0 1 5.562 40.671C3.865 36.844 2.157 32.996.478 29.149c-.96-2.195-.506-3.284 1.628-4.234L49.152 3.962c2.694-1.2 5.385-2.41 8.086-3.597C59.06-.438 60.324.09 61.11 1.882c1.86 4.237 3.785 8.447 5.593 12.708.53 1.256 1.295 1.614 2.594 1.607 11.694-.041 23.39-.024 35.088-.024h1.447c2.878.066 3.463.64 3.484 3.583.028 5.823 0 11.644 0 17.463zm-17.375 80.151-.547-.17c-.384 1.391-.886 2.783-1.129 4.223-.485 2.839-.963 3.315-3.886 3.315-6.437 0-12.879-.034-19.317 0-5.471.042-4.907-.428-5.662-4.679a6.96 6.96 0 0 0-.156-.626c-.796-2.654-2.316-4.623-5.139-5.218-2.732-.591-3.061-.936-3.065-3.726l-.02-66.939c0-.591 0-1.186.02-1.777.108-2.087.72-2.72 2.77-3.103a7.1 7.1 0 0 0 2.387-.853c2.486-1.527 3.117-4.08 3.55-6.748.398-2.48.92-2.895 3.386-2.895h20.28c4.232 0 4.25 0 4.984 4.22.523 3.002 2.559 6.126 6.064 6.39 1.731.133 2.382 1.1 2.403 2.86.017 1.618 0 3.235 0 4.87 0 2.856.097 5.72-.114 8.562-.06.796-.942 1.965-1.663 2.163-.72.199-1.939-.372-2.587-.984-.467-.445-.484-1.5-.495-2.286-.052-3.068.021-6.143-.059-9.211 0-.581-.367-1.486-.803-1.67-3.855-1.635-6.157-4.544-7.241-8.513-.284-1.044-.835-1.45-1.95-1.44-5.195.052-10.41.073-15.612 0-1.427-.021-2.05.476-2.455 1.837-1.07 3.548-3.207 6.314-6.67 7.813-.977.425-1.34.922-1.275 1.906.035.536 0 1.079 0 1.618 0 20.532-.01 41.065-.03 61.599 0 1.044.224 1.715 1.236 2.143 3.619 1.541 5.748 4.421 6.794 8.109.392 1.391 1.115 1.739 2.424 1.718 5.149-.051 10.3-.051 15.453 0 1.15 0 1.731-.323 2.057-1.488a12.877 12.877 0 0 1 4.481-6.916c1.247-.978 1.926-3.928 1.323-5.403-1.077-2.64-.984-5.218.104-7.848a3.514 3.514 0 0 0-.062-2.4 9.89 9.89 0 0 1 .103-8.002 2.746 2.746 0 0 0 0-1.93 10.986 10.986 0 0 1-.17-8.186 4.245 4.245 0 0 0-.016-2.678c-1.105-3.034-.994-5.932.654-8.698 2.445-4.09 6.272-6.38 10.614-7.928 1.012-.348 1.76-.695 1.753-2.066-.06-11.155-.06-22.312 0-33.47 0-1.471-.347-1.94-1.857-1.937-17.814.042-35.627.042-53.439 0-1.551 0-1.731.696-1.731 1.948.02 35.303.02 70.604 0 105.905 0 1.527.512 1.889 1.953 1.885 14.271-.042 28.543-.021 42.814-.024.334-.017.665-.064.99-.139-.837-2.23-2.077-4.311-2.316-6.499-.239-2.188.533-4.421.87-6.634m-49.733-5.454.43-.112V99.462c0-.195-.167-.393-.254-.588-4.71-10.631-9.403-21.261-14.08-31.89-3.117-7.038-6.234-14.068-9.31-21.113-.986-2.247-.72-3.13 1.258-4.48 1.551-1.072 2.632-2.53 2.663-4.387.03-1.74-.312-3.503-.669-5.218-.346-1.594-.024-2.582 1.424-3.33a52.2 52.2 0 0 1 2.188-1.012c5.195-2.313 10.39-4.606 15.584-6.957.516-.237 1.147-.731 1.278-1.225.776-2.86.998-3.09 3.924-3.093H60.5c1.233 0 1.732-.295 1.119-1.6-1.112-2.39-2.116-4.832-3.214-7.229-.883-1.934-.921-1.93-2.86-1.064-7.296 3.26-14.59 6.524-21.884 9.789a9248.104 9248.104 0 0 1-25.9 11.518c-2.65 1.18-2.355 1.11-1.34 3.336 2.077 4.603 4.124 9.233 6.164 13.86C21.293 64.515 30 84.25 38.704 103.984c1.168 2.647 2.337 5.292 3.508 7.936m73.286-51.163c-3.415.605-6.888.985-10.23 1.875-3.283.873-6.275 2.526-8.43 5.33-1.534 1.996-1.637 4.23-.193 6.286 2.147 3.061 5.385 4.522 8.775 5.625 5.302 1.74 10.757 1.986 16.214 1.103 4.298-.696 8.499-1.834 12.003-4.68 3.169-2.577 3.495-6.609.645-9.267a18.613 18.613 0 0 0-3.502-2.55c-4.723-2.668-9.918-3.329-15.282-3.722m-72.944 26.16c.093-.39.163-.787.208-1.186 0-3.826.042-7.653 0-11.48a4.408 4.408 0 0 0-.568-1.795c-2.078-4.074-2.195-8.12-.034-12.22a5.51 5.51 0 0 0 .595-2.436c.044-10.123.057-20.248.038-30.373 0-.574-.083-1.148-.135-1.816a5.606 5.606 0 0 0-1.077.205c-4.367 1.924-8.737 3.827-13.059 5.844-.402.188-.713 1.1-.665 1.639.346 3.774 0 7.378-2.698 10.283-.962 1.044-1.094 1.834-.53 3.1a7919.425 7919.425 0 0 1 16.333 36.875c.44 1.009.941 1.986 1.592 3.36m93.546 35.004c-6.327 4.028-13.015 5.566-20.086 5.639-7.148.063-13.908-1.315-19.979-5.566-.765 1.545-.284 2.734.426 3.809 1.5 2.272 3.678 3.726 6.133 4.777 8.163 3.499 16.471 3.496 24.782.73 2.241-.744 4.374-2.01 6.331-3.367 1.811-1.266 2.777-3.19 2.393-6.022m-.042-41.213a6.927 6.927 0 0 0-.994.393c-5.381 3.37-11.321 4.762-17.585 4.96-6.965.223-13.693-.629-19.778-4.428-.533-.348-1.209-.435-1.818-.643 0 .723-.16 1.506.066 2.15.29.841.734 1.76 1.385 2.31 1.51 1.259 3.068 2.563 4.817 3.409 7.224 3.496 14.801 3.576 22.462 1.84 3.404-.769 6.725-1.903 9.35-4.394 1.513-1.423 2.615-3.075 2.095-5.597M96.011 91.172c-.63 1.458-.118 3.253 1.347 4.776 2.14 2.234 4.828 3.573 7.695 4.523 6.985 2.285 14.029 2.164 21.063.229 2.867-.786 5.541-1.983 7.826-3.969 1.867-1.624 2.663-3.795 1.971-5.437-13.278 6.808-26.535 7.392-39.902-.122m-.346 10.137c.048.926-.021 1.559.131 2.129.734 2.717 2.77 4.342 5.087 5.518 9.863 4.971 19.837 4.592 29.783.32 2.078-.894 3.9-2.307 4.959-4.418.506-1.006 1.074-2.105.315-3.25-13.402 6.833-26.662 7.48-40.29-.299zm40.435 10.36c-.911.498-1.524.807-2.113 1.158a30.886 30.886 0 0 1-12.155 3.984c-8.821 1.082-17.364.4-25.06-4.7-.862-.567-1.28-.094-1.156.72.124.902.412 1.774.852 2.571 1.364 2.331 3.584 3.677 5.96 4.734 7.529 3.354 15.283 3.444 23.14 1.423 3.034-.779 5.94-1.917 8.312-4.06 1.603-1.457 2.608-3.197 2.22-5.83"/><path d="M76.188 62.291c6.65-.316 12.571 5.737 12.575 12.806 0 6.748-5.794 12.523-12.568 12.523-7.165 0-12.713-5.5-12.716-12.597.003-7.326 5.402-12.732 12.71-12.732m.059 4.87c-4.502-.017-7.844 3.281-7.868 7.796a7.684 7.684 0 0 0 2.213 5.538 7.616 7.616 0 0 0 5.5 2.258 7.788 7.788 0 0 0 5.43-2.243 7.858 7.858 0 0 0 2.337-5.41c.052-4.341-3.394-7.938-7.608-7.96z"/></g><defs><clipPath id="a"><path fill="#fff" d="M0 0h141v138H0z"/></clipPath></defs></svg>