<svg xmlns="http://www.w3.org/2000/svg" width="122" height="115" fill="none" viewBox="0 0 122 115"><g fill="#9C2BFF" clip-path="url(#a)"><path d="M76.672 21.116c2.738-2.54 5.129-5.083 7.857-7.186 2.214-1.726 4.706-3.255 7.31-4.244 3.84-1.457 7.001.3 8.317 4.224 1.262 3.773 1.38 7.706.928 11.61-.327 2.818-.984 5.607-1.629 8.384-.34 1.48-.16 2.515 1.117 3.553 4.762 3.86 8.186 8.766 10.565 14.394.581 1.37 1.294 2.036 2.876 2.041 2.907 0 5.785.375 7.19 3.52.399.892.795 1.893.792 2.845 0 4.838.064 9.686-.283 14.504-.246 3.492-2.388 5.44-5.904 5.425-2.617 0-3.616 1.157-4.895 3.273-2.683 4.438-5.98 8.5-9.054 12.694a131.32 131.32 0 0 1-4.081 5.309c-1.836 2.284-2.33 4.836-1.897 7.694.772 5.136.157 5.827-4.954 5.837-4.214 0-8.428-.015-12.639 0-1.968.012-3.609-.597-4.976-2.064-1.722-1.86-3.476-3.726-5.373-5.406-.797-.705-1.968-1.139-3.033-1.339a11.113 11.113 0 0 0-3.702 0c-.907.141-1.923.508-2.59 1.11-2.066 1.869-3.911 3.987-6.007 5.817a5.404 5.404 0 0 1-3.139 1.307c-4.954.136-9.91.067-14.867.067-1.462 0-2.627-.619-2.915-2.077-1.006-5.062-3.771-9.252-6.396-13.537-4.765-7.775-8.54-15.967-10.4-24.953-.259-1.258-.574-2.505-.861-3.758-1.142.35-2.261.87-3.427 1.008-1.815.215-3.69.43-5.49.176C2.17 70.927.132 68.227 0 65.1c-.108-2.606 2.084-5.514 4.76-6.224 1.402-.375 2.494.296 3.114 1.46.706 1.32.212 2.466-.893 3.464-.512.457-.814 1.15-1.213 1.727.724.2 1.476.646 2.163.56 3.714-.46 5.943-2.96 6.624-6.659.492-2.665 1.518-5.23 2.138-7.878.229-.987.32-2.247-.096-3.102-6.18-12.732-4.49-26.938 4.558-37.455C32.11-1.746 52.37-3.699 65.548 6.633c4.332 3.396 7.702 7.497 10.014 12.488.28.606.647 1.17 1.11 1.995M116.47 67.26h-.039v-4.1c.015-4.003-.091-4.101-4.207-3.877-3.689.202-3.96-.025-5.303-3.475-2.214-5.706-5.431-10.741-10.305-14.548-4.115-3.206-4.083-3.16-2.486-8.3 1.596-5.142 2.093-10.469 1.212-15.822-.408-2.486-1.131-2.742-3.416-1.657-.287.121-.556.28-.8.473-3.705 3.28-7.49 6.451-11.032 9.899-.935.91-1.592 2.682-1.494 3.994.566 7.398-1.084 14.22-4.949 20.467-5.222 8.419-12.791 13.693-22.57 15.168-10.882 1.64-20.465-1.553-28.497-9.15-1.176-1.113-1.535-.788-1.938.55-1.459 4.798-1.479 9.697-.721 14.568 1.407 9.074 5.638 17.014 10.152 24.831 2.157 3.741 3.95 7.691 6.017 11.489.302.56 1.18 1.082 1.825 1.127 2.098.143 4.24-.175 6.31.106 3.648.493 6.331-.804 8.471-3.664 2.81-3.756 6.418-5.7 11.237-4.829.74.09 1.487.09 2.226 0 1.803-.12 3.198.58 4.475 1.845 2.354 2.357 4.428 5.531 7.293 6.69 2.866 1.159 6.593.301 9.938.323.185 0 .374-.022.556 0 1.528.163 2.116-.476 1.995-2.037-.263-3.452.898-6.411 3.033-9.124 3.601-4.584 7.028-9.306 10.578-13.925 1.542-1.997 2.769-4.054 3.089-6.645.246-1.998 1.274-2.713 3.328-2.765a138.35 138.35 0 0 1 4.273-.02c1.23 0 1.791-.547 1.752-1.824-.045-1.914-.003-3.842-.003-5.768M73.626 33.065a28.12 28.12 0 0 0-2.138-10.786 28.066 28.066 0 0 0-6.11-9.134 27.988 27.988 0 0 0-9.142-6.078 27.933 27.933 0 0 0-10.77-2.09c-15.36.034-27.63 12.713-27.55 28.483.068 14.887 12.818 27.502 27.7 27.406 15.615-.104 28.067-12.458 28.01-27.8"/><path d="M90.745 47.787c4.113-.02 7.743 2.917 8.491 6.411.278 1.302.05 2.43-1.345 2.856-1.395.426-2.26-.368-2.623-1.667-.587-2.111-1.967-3.346-4.1-3.438-1.769-.076-3.045.987-3.793 2.55-.647 1.349-1.611 1.884-2.991 1.378-1.12-.411-1.37-1.943-.574-3.43 1.597-2.98 4.116-4.522 6.935-4.66m-45.222 8.28c-14.184-.231-24.447-12.3-22.631-26.631.172-1.374.322-2.96 2.302-2.651 1.884.283 1.752 1.802 1.587 3.205-1.05 8.9 3.289 17.143 11.263 20.517 7.599 3.205 14.794 2.1 20.843-3.623 5.658-5.36 7.517-12.083 5.166-19.584-4.071-12.943-18.791-17.67-29.79-9.723-.452.325-.89.676-1.343 1.001-.996.72-2.06 1.05-2.983-.017-.984-1.142-.542-2.18.492-3.058 4.164-3.524 8.983-5.521 14.412-5.708C59.108 9.3 70.382 21.138 68.83 35.373 67.524 47.378 57.689 56.28 45.523 56.067"/></g><defs><clipPath id="a"><path fill="#fff" d="M0 0h122v115H0z"/></clipPath></defs></svg>