<svg xmlns="http://www.w3.org/2000/svg" width="102" height="127" fill="none" viewBox="0 0 102 127"><g fill="#9C2BFF" clip-path="url(#a)"><path d="M40.395 65.235c-9.096 0-18.191.095-27.284-.037-5.633-.082-9.815-2.827-12.087-8.064-2.457-5.717-.384-12.23 4.885-15.693.934-.614 1.15-1.268.975-2.242-1.24-6.964-2.478-13.93-3.713-20.9-.307-1.73-.594-3.461-.904-5.188-.406-2.273.174-3.199 2.393-3.608 4.679-.846 9.365-1.65 14.045-2.472 6.816-1.196 13.63-2.379 20.433-3.626.46-.085.993-.59 1.21-1.031.6-1.214 1.623-1.74 2.734-1.328C47.9 2.836 52.464.814 57.106.258c.42-.052.83-.18 1.25-.22 1.75-.162 2.814.42 2.843 2.145.053 3.02 1.645 3.866 4.307 4.487 10.237 2.392 20.422 5.057 30.626 7.619 2.242.562 2.764 1.304 2.218 3.538a2500.743 2500.743 0 0 1-5.612 22.567c-.35 1.372-.243 2.374.804 3.449 2.605 2.672 3.314 6.093 3.327 9.703.02 7.405.013 14.81.02 22.214 0 2.276.013 2.276 2.227 2.302 2.213.026 2.879.662 2.881 2.835.014 7.297.014 14.6 0 21.907 0 2-.719 2.835-2.64 2.714-1.825-.108-2.626.219-3.105 2.371-1.28 5.722-6.311 9.451-12.161 9.621a2.366 2.366 0 0 1-.476 0c-2.117-.324-3.286.366-4.254 2.549-2.116 4.768-6.398 6.812-11.32 6.851-18.187.134-36.377.142-54.57.023-7.35-.049-12.703-5.232-13.3-12.59-.2-2.436-.15-4.897-.153-7.346C.006 95.812.004 84.626.013 73.438c0-2.598.58-3.549 2.152-3.585 1.536-.036 2.163 1.008 2.163 3.567 0 12.887.023 25.773-.013 38.675 0 3.823 1.057 7.17 4.45 9.114a11.743 11.743 0 0 0 5.567 1.433c16.814.103 33.628.056 50.442.051 1.057 0 2.116.016 3.173-.015 4.847-.147 8.512-3.678 8.755-8.544.12-2.392 0-4.794.087-7.188.036-1.157-.46-1.4-1.512-1.431-3.002-.082-6.053 0-8.99-.515-5.362-.948-9.434-5.698-10.279-11.42-.767-5.23 1.91-10.825 6.398-13.49a14.4 14.4 0 0 1 7.709-2.046c1.791.018 3.598.07 5.39-.018.43-.02 1.18-.516 1.202-.822.256-3.712-.09-7.248-3.16-9.908-1.692-1.466-3.673-2.061-5.846-2.061-9.109-.02-18.21-.02-27.306 0m40.243 5.007.382-.1c.703-2.835 1.415-5.67 2.116-8.505l7.355-29.882c.968-3.92 1.945-7.837 2.933-11.75.317-1.26.228-2.157-1.372-2.345-1.146-.132-2.265-.516-3.393-.797-14.306-3.587-28.61-7.183-42.91-10.786-1.316-.332-1.887-.131-2.214 1.289-1.308 5.637-2.72 11.25-4.108 16.86-2.746 11.14-5.517 22.274-8.243 33.418-.824 3.366-.768 3.333 2.613 3.3 1.236-.014 1.692-.467 1.986-1.686 2.736-11.32 5.561-22.619 8.343-33.926.476-1.933 1.11-2.476 3.132-2.304 2.634.227 4.471-.997 5.782-3.141.496-.88.924-1.797 1.28-2.743.511-1.216 1.386-1.69 2.653-1.464.727.13 1.456.274 2.173.454 5.584 1.405 11.163 2.835 16.753 4.227 3.23.801 3.393 1.082 3.07 4.322-.273 2.704.513 6.023 3.88 7.286 1.61.606 1.935 1.547 1.498 3.33-.896 3.608-1.791 7.223-2.685 10.843-.471 1.917-1.231 2.502-2.84 2.154-1.373-.298-1.864-1.4-1.429-3.172.68-2.789 1.392-5.572 1.999-8.38.115-.515 0-1.401-.346-1.672-3.035-2.366-4.399-5.484-4.44-9.278 0-.838-.32-1.302-1.246-1.52a521.765 521.765 0 0 1-13.986-3.498c-1.124-.3-1.73-.088-2.303.946-1.61 2.946-4.026 4.943-7.353 5.549-1.267.229-1.728.827-2.017 2.015-2.318 9.567-4.714 19.114-7.058 28.673-.699 2.858-1.303 3.072 2.362 2.98.37-.027.74-.027 1.11 0 1.321.164 1.713-.42 1.73-1.725.067-4.693 2.304-8.18 6.37-10.31 7.463-3.891 16.124 1.622 16.38 10.387.04 1.268.435 1.714 1.66 1.944 4.587.86 7.824 3.523 9.754 7.801.202.423.424.81.63 1.206m2.048 30.995c4.386 0 8.775-.062 13.16.034 1.486.031 1.921-.459 1.903-1.91a597.231 597.231 0 0 1 .013-15.338c.018-1.373-.545-1.724-1.791-1.721-8.776.028-17.552 0-26.325 0a9.19 9.19 0 0 0-5.886 2.048c-3.07 2.475-4.37 6.823-3.16 10.34a9.68 9.68 0 0 0 3.51 4.72 9.57 9.57 0 0 0 5.577 1.794c4.333.085 8.666.033 13.001.033zM38.923 8.057c-.449-.03-.9-.03-1.349 0-9.679 1.737-19.35 3.495-29.039 5.139-1.505.258-1.791.843-1.559 2.196.906 5.023 1.759 10.051 2.639 15.085 1.571 8.956 3.181 17.907 4.717 26.871.627 3.711.537 3.69 4.273 3.608 1.065-.02 1.295-.484 1.14-1.386l-2.65-15.088c-.767-4.345-1.555-8.686-2.239-13.044-.343-2.193.06-2.703 2.048-3.508a6.833 6.833 0 0 0 1.382-.75c2.07-1.474 2.628-3.608 2.58-6.025-.072-3.35.1-3.534 3.388-4.124 3.954-.701 7.91-1.392 11.857-2.129.46-.087 1.156-.366 1.256-.7.57-1.947 1.021-3.954 1.548-6.145zm-2.838 11.41c-3.445.613-6.49 1.183-9.548 1.68-.958.157-1.28.606-1.385 1.546-.407 3.596-1.815 6.642-4.898 8.75a2.062 2.062 0 0 0-.697 1.686c1.512 8.912 3.08 17.816 4.707 26.711.074.402.594.724.908 1.085.34-.342.878-.629.993-1.03.592-2.099 1.07-4.227 1.595-6.343l6.324-25.516c.668-2.722 1.274-5.454 2-8.57M91.62 48.245l-.663.064a10.86 10.86 0 0 0-.422 1.147 3950.759 3950.759 0 0 0-3.37 13.619 24063.27 24063.27 0 0 0-3.197 13.005c-.438 1.804-.294 1.987 1.45 1.99 1.851 0 3.701-.052 5.55.018 1.14.04 1.591-.307 1.583-1.531-.046-8.093.013-16.186-.074-24.279-.013-1.348-.558-2.688-.857-4.033M57.28 60.928c1.792 0 3.583-.041 5.375 0 1.139.033 1.648-.392 1.63-1.572-.054-3.791-3.071-7.199-6.992-7.142-3.92.057-7.048 3.093-7.076 7.041 0 1.201.397 1.75 1.671 1.69 1.8-.076 3.596-.017 5.392-.017m35.026 44.629c-3.552 0-6.974-.031-10.393.054-.284 0-.768.773-.786 1.209-.09 1.59.046 3.198-.049 4.788-.076 1.289.394 1.771 1.638 1.601.471-.065.955 0 1.426-.052 4.473-.376 7.593-3.178 8.164-7.6m-81.813-45.43c-.852-4.844-1.7-9.64-2.56-14.544-3.07 1.719-4.197 6.072-3.237 9.18.865 2.837 3.473 5.407 5.797 5.363"/><path d="M71.269 84.137c4.095.082 7.473 3.644 7.393 7.793-.094 4.204-3.677 7.689-7.81 7.54-4.133-.15-7.483-3.622-7.422-7.635a7.778 7.778 0 0 1 .61-2.986 7.735 7.735 0 0 1 1.707-2.518 7.671 7.671 0 0 1 2.542-1.656 7.63 7.63 0 0 1 2.98-.538m-3.509 7.732a3.233 3.233 0 0 0 .921 2.302 3.188 3.188 0 0 0 2.276.955c1.837.036 3.411-1.453 3.434-3.247a3.437 3.437 0 0 0-1-2.43 3.389 3.389 0 0 0-2.419-.993c-1.873.05-3.222 1.472-3.212 3.42z"/></g><defs><clipPath id="a"><path fill="#fff" d="M0 0h102v127H0z"/></clipPath></defs></svg>