<svg xmlns="http://www.w3.org/2000/svg" width="161" height="120" fill="none" viewBox="0 0 161 120"><g fill="#9C2BFF" clip-path="url(#a)"><path d="M161.016 89.663c-.656 1.265-1.683 1.752-3.098 1.667-3.526-.212-7.052-.364-10.571-.538 2.52 3.935 1.711 8.72 1.783 13.379.063 4.257.022 8.514 0 12.774 0 2.283-.75 3.036-2.996 3.036H86.072c-2.347 0-3.075-.743-3.078-3.118 0-6.256-.142-12.515.066-18.765.088-2.6.917-5.17 1.352-7.467l-9.258.933c1.409 8.223.41 16.658.678 25.068.085 2.698-.63 3.352-3.3 3.352h-49.53c-.42.021-.842.009-1.26-.038-1.172-.193-1.89-.892-1.982-2.097-.092-1.204.44-2.068 1.575-2.403a7.355 7.355 0 0 1 2.017-.187h47.756v-2.176c0-5.256.029-10.513 0-15.772-.04-6.24-4.266-10.437-10.496-10.488-2.089-.016-4.18 0-6.358 0-.835 3.856-2.704 6.98-5.899 9.216a13.624 13.624 0 0 1-7.956 2.53c-6.728.029-10.868-3.37-14.126-11.683-2.596 0-5.228-.17-7.827.038-4.412.351-8.417 3.796-8.672 8.223-.381 6.642-.097 13.312-.097 20.058.542.013 1.082.056 1.62.13 1.294.244 2.05 1.047 2.088 2.379.035 1.265-.945 2.213-2.322 2.28a52.534 52.534 0 0 1-3.93 0c-1.442-.038-2.344-.895-2.344-2.258 0-7.67-.245-15.365.284-23.003.485-7.005 6.875-12.385 13.905-12.603 1.623-.048 3.246 0 5.278 0-.608-.484-.923-.766-1.26-1.003-6.135-4.266-10.19-10.02-12.324-17.18-.16-.534-.677-1.224-1.16-1.353-5.3-1.458-8.624-4.808-9.377-10.25-.727-5.254 1.497-9.293 5.987-12.067.13-.079.243-.186.429-.316-2.014-8.65-2.294-17.458-2.14-26.295.06-3.143 1.223-3.991 4.153-3.055 1.692.544 3.372 1.145 5.09 1.607.425.114 1.203-.054 1.43-.37C20.797 3.862 28.787.598 38.322.095c8.716-.459 16.962.633 24.165 6.01 8.467 6.325 12.989 14.779 13.323 25.402.088 2.847 0 5.693.047 8.517 0 .49.063 1.164.372 1.436 2.385 2.09 3.756 4.72 4.411 7.837.403-1.24 1.613-1.86 1.531-3.548-.258-5.336-.453-10.696 1.094-15.956 3.879-13.166 15.887-22.427 29.531-22.528 1.969-.016 3.936.095 5.914.066 9.305-.13 17.088 3.536 23.352 10.437 1.069 1.174 1.018 2.581 0 3.505-1.017.923-2.334.794-3.481-.339-.149-.148-.287-.316-.432-.458a26.191 26.191 0 0 0-13.836-7.907 28.038 28.038 0 0 0-3.416-.49c-1.244-.114-2.568-.506-3.028 1.43-.12.502-1.38 1.093-2.032 1.008a2.836 2.836 0 0 1-1.944-1.464c-.388-.974-.886-1.091-1.752-1.063-13.714.459-25.092 12.018-25.366 25.789-.031 1.676 0 3.35 0 5.108.371.063.746.105 1.122.126 4.411 0 8.804.044 13.206 0 6.891-.073 11.973-4.924 12.484-11.828.139-1.898.999-2.935 2.404-2.939 1.405-.003 2.19.968 2.385 2.93.026.259.054.521.086.784.781 6.388 5.823 10.952 12.263 11.05 2.937.047 5.87 0 8.807 0h5.672c.227-4.045.148-7.992-.986-11.863-.133-.453-.315-.892-.422-1.35-.331-1.459.267-2.604 1.553-3.021a2.178 2.178 0 0 1 2.543.778c.186.26.313.558.372.873.69 3.004 1.399 6.044 1.644 9.102.24 2.957-.107 5.962-.157 8.944.032.355.167.692.387.971 2.449 3.48 2.739 7.167 1.207 11.152.227.164.457.364.712.515 4.727 2.825 7.645 6.911 8.688 12.335.076.3.172.595.286.882zM18.755 31.583c-1.664 1.942-3.23 5.61-3.945 9.216-.423 2.097-.946 2.584-2.994 2.723-4.096.276-7.064 3.255-7.099 7.158-.032 3.975 2.962 7.087 7.096 7.372 2.076.14 2.587.572 2.974 2.505 2.47 12.382 12.973 21.133 25.4 21.174 12.513.038 23.003-8.64 25.571-21.136.397-1.936.945-2.413 2.965-2.53 2.206-.14 4.096-.95 5.47-2.689 1.86-2.35 2.206-4.981.945-7.688-1.26-2.708-3.5-4.134-6.506-4.144-10.008-.022-20.012 0-30.02-.028-1.675.02-3.348-.12-4.997-.414-6.788-1.332-11.63-5.257-14.86-11.519m-8.042 5.187c.158-.136.268-.187.315-.269.123-.29.218-.591.316-.885 1.377-3.796 3.318-7.275 6.094-10.194a4.064 4.064 0 0 1 2.659-1.19c1.226 0 1.667 1.152 1.96 2.313 1.383 5.487 4.698 9.434 10.045 11.196 2.521.832 5.357.974 8.038 1.006 9.223.11 18.446.031 27.67.025h3.308c0-2.445.04-4.804 0-7.164a27.446 27.446 0 0 0-5.796-16.346 27.275 27.275 0 0 0-14.42-9.569c-4.797-1.303-9.646-.968-14.518-.632-8.025.543-14.129 4.162-18.345 11.018-1.024 1.69-1.748 1.949-3.664 1.36-1.714-.528-3.425-1.069-5.256-1.644-.066 7.18.224 14.087 1.594 20.975m105.243 2.6c-4.045 6.082-9.597 8.647-16.599 8.368-2.877-.114-5.763-.044-8.643 0-3.419.038-6.01 2.458-6.286 5.804-.275 3.26 2.029 6.098 5.4 6.642 3.114.512 3.114.512 3.841 3.675 2.751 11.835 14.87 19.722 26.699 17.107 9.645-2.122 15.698-8.15 18.027-17.819.45-1.863.989-2.846 3.327-2.973 3.567-.177 5.93-3.061 5.782-6.569-.142-3.327-2.836-5.857-6.355-5.889-3.561-.032-7.125.044-10.685-.028-5.407-.108-9.79-2.366-13.2-6.553-.41-.51-.788-1.07-1.308-1.765m-12.893 48.728c-1.834 0-3.608-.02-5.382 0-5.852.07-9.945 4.197-9.97 10.082-.025 5.203 0 10.406 0 15.605 0 .456.057.908.088 1.37h56.498c0-6.383.207-12.686-.076-18.976-.17-3.755-3.495-7.113-7.247-7.746-2.6-.436-5.291-.335-7.897-.471-1.761 8.624-6.425 13.024-13.382 12.825-6.819-.177-11.564-4.874-12.632-12.69m52.911-1.638c0-4.937.362-9.887-.113-14.755-.385-3.95-3.054-6.818-6.573-8.71-.375-.199-.93-.382-1.276-.246-1.598.616-3.151 1.347-4.727 2.052a.857.857 0 0 0-.438.402c-.794 2.157-1.991 4.273-2.262 6.5-1.122 9.165 6.292 16.088 15.389 14.757m-80.145.1c1.172 0 2.205.032 3.255 0a12.863 12.863 0 0 0 7.578-2.837 12.944 12.944 0 0 0 4.402-6.812c.87-3.254.23-6.234-1.097-9.276-.74-1.692-1.26-3.163-3.334-3.479a4.68 4.68 0 0 1-2.07-1.066c-.706-.563-1.26-.471-1.976-.076-3.78 2.107-6.302 5.27-6.683 9.536-.39 4.573-.085 9.21-.085 14.01zm-4.818-.584c0-4.245-.073-8.012 0-11.775.154-6.427 3.09-11.316 8.42-14.811.387-.253.78-.5 1.184-.76l-.945-3.162c-1.784 3.567-4.37 5.98-8.108 6.888-1.071.26-1.512.7-1.815 1.75A30.334 30.334 0 0 1 57.773 80.95c-.406.285-.8.591-1.597 1.186 5.47-.262 10.433-.155 14.825 3.84zm36.958-.997c-.416 4.223.217 7.84 4.042 10.023 2.947 1.683 5.959 1.521 8.732-.44 3.315-2.343 3.753-5.778 3.334-9.605a28.075 28.075 0 0 1-16.118.022zm-76.856.098c.157 5.111 4.572 8.935 9.724 8.72 4.692-.18 8.876-4.358 8.633-8.72-6.062 1.822-12.15 1.8-18.357 0m64.784-7.249-2.609 5.858 9.749-.462a6056.4 6056.4 0 0 0-7.14-5.386zm42.81 5.927-2.65-5.923-7.292 5.534c1.866 0 3.466-.05 5.042.016 1.667.067 3.324.247 4.9.373"/><path d="M40.238 72.724a8.27 8.27 0 0 1-5.63-2.203 8.33 8.33 0 0 1-2.644-5.454c-.123-1.733.608-2.847 2.004-3.043 1.396-.196 2.52.709 2.63 2.448.184 2.922 3.57 4.668 5.871 2.717.75-.633 1.175-1.812 1.443-2.824.42-1.582 1.286-2.499 2.606-2.35 1.396.155 2.256 1.37 2.114 2.979a8.396 8.396 0 0 1-2.68 5.524 8.336 8.336 0 0 1-5.714 2.206m16.19-19.906c.041.948.033 1.898-.025 2.846-.148 1.404-1.131 2.252-2.417 2.157-1.342-.101-2.143-.876-2.206-2.214a72.754 72.754 0 0 1 0-5.503c.06-1.35.892-2.11 2.244-2.138 1.352-.029 2.18.721 2.338 2.046a24.1 24.1 0 0 1 .04 2.806zm-32.272 0c0-.95-.067-1.898.018-2.847.104-1.199.839-1.898 2.033-2.015 1.26-.123 2.328.443 2.439 1.686a37.945 37.945 0 0 1 0 6.417c-.101 1.24-1.157 1.85-2.414 1.73-1.257-.12-1.998-.879-2.08-2.154-.063-.948 0-1.897 0-2.846zm91.857 21.057c-4.074 0-7.578-3.293-7.77-7.335-.069-1.46.74-2.565 2.013-2.745 1.381-.19 2.392.633 2.672 2.214.363 2.037 1.456 3.144 3.092 3.122 1.575-.022 2.583-1.047 2.98-3.046.316-1.635 1.261-2.445 2.625-2.3 1.365.146 2.118 1.193 2.042 2.847-.183 3.979-3.614 7.23-7.654 7.243M105.955 55.86c0 .838.057 1.683 0 2.514-.11 1.325-1.166 2.312-2.388 2.214-1.311-.104-2.102-.863-2.275-2.182-.069-.515.072-1.072-.054-1.562a2.36 2.36 0 0 0-.74-1.297c-1.034-.721-1.488-1.616-1.144-2.824.343-1.209 1.219-1.632 2.382-1.645.52 0 1.046-.022 1.576 0 1.837.07 2.634.882 2.678 2.732.016.684 0 1.364 0 2.047zm20.063.013c0-.26.015-.522 0-.785-.29-4.326 1.575-4.206 4.663-3.896.715.07 1.721.977 1.891 1.676.17.699-.278 1.986-.873 2.382-.876.585-1.018 1.182-.974 2.049.025.366.013.734-.034 1.098-.199 1.337-1.217 2.251-2.427 2.213-1.21-.038-2.149-.996-2.231-2.372-.044-.784 0-1.581 0-2.356z"/></g><defs><clipPath id="a"><path fill="#fff" d="M0 0h161v120H0z"/></clipPath></defs></svg>