<svg width="291" height="62" viewBox="0 0 291 62" fill="none" xmlns="http://www.w3.org/2000/svg">
<g clip-path="url(#clip0_1_116)">
<path d="M203.018 28.5678L199.555 32.895L195.952 28.3572V43.691C195.952 44.5986 195.919 44.6357 195.028 44.6357C193.437 44.6357 191.845 44.6218 190.254 44.6357C189.677 44.6357 189.448 44.4574 189.451 43.8276C189.469 35.2566 189.469 26.6902 189.451 18.1284C189.451 17.5218 189.628 17.3042 190.242 17.3227C191.524 17.3597 192.807 17.3621 194.088 17.3227C194.348 17.2987 194.61 17.3478 194.843 17.4643C195.077 17.5808 195.274 17.7603 195.411 17.9825C196.616 19.6773 197.861 21.3443 199.093 23.0182C199.22 23.1918 199.361 23.3562 199.567 23.6109C200.409 22.4764 201.21 21.4022 202.007 20.3256C202.642 19.4712 203.249 18.5984 203.918 17.7788C204.126 17.5384 204.418 17.3881 204.733 17.3597C206.148 17.3157 207.564 17.3597 208.979 17.332C209.466 17.332 209.627 17.4963 209.627 17.9872C209.617 26.6462 209.617 35.3052 209.627 43.9642C209.627 44.5245 209.397 44.6588 208.923 44.6588C207.287 44.6588 205.652 44.6357 204.015 44.6588C203.387 44.6588 203.159 44.4504 203.166 43.8161C203.191 41.4452 203.166 39.0767 203.166 36.7059V28.6165L203.018 28.5678Z" fill="white"/>
<path d="M145.278 30.9827C145.278 35.1687 145.278 39.3546 145.278 43.5406C145.278 44.6982 145.385 44.5477 144.235 44.5547C142.709 44.5547 141.183 44.5199 139.659 44.5709C138.967 44.594 138.796 44.3579 138.798 43.705C138.817 37.903 138.798 32.101 138.798 26.2989C138.798 25.7664 138.78 25.2339 138.798 24.7037C138.819 24.2407 138.657 24.0647 138.189 24.0763C137.171 24.1018 136.153 24.1064 135.137 24.0763C134.624 24.0601 134.502 24.2731 134.507 24.7454C134.525 26.8291 134.507 28.9129 134.507 30.9966C134.507 35.2497 134.493 39.5005 134.523 43.7536C134.523 44.425 134.317 44.6589 133.662 44.6427C131.963 44.5963 130.259 44.5755 128.557 44.5686C128.149 44.5686 127.994 44.4042 128.022 44.0152C128.022 43.8833 128.022 43.7513 128.022 43.617C128.022 35.1802 128.022 26.7427 128.022 18.3044C128.022 17.3297 128.022 17.3274 129.019 17.3274C134.149 17.3274 139.276 17.3274 144.406 17.3135C145.064 17.3135 145.276 17.4848 145.271 18.1678C145.262 22.4348 145.278 26.7088 145.278 30.9827Z" fill="white"/>
<path d="M186.69 29.9153C186.676 34.217 186.239 37.3681 184.66 40.2621C182.76 43.735 179.422 45.2584 175.631 44.8625C171.52 44.4319 169.167 41.9245 167.84 38.2386C167.092 36.1549 166.817 34.0063 166.753 31.7999C166.67 29.0216 166.912 26.2827 167.84 23.6456C168.678 21.2609 169.978 19.1841 172.296 18.0103C176.818 15.7228 182.816 16.9707 185.198 22.6894C186.152 24.98 186.658 27.4331 186.69 29.9153ZM173.475 30.9363C173.54 31.9272 173.503 32.939 173.706 33.9045C173.886 34.9658 174.227 35.9933 174.717 36.9513C175.652 38.6229 177.788 38.572 178.755 36.912C179.095 36.3197 179.349 35.682 179.51 35.0181C180.028 32.7506 180.106 30.4043 179.741 28.1071C179.567 26.9985 179.219 25.9246 178.709 24.9259C178.577 24.6421 178.385 24.3909 178.146 24.19C177.906 23.9892 177.626 23.8437 177.324 23.7639C177.023 23.6841 176.707 23.672 176.4 23.7283C176.093 23.7847 175.802 23.9083 175.548 24.0901C174.983 24.54 174.539 25.1252 174.258 25.7918C173.554 27.4218 173.496 29.1721 173.475 30.9363Z" fill="white"/>
<path d="M258.181 44.5222H251.99C251.976 44.2745 251.951 44.0406 251.951 43.8068C251.951 35.2357 251.946 26.6647 251.937 18.0936C251.937 17.4755 252.121 17.2949 252.724 17.3088C254.271 17.3435 255.82 17.3458 257.366 17.3088C257.99 17.2949 258.204 17.4616 258.198 18.1191C258.161 20.8442 258.198 23.5692 258.17 26.2919C258.17 26.8707 258.334 27.0837 258.922 27.056C259.76 27.0143 260.603 27.056 261.443 27.056C262.334 27.056 262.339 27.056 262.339 26.1831C262.339 23.5684 262.339 20.9553 262.339 18.3437C262.339 17.3366 262.339 17.3342 263.318 17.3342C264.844 17.3342 266.37 17.3528 267.894 17.3342C268.445 17.3342 268.674 17.4546 268.672 18.0682C268.653 26.684 268.653 35.299 268.672 43.9133C268.672 44.4342 268.526 44.6078 268 44.5893C266.384 44.5592 264.768 44.5476 263.152 44.5893C262.491 44.6078 262.321 44.3717 262.325 43.7558C262.346 40.7205 262.325 37.6876 262.348 34.6523C262.348 33.9785 262.157 33.7493 261.483 33.7933C260.666 33.8477 259.847 33.8477 259.031 33.7933C258.368 33.7517 258.151 33.9484 258.161 34.6384C258.195 37.6482 258.174 40.658 258.174 43.6679L258.181 44.5222Z" fill="white"/>
<path d="M291 44.5569H290.148C288.301 44.5569 286.434 44.5106 284.58 44.5778C283.806 44.6056 283.518 44.3254 283.301 43.6239C282.347 40.5423 281.336 37.4769 280.351 34.4046C280.24 34.0573 280.159 33.7609 279.672 33.747C279.088 33.7308 278.855 33.8767 278.862 34.5203C278.894 37.6205 278.862 40.7206 278.889 43.8207C278.889 44.3995 278.739 44.5847 278.148 44.5685C276.532 44.5292 274.916 44.5245 273.3 44.5685C272.661 44.587 272.518 44.337 272.52 43.7628C272.536 39.7551 272.52 35.7474 272.52 31.7397C272.52 27.225 272.52 22.7087 272.52 18.1909C272.52 17.3505 272.552 17.3204 273.367 17.3181C274.937 17.3181 276.507 17.3389 278.074 17.3181C278.668 17.3065 278.882 17.4755 278.875 18.1029C278.843 20.8025 278.855 23.5044 278.875 26.2063C278.875 26.5142 278.675 26.9611 279.245 27.0444C279.778 27.1231 280.071 26.9472 280.265 26.3892C281.23 23.6109 282.262 20.8604 283.227 18.0844C283.43 17.4986 283.716 17.3019 284.326 17.3157C286.027 17.3551 287.731 17.3157 289.432 17.332C289.689 17.332 289.945 17.3574 290.298 17.3759C290.192 17.7325 290.127 18.0057 290.03 18.265C288.636 22.0388 287.237 25.8104 285.833 29.5796C285.741 29.8016 285.694 30.0396 285.694 30.28C285.694 30.5204 285.741 30.7584 285.833 30.9803C287.473 35.2296 289.099 39.4827 290.711 43.7397C290.801 43.9527 290.88 44.1819 291 44.5569Z" fill="white"/>
<path d="M213.617 30.934C213.617 26.6832 213.617 22.4324 213.603 18.1816C213.603 17.5195 213.79 17.3018 214.466 17.3065C218.776 17.3343 223.085 17.3343 227.394 17.3065C228.041 17.3065 228.223 17.5102 228.209 18.14C228.17 19.8671 228.175 21.5943 228.209 23.3215C228.209 23.898 228.043 24.0971 227.459 24.0901C225.227 24.0624 222.994 24.104 220.764 24.0647C220.101 24.0647 219.912 24.2962 219.963 24.9051C220.008 25.4792 220.008 26.0559 219.963 26.63C219.914 27.2342 220.108 27.4611 220.739 27.4287C222.152 27.3555 223.565 27.5689 224.894 28.0562C227.602 29.0401 229.114 31.0058 229.511 33.8443C229.869 36.3355 229.673 38.7595 228.297 40.9405C226.812 43.2974 224.543 44.4134 221.849 44.5384C219.379 44.6565 216.897 44.5384 214.422 44.5778C213.79 44.5778 213.589 44.4088 213.594 43.7628C213.628 39.4796 213.617 35.208 213.617 30.934ZM219.97 35.9512C219.97 36.7036 220.007 37.4561 219.958 38.2062C219.919 38.8221 220.131 39.0767 220.743 38.9772C220.916 38.9494 221.094 38.9401 221.263 38.8961C222.669 38.5141 223.315 37.4746 223.315 35.678C223.315 33.629 222.216 33.0525 220.545 32.99C220.12 32.9737 219.947 33.1289 219.958 33.5641C219.986 34.3583 219.97 35.1547 219.97 35.9512Z" fill="white"/>
<path d="M246.184 44.6843C245.3 44.6843 244.415 44.6657 243.531 44.6843C243.046 44.6982 242.866 44.4713 242.802 44.0314C242.633 42.8969 242.437 41.7647 242.268 40.6303C242.206 40.2228 242.054 39.9913 241.592 40.0005C240.574 40.0237 239.558 40.019 238.54 40.0005C238.101 40.0005 237.926 40.1695 237.866 40.6141C237.716 41.7508 237.51 42.8807 237.33 44.0152C237.256 44.4643 237.058 44.6935 236.543 44.6843C234.819 44.6565 233.094 44.6634 231.37 44.6843C230.841 44.6843 230.677 44.5291 230.783 43.9735C232.501 35.3299 234.206 26.6863 235.899 18.0427C235.998 17.5357 236.231 17.3481 236.744 17.3481C238.954 17.3636 241.165 17.3636 243.376 17.3481C243.896 17.3481 244.127 17.5449 244.224 18.0427C245.463 24.3711 246.709 30.6994 247.961 37.0277C248.423 39.3661 248.864 41.7115 249.346 44.0453C249.45 44.5407 249.303 44.6958 248.836 44.6912C247.952 44.6704 247.068 44.6843 246.184 44.6843ZM240.11 26.8198L240.013 26.8036C239.745 28.6743 239.45 30.5404 239.214 32.4135C239.034 33.8674 239.066 33.8535 240.528 33.8142C241.038 33.8003 241.109 33.5827 241.043 33.1451C240.724 31.0243 240.419 28.9221 240.11 26.8129V26.8198Z" fill="white"/>
<path d="M109.475 44.5569H105.536C104.921 44.5282 104.304 44.5328 103.689 44.5708C103.08 44.6356 102.928 44.3207 102.851 43.8322C102.678 42.7209 102.468 41.6142 102.323 40.5006C102.265 40.0375 102.092 39.8893 101.646 39.8986C100.698 39.9148 99.7441 39.9472 98.7976 39.887C98.1628 39.8453 97.9989 40.151 97.9227 40.6765C97.7588 41.7902 97.5879 42.9038 97.3686 44.0082C97.3271 44.2142 97.05 44.5268 96.8792 44.5291C94.9354 44.5638 92.9893 44.5476 91.0454 44.5291C90.9527 44.5085 90.8627 44.4766 90.7776 44.4342C91.0131 43.2163 91.2501 41.9939 91.4887 40.7668C92.84 33.926 94.192 27.0845 95.5448 20.2422C95.7018 19.4411 95.8796 18.6446 96.0273 17.8412C96.092 17.4824 96.2443 17.3041 96.6368 17.3064C98.9777 17.3157 101.319 17.3157 103.662 17.3064C104.107 17.3064 104.211 17.568 104.283 17.9223C105.162 22.3845 106.043 26.8445 106.928 31.3021C107.749 35.4572 108.565 39.6146 109.378 43.7743C109.412 43.9896 109.426 44.2212 109.475 44.5569ZM100.141 26.4123C99.7834 28.8549 99.4486 31.1169 99.137 33.3812C99.1208 33.4993 99.3678 33.7609 99.5064 33.7725C100.026 33.8211 100.552 33.791 101.182 33.791C100.836 31.3368 100.501 28.9683 100.141 26.4123Z" fill="white"/>
<path d="M148.607 30.9456C148.607 26.718 148.607 22.4888 148.607 18.2581C148.607 17.332 148.607 17.332 149.515 17.332C151.858 17.332 154.201 17.3644 156.544 17.332C161.575 17.2509 164.183 20.4205 165.01 24.3611C165.714 27.7251 165.01 30.8437 162.671 33.4368C161.321 34.9417 159.543 35.6155 157.532 35.6641C156.957 35.678 156.378 35.6965 155.808 35.6641C155.238 35.6317 155.076 35.8146 155.081 36.3749C155.106 38.8313 155.092 41.2901 155.092 43.7489C155.092 44.6218 155.078 44.6496 154.208 44.6449C152.53 44.6334 150.851 44.5801 149.171 44.587C148.527 44.587 148.607 44.1796 148.607 43.786C148.607 39.5012 148.607 35.2211 148.607 30.9456ZM155.094 26.5258C155.094 27.2991 155.124 28.0747 155.094 28.8411C155.062 29.4129 155.293 29.5981 155.826 29.5356C156.057 29.5078 156.311 29.5356 156.553 29.5356C157.301 29.4777 157.957 29.2138 158.266 28.4868C158.545 27.8717 158.692 27.2047 158.697 26.529C158.702 25.8534 158.566 25.1842 158.296 24.5648C158.178 24.2753 157.978 24.0263 157.722 23.848C157.466 23.6697 157.163 23.5696 156.851 23.56C156.436 23.5252 156.013 23.56 155.593 23.5415C155.212 23.5276 155.097 23.7174 155.101 24.0716C155.104 24.8912 155.094 25.6993 155.094 26.5258Z" fill="white"/>
<path d="M112.03 23.8841C111.986 23.0668 111.933 22.3236 111.913 21.5688C111.887 20.5524 111.892 19.5337 111.871 18.515C111.871 18.1469 111.938 17.8667 112.351 17.7695C114.955 17.1675 117.564 16.8434 120.2 17.5959C122.717 18.3229 124.614 20.7701 124.871 23.384C125.076 25.4909 124.697 27.4033 123.317 29.017C122.74 29.693 121.973 30.2024 121.262 30.8136C121.321 30.8823 121.391 30.9396 121.47 30.9826C123.806 32.0291 124.988 33.8582 125.275 36.3795C125.526 38.5859 125.134 40.6094 123.827 42.3991C122.62 44.0661 120.905 44.9459 118.924 45.2723C116.558 45.6891 114.123 45.3767 111.938 44.3763C111.391 44.124 111.155 43.8045 111.176 43.1655C111.227 41.5564 111.192 39.9473 111.192 38.234C112.204 38.4863 112.993 38.7572 113.806 38.8684C114.592 38.9848 115.389 38.9996 116.179 38.9123C116.776 38.8235 117.319 38.5119 117.697 38.0399C118.076 37.5679 118.263 36.97 118.222 36.3656C118.167 35.1362 117.25 34.2425 115.913 34.173C115.032 34.1267 114.145 34.1383 113.261 34.1453C112.82 34.1453 112.635 33.9901 112.64 33.5201C112.663 31.9041 112.663 30.288 112.64 28.672C112.64 28.1928 112.831 28.0562 113.27 28.0654C114.02 28.0816 114.773 28.0816 115.523 28.0654C117.227 28.0191 118.356 26.6508 118.077 24.9931C117.896 23.9258 116.892 23.1131 115.569 23.1663C114.646 23.2057 113.709 23.472 112.781 23.6479C112.545 23.7081 112.321 23.7984 112.03 23.8841Z" fill="white"/>
<path d="M-0.000159529 30.9478C-0.205622 14.2688 13.8697 -0.68308 32.0659 0.0230703C47.8888 0.638926 61.9504 14.0164 61.5625 31.8207C61.2047 48.3237 47.3463 62.6806 29.4341 61.9744C13.3226 61.3378 -0.175611 47.7125 -0.000159529 30.9478ZM60.2535 31.0057C60.3828 15.174 47.6349 1.27099 30.7685 1.28488C14.2414 1.29646 1.24416 14.5698 1.23723 30.9941C1.23031 47.4185 14.2091 60.6918 30.7569 60.7173C47.5726 60.7427 60.3782 46.8814 60.2535 31.0057Z" fill="white"/>
<path d="M78.683 30.934C78.683 26.6832 78.6969 22.4324 78.6692 18.184C78.6692 17.5218 78.847 17.3042 79.5257 17.3088C83.3056 17.3366 87.0839 17.3366 90.8608 17.3088C91.4933 17.3088 91.7057 17.4847 91.6918 18.1307C91.6526 19.9459 91.6595 21.761 91.6918 23.5762C91.6918 24.155 91.5187 24.3587 90.9369 24.3495C89.3209 24.3194 87.7049 24.3657 86.0889 24.3263C85.4472 24.3101 85.2648 24.5162 85.2671 25.1528C85.2879 31.2419 85.2786 37.3287 85.2786 43.4155C85.2786 44.6403 85.2786 44.6403 84.0251 44.638C82.5891 44.638 81.1524 44.638 79.715 44.638C78.6784 44.638 78.6761 44.638 78.6761 43.6239L78.683 30.934Z" fill="white"/>
<path d="M52.8663 36.8124C52.8086 37.5788 52.6216 38.0627 52.0167 38.396C48.8148 40.1672 45.3727 41.2577 41.8175 42.0194C39.2273 42.5728 36.6163 43.008 33.9522 42.9617C30.584 42.8992 27.2573 42.4987 24.0253 41.5008C22.5778 41.0586 21.4028 41.5008 20.0084 42.0866C30.2885 46.5596 40.43 45.6104 50.6708 42.1375C50.6115 42.454 50.475 42.7508 50.2736 43.0017C50.0723 43.2525 49.8122 43.4496 49.5166 43.5753C47.0902 44.6773 44.537 45.3649 41.9652 46.0178C38.5416 46.8837 35.058 46.93 31.5766 46.7935C27.0418 46.6406 22.5817 45.591 18.4524 43.7049C18.0276 43.5104 17.7206 43.4734 17.4482 43.9179C17.2173 44.3138 17.2035 44.5824 17.6791 44.8185C21.4143 46.7055 25.3227 48.0275 29.4874 48.5623C35.2842 49.3101 40.9241 48.5137 46.4785 46.8583C46.7555 46.7772 47.0418 46.7309 47.3257 46.6661L47.4296 46.856C47.0348 47.1847 46.6932 47.6385 46.2384 47.8237C42.7069 49.2882 38.9748 50.2085 35.1688 50.5534C29.2981 51.0581 23.7552 49.9075 18.4593 47.3954C18.3798 47.3575 18.2981 47.3242 18.2146 47.2959C18.1071 47.2756 17.9984 47.2625 17.8891 47.2565C21.3751 50.0765 25.108 51.887 29.432 52.2991C33.6705 52.7112 37.8213 52.188 41.9352 51.0003C41.7932 51.1135 41.6444 51.2179 41.4897 51.3128C38.8728 52.7619 35.9783 53.6356 32.9987 53.8758C28.8897 54.2619 24.7523 53.5427 21.0126 51.7921C19.2477 50.9669 17.6202 49.8736 16.1877 48.5507C15.497 47.8931 14.977 47.076 14.6733 46.1707C14.514 45.8259 14.2769 45.5231 13.9807 45.2862C13.1335 44.5176 12.2216 43.8207 11.409 43.0219C10.5571 42.1861 10.4855 41.0841 10.7025 39.9843C10.7995 39.4958 10.7487 39.1809 10.3216 38.9216C10.1213 38.7843 9.93355 38.6293 9.76065 38.4586C8.57405 37.4144 8.30163 36.1665 8.88109 34.6893C8.97343 34.4578 8.99421 34.0526 8.858 33.8767C7.62753 32.2815 7.71757 30.6353 8.64561 28.9753C9.64291 27.1926 11.2243 26.0211 12.9857 25.0926C16.287 23.34 19.8537 22.2472 23.5128 21.46C27.6059 20.5802 31.7313 19.8532 35.8406 19.0429C36.6546 18.8692 37.4578 18.6481 38.2461 18.3807C33.2374 17.486 28.1074 17.5205 23.1111 18.4826C18.1067 19.4575 13.3403 21.4032 9.07962 24.2105C9.22045 23.4326 9.24122 22.6501 10.0031 22.1569C14.5556 19.1795 19.4682 17.0888 24.861 16.297C27.8345 15.8618 30.8333 15.6626 33.839 15.9798C36.0737 16.2114 38.3061 16.4753 40.5339 16.73C41.178 16.8017 41.919 16.0771 42.1499 15.0584C37.2003 13.3335 32.0868 13.0904 26.9457 13.6206C21.8045 14.1508 16.878 15.408 12.217 17.7417C12.6602 16.9152 13.0896 16.0423 14.0038 15.6951C16.414 14.769 18.8195 13.829 21.2873 13.095C25.4559 11.8254 29.8216 11.3349 34.1669 11.648C36.5701 11.8309 38.941 12.4282 41.3234 12.8404C41.5489 12.9051 41.787 12.9123 42.016 12.8612C41.6944 12.6112 41.3591 12.3793 41.0118 12.1666C38.6166 10.864 35.9774 10.0755 33.2619 9.85137C28.0699 9.38832 23.0465 10.032 18.2077 12.0045C18.1275 12.041 18.044 12.0697 17.9584 12.0902C17.9214 12.0902 17.8753 12.074 17.7137 12.0346C17.8536 11.8992 18.0017 11.7724 18.1569 11.6549C20.9272 9.83053 23.9976 8.85581 27.2504 8.4136C28.6032 8.21404 29.9672 8.0996 31.3342 8.07095C35.9514 8.02696 40.2384 9.03872 43.8375 12.1134C44.3407 12.5417 44.6547 13.1923 45.0772 13.734C45.2848 14.0549 45.5483 14.3357 45.8552 14.5629C47.2011 15.3478 48.5631 16.1349 49.3988 17.4871C49.7867 18.1145 49.9575 18.9109 50.0706 19.6541C50.1283 20.0246 50.1999 20.2422 50.4954 20.4506C51.8967 21.4461 52.737 22.7496 52.6678 24.5347C52.6885 24.6909 52.6711 24.8498 52.617 24.9977C52.0952 25.8173 52.3861 26.3869 52.9886 27.0814C53.8774 28.0724 53.7851 29.2994 53.2865 30.4571C52.5062 32.263 51.0633 33.4553 49.4196 34.4347C46.5016 36.1734 43.3319 37.2546 40.0145 37.889C36.0345 38.653 32.0361 39.3314 28.0468 40.0491C27.8345 40.0862 27.629 40.1464 27.2943 40.2297C36.2931 42.3088 44.6893 40.7252 52.8663 36.8124ZM13.1335 34.0665C14.1192 35.1107 14.858 35.2543 15.9892 34.6801C16.2454 34.5504 16.5063 34.4277 16.7695 34.3189C20.26 32.8672 23.963 32.2606 27.6405 31.5406C32.1145 30.6654 36.5955 29.8273 41.0487 28.8549C43.3065 28.3618 45.5481 27.7181 47.5635 26.5073C47.7736 26.3799 47.956 26.2109 48.2699 25.9724C47.4158 25.5626 46.7116 25.2038 45.9867 24.8935C45.7797 24.8381 45.5603 24.8511 45.3611 24.9306C43.3665 25.5696 41.4158 26.3869 39.3796 26.8383C35.275 27.7505 31.1242 28.459 26.9964 29.2693C23.619 29.9292 20.2462 30.6122 17.035 31.9041C15.6637 32.4574 14.3132 33.0664 13.1335 34.0665ZM18.4432 36.8448L18.4686 37.1134C19.4197 37.5232 20.3639 37.9585 21.3335 38.322C21.6799 38.4374 22.0513 38.455 22.407 38.3729C23.9768 38.0256 25.5282 37.5765 27.1049 37.2639C31.2765 36.435 35.4689 35.7173 39.6313 34.8398C42.5054 34.2355 45.3334 33.4021 47.9167 31.9435C48.6963 31.4904 49.4075 30.9283 50.0291 30.2742C50.7332 29.5402 50.7216 28.7762 50.2599 28.2437C49.041 28.9082 47.8798 29.649 46.6378 30.1954C43.5928 31.536 40.3677 32.3255 37.1218 32.9737C32.5832 33.8767 28.0168 34.6361 23.4782 35.5321C21.7675 35.8655 20.11 36.4049 18.4316 36.8518L18.4432 36.8448ZM41.4573 23.3516C38.7899 22.4202 35.9308 22.1813 33.1465 22.657C29.4528 23.2636 25.759 23.9535 22.1092 24.7662C19.2027 25.4098 16.3378 26.2804 13.6714 27.6533C12.6256 28.1904 11.6098 28.7855 10.9172 29.781C10.3586 30.589 10.3609 31.2396 10.9172 32.0013C11.2335 31.7559 11.5429 31.4874 11.8868 31.2558C13.997 29.7387 16.3937 28.6696 18.9303 28.114C23.7598 26.9958 28.6263 26.0442 33.4743 25.0255C36.0922 24.4768 38.7032 23.9327 41.4458 23.3585L41.4573 23.3516ZM40.0606 20.5733C41.2842 20.9252 42.5354 21.2679 43.7798 21.6499C44.9594 22.0041 45.6635 21.7286 46.3584 20.527C45.0864 20.1056 43.8398 19.6796 42.5816 19.2906C42.3728 19.2597 42.1598 19.3048 41.9814 19.418C41.3234 19.8 40.6863 20.2005 40.0491 20.5872L40.0606 20.5733ZM14.5786 39.2064C16.3562 40.5955 17.1181 40.6997 18.4109 39.6486C17.7668 39.3615 17.1158 39.1508 16.564 38.7966C15.7491 38.2919 15.1627 38.528 14.5786 39.2064ZM47.0279 18.5521C46.5793 17.6275 45.8623 16.8607 44.971 16.3526L44.0937 17.5426L47.0279 18.5521ZM49.8836 24.1827C50.0983 23.4419 49.8975 22.6153 49.3642 22.532C48.9856 22.4718 48.5285 22.9163 47.9606 23.2103L49.8836 24.1827ZM15.0057 42.1236L13.6067 41.3341L13.4567 41.5031L14.5463 42.9386L15.0057 42.1236ZM12.6972 37.081L12.6579 36.8726L11.4621 36.1595L11.2705 36.3424C11.4792 36.6923 11.7254 37.0184 12.0046 37.3148C12.1062 37.3935 12.4663 37.1667 12.6972 37.081Z" fill="white"/>
</g>
<defs>
<clipPath id="clip0_1_116">
<rect width="291" height="62" fill="white"/>
</clipPath>
</defs>
</svg>
