<svg xmlns="http://www.w3.org/2000/svg" width="291" height="62" fill="none" viewBox="0 0 291 62"><g fill="#fff" clip-path="url(#a)"><path d="m203.018 28.568-3.463 4.327-3.603-4.538v15.334c0 .908-.033.945-.924.945-1.591 0-3.183-.014-4.774 0-.577 0-.806-.179-.803-.808.018-8.571.018-17.138 0-25.7 0-.606.177-.824.791-.805a64.55 64.55 0 0 0 3.846 0 1.402 1.402 0 0 1 1.323.66c1.205 1.694 2.45 3.361 3.682 5.035.127.174.268.338.474.593.842-1.135 1.643-2.209 2.44-3.285.635-.855 1.242-1.728 1.911-2.547.208-.24.5-.39.815-.42 1.415-.043 2.831 0 4.246-.027.487 0 .648.164.648.655-.01 8.66-.01 17.318 0 25.977 0 .56-.23.695-.704.695-1.636 0-3.271-.023-4.908 0-.628 0-.856-.209-.849-.843.025-2.37 0-4.74 0-7.11v-8.09l-.148-.048Zm-57.74 2.415V43.54c0 1.157.107 1.007-1.043 1.014-1.526 0-3.052-.035-4.576.016-.692.023-.863-.213-.861-.866.019-5.802 0-11.604 0-17.406 0-.533-.018-1.065 0-1.595.021-.463-.141-.64-.609-.628-1.018.026-2.036.03-3.052 0-.513-.016-.635.197-.63.67.018 2.083 0 4.167 0 6.25 0 4.254-.014 8.505.016 12.758 0 .671-.206.905-.861.889a219.759 219.759 0 0 0-5.105-.074c-.408 0-.563-.165-.535-.554v-25.71c0-.974 0-.977.997-.977 5.13 0 10.257 0 15.387-.014.658 0 .87.172.865.855-.009 4.267.007 8.54.007 12.815Zm41.412-1.068c-.014 4.302-.451 7.453-2.03 10.347-1.9 3.473-5.238 4.996-9.029 4.6-4.111-.43-6.464-2.938-7.791-6.623-.748-2.084-1.023-4.233-1.087-6.44-.083-2.777.159-5.516 1.087-8.153.838-2.385 2.138-4.462 4.456-5.636 4.522-2.287 10.52-1.04 12.902 4.68a19.447 19.447 0 0 1 1.492 7.225Zm-13.215 1.021c.065.991.028 2.003.231 2.968.18 1.062.521 2.09 1.011 3.047.935 1.672 3.071 1.621 4.038-.039.34-.592.594-1.23.755-1.894.518-2.267.596-4.614.231-6.91a10.613 10.613 0 0 0-1.032-3.182 2.127 2.127 0 0 0-2.309-1.198 2.13 2.13 0 0 0-.852.362 4.322 4.322 0 0 0-1.29 1.702c-.704 1.63-.762 3.38-.783 5.144Zm84.706 13.586h-6.191c-.014-.247-.039-.481-.039-.715 0-8.571-.005-17.142-.014-25.713 0-.619.184-.8.787-.785 1.547.034 3.096.037 4.642 0 .624-.014.838.153.832.81-.037 2.725 0 5.45-.028 8.173 0 .579.164.792.752.764.838-.042 1.681 0 2.521 0 .891 0 .896 0 .896-.873v-7.84c0-1.006 0-1.009.979-1.009 1.526 0 3.052.019 4.576 0 .551 0 .78.12.778.734a5859.34 5859.34 0 0 0 0 25.845c0 .521-.146.695-.672.676-1.616-.03-3.232-.041-4.848 0-.661.019-.831-.217-.827-.833.021-3.035 0-6.068.023-9.104 0-.674-.191-.903-.865-.859a18.44 18.44 0 0 1-2.452 0c-.663-.041-.88.155-.87.845.034 3.01.013 6.02.013 9.03l.007.854Zm32.819.035h-.852c-1.847 0-3.714-.046-5.568.02-.774.029-1.062-.252-1.279-.953-.954-3.082-1.965-6.147-2.95-9.22-.111-.347-.192-.643-.679-.657-.584-.016-.817.13-.81.773.032 3.1 0 6.2.027 9.3 0 .58-.15.765-.741.748a94.066 94.066 0 0 0-4.848 0c-.639.019-.782-.231-.78-.805.016-4.008 0-8.016 0-12.023V18.19c0-.84.032-.87.847-.872 1.57 0 3.14.02 4.707 0 .594-.012.808.157.801.785-.032 2.7-.02 5.401 0 8.103 0 .308-.2.755.37.838.533.08.826-.097 1.02-.655.965-2.778 1.997-5.529 2.962-8.305.203-.585.489-.782 1.099-.768 1.701.04 3.405 0 5.106.016.257 0 .513.025.866.044-.106.357-.171.63-.268.889a4423.014 4423.014 0 0 1-4.197 11.315 1.83 1.83 0 0 0 0 1.4c1.64 4.25 3.266 8.503 4.878 12.76.09.213.169.442.289.817Zm-77.383-13.623c0-4.25 0-8.502-.014-12.752 0-.662.187-.88.863-.875 4.31.027 8.619.027 12.928 0 .647 0 .829.203.815.833a122.607 122.607 0 0 0 0 5.181c0 .577-.166.776-.75.77-2.232-.029-4.465.013-6.695-.026-.663 0-.852.231-.801.84.045.574.045 1.15 0 1.725-.049.604.145.831.776.799a10.5 10.5 0 0 1 4.155.627c2.708.984 4.22 2.95 4.617 5.788.358 2.492.162 4.916-1.214 7.096-1.485 2.357-3.754 3.473-6.448 3.598-2.47.119-4.952 0-7.427.04-.632 0-.833-.17-.828-.815.034-4.283.023-8.555.023-12.829Zm6.353 5.017c0 .753.037 1.505-.012 2.255-.039.616.173.87.785.771.173-.028.351-.037.52-.08 1.406-.383 2.052-1.422 2.052-3.219 0-2.049-1.099-2.625-2.77-2.688-.425-.016-.598.139-.587.574.028.794.012 1.59.012 2.387Zm26.214 8.733c-.884 0-1.769-.018-2.653 0-.485.014-.665-.213-.729-.653-.169-1.134-.365-2.266-.534-3.4-.062-.408-.214-.64-.676-.63a74.466 74.466 0 0 1-3.052 0c-.439 0-.614.169-.674.613-.15 1.137-.356 2.267-.536 3.401-.074.45-.272.678-.787.67a183.17 183.17 0 0 0-5.173 0c-.529 0-.693-.156-.587-.712a9493.953 9493.953 0 0 0 5.116-25.93c.099-.507.332-.695.845-.695 2.21.016 4.421.016 6.632 0 .52 0 .751.197.848.695a9769.302 9769.302 0 0 0 3.737 18.985c.462 2.338.903 4.684 1.385 7.017.104.496-.043.65-.51.646-.884-.02-1.768-.007-2.652-.007ZM240.11 26.82l-.097-.016c-.268 1.87-.563 3.736-.799 5.61-.18 1.453-.148 1.44 1.314 1.4.51-.014.581-.231.515-.669-.319-2.12-.624-4.223-.933-6.332v.007ZM109.475 44.557h-3.939a17.062 17.062 0 0 0-1.847.014c-.609.065-.761-.25-.838-.739-.173-1.111-.383-2.218-.528-3.331-.058-.463-.231-.612-.677-.602-.948.016-1.902.048-2.848-.012-.635-.042-.8.264-.875.79a67.7 67.7 0 0 1-.554 3.331c-.042.206-.319.519-.49.521-1.944.035-3.89.019-5.834 0a1.17 1.17 0 0 1-.267-.095l.71-3.667 4.057-20.525c.157-.8.335-1.597.482-2.4.065-.36.217-.538.61-.536 2.34.01 4.682.01 7.025 0 .445 0 .549.262.621.616a9307.8 9307.8 0 0 0 2.645 13.38c.821 4.155 1.637 8.313 2.45 12.472.034.216.048.447.097.783Zm-9.334-18.145c-.358 2.443-.692 4.705-1.004 6.97-.016.117.23.379.37.39.519.05 1.045.019 1.675.019l-1.041-7.379Zm48.466 4.534V18.258c0-.926 0-.926.908-.926 2.343 0 4.686.032 7.029 0 5.031-.081 7.639 3.088 8.466 7.03.704 3.363 0 6.482-2.339 9.075-1.35 1.505-3.128 2.178-5.139 2.227-.575.014-1.154.032-1.724 0-.57-.032-.732.15-.727.71.025 2.457.011 4.916.011 7.375 0 .873-.014.9-.884.896-1.678-.012-3.357-.065-5.037-.058-.644 0-.564-.407-.564-.801v-12.84Zm6.487-4.42c0 .773.03 1.549 0 2.315-.032.572.199.757.732.695.231-.028.485 0 .727 0 .748-.058 1.404-.322 1.713-1.05a4.826 4.826 0 0 0 .03-3.921 1.62 1.62 0 0 0-1.445-1.005c-.415-.035-.838 0-1.258-.018-.381-.014-.496.175-.492.53.003.82-.007 1.627-.007 2.454Zm-43.064-2.642c-.044-.817-.097-1.56-.117-2.315-.026-1.017-.021-2.035-.042-3.054 0-.368.067-.648.48-.745 2.604-.602 5.213-.927 7.849-.174 2.517.727 4.414 3.174 4.671 5.788.205 2.107-.174 4.02-1.554 5.633-.577.676-1.344 1.185-2.055 1.797a.741.741 0 0 0 .208.169c2.336 1.046 3.518 2.875 3.805 5.396.251 2.207-.141 4.23-1.448 6.02-1.207 1.667-2.922 2.547-4.903 2.873a11.842 11.842 0 0 1-6.986-.896c-.547-.252-.783-.572-.762-1.21.051-1.61.016-3.219.016-4.932 1.012.252 1.801.523 2.614.634a9.254 9.254 0 0 0 2.373.044c.597-.088 1.14-.4 1.518-.872.379-.472.566-1.07.525-1.674-.055-1.23-.972-2.123-2.309-2.193-.881-.046-1.768-.035-2.652-.028-.441 0-.626-.155-.621-.625.023-1.616.023-3.232 0-4.848 0-.48.191-.616.63-.607.75.017 1.503.017 2.253 0 1.704-.046 2.833-1.414 2.554-3.072-.181-1.067-1.185-1.88-2.508-1.827-.923.04-1.86.306-2.788.482-.236.06-.46.15-.751.236ZM0 30.948C-.206 14.268 13.87-.683 32.066.023 47.889.64 61.95 14.016 61.562 31.821c-.357 16.503-14.216 30.86-32.128 30.153C13.323 61.338-.176 47.713 0 30.948Zm60.254.058c.129-15.832-12.62-29.735-29.485-29.721C14.24 1.296 1.244 14.57 1.236 30.995 1.23 47.418 14.21 60.691 30.757 60.716c16.816.026 29.621-13.836 29.497-29.711Zm18.429-.072c0-4.25.014-8.502-.014-12.75 0-.662.178-.88.857-.875 3.78.028 7.558.028 11.335 0 .632 0 .845.176.83.822-.038 1.815-.032 3.63 0 5.445 0 .579-.172.783-.754.773-1.616-.03-3.232.017-4.848-.023-.642-.016-.824.19-.822.827.02 6.089.012 12.176.012 18.263 0 1.224 0 1.224-1.254 1.222h-4.31c-1.037 0-1.039 0-1.039-1.014l.007-12.69Z"/><path d="M52.866 36.812c-.057.767-.244 1.25-.85 1.584-3.201 1.771-6.643 2.862-10.198 3.623-2.59.554-5.202.989-7.866.943-3.368-.063-6.695-.463-9.927-1.461-1.447-.442-2.622 0-4.017.586 10.28 4.473 20.422 3.523 30.663.05a1.956 1.956 0 0 1-1.154 1.438c-2.427 1.102-4.98 1.79-7.552 2.443-3.423.866-6.907.912-10.388.776a34.376 34.376 0 0 1-13.125-3.09c-.424-.194-.731-.23-1.004.214-.23.396-.245.664.231.9 3.735 1.888 7.644 3.21 11.808 3.744 5.797.748 11.437-.048 16.991-1.704.277-.08.564-.127.848-.192l.104.19c-.395.329-.737.782-1.192.968a37.803 37.803 0 0 1-11.07 2.73c-5.87.504-11.413-.647-16.709-3.159a2.239 2.239 0 0 0-.244-.1 2.489 2.489 0 0 0-.326-.038c3.486 2.82 7.219 4.63 11.543 5.042 4.238.412 8.39-.111 12.503-1.299a4.29 4.29 0 0 1-.445.313 21.013 21.013 0 0 1-8.491 2.563 23.16 23.16 0 0 1-11.986-2.084 18.93 18.93 0 0 1-4.825-3.241 5.86 5.86 0 0 1-1.515-2.38 2.446 2.446 0 0 0-.692-.885c-.848-.768-1.76-1.465-2.572-2.264-.852-.836-.924-1.938-.707-3.038.098-.488.047-.803-.38-1.062a4.09 4.09 0 0 1-.561-.463c-1.187-1.045-1.46-2.293-.88-3.77.092-.231.113-.636-.023-.812-1.23-1.596-1.14-3.242-.212-4.902.997-1.782 2.578-2.954 4.34-3.882 3.301-1.753 6.868-2.846 10.527-3.633 4.093-.88 8.218-1.607 12.328-2.417a21.374 21.374 0 0 0 2.405-.662 41.472 41.472 0 0 0-15.135.102A39.087 39.087 0 0 0 9.08 24.21c.14-.777.161-1.56.923-2.053 4.553-2.977 9.465-5.068 14.858-5.86 2.973-.435 5.972-.634 8.978-.317 2.235.231 4.467.495 6.695.75.644.072 1.385-.653 1.616-1.672-4.95-1.724-10.063-1.968-15.204-1.437-5.142.53-10.068 1.787-14.729 4.12.443-.826.873-1.699 1.787-2.046 2.41-.926 4.816-1.866 7.283-2.6a35.458 35.458 0 0 1 12.88-1.447c2.403.183 4.774.78 7.156 1.192.226.065.464.072.693.021a10.98 10.98 0 0 0-1.004-.694 19.595 19.595 0 0 0-7.75-2.316c-5.192-.463-10.215.181-15.054 2.153-.08.037-.164.066-.25.086-.037 0-.083-.016-.244-.055a4.7 4.7 0 0 1 .443-.38c2.77-1.824 5.84-2.8 9.093-3.241 1.353-.2 2.717-.314 4.084-.343 4.617-.044 8.904.968 12.503 4.042.504.429.818 1.08 1.24 1.621.208.32.471.602.778.829 1.346.785 2.708 1.572 3.544 2.924.388.628.559 1.424.672 2.167.057.37.129.588.424.797 1.402.995 2.242 2.299 2.173 4.084a.975.975 0 0 1-.051.463c-.522.82-.23 1.389.372 2.083.888.991.796 2.218.297 3.376-.78 1.806-2.223 2.998-3.866 3.978-2.918 1.738-6.088 2.82-9.406 3.454-3.98.764-7.978 1.442-11.967 2.16-.213.037-.418.097-.753.18 9 2.08 17.395.496 25.572-3.417Zm-39.733-2.745c.986 1.044 1.725 1.187 2.856.613.256-.13.517-.252.78-.361 3.491-1.452 7.194-2.058 10.872-2.778 4.474-.876 8.955-1.714 13.408-2.686 2.258-.493 4.5-1.137 6.514-2.348.21-.127.393-.296.707-.535-.854-.41-1.558-.768-2.283-1.079a.994.994 0 0 0-.626.038c-1.994.639-3.945 1.456-5.981 1.907-4.105.912-8.256 1.621-12.384 2.431-3.377.66-6.75 1.343-9.961 2.635-1.371.553-2.722 1.162-3.902 2.162Zm5.31 2.778.026.268c.95.41 1.895.846 2.864 1.209.347.115.718.133 1.074.05 1.57-.346 3.121-.795 4.698-1.108 4.171-.829 8.364-1.547 12.526-2.424 2.874-.605 5.702-1.438 8.286-2.897a9.499 9.499 0 0 0 2.112-1.669c.704-.734.693-1.498.23-2.03-1.218.664-2.38 1.405-3.621 1.951-3.045 1.341-6.27 2.13-9.516 2.779-4.539.903-9.105 1.662-13.644 2.558-1.71.334-3.368.873-5.046 1.32l.011-.007Zm23.014-13.493a16.685 16.685 0 0 0-8.31-.695 199.825 199.825 0 0 0-11.038 2.11c-2.906.643-5.771 1.513-8.438 2.886-1.045.537-2.061 1.133-2.754 2.128-.558.808-.556 1.459 0 2.22.316-.245.626-.514.97-.745a19.048 19.048 0 0 1 7.043-3.142c4.83-1.118 9.696-2.07 14.544-3.088 2.618-.55 5.23-1.093 7.972-1.668l.011-.006Zm-1.396-2.779c1.223.352 2.474.695 3.719 1.077 1.18.354 1.883.079 2.578-1.123-1.272-.421-2.518-.847-3.776-1.236a.88.88 0 0 0-.6.127c-.659.382-1.296.783-1.933 1.17l.012-.015ZM14.579 39.206c1.777 1.39 2.54 1.494 3.832.443-.644-.288-1.295-.498-1.847-.852-.815-.505-1.401-.269-1.985.41Zm32.449-20.654a5.087 5.087 0 0 0-2.057-2.2l-.877 1.19 2.934 1.01Zm2.856 5.63c.214-.74.014-1.567-.52-1.65-.378-.06-.835.384-1.403.678l1.923.973ZM15.006 42.125l-1.4-.79-.15.17 1.09 1.435.46-.815Zm-2.309-5.043-.04-.208-1.195-.713-.191.182c.208.35.454.676.734.973.101.079.461-.148.692-.234Z"/></g><defs><clipPath id="a"><path fill="#fff" d="M0 0h291v62H0z"/></clipPath></defs></svg>