<svg xmlns="http://www.w3.org/2000/svg" width="142" height="32" fill="none" viewBox="0 0 142 32"><g fill="#fff" clip-path="url(#a)"><path fill-rule="evenodd" d="m26.305 14.325-.39.315a12.557 12.557 0 0 1-4.274 1.767c-4.057 1.052-7.011 1.262-10.365 2.104-.673.163-1.332.377-1.97.641.65.327 1.319.618 2.002.873a29.26 29.26 0 0 1 3.982-.904c.757-.127 3.073-.537 4.75-.894 3.018-.652 7.444-2.051 6.265-3.892v-.01Zm-1.937-3.818c-.745-.33-1.516-.6-2.305-.81-.428.365-.914.66-1.439.873.933.2 1.854.448 2.76.747.161.084.886-.6 1.005-.757l-.021-.053Zm-14.813 4.06c3.939-1.168 8.093-1.525 12.292-2.65a9.482 9.482 0 0 0-4.274-.421 46.13 46.13 0 0 0-7.66 1.556c-.931.274-5.822 1.662-4.415 3.618 0 0 .844-1.157 4.057-2.103Zm-2.726 6.7c0 .357.205.683.692 1.05.063-.19.162-.369.292-.525a14.61 14.61 0 0 1-.984-.547v.021Zm1.893-.18a6.665 6.665 0 0 1 1.082-.515c-.563-.231-1.082-.484-1.731-.757a3.95 3.95 0 0 0-.682.515c.444.263.887.516 1.342.757h-.011Zm15.148-8.413a20.64 20.64 0 0 1-3.57 1.167c-1.342.337-4.61.81-8.126 1.578-1.082.242-4.123.957-5.605 2.23.338.255.7.48 1.082.672a9.318 9.318 0 0 1 2.683-1.051 49.913 49.913 0 0 1 5.702-1.136 51.63 51.63 0 0 0 7.574-1.788 6.291 6.291 0 0 0 1.71-.894 5.951 5.951 0 0 0-1.45-.778Zm1.169-.715c.374.167.735.36 1.082.578.248-.473.097-.778-.422-1.22a3.85 3.85 0 0 1-.671.642h.01ZM6.645 19.13c-.347-.2-.585-.347-.888-.547-.151.347.141.726.466.915.132-.13.273-.254.422-.368ZM23.459 8.172a2.34 2.34 0 0 1-.563.79 17.06 17.06 0 0 1 1.775.599c-.076-.537-.693-1.052-1.212-1.389ZM4.87 11.548c4.144-2.724 8.721-4.312 16.468-2.966.203-.093.38-.232.515-.406.136-.174.227-.377.264-.593a18.396 18.396 0 0 0-6.752-.904A22.925 22.925 0 0 0 6.19 9.056l.703-.894a23.24 23.24 0 0 1 9.133-2.314 17.776 17.776 0 0 1 6.113.81c-.238-.463-.79-.694-1.601-1.052C17.93 4.428 13.072 4.323 9.1 6.08c.52-.349 1.067-.662 1.633-.936a14.642 14.642 0 0 1 6.146-1.135 9.413 9.413 0 0 1 6.254 2.345c.225.26.388.565.476.894a5.376 5.376 0 0 1 2.36 1.914c.169.37.225.778.161 1.178.398.228.741.537 1.007.904.18.275.302.583.357.905a1.595 1.595 0 0 1-.314 1.335c.39.248.676.62.811 1.052.036.49-.055.98-.265 1.427-.21.446-.531.835-.936 1.129a12.988 12.988 0 0 1-4.544 2.166c-3.246.82-6.102 1.168-8.386 1.588a18.14 18.14 0 0 0 4.675.579 21.745 21.745 0 0 0 9.121-2.303s-.097.305-.195.568a21.765 21.765 0 0 1-10.052 2.555 22.085 22.085 0 0 1-5.648-.946 9.502 9.502 0 0 0-1.569.536 18.463 18.463 0 0 0 6.936 1.651 25.707 25.707 0 0 0 9.392-1.567c-.152.148-.227.39-.379.526a21.766 21.766 0 0 1-6.925 1.82 26.07 26.07 0 0 1-5.745-.348 19.033 19.033 0 0 1-4.263-1.42c-.228.166-.38.411-.422.684 5.334 2.798 10.322 2.86 16.003 1.052l-.52.494a17.37 17.37 0 0 1-7.498 1.548 17.346 17.346 0 0 1-7.433-1.821 2.522 2.522 0 0 1-.379-.19 10.709 10.709 0 0 0 6.492 3.008 16.254 16.254 0 0 0 6.557-.851l-.941.494a11.4 11.4 0 0 1-5.746 1.052 10.978 10.978 0 0 1-7-2.882 2.72 2.72 0 0 1-.801-1.494 4.512 4.512 0 0 1-1.872-1.65 1.713 1.713 0 0 1-.151-1.273c.02-.124.056-.244.108-.358a3.719 3.719 0 0 1-1.082-.957 1.653 1.653 0 0 1 .119-1.746 2.858 2.858 0 0 1-.541-.789 2.375 2.375 0 0 1-.087-.957 3 3 0 0 1 .78-1.567 9.589 9.589 0 0 1 4.436-2.492 40.968 40.968 0 0 1 4.782-1.241 57.428 57.428 0 0 0 6.254-1.294 21.138 21.138 0 0 0-8.202.02 20.871 20.871 0 0 0-7.541 3.135l.346-.873Z" clip-rule="evenodd"/><path d="m48.863 13.218.581 4.271h-1.122l.54-4.271Zm-4.549 9.774h3.096l.37-2.42h2.125l.37 2.42h3.096L50.758 8.988H46.93l-2.615 14.004Zm12.023-8.585a1.316 1.316 0 0 0 .972-.383 1.433 1.433 0 0 0 .42-.982 1.288 1.288 0 0 0-.082-.55 1.254 1.254 0 0 0-.305-.457 1.204 1.204 0 0 0-.468-.277 1.175 1.175 0 0 0-.537-.04 3.903 3.903 0 0 0-1.683.393v-3.03a9.356 9.356 0 0 1 2.655-.362 3.31 3.31 0 0 1 1.402.218c.447.173.854.442 1.194.788.34.346.606.763.78 1.222.174.459.253.95.23 1.443a3.49 3.49 0 0 1-.46 1.926 3.336 3.336 0 0 1-1.423 1.332v.207c.66.238 1.225.697 1.603 1.304.377.608.547 1.329.481 2.047a3.962 3.962 0 0 1-.214 1.615c-.183.516-.47.986-.843 1.378a3.72 3.72 0 0 1-1.32.894 3.62 3.62 0 0 1-1.56.25 5.092 5.092 0 0 1-2.886-.734l.06-2.906a4.164 4.164 0 0 0 2.004.424 1.245 1.245 0 0 0 .97-.357 1.361 1.361 0 0 0 .403-.977c0-.787-.471-1.314-1.503-1.314h-1.242v-3l1.352-.072Zm6.212-5.419h8.306v14.004h-3.036V12.349h-2.224v10.643h-3.046V8.988Zm13.095 3.082h.731c.692 0 1.122.434 1.122 1.603 0 1.51-.721 1.613-1.122 1.613h-.721l-.01-3.216Zm-3.006 10.922h3.006v-4.624h1.002c3.005 0 3.947-2.885 3.947-4.726 0-1.841-1.062-4.654-3.947-4.654h-4.068l.06 14.004Zm13.606-3.217c-1.062 0-1.623-1.334-1.623-3.806s.561-3.806 1.623-3.806c1.062 0 1.633 1.334 1.633 3.806s-.55 3.806-1.633 3.806Zm0 3.382c3.617 0 4.83-3.589 4.83-7.188 0-3.6-1.213-7.188-4.83-7.188s-4.82 3.6-4.82 7.188c0 3.589 1.213 7.188 4.82 7.188Zm21.07-2.968v-3.186h.451c.351 0 1.312 0 1.312 1.459 0 1.458-1.002 1.727-1.312 1.727h-.451Zm-3.006 2.803h3.637c.782 0 4.078-.352 4.088-4.593 0-3.578-2.555-4.199-4.208-4.199h-.541v-1.86h4.008V8.988h-7.014l.03 14.004Zm18.706-14.004H126v5.037h2.124V8.988h2.985v14.004h-2.985v-5.606H126v5.606h-2.986V8.988Zm10.089 0h2.986l-.01 5.037h.651l1.703-5.037h3.246l-2.324 6.64L142 22.992h-3.507l-1.703-5.637h-.711l.01 5.637h-2.986V8.988Zm-94.66 0h6.242v3.485h-3.146v10.519h-3.096V8.988Zm54.093 0h2.585l2.284 3.299 2.295-3.3h2.584v14.005h-3.045v-8.543l-1.834 2.45-1.823-2.45v8.543h-3.046V8.988Zm24.647 4.251.581 4.271h-1.152l.571-4.272Zm-4.529 9.773h3.096l.371-2.42h2.124l.371 2.42h3.095l-2.615-14.004h-3.827l-2.615 14.004Z"/><path fill-rule="evenodd" d="M16 31.467c8.542 0 15.467-6.925 15.467-15.467C31.467 7.458 24.542.533 16 .533 7.458.533.533 7.458.533 16c0 8.542 6.925 15.467 15.467 15.467ZM16 32c8.837 0 16-7.163 16-16S24.837 0 16 0 0 7.163 0 16s7.163 16 16 16Z" clip-rule="evenodd"/></g><defs><clipPath id="a"><path fill="#fff" d="M0 0h142v32H0z"/></clipPath></defs></svg>