<svg xmlns="http://www.w3.org/2000/svg" width="192" height="57" fill="none" viewBox="0 0 192 57"><path fill="#FCFDFD" fill-rule="evenodd" d="M48.661 32.597v3.951c0 10.98-15.782 17.298-20.62 18.974l-1.76.614v-6.83l.86-.328c7.527-2.859 15.12-7.811 15.12-12.43v-3.951h6.4ZM24.76.197l6.45 2.007v6.968l-6.45-2.014-.422.132v15.678h6.872v6.46h-6.872V56.04l-1.792-.674a59.876 59.876 0 0 1-3.83-1.602l-.778-.36V2.322L24.759.196Zm-8.847 2.78v6.937l-8.739 2.738v10.316h8.74v29.878l-1.936-1.004C7.954 48.712.774 43.437.774 36.07v-3.473h6.4v3.473c0 1.524.785 3.126 2.338 4.775V29.428H.774V7.694l15.138-4.717Zm17.24-.165 15.51 4.845v21.771h-9.107v9.427s-2.036 2.694-6.398 4.95l-.004-32.092-.002-8.9ZM154.594 12.83c5.325-.014 9.652 4.33 9.666 9.704.014 5.373-4.29 9.74-9.614 9.755l-6.134.016.029 10.867-5.008.014-.081-30.326 11.142-.03ZM131.1 22.182c5.738 0 10.391 4.696 10.391 10.488a10.6 10.6 0 0 1-.336 2.654h-14.754a5.373 5.373 0 0 0 4.699 2.78c.963 0 1.867-.256 2.649-.703v.017l5.47 1.797c-1.904 2.403-4.834 3.943-8.119 3.943-5.739 0-10.391-4.696-10.391-10.488s4.652-10.488 10.391-10.488Zm-11.393-9.35v5.054h-1.252c-1.91 0-3.463 1.542-3.505 3.46v.836h4.757v5.055h-4.757v15.92h-5.008v-15.92h-2.253v-5.055h2.253v-1.769c0-4.187 3.363-7.581 7.512-7.581h2.253Zm-24.416 9.35c.026 0 .053.003.081.003a10.26 10.26 0 0 1 5.572 1.683l4.741-1.606v20.896h-4.959V41.61a9.926 9.926 0 0 1-.98.537v-.012c-.506.247-1.026.45-1.56.609l-.102.028c-.127.035-.257.067-.386.1l-.197.047c-.104.02-.208.042-.312.06-.08.017-.16.03-.24.045-.102.016-.204.028-.308.042-.078.011-.157.023-.238.03a9.585 9.585 0 0 1-.377.033c-.057.002-.115.01-.171.012a10.268 10.268 0 0 1-6.753-2.049 11.596 11.596 0 0 1-2.132-2.142 10.502 10.502 0 0 1-2.067-6.235v-.054c.005-5.784 4.652-10.475 10.383-10.48h.005Zm78.871 0c.026 0 .053.003.081.003a10.257 10.257 0 0 1 5.572 1.683l4.742-1.606v20.896h-4.959V41.61c-.315.196-.643.375-.981.537v-.012a10.06 10.06 0 0 1-1.56.609l-.101.028c-.128.035-.258.067-.387.1l-.196.047c-.104.02-.208.042-.312.06-.081.017-.16.03-.241.045-.102.016-.203.028-.307.042-.079.011-.158.023-.239.03a9.535 9.535 0 0 1-.376.033c-.058.002-.116.01-.172.012a10.27 10.27 0 0 1-6.753-2.049 11.522 11.522 0 0 1-2.131-2.142 10.51 10.51 0 0 1-2.067-6.235v-.054c.005-5.784 4.651-10.475 10.383-10.48h.004Zm17.406-9.244v30.22h-5.008V14.58l5.008-1.642Zm-119.786-.106c4.736 0 8.36 2.458 10.295 6.54a1037.84 1037.84 0 0 1-5.343 1.742c-1.025-1.632-2.518-2.7-4.952-2.7-2.388 0-3.788 1.25-3.788 2.916 0 1.79 1.112 2.749 5.477 4.082 4.57 1.458 9.43 3 9.43 8.956 0 5.457-4.324 8.79-10.46 8.79-5.889 0-9.76-2.875-11.324-7.207 2.27-.734 4.09-1.27 5.456-1.608 1.146 1.975 3.045 3.19 6.033 3.19 3.418 0 4.612-1.457 4.612-3.081 0-2.166-1.936-3-6.218-4.25-4.407-1.29-8.689-3.165-8.689-8.705 0-5.5 4.53-8.665 9.471-8.665Zm23.389 14.152c-3.043 0-5.51 2.49-5.51 5.561 0 3.069 2.467 5.558 5.51 5.558 3.04 0 5.507-2.49 5.507-5.558 0-3.071-2.466-5.561-5.507-5.561Zm78.871 0c-3.043 0-5.51 2.49-5.51 5.561 0 3.069 2.467 5.558 5.51 5.558 3.041 0 5.507-2.49 5.507-5.558 0-3.071-2.466-5.561-5.507-5.561Zm-42.942.253a5.379 5.379 0 0 0-4.831 3.032h9.661a5.378 5.378 0 0 0-4.83-3.032Zm23.509-9.353-6.135.017.025 9.35 6.135-.016c2.558-.007 4.626-2.106 4.62-4.688-.007-2.554-2.041-4.624-4.561-4.662h-.084ZM39.555 11.777v11.191h2.707V12.621l-2.707-.844Z" clip-rule="evenodd"/></svg>