<svg xmlns="http://www.w3.org/2000/svg" width="153" height="34" fill="none" viewBox="0 0 153 34"><path fill="#fff" fill-rule="evenodd" d="m38 14.322-.493 1.581c-.263.82-1.12 2.171-2.72 2.31.175.74.565 1.57 1.425 1.927l1.238.51-.669 1.165a2.975 2.975 0 0 1-2.55 1.391 3.92 3.92 0 0 1-.803-.083c-.066.29-.147.58-.244.868-.378 1.132-.052 1.92-.038 1.953l.597 1.258-1.37.363a3.87 3.87 0 0 1-.935.116 2.899 2.899 0 0 1-1.126-.22 4.117 4.117 0 0 1-.64.865c-.873.9-2.112 1.355-3.683 1.355l-1.125-.015 2.307.963-1.725.84c-.612.3-1.397.682-2.19.973l.222.602-.607.277c-.054.025-1.21.542-3.133.656 0 0-.462.023-.718.023-.258 0-.725-.022-.725-.022-1.936-.11-3.1-.632-3.155-.657l-.605-.277.22-.6c-.772-.283-1.528-.651-2.167-.963l-1.757-.85 2.315-.965-1.12.015h-.006c-1.569 0-2.808-.455-3.682-1.354a4.163 4.163 0 0 1-.64-.866 2.885 2.885 0 0 1-1.126.221c-.516 0-.928-.114-.945-.12l-1.364-.36.611-1.282v-.001c.015-.035.324-.816-.048-1.927a8.863 8.863 0 0 1-.244-.87 3.885 3.885 0 0 1-.798.084c-1.273 0-2.168-.743-2.549-1.378L.56 20.65l1.238-.51c.858-.357 1.249-1.187 1.425-1.927-1.62-.146-2.466-1.495-2.72-2.31L0 14.322l1.661.052c.121 0 1.123-.03 2.093-.735a3.633 3.633 0 0 0-.067.006c-.05.005-.101.01-.154.01-.998 0-1.968-.603-2.356-1.467l-.698-1.56c1.032.02 1.7-.1 1.7-.1h.001c.039-.008.65-.112 1.354-.833.527-.537 1.178-.822 1.883-.822.308 0 .584.055.82.131a3.233 3.233 0 0 1-.091-.385c-.204-1.317.547-2.363.7-2.56l1.246-1.532.762 1.799s.19.412.532.615c.104-.526.36-1.118.905-1.682 1.024-1.064 2.273-1.224 2.927-1.224.304 0 .52.034.59.045l.049.008 1.413.279c-.085-.33-.266-.907-.6-1.426l-.818-1.277 2.056.235.654-1.393 1.271.655L19.003 0l1.173 1.16 1.269-.654.655 1.393 2.057-.234-.817 1.275a5.091 5.091 0 0 0-.601 1.43l1.481-.293c.052-.008.269-.042.572-.042.654 0 1.903.16 2.93 1.224.544.565.8 1.156.903 1.682.343-.204.535-.624.538-.63l.76-1.788 1.228 1.522s.937 1.112.714 2.572a3.16 3.16 0 0 1-.093.387 2.71 2.71 0 0 1 .822-.131c.705 0 1.356.285 1.882.822.733.751 1.367.833 1.374.834 0 0 .804.111 1.685.1l-.702 1.56c-.387.863-1.356 1.467-2.357 1.467-.052 0-.103-.006-.154-.01a2.872 2.872 0 0 0-.065-.007c.972.706 1.974.735 2.111.735L38 14.322ZM2.178 10.528Z" clip-rule="evenodd"/><path fill="#FFDD2D" fill-rule="evenodd" d="M22.138 20.552h-8.77v-5.07c0-.491-.144-.985-.313-1.441h3.952c.376.374.744.607 1.094.735-.045.18-.105.553.063.924.138.3.387.531.748.685.04.37.274.927.92 1.173-.284.286-.559.556-.67.664l-2.624-.042a.47.47 0 0 1-.206-.19c-.002-.008-.006-.013-.01-.018a.095.095 0 0 1-.009-.017l.428.07h.027a.169.169 0 0 0 .17-.141.172.172 0 0 0-.143-.197l-.527-.083.585-2.022-.554-1.167-.886.94-.055 2.1-.596-.093a.17.17 0 0 0-.196.142.173.173 0 0 0 .142.197l.25.038c-.089.05-.148.092-.155.097l-.05.036-.015.062c-.145.59.183 1.15.537 1.4l-.012.075a.336.336 0 0 0 .06.253.33.33 0 0 0 .275.142.334.334 0 0 0 .325-.263c.132.016.253.02.336.02h.07l3.44.623.06-.04c.273-.19 1.32-.954 1.662-1.207.094.08.199.154.327.215-.112.373-.118.947.32 1.4Zm-8.77.343h11.274l.003 4.248c0 1.409-.826 2.392-2.126 2.712l.217-1.136c.012-.068.026-.146.035-.212a.95.95 0 0 0 .198.061 1.2 1.2 0 0 0 .224.023c.332 0 .526-.175.655-.325l.168-.195-.137-.214c-.012-.02-.316-.5-.547-.827a4.567 4.567 0 0 1-.134-.198h-.001c-.264-.398-.595-.893-1.258-.893l-.06.001a.964.964 0 0 0-.279.058 1.509 1.509 0 0 0-.647-.149 2 2 0 0 0-.66.129 1.663 1.663 0 0 0-.04.012.436.436 0 0 1-.074.02l-1.24-.122c-.016-.003-.067-.033-.128-.106v-.006l.268-.108c-.076-.896-.934-1.446-1.412-1.633a.506.506 0 0 0-.14-.252l-.266-.253-.234.281-.116.143-1.737-.714 1.13 1.42-.445.678c-.164.174.016.347.016.347l.461.319.478-.179.03.003.017.003a2.19 2.19 0 0 0-.043.248c-.011.08-.022.154-.03.189l-.83-.163-.87.492c-.447.33-.508.875-.342 1.247l.096.212.137.3.305-.127a.021.021 0 0 0 .01-.005c-.109.35-.064.684.131.902l.185.233.247.312.27-.29c.079-.08.337-.37.417-.617l.058-.19-.131-.145-.023-.026.149-.245 1.082.255.244.056.129-.214.07-.117c.014-.024.017-.028.067-.028a.53.53 0 0 1 .117.013c.41.077.786.116 1.12.116.325 0 .518-.013.748-.09l.602.686-.356 1.101-.016.066c-.674.055-1.002.203-1.398.6-.576-.573-.984-.633-2.531-.633-1.853 0-3.108-1.088-3.108-2.826v-4.248Z" clip-rule="evenodd"/><path fill="#000" fill-rule="evenodd" d="m16.293 3.088.295.031.128-.27.372-.796.69.357.268.137.958-.952.747.741.214.211.268-.137.686-.357.378.797.125.27.295-.032.282-.034a6.69 6.69 0 0 0-.293.798c-.745-.416-1.714-.653-2.702-.653-.983 0-1.95.237-2.699.653a6.832 6.832 0 0 0-.293-.798l.281.034Zm2.711.527c1.322 0 2.38.44 2.965.907 0 0 .173-1.047.766-1.97l-1.065.12-.557-1.185-1.07.552-1.039-1.027-1.035 1.027-1.072-.552-.557 1.186-1.065-.122c.593.924.766 1.97.766 1.97.589-.467 1.643-.906 2.963-.906Zm3.201 28.034-.515-1.42c.613-.187 1.666-.589 2.139-.856l-.315 1.033 1.067.355a12.87 12.87 0 0 1-2.376.887Zm-3.198 1.275c-1.241 0-2.658-.286-3.075-.435l.634-1.718c.526.153 1.62.317 2.415.312h.05c.794.005 1.887-.159 2.416-.313l.633 1.72c-.418.148-1.834.434-3.073.434Zm-5.576-2.163 1.068-.355-.316-1.033c.472.267 1.527.67 2.138.856l-.515 1.42c-.945-.26-1.73-.564-2.375-.888Zm11.197-.315-.649-.25.18-.673.197-.732s-1.15.626-2.773 1.095c-.46.132-.808.192-.808.192v.5s-.868.15-1.744.15h-.05c-.878 0-1.744-.15-1.744-.15v-.5s-.349-.06-.809-.192c-1.621-.47-2.771-1.095-2.771-1.095l.194.732.184.673-.652.25-.723.27.243.118c.801.39 1.832.893 2.783 1.154l-.247.678s1.332.608 3.551.614v.001h.03v-.001c2.222-.006 3.554-.614 3.554-.614l-.25-.678c.963-.264 2.01-.775 2.812-1.168l.213-.104-.72-.27Zm9.617-8.418a1.783 1.783 0 0 0 1.517-.802c-2.532-1.053-2.282-4.45-2.282-4.45s.329.246.97.269l.066.001c1.394 0 1.867-1.496 1.867-1.496h-.028c-.255 0-2.328-.06-3.795-1.927l-.127-.162c-.91-1.16-1.697-2.163-3.19-2.569l-.153-.027-.034-.157c-.043-.239.12-.463.491-.705 2.155-1.413.692-3.217.692-3.217s-.616 1.442-1.992 1.442h-.051l-.052-.002-.027-.001a2.74 2.74 0 0 1-.433-.045l-.253-.05s.393-1.07-.555-2.051c-.714-.742-1.582-.868-2.083-.868-.253 0-.413.033-.413.033.475.623.82 1.658.27 2.296-.184.212-.47.346-.753.478-.446.21-.882.413-.882.914 0 .347.323.75.903 1.113 1.744 1.1 3.475 2.562 4.195 4.518.9 2.44-.114 4.06-1.56 4.99 0 0 .454.417 1.111.47.134.014.265.02.387.02 1.389 0 2.107-.653 2.107-.653s-.119.902-.841 1.739c-.667.772-1.542 1.228-2.878 1.247 0 0-.042.62.55 1.158.378.34 1.251.449 1.251.449s-1.635.332-1.816 2.753c-.098 1.311-.433 1.767-.433 1.767h.03c3.796 0 3.699-3.262 3.699-3.262s.264.966 1.323 1.218c.128.034.265.047.395.047.34 0 .637-.08.637-.08s-.555-1.172-.005-2.812c.456-1.36.383-2.368.383-2.368s.511.775 1.78.782h.013Zm2.576-6.34c-.023.074-.596 1.816-2.305 1.816l-.081-.002a2.939 2.939 0 0 1-.488-.058c.07.95.418 2.707 1.99 3.36l.481.2-.26.452-.001.003a2.259 2.259 0 0 1-1.925 1.026 2.93 2.93 0 0 1-1.366-.322 8.13 8.13 0 0 1-.362 1.6c-.475 1.415-.04 2.411-.017 2.465v.002l.235.497-.532.142h-.003a3.214 3.214 0 0 1-.75.092 2.242 2.242 0 0 1-1.456-.536 3.59 3.59 0 0 1-.825 1.399c-.732.755-1.788 1.136-3.166 1.136l-.835-.011.461-.707c.004-.004.27-.419.353-1.539.098-1.342.605-2.126 1.104-2.576a1.633 1.633 0 0 1-.391-.256c-.735-.661-.704-1.44-.7-1.525l.032-.42.418-.006c1.124-.019 1.906-.354 2.542-1.092a3.29 3.29 0 0 0 .363-.514c-.35.106-.78.186-1.286.186a6.56 6.56 0 0 1-.426-.018 2.508 2.508 0 0 1-1.381-.59l-.438-.403.5-.32c1.111-.716 2.256-2.07 1.378-4.447-.567-1.545-1.88-2.945-4.009-4.286-.72-.456-1.116-.992-1.116-1.504 0-.791.661-1.104 1.145-1.326l.045-.022c.221-.105.444-.212.556-.342.374-.435.059-1.268-.29-1.72l-.442-.585.718-.143.02-.003c.06-.01.235-.035.482-.035.54 0 1.571.13 2.413 1.004.7.725.79 1.498.754 1.998l.162.01.046.002h.079c1.04 0 1.54-1.092 1.57-1.161l.002-.003.297-.7.476.59c.03.036.731.913.563 2.012-.115.73-.572 1.36-1.359 1.878a1.51 1.51 0 0 0-.188.14c1.477.482 2.305 1.537 3.176 2.646l.008.01.127.158c1.337 1.703 3.224 1.753 3.45 1.753h.002l.641-.02-.19.614Zm-4.228-5.64c.319 0 .69.11 1.041.473 1.102 1.12 2.127 1.183 2.127 1.183-.186.413-.726.776-1.285.776-.13 0-.26-.02-.388-.065-.35-.117-.595-.422-.889-.786-.344-.427-.753-.935-1.472-1.318 0 0 .371-.262.866-.262Zm-1.083.668c.638.34 1.01.796 1.335 1.2l.013.016c.316.39.617.76 1.087.917.168.058.348.086.53.086.714 0 1.43-.438 1.702-1.044l.274-.606-.662-.04c-.03 0-.882-.079-1.828-1.047-.39-.398-.86-.606-1.368-.606-.597 0-1.045.288-1.123.337l-.007.005-.608.429.655.353Zm.3 6.075v-.024c.583 3.047 1.878 3.829 1.878 3.829-1.03-.51-1.68-1.86-1.838-2.346-.17 2.678-1.475 4.536-3 6.325-.792.927-1.067 1.829-1.067 1.829s.152-1.022.836-1.853c1.423-1.713 2.776-3.845 2.876-6.31.069-1.721-.372-3.116-1.062-4.266.386 1.198.331 2.664-.978 4.033 0 0 2.606-3.128-1.037-6.335-1.035-.867-2.14-1.498-2.987-1.982a19.46 19.46 0 0 1-.888-.527c2.968.97 4.417-.098 4.417-.098-.948.823-2.175.81-2.936.69.207.101.421.207.652.331 2.503 1.361 4.751 3.602 5.135 6.704ZM11.99 28.503c-3.797 0-3.7-3.262-3.7-3.262s-.265.966-1.323 1.218a1.562 1.562 0 0 1-.394.047c-.341 0-.636-.08-.636-.08s.552-1.172.002-2.812c-.455-1.36-.381-2.368-.381-2.368s-.51.775-1.78.782h-.013a1.784 1.784 0 0 1-1.516-.802c2.53-1.053 2.282-4.45 2.282-4.45s-.33.246-.97.269l-.067.001c-1.396 0-1.868-1.496-1.868-1.496h.028c.258 0 2.329-.06 3.794-1.927l.124-.158c.912-1.161 1.7-2.167 3.193-2.573l.156-.028.034-.156c.043-.239-.12-.463-.491-.705-2.155-1.413-.691-3.216-.691-3.216s.612 1.441 1.992 1.441h.049l.052-.001.037-.002c.142-.008.283-.015.422-.045l.254-.05s-.394-1.07.556-2.051c.714-.742 1.581-.868 2.083-.868.254 0 .412.033.412.033-.475.623-.819 1.658-.27 2.296.184.212.47.346.752.478.447.21.882.413.882.914 0 .347-.323.75-.902 1.113-1.745 1.1-3.475 2.562-4.196 4.518-.898 2.44.116 4.06 1.564 4.99 0 0-.456.417-1.114.47a4.083 4.083 0 0 1-.388.02c-1.387 0-2.105-.653-2.105-.653s.119.902.837 1.74c.671.771 1.545 1.227 2.881 1.246 0 0 .042.62-.548 1.157-.38.34-1.253.45-1.253.45s1.637.332 1.817 2.752c.098 1.313.43 1.768.43 1.768h-.027Zm.403-.26-.001-.003c-.022-.037-.268-.463-.35-1.537-.1-1.343-.606-2.126-1.106-2.576.145-.069.278-.153.391-.256.735-.661.704-1.44.699-1.525l-.028-.42-.421-.006c-1.121-.019-1.905-.354-2.54-1.092a3.419 3.419 0 0 1-.364-.514c.35.106.778.186 1.285.186.136 0 .277-.008.426-.018a2.514 2.514 0 0 0 1.383-.59l.438-.403-.5-.32c-1.115-.716-2.256-2.07-1.38-4.447.568-1.545 1.88-2.945 4.012-4.286.719-.456 1.113-.992 1.113-1.504 0-.791-.66-1.104-1.144-1.326l-.043-.02c-.222-.107-.446-.214-.558-.344-.375-.435-.06-1.268.289-1.72l.446-.585-.722-.143-.016-.003c-.054-.008-.23-.035-.484-.035-.54 0-1.57.13-2.411 1.004-.701.726-.793 1.498-.757 1.998l-.163.01-.045.002h-.077c-1.055 0-1.554-1.12-1.573-1.164l-.297-.7-.48.59-.004.005c-.06.078-.72.937-.554 2.007.113.73.571 1.36 1.357 1.878.086.055.146.102.188.14-1.478.482-2.305 1.535-3.175 2.643l-.01.013-.126.158c-1.336 1.703-3.227 1.753-3.453 1.753l-.644-.02.196.614c.023.075.593 1.817 2.304 1.817l.082-.002c.182-.005.344-.03.488-.058-.07.95-.42 2.707-1.992 3.36l-.48.2.26.452v.001c.032.053.617 1.028 1.93 1.028a2.933 2.933 0 0 0 1.362-.321c.051.43.157.982.363 1.6.472 1.404.046 2.396.017 2.463v.003l-.237.497.534.142c.035.01.363.092.752.092a2.231 2.231 0 0 0 1.456-.536c.145.447.393.952.825 1.399.733.755 1.788 1.136 3.166 1.136l.835-.011-.462-.707ZM5.417 10.05c-.32 0-.691.11-1.044.472-1.1 1.121-2.124 1.184-2.124 1.184.184.413.725.775 1.284.775.13 0 .26-.019.385-.064.35-.118.597-.423.892-.788.344-.427.755-.934 1.472-1.317 0 0-.373-.262-.865-.262Zm-1.353 2.8a1.606 1.606 0 0 1-.531.086c-.713 0-1.428-.437-1.701-1.043l-.271-.607.66-.039c.03 0 .88-.079 1.827-1.047.389-.398.86-.606 1.37-.606.595 0 1.041.286 1.12.336l.007.005.609.43-.656.352c-.634.338-1 .79-1.326 1.192l-.008.009-.01.012c-.316.39-.618.764-1.09.92Zm2.452 5.391c-.071-1.721.37-3.116 1.06-4.266-.384 1.198-.332 2.664.979 4.033 0 0-2.607-3.128 1.038-6.335 1.035-.867 2.14-1.499 2.987-1.983.345-.198.648-.371.886-.526-2.967.97-4.415-.098-4.415-.098.946.823 2.173.81 2.934.69l-.036.018c-.195.096-.4.196-.615.313-2.504 1.361-4.75 3.602-5.136 6.704v-.024c-.582 3.047-1.876 3.829-1.876 3.829 1.03-.51 1.678-1.86 1.836-2.346.172 2.678 1.476 4.536 3.001 6.325.791.927 1.07 1.829 1.07 1.829s-.154-1.022-.841-1.853c-1.421-1.713-2.773-3.845-2.872-6.31Zm9.98-12.46 2.508.992 2.508-.992c-.213-.506-1.196-.936-2.508-.937-1.31.001-2.294.431-2.507.937Zm2.692 4.99 1.685-.89.601-3.49-2.286.778v3.602Zm3.5.515-.771-.448-.792-.455-2.115 1.154-.006-.005-.004.005-2.116-1.154-.791.455-.773.448h-.008l-.196.113a2.268 2.268 0 0 1 1.08.658c.063.066.124.139.184.212l.002.003c.013.016.025.03.039.05.054.072.109.149.162.227l.02.03.016.023c.063.096.123.195.183.298.548.947 1.424 1.513 2.202 1.514.778 0 1.654-.567 2.203-1.514.06-.105.122-.207.185-.303l.029-.041c.053-.082.11-.161.17-.238l.022-.028.013-.018c.061-.076.125-.15.189-.218l.013-.013.017-.017a2.28 2.28 0 0 1 1.047-.625l-.194-.113h-.01Zm1.953 4.197c0-.49.143-.985.316-1.44h-3.954c-.606.6-1.187.824-1.706.876a2.87 2.87 0 0 1-.286.015h-.013a2.883 2.883 0 0 1-.568-.06c-.033.136-.077.418.047.687.11.243.333.424.658.545l.11.042.002.119c0 .035.026.802.859 1.014l.032-.033c.123-.128.234-.243.32-.34-.17-.402-.082-.812.166-1.013-.011.042-.12 1.048.684 1.422l.133.062-.04.142c-.012.042-.28 1.016.694 1.378l.172.065-.076.168c-.018.038-.399.92.5 1.422h1.952v-1.552c-.694-.085-.988-.644-1.064-1.04-.322-.055-.572-.195-.744-.422-.365-.483-.123-.929-.064-1.037.007-.013.012-.021.012-.024 0 .005 0 .53.325.856.16.156.351.277.638.305l.143.013.012.145c.003.03.08.744.742.855l-.002-3.17ZM22.737 26.72l-.218 1.137c1.3-.32 2.126-1.304 2.126-2.712l-.002-4.25H13.367v4.25c0 1.738 1.256 2.826 3.108 2.826 1.547 0 1.955.06 2.531.632.397-.397.725-.545 1.398-.6l.016-.066.356-1.1c-.02-.025-.6-.686-.6-.686-.231.077-.426.089-.75.089a6.09 6.09 0 0 1-1.119-.115.522.522 0 0 0-.118-.014c-.05 0-.053.004-.066.03l-.07.115-.13.215-.244-.056-1.082-.256-.148.245.022.027.131.145-.058.19c-.08.247-.338.537-.417.616l-.27.29-.246-.311-.185-.233c-.195-.219-.24-.552-.13-.903-.003.003-.007.004-.012.005l-.305.127-.137-.3-.096-.21a1.033 1.033 0 0 1 .342-1.248l.871-.492.829.162c.009-.035.02-.11.031-.19.014-.1.03-.207.042-.247a.292.292 0 0 1-.016-.002c-.01-.002-.02-.004-.031-.004l-.478.179-.46-.318s-.18-.175-.018-.348l.447-.677-1.13-1.421 1.737.715.115-.143.234-.282.267.253a.506.506 0 0 1 .139.252c.478.187 1.337.738 1.412 1.634l-.268.107v.006a.35.35 0 0 0 .128.107l1.24.122a.727.727 0 0 0 .07-.02 1.75 1.75 0 0 1 .045-.013c.154-.052.384-.128.66-.128.223 0 .438.05.647.148a.976.976 0 0 1 .28-.057l.058-.002c.664 0 .994.496 1.259.892v.001c.045.07.088.134.134.198.232.328.535.806.547.828l.136.214-.166.195c-.13.15-.323.325-.656.325a1.27 1.27 0 0 1-.225-.024.968.968 0 0 1-.197-.06 6.02 6.02 0 0 1-.025.157l-.01.054Zm-7.104-1.118-.06-.147c-.041-.096-.035-.2.045-.256l.475-.329.792.153s-.144-.18-.13-.42l-.756-.16-.713.434a.694.694 0 0 0-.227.826l.095.209s.44-.182.479-.31Zm6.523 2.324.243-1.27c.028-.14.053-.325.053-.325a3.32 3.32 0 0 0-.052-.052c-.11-.107-.29-.283-.397-.49a1.195 1.195 0 0 1-.127-.453 1.964 1.964 0 0 0-.111-.48s.049-.1.161-.1a.22.22 0 0 1 .056.007c.148.042.249.293.363.577.154.384.333.828.684.893.06.013.116.016.164.016.177 0 .282-.075.396-.21 0 0-.308-.484-.537-.81a5.865 5.865 0 0 1-.142-.208c-.248-.371-.491-.737-.97-.737-.014 0-.03 0-.044.002a.575.575 0 0 0-.303.101 1.175 1.175 0 0 0-.64-.194c-.218 0-.408.062-.553.11a.83.83 0 0 1-.219.054h-.005l-1.27-.126c-.199-.019-.356-.22-.413-.298-.014-.02-.021-.034-.021-.034 0-.035 0-.07-.003-.102-.042-1.04-.847-1.486-1.134-1.493 0 0 .034-.197-.043-.273l-.28.34-.92-.462.657.768-.556.625c-.07.071-.061.167-.032.208l.24.212.304-.185c.015-.011.044-.014.077-.014.039 0 .087.004.138.01.06.005.125.011.186.011.124 0 .23-.026.244-.143-.011.117-.052.26-.097.416-.103.362-.228.8-.064 1.167l.174.399-1.123-.163-.526.89c-.162.296-.188.616-.032.79l.197.247s.276-.293.338-.486l-.09-.098c-.075-.083-.071-.157-.025-.246l.33-.547 1.326.312.07-.12c.09-.15.22-.194.361-.194.06 0 .119.007.181.017.246.05.651.114 1.056.114.445 0 .886-.08 1.12-.344.247.366.623.574.92.739.283.157.495.274.458.451l-.256 1.221a4.7 4.7 0 0 0 .488-.04Zm-1.396.057c.142-.006.3-.008.47-.008 0 0 .409-1.196.432-1.233a9.895 9.895 0 0 1-.887-.47c.04.06.097.121.155.183.12.128.242.258.202.367l-.372 1.16Zm-5.01-12.488-.052 2.019.23.035.559-1.937-.284-.596-.452.48Zm.573 2.961a.798.798 0 0 1-.3-.317c-.085-.18-.206-.263-.383-.263-.23 0-.477.139-.583.204-.085.498.282.95.528 1.04.222.081.492.098.631.098l.005-.015a1.556 1.556 0 0 0 .047-.175c.038-.2.052-.426.055-.572Zm3.368 1.364c.325-.227 1.22-.882 1.568-1.139-.253-.37-.276-.809-.22-1.118a1.582 1.582 0 0 1-.393-.354A39.682 39.682 0 0 1 19.4 18.47l-.05.05-.05.05-2.629-.042a2.725 2.725 0 0 1-.107.73l3.128.562ZM18.1 14.777c-.35-.128-.718-.36-1.094-.735h-3.952c.17.456.313.95.313 1.441v5.07h8.77c-.438-.453-.431-1.027-.32-1.399a1.468 1.468 0 0 1-.327-.216c-.342.253-1.388 1.016-1.662 1.208l-.059.04-3.441-.624h-.07c-.083 0-.204-.004-.336-.019a.336.336 0 0 1-.38.257.33.33 0 0 1-.22-.137.331.331 0 0 1-.06-.253l.013-.075c-.354-.25-.682-.81-.537-1.4l.014-.062.05-.036a2.01 2.01 0 0 1 .156-.097l-.25-.038a.174.174 0 0 1-.143-.197c.017-.093.105-.16.197-.143l.596.096.054-2.102.887-.94.553 1.167-.584 2.021.527.084a.172.172 0 0 1 .141.197.169.169 0 0 1-.168.142l-.027-.001-.428-.07a.086.086 0 0 0 .009.016l.01.018a.47.47 0 0 0 .206.192l2.623.041c.111-.108.387-.378.67-.664a1.417 1.417 0 0 1-.92-1.173c-.36-.154-.61-.385-.748-.684-.168-.371-.108-.744-.063-.925Zm.72-7.608-2.288-.778.604 3.49 1.685.89V7.17Zm.189-2.882c1.63 0 3.107.791 3.107 1.67l-.032.216-.65 3.743.65.38 1.695.99h-.007s.382.196.555.316c.648.448.783 1.102.41 1.373-.094-.534-.514-1.09-1.301-1.09-.568 0-1 .29-1.352.732-.088.111-.172.23-.253.357a6.825 6.825 0 0 1-.293.439h4.358c-.321.645-.626 1.328-.626 2.07v9.662c0 2.338-1.792 3.454-3.735 3.454h-.32c-1.216-.005-1.447-.006-2.209.758-.765-.764-.996-.763-2.212-.758h-.319c-1.942 0-3.737-1.116-3.737-3.454v-9.662c0-.742-.304-1.425-.625-2.07h4.358a6.908 6.908 0 0 1-.294-.438 3.48 3.48 0 0 0-.255-.358c-.348-.44-.781-.733-1.348-.733-.788 0-1.209.557-1.301 1.09-.374-.27-.237-.924.407-1.372.176-.12.557-.316.557-.316h-.006l1.691-.99.654-.38-.65-3.743-.033-.216c0-.879 1.477-1.67 3.107-1.67h.009Zm-1.242 4.028c.255.203.413.254.446.264l.005.002h.001l.11.052v-.58l-1.04-.438s.009.336.478.7Zm.38 3.648v.615c.212-.258.62-.206.62-.206v.887s-.013.437-.168.625h.885c-.153-.188-.168-.625-.168-.625v-.887s.41-.052.62.206v-.615h-1.79Zm2.574-4.348s-.01.336-.48.7c-.256.204-.413.254-.445.264l-.006.002-.11.052v-.58l1.04-.438Zm-3.865 15.231a.114.114 0 0 1 .122-.107c.066.002.112.06.11.122a.117.117 0 0 1-.123.108.113.113 0 0 1-.11-.123Zm113.16-10.383V11.5h-3.035v.963c-3.809.084-6.09 1.695-6.09 4.542 0 2.846 2.281 4.332 6.09 4.416V22.5h3.035v-1.079c3.831-.084 6.047-1.6 6.047-4.447s-2.216-4.427-6.047-4.511Zm-3.035 6.823c-2.093-.084-3.014-.942-3.014-2.281 0-1.34.921-2.303 3.014-2.386v4.667Zm3.035 0V14.62c2.114.083 2.981 1.046 2.981 2.386s-.867 2.197-2.981 2.281Zm-23.042-2.253c0-2.97 2.446-5.27 6.523-5.27 4.057 0 6.503 2.3 6.503 5.27 0 2.969-2.446 5.269-6.503 5.269-4.077 0-6.523-2.3-6.523-5.27Zm3.199 0c0 1.63 1.296 2.843 3.324 2.843 2.008 0 3.325-1.212 3.325-2.843s-1.317-2.823-3.325-2.823c-2.028 0-3.324 1.192-3.324 2.823Zm-64.167-4.998H46v2.935h.006V15H50v7l1.718-.001 1.283.008V15H57v-.03h.01L57 13.81V12H46.006v.036Zm15.028 5.792 5.227-5.792h2.677v9.953L65.98 22l-.006-5.882-.069.08-5.227 5.791h-2.677v-9.952h3.032v5.791Zm12.932.642h5.03v3.52h2.981v-9.954h-2.98v3.915h-5.03v-3.914h-2.965v9.952h2.965V18.47Zm18.389 3.29c-.586.167-1.213.23-1.903.23h-6.49v-9.954h3.033v2.677h3.457c.752 0 1.547.02 2.216.272 1.401.523 2.28 1.673 2.28 3.324 0 1.736-1.025 3.011-2.593 3.45Zm-2.426-4.705h-2.934v2.53h2.934c.523 0 .857 0 1.192-.147.48-.209.774-.648.774-1.17 0-.502-.293-.92-.795-1.088-.355-.125-.753-.125-1.17-.125Zm9.068 1.17h.609l3.617 3.764h4.036l-5.039-5.185 4.851-4.768h-3.806l-3.66 3.743h-.608v-3.742h-3.032v9.952h3.032v-3.763Zm47.006-6.724v.962c3.83.084 6.047 1.665 6.047 4.511 0 2.847-2.217 4.364-6.047 4.447v1.08h-3.035v-1.08c-3.81-.083-6.091-1.57-6.091-4.416s2.281-4.458 6.091-4.542V11.5h3.035Zm-6.049 5.504c0 1.34.921 2.198 3.014 2.281v-4.667c-2.093.084-3.014 1.046-3.014 2.386Zm6.049-2.386v4.667c2.114-.083 2.98-.941 2.98-2.28 0-1.34-.866-2.303-2.98-2.387Z" clip-rule="evenodd"/></svg>