<svg xmlns="http://www.w3.org/2000/svg" width="96" height="95" fill="none" viewBox="0 0 96 95"><g filter="url(#a)" style="mix-blend-mode:plus-darker"><path fill="url(#b)" d="M26.892 70.157c-.653-.674-.787.163-1.206.3-.93-.655 0-.722-.03-1.24-.623-.37-1.446-.3-1.798-.686.051-.107 0-.207.192-.222-.905-.14-1.569-1.533-2.663-1.659a.4.4 0 0 1 .04-.196c-.127.29-.323.543-.57.74-.305-.288-.857-.244-.654-.673.175.192.316.078.501.067l-.448-.174c.174-.741.582.266.92-.07-.742-.46-1.855-.79-2.178-1.382.345-.544 1.239.937 1.013-.078l.549.889c.152-1.252.37.485.634-.77-.82-1.074-1.287-.833-2.103-1.907-.46.033-.297.437-.742.47-1.788-.896.063-2.173-1.521-2.57-.553.041-1.213.508-1.621-.496l.742-.263c-.868-.966-1.25.2-1.874-1.11.371-.03.89.551.813.37-.227-1.019-.742-.156-1.206-.633l.345-.545a19 19 0 0 0-1.762-1.296q-.47-.316-.939-.655a14 14 0 0 1-.463-.344l-.226-.178-.182-.17c.185-.07.467-.049.412-.404a3.6 3.6 0 0 1-.876-.866 4.5 4.5 0 0 1-.37-.526 16 16 0 0 1-.268-.578q-.135-.286-.2-.596c-.052-.204-.112-.4-.149-.6s-.044-.404-.067-.6l-.03-.289v-.288q-.326-.2-.667-.434c-.03-.133.204-.292.323-.166.122-.611-.345.03-.594-.222-.089-.341.241-.49.438-.3a3 3 0 0 1-.23-.404 8 8 0 0 1-.19-.489 4.3 4.3 0 0 1-.24-1.136 2.4 2.4 0 0 1 0-.593q.022-.286.081-.566c.091-.334.252-.644.471-.911l.104.255a.8.8 0 0 0 .082-.53 2.3 2.3 0 0 0-.19-.48c-.159-.32-.237-.634.179-.915l.018.189c.138-.208.234-.441.371-.645.138-.203.267-.425.394-.644.126-.218.293-.407.434-.615l.218-.303.249-.274c.17-.182.326-.37.508-.522q.295-.272.616-.511c.392-.313.83-.563 1.298-.74-.319-.79 1.855-1.349 1.176-2.222 1.302-.534 1.176-.134 2.73-1.17.372-.312.034-1 .372-1.508l.452.4.156-1.003.794.174.296-.504c-.181.137-.519.16-.612 0 .446-.81 1.81-1.248 2.033-1.055l1.143-1.825c.13.196-.063.5-.156.8.371-1.204.571.28.92-.819-.19 0-.19-.296-.256-.392.608-.119 1.432-.937 1.94-1.648l.163.392c1.173-1.025 2.185-2.45 3.428-3.676-.575.31-.953-.27-.638-.682l.571.282c-.03-.497-.538.218-.37-.585.511-.411.797.177.67.581l.413-.711c.159.096.096.293.222.492-.033-.496 1.399-.54 1.272-1.332l.156.096c1.24-1.23 1.655-1.937 2.638-2.962-.349-.37.126-.7.13-1.296.857-.619 1.966-1.152 2.826-2.07.442-.807-.13-.496-.066-.996.37.289 1.239-.63 1.02.074a19.6 19.6 0 0 0 2.378-3.055c-.282 0-.509.115-.538-.085.189-.3.7-.418.827-.222l-.03.1a3.75 3.75 0 0 1 1.135-1.274c.238-.181.494-.348.742-.511.249-.163.486-.233.742-.344l.341-.156.346-.126q.315-.125.615-.281.286-.121.52-.326.11-.1.204-.219.102-.114.178-.248l-.049.078.553-.544.62-.485c.667-.152-.275.474.285.585.271-.258.593-.455.946-.578q.454-.105.92-.115.437.036.876.023c.316.006.63-.042.93-.141.204.337.523.59.899.71q.285.11.582.179c.208.044.427.074.642.137.879.155 1.803.537 2.107 1.233l.115-.311c.463-.082.226.396.37.592.13-.222-.118-.455.16-.474q.242.134.483.278c.16.096.293.233.437.37l.215.181q.12.1.227.212.244.245.478.496a38 38 0 0 1 1.822 2.125c1.176 1.481 2.3 3.003 3.498 4.41.894 1.018 1.75-.663 2.396 1.11l-.775.09c2.448 1.407 3.925 3.954 6.254 5.398-.215 0-.348.111-.53-.074.085.715 1.458 1.481 1.725 1.237.263.322-.167.3-.115.61.215.586 1.406.604 1.306 1.112 0 .089-.216 0-.312-.06.412.108 1.172 1.252 1.287.641.534.881 1.517 1.192 1.855 1.97.775-.037 1.016 1.403 1.71.948-.645.54.76 1.718 1.484 1.885-.326.03.204.577-.219.647.52.504 1.113.86 1.313.467.234 1.648 2.463 1.318 2.085 2.755q1.379.898 2.597 1.796.617.45 1.206.903l.582.452c.19.152.393.311.538.444a.4.4 0 0 1-.468.045 3.3 3.3 0 0 1-.57-.448c-.372-.345-.743-.674-1.036-.334q.54.362 1.113.667l.512.278.42.23c.288.146.55.342.774.577.26.25.464.55.598.885.107.403-.427 0-.609-.04q.198.205.371.432.177.215.304.463.263.478.438.992c.115.337.241.667.338 1q.083.25.193.489.09.252.207.492c-.078 0-.181-.125-.263-.251.063.263-.033.625.338.555l-.141-.252c.244-.252.567-.033.871.296.305.33.52.741.672.785-.564-.24-.594.141-.709.463s-.274.593-.946.197a.52.52 0 0 0 .49.37c-.085.27-.237.333-.516.044.023.294.121.578.286.822a.8.8 0 0 1 .078.767c-.182-.045-.208-.237-.397-.37.137.25.235.522.29.803.046.332-.03.669-.216.948-.089-.082-.256-.048-.178-.263q-.065.231-.104.467-.06.225-.093.455a7 7 0 0 1-.148.918 2.72 2.72 0 0 1-.994 1.703c-.32-.836-.545.208-1.113-.21-.063.118-.108.229-.185.37l-.242.389h.49c-.56.54-.694 1.384-1.328 1.7l.208-.612-.942 1.111.771-.4c-.304.811.683.56-.189 1.155.096-.196-.56.548-1.135.548a1.62 1.62 0 0 1-.764 1.16c-.264-.053-.457-.626-.631-.663.141.677-1.18 1.407-1.087 2.18a.62.62 0 0 0-.33-.492l.107.56c-.37.147-.452.132-.615-.112-.828.707.868.37-.316 1.018.045-.096-.037-.11.06-.31-1.057.777-1.562 1.98-2.567 2.658-.742-.245.615-.856-.086-.989-1.112 1.303-1.925 3.103-3.216 4.162l.271-.163c.534.855-1.22.53-1.484 1.452.097-.197-.193-.578-.156-.46-.916.693-1.483 1.815-2.478 3.251l-.026-.33c-.634.316-1.343 1.156-1.936 1.59.026.329-.297.592.14.673-2.596.563-2.47 3.555-4.721 4.11.166-.17.244-.555.11-.422l-1.03 1.355c.396.212.34.03.827 0a1.6 1.6 0 0 1-.468 1.111c.338-.74-.49-.481-.89-.418.13.055.152.237.267.31-1.165.086.505.712-.708 1.2l-.115-.203c-.238.4-.323.903-.712 1.203-.494-.207.178-.503-.09-.814-.463.503-.289 1.614-1.075 1.703.107-.304.4-.6.508-.9-.887.063-.838.222-1.258.511l.045-.026-1.005.633.319-.1c.307 1.511-1.054 1.415-1.288 2.792.245-1.325-.196-.444-.523-.91-.308.07-.712.2-.742 0-.026.325-.226.407-.452.477a.74.74 0 0 0-.516.667c-.122-.13-.452.248-.593-.193-.45.43.282.196.37.411a1.2 1.2 0 0 1-.608.54 7 7 0 0 1-.898.204q-.487.046-.957.185a2.3 2.3 0 0 0-.92.537c-1.131.556-1.331 1.193-2.596 1.481-.208-.155-.112-.314.03-.437q.145-.123.318-.203a2.1 2.1 0 0 0-.875-.226 4.3 4.3 0 0 0-.868.067c.148-.137.037-.29-.104-.515a.65.65 0 0 0-.467.233c-.123.097-.264.152-.546-.052q.27-.344.627-.596a8 8 0 0 0-.875.13q-.456.051-.916.03c-.03-.341.5-.33.741-.463-.645-.037-1.606-.352-2.032 0 .096.125.203.23.307.348-.233-.086.082-.437.275-.448.337-.06.493.063.571.225a.74.74 0 0 1 .067.441 3 3 0 0 1-.441-.055c0 .596.448.696.968.703a6 6 0 0 0 .808-.078q.36-.047.716.019c-.167.244-.334.459-.511.681a10 10 0 0 0 1.012-.474c.156.222.249.67-.219.722.304.234.464.19.601.145s.267-.108.542.114c.06.07.03.108-.033.134l.66-.2c-.126.159.111.552-.3.422.26.11.545.142.823.093q.337-.056.653-.186c.37-.177.642-.33.916-.074l-.093.063c.26-.05.5-.169.698-.344a.24.24 0 0 0 .052-.274c-.06-.181-.156-.407.315-.863q.559.582 1.19 1.081l-.036-.585c.166-.037.497-.107.523.122.426-.622-.19-.18 0-.67.49.008.968-.159 1.346-.47.405-.248.742-.422 1.084-.118 0-.522-.81.177-.286-.57.37.325.56.136.742-.13.096-.13.181-.293.29-.437a.8.8 0 0 1 .466-.296c.175.518-.549.814.32.633-.208-.93 1.172-.863 1.483-1.411-.456-.492.742-1.11 1.288-1.996.11.204 1.606-1.085 2.448-1.577l.06.1c-.372-.611.426-1.207.827-1.803a.74.74 0 0 1 .148.907l.467-.47a1.1 1.1 0 0 1 .275-.852l.241.478c.605-.645.835-1.681 1.88-2.248-.289-.37-1.572-.293-.945-1.366.211.148.556.425.404.74.052-.1.111-.41.338-.481l-.037.644c.5-.233-.063-.448.26-.71.251.262.4-.034.563.214-.048.1-.37.148-.37.37a1.97 1.97 0 0 1 1.257-.466.408.408 0 0 1-.141-.622c.608-.645.526.096 1.024-.137-.026-.33.56-.54.181-.94.186-.182.401-.034.575 0 .153-.493 1.466-1.56.69-1.608l-.11.06.036-.07c.675-1.445 2.422-1.986 3.313-3.204l.126.133c.482-.777 1.313-1.48 1.484-2.221.189-.185.675-.2.742.033.37-.578.29-.777 1.198-1.259-.256.711.37.034-.33.663.742-.515 1.087-.448 1.402-1.481.104.559.89-.052 1.087-.448l-.675.2c.275-.338.592-.64.942-.9l.278.593c1.807-.741 1.403-3.203 3.265-3.288.033-.641-.91.48-.965-.178.646-.53 1.885-.515 2.07-.7 1.05-.563.115-1.385 1.113-2.062-.263-.049-.779-.37-.297-1.137.646-.53 1.376-.07 1.113.426-.13.155-.248.174-.293.114-.133.245-.319.563.085.497l-.081-.23c.452-.133 1.246-.96 1.31-.515.296-.592-.064-.444-.476-.196.406-.223.77-.513 1.076-.859l.464-.481q.296-.315.634-.582c-.226.074-.538.034-.408-.11q.22-.174.42-.371.117-.133.2-.289a.47.47 0 0 0 .06-.37c-.053-.189-.168-.34.125-.852.627-.403.553.64.935-.563.564-.555.608.13.597.497q.04-.222.119-.434a3 3 0 0 1 .156-.37q.183-.353.441-.655.437-.5.78-1.07l-.045.666c.037-.342.116-.68.233-1.003-.166.081-.37.148-.53.218.204-.322.252-.633.438-.578-.193-.433-.776.078-.987-.707a.9.9 0 0 0 .16-.37c.03-.156.03-.322.048-.478.03-.31.096-.577.4-.625-.204.718-.055.696.138.659s.426-.115.37.544c-.023-.314.026-.63.145-.922.074-.048.115.067.134.174.37-.715.185-.918-.026-1.11a1.3 1.3 0 0 1-.33-.371 1.76 1.76 0 0 1-.16-.767c.338.19.608-.37.527-.622.022.626-.534.308-.812-.207.155-.966-.323-.989-.371-1.481l-.038.566a.63.63 0 0 1-.34-.418c-.082-.2-.168-.455-.29-.74.234-.115.308.514.37.27a.72.72 0 0 1-.285-.504q-.015-.158 0-.314v-.334c0-.459.067-1.007-.341-1.377 0-.515.545-.293.504-.74a1.8 1.8 0 0 1-.575-1.112 2.4 2.4 0 0 0-.148-.54 1.65 1.65 0 0 0-.505-.578c-.14.552-.033.519-.875.1l.709.704c.226.24.43.507.645.766a10 10 0 0 0-1.21-.715c.175.226.372.449.58.66.175.16.318.352.422.566-.616-.337-.482-.326-.668.085a1.01 1.01 0 0 0-.515-1.04 1.7 1.7 0 0 1-.794-.963l.86-.681a2.6 2.6 0 0 0-.608-.855 2 2 0 0 0-.37-.286 12 12 0 0 0-.394-.23 4.4 4.4 0 0 1-1.602-1.284l.23.5c-.46.155-.742-.66-1.236-.904.293-.222.156-.548.16-.862-.175.21-.816-.852-1.436-.437l-.167-.848c-.779-1.055-1.784-.311-2.596-1.278.549 0 .33-.6 1.112-.21-.293-.297-.512-.608-.693-.434 0-.333-1.169-.47-1.191-.985-.241 0-.553.219-.86-.133 0-.09.13-.126.13-.126-.13.126-.695-.344-.69.233-.101-1.714-2.598-2.477-2.694-3.958a28 28 0 0 1-2.192-1.81c.115-.041.13-.127.215 0-.568-1.045-1.24.247-1.888-.937-.049-.885.712.259.578-.19.787-.97-1.157-.97-1.283-2.08l.2.1c-.182-.74-1.484-.826-2.181-1.655 0 0 .111-.037.133-.126-.964-.093-2.103-.944-2.967-1.563.564-.104.515.16.712-.318-.371-.285-.445.64-1.206.074-.033-.4-.352-1.037-.052-1.46l.664.597c.145-.785-.827-.792-1.075-1.203l.244-.16c-1.023-.892-1.55-.392-2.544-1.455l-.049.26c-1.075-.052-.185-.76-1.113-.941l.35-.685a17.7 17.7 0 0 1-2.568-1.37c.76 0 1.74.578 2.449.833-.371-.37-1.291-1.215-1.737-1.148.197.096.512.156.58.37a3.55 3.55 0 0 1-2.379-1.177c1.113-.881-1.565-2.122-1.636-3.566a28 28 0 0 1-2.8-1.622c-.238-.14-.475-.292-.742-.43l-.79-.37-.409-.173-.434-.134a11 11 0 0 0-.905-.218c.327.64.137.603-.118.559-.256-.045-.646-.052-.646.522-.545 0-.742-.052-.786-.122a13 13 0 0 0-1.666-.707c-.427-.308.542-.274.49-.522-1.299-.026-.56-.467-1.484-.704.215.37-.371.637-1.161.596q.556.177 1.113.37a1.96 1.96 0 0 1-.99.26 2.3 2.3 0 0 1-.69-.141 1.9 1.9 0 0 0-.717-.122c-.36.048-.698.202-.972.44l.446-.533q-.435.239-.895.422-.555.252-1.112.604-.557.336-1.006.807c-.26.248-.433.572-.497.926-.204 0-.567-.13-.282-.44a7 7 0 0 0-.697.514 9 9 0 0 0-.616.655q-.532.622-.964 1.315c-.572.836-1.143 1.6-1.855 1.918l-.097-.297c-.193.308-.063.8-.57.915-.068-.096-.097-.296-.223-.193-.064.2-.32 1.004-.761 1.219l.04-.504c-1.553 1.044-1.457 2.53-2.41 3.751-.575-.578-1.788.255-2.39.67l-.066-.096c-1.584 1.436-2.092 3.043-3.268 4.669-1.484.24-3.21 2.677-4.96 3.725.319-.111.415.481.226.789-.445.21-.508 1.303-.983.74l.126-.107c-.768-.27-1.302.54-1.855 1.051l.605.778c-2.36.355-3.201 3.958-4.867 3.81-.16.504-.571.915-.742 1.415l-.37-.37a16 16 0 0 0-2.572 2.462l-.033-.496c-.668.618.26 1.877-.311 2.491l-.742-.37a9 9 0 0 1-.906.778l-.24.185-.208.2c-.178.155-.371.31-.53.474a4.3 4.3 0 0 0-1.377 2.44.41.41 0 0 1-.123-.522c-.115.192-.326.452-.519.759a9 9 0 0 0-.53.989c-.271.67-.297 1.251.26 1.262-.338-.1-.527.37-.55.97a7.3 7.3 0 0 0 .17 1.852L4 46.819c.26.459.475.68.608.94q.114.208.171.437c.045.17.074.37.141.652-.056.263-.404.244-.286-.111a.8.8 0 0 0 .145.807 1.15 1.15 0 0 1 .215.925l-.37-.37c.1.911.24.826.741 1.218.167.322.244.683.223 1.045a1.15 1.15 0 0 1-.271.9c.2.026.388.11.542.24a1 1 0 0 1 .367.622c-.13.14-.308 0-.4-.056.136.614.476 1.163.964 1.56.37.37.742.621.842 1.203a.37.37 0 0 0-.123.33 20 20 0 0 1-.905-1.27c-.208-.327-.285-.545-.248-.515-.416.23.055 1.185-.935.81.37.293.95.59 1.461.926.249.174.516.33.742.508.214.162.395.363.534.592a.44.44 0 0 1-.033.204 1 1 0 0 1-.104-.03.8.8 0 0 0 .442.333c.104.22.24.422.4.604-.207.348.564.862.86 1.185.342-.397.69.07.613-.615.022.078-.104 0-.323-.204a.6.6 0 0 0-.17-.092.1.1 0 0 1 .052 0c-.212-.193-.486-.452-.794-.74.43.058.845.158.983.703.397-.078.816-.145 1.027-.163-.089.937.45 2.033.249 2.462 1.154.74 2.363 2.088 3.654 1.992.37.178.111.508.1.715-.223-.085-.397-.282-.582-.263.716.37 1.665 1.522 2.277 1.166.46.896-.827.063.182.915l-.27.022c1.056 2.592 4.213 1.744 5.252 4.762-.078-.2-.122-.3-.07-.408 1.88 2.748 5.193 4.355 6.78 7.332.509.789.887.548 1.522.71l-.238.52 1.135.218c1.295.625.694 2.632 2.541 3.217l.112-.425c.37.488 1.543 1.225 1.164 1.462.093 0 .42-.137.453.174l-.197.219 1.432.718c.683.981-.953.692.22 1.944.534.37 1.891.681 1.854.37-.17-.192-.334-.592-.14-.814l.519.307c.686-.537 1.628-.844 1.042-2.281l-1.08-.333.067-.522.616.574c-.06-.615-.52-.582-.927-.652a.74.74 0 0 0 .03-.622l-1.277-.111c.152-.322.783-.163.449-.74-.594-.067-.223.843-.939.473-.059-.614.264-.74-.37-.903.103-.211.285-.226.511-.141-.541-.163-1.012-.852-1.52-.71 0-.693-1.28-1.112-.668-1.645a2.7 2.7 0 0 1-1.425-.467c1.284-.1-1.172-1.251-.274-1.85-1.061.18-1.855-1.308-2.968-1.737.093 0 .278-.023.315.077-.37-.488-.326-.8-.49-1.2-.57.46-1.368-.103-2.05-.155-.041-1.03.927-.278 1.235-.918-.39.44-1.347-.515-1.514 0-.1-.715-.204-.5 0-1.137-.712.57-.49-.27-1.224-.218-.278-.907.449-.74-.397-1.207-.119-.482.69-.13.69-.13M10.306 55.809c.119.115.223.215.308.285l-.133-.115zm-1.035-1.252c.1.17.245.37.401.582-.104.159-.286.225-.371.081.148 0-.004-.381-.022-.663zM9.164 59.8c-.256-.151-.252-.292-.204-.396q.192.17.404.315l.067-.022a.7.7 0 0 1-.26.103z"/></g><defs><linearGradient id="b" x1="92" x2="4" y1="47" y2="47" gradientUnits="userSpaceOnUse"><stop stop-color="#C01919"/><stop offset="1" stop-color="#EB8A00"/></linearGradient><filter id="a" width="96" height="95" x="0" y="0" color-interpolation-filters="sRGB" filterUnits="userSpaceOnUse"><feFlood flood-opacity="0" result="BackgroundImageFix"/><feColorMatrix in="SourceAlpha" result="hardAlpha" values="0 0 0 0 0 0 0 0 0 0 0 0 0 0 0 0 0 0 127 0"/><feOffset/><feGaussianBlur stdDeviation="2"/><feComposite in2="hardAlpha" operator="out"/><feColorMatrix values="0 0 0 0 1 0 0 0 0 0 0 0 0 0 0 0 0 0 0.25 0"/><feBlend in2="BackgroundImageFix" result="effect1_dropShadow_91_3185"/><feBlend in="SourceGraphic" in2="effect1_dropShadow_91_3185" result="shape"/></filter></defs></svg>