<svg xmlns="http://www.w3.org/2000/svg" width="147" height="6" fill="none" viewBox="0 0 147 6"><path fill="#000" d="M145.532 3.003c-.239 0-.54.056-.378.087.24-.043.309-.037.574-.074h.784-.997c-.078 0-.002-.007.017-.013m-20.841-.516.137.044a.3.3 0 0 0-.137-.044M111.78 2.07c.1 0 .141-.056.146-.099-.091.031-.167.056-.146.1m-2.204-.572.131.037c-.04-.053-.087-.067-.131-.037m15.115.988-.344-.118c-.024.118.177.118.344.118m5.692-.112h.105l.089-.105zm4.37.112c-.1 0-.134.174-.172.261q.102-.124.215-.124a.2.2 0 0 0-.043-.137m-7.494-.255a.24.24 0 0 0-.041-.1s.015.063.041.1M105.543.846h.017c.101-.038.044-.032-.017 0M68.506.833c.42.467-.684.622-.05 1.12-.06-.206.574-.815.05-1.12m27.74.1a.7.7 0 0 0 .096.211c-.003-.05-.024-.112-.096-.211m6.926.771L103 1.64a.4.4 0 0 0 .172.063M92.65 1.58q-.122-.102-.25-.044l.038.062q.05-.064.106-.07.056-.004.107.051m-3.741-.025c.019.038.045.063.067.1h.12zM16.457 3.985a.7.7 0 0 1-.173-.217c.058.174-.492.205.172.217m126.2-.808a.16.16 0 0 1-.112.038h.124c.012-.02.015-.032-.012-.038M92.498 5.49l-.593-.068q.296.075.593.068m-49.191-.665-.139.05q.073.025.14-.05m46.832.696a1 1 0 0 0-.334-.342.4.4 0 0 0-.07.13z"/><path fill="#000" d="M12.367 4.06c.566.044.267-.23.387-.367.677-.043.313.205.543.348.423-.037.745-.273 1.061-.248.024.05.084.068 0 .118.447-.2 1.327.062 1.846-.224a.2.2 0 0 1 .069.08.68.68 0 0 1-.081-.422c.253 0 .478-.193.566 0-.083-.016-.165.03-.239.13l.268-.08c.239.298-.363.093-.363.31a5.3 5.3 0 0 1 1.52-.223c.084.31-.93.074-.4.36l-.604-.112c.478.48-.375-.05.057.467.81.13.906-.106 1.714 0 .182-.162-.06-.261.122-.43 1.148-.291.904.853 1.748.455.131-.227.28-.379.435-.448a.47.47 0 0 1 .468.05l-.208.398c.785.074.447-.554 1.27-.261-.146.155-.617.111-.497.167.53.336.375-.217.784-.205l.086.367c.834 0 1.752-.267 2.677-.317-.05.118-.21.236 0 .367a9.5 9.5 0 0 1 3.612.435l.435-.36c.1 0 .187.173.077.242.44.162.024-.236.239-.38.239 0 .33.23.172.336.772-.292 2.202-.621 3.017-.205l-.158.118c.634.187.717-.814 1.303-.422l-.112.068c1.377.218 2.9-.156 3.949.528.2-.621 1.365.317 1.453-.578.787.46.56.622 1.674.951.294.05.44-.565.805-.621v.485l.49-.535.266.59.342-.117c-.137 0-.29-.224-.268-.367.535-.218 1.305.367 1.317.621l1.27-.391c-.03.199-.24.267-.41.391.677-.503.122.535.744.075-.084-.118.043-.298.057-.404.311.31 1.014.33 1.535.211l-.1.348c.94.112 1.981-.124 3.036-.105-.378-.174-.292-.796.019-.858l.124.56c.199-.343-.325-.212.086-.622.395.068.266.621.038.814l.479-.186c.026.167-.087.254-.115.466.196-.348.827.578 1.111 0l.032.168c1.054 0 1.532-.168 2.39-.18.017-.498.351-.386.61-.784q1.039.444 2.091.535c.536-.243.156-.423.397-.722.038.46.799.423.404.747a7.3 7.3 0 0 0 2.322-.442c-.125-.193-.266-.28-.194-.435.21-.075.478.199.447.423l-.055.05c1.296-.697 2.993 1.38 4.023.41l-.057.05 1.07-.504c.493.08-.296.348.07.622 1.155-.784 1.824.124 2.776-.404.736 1.41 2.61-.094 3.604.808l-.057-.33c.256-.323.31.187.5.268-.027-.261-.28-.299-.12-.48 2.176-.397 4.49.486 6.72.772.815.08.464-1.71 1.492-.927l-.292.622c1.645-.733 3.366 0 4.977-.622-.098.137-.1.318-.258.318.342.435 1.26 0 1.265-.342.239.037.06.323.212.497.342.255.859-.56 1.04-.13.031.068-.095.142-.16.174.223-.212 1.038.043.825-.454.605.23 1.157-.237 1.64.056.313-.56 1.035.255 1.133-.529-.043.808 1.061.622 1.434.255-.129.243.333.249.182.584.437 0 .837-.174.76-.578.806.933 1.616-.777 2.07.417a23 23 0 0 1 3.66-.933c-.04.759-1.288.093-1.238.896 1.107-.336 1.745-.995 2.842-.827.282.1-.162.33-.258.46 1.105-.324 2.137 0 3.12-.392 0 .068-.108.143-.208.199.194 0 .449.1.428-.23l-.189.093c-.308-.472.77-1.007.803-1.243-.327.938.973.23.45 1.411.129-.068.286-.224.258-.435.189.056.251.18.057.429.696-.187.447-.522 1.078-.529 0 .156-.129.218-.196.404.368-.42.771-.589 1.172-.49-.034.093.028.21-.129.21.913-.068 1.556-.808 2.555-.534-.294.622.342.205.395.752l.537-.174-.215-.261c.478 0 .89-.398 1.294-.23l-.35.23.883-.118-.486-.224c.478-.28-.05-.671.576-.528-.126.056.479 0 .718.31.264-.232.545-.307.822-.217.091.168-.074.572-.014.684.239-.435 1.104-.143 1.396-.59-.098.105-.103.366-.07.422l.192-.348c.22.112.239.161.215.373.657.05-.208-.622.571-.367-.06 0-.031.075-.158.13.782.125 1.514-.23 2.233-.08.213.472-.629.13-.387.528 1.04-.118 2.151-.622 3.155-.51l-.188-.05c.141-.621.748.299 1.257 0-.124.044-.163.343-.129.268.686.087 1.406-.18 2.448-.373l-.129.15c.404.117 1.066.049 1.506.105.129-.143.38-.125.239-.324.642.292 1.297.334 1.943.125a2.88 2.88 0 0 1 1.831 0c-.143 0-.341.112-.239.106l1.021-.131c-.081-.193-.134-.118-.346-.267a1.1 1.1 0 0 1 .669-.212c-.459.13 0 .311.201.41-.031-.055.036-.124.019-.18.533.324.088-.379.817-.161l-.038.1q.406-.144.815-.15c.122.199-.289.093-.308.261.414 0 .815-.385 1.195-.193-.174.056-.428.062-.602.118q.372.222.755.193h-.028l.698.081-.184-.037c.514-.485 1.049-.112 1.745-.41-.677.273-.113.161-.163.347.177.044.447.094.371.143.327-.155.547.088 1.011-.13.021.05.351 0 .277.124.428-.056-.1-.087-.064-.155.659-.18 1.549.143 2.495-.106.818-.106.957-.23 1.726-.286.256.05-.208.124-.208.124.412.038.717 0 1.112 0-.079 0 0 .044.122.069q.31-.074.621-.062c-.069 0-.16.074-.31.105.368-.037.731-.093 1.111-.118.101 0-.239.056-.363.087.428 0 1.109-.074 1.241-.112h-.275c.155 0 .081 0-.034.044a1 1 0 0 1-.55 0h.271c-.28-.106-1.091 0-1.636.037l.239-.105-.559.093c-.12 0-.201-.1.069-.112-.392-.069-.346.043-.683 0h.014l-.382.037c.074-.03-.065-.1.172-.074-.689-.106-1.107.093-1.368-.032h.058c-.957.044-.091.119-.806.28l-.478-.348-.093.143c-.098 0-.294 0-.259-.08-.365.099.063.068-.148.16-.478-.148-1.305.07-1.41-.204-.17.13.452.105-.053.192-.146-.298-.585.05-1.016-.093.132-.161.541-.068.11-.224-.26.274-.841-.08-1.195-.037-.017.236-.791.087-1.403.162.038-.087-1.153-.168-1.719-.286l.017-.05c-.113.286-.698.224-1.126.28.016-.18.093-.255.325-.33h-.402a.7.7 0 0 1-.478.18l.1-.236c-.533 0-1.075.261-1.764.081-.038.236.548.653-.179.82-.026-.13-.055-.354.136-.403a.5.5 0 0 1-.349.05l.292-.218c-.313-.1-.165.18-.414.161 0-.186-.186-.136-.15-.286q.157.039.315 0c-.249-.012-.497-.115-.736-.304.024.105 0 .255-.208.273-.536 0-.184-.236-.495-.342-.129.131-.478 0-.478.274-.088.004-.173-.076-.239-.224-.277.124-1.293 0-.983.342h.072-.045c-.906.305-1.884-.205-2.783-.08v-.218c-.535.124-1.195.062-1.578.31-.16 0-.375-.223-.308-.36-.348.15-.702.15-1.05 0 .414-.205-.141-.187.424-.143-.533-.118-.655-.317-1.227 0 .194-.311-.401-.41-.655-.323l.373.242a3 3 0 0 1-.789 0l.139-.429c-1.093-.566-1.97.87-2.802-.062-.287.31.595.236.335.622-.502-.069-1.026-.734-1.181-.746-.689-.274-.643.665-1.363.478.094.168.18.622-.358.771-.502-.062-.619-.721-.301-.852.121 0 .179.044.174.1.163-.056.375-.124.177-.31l-.067.167c-.239-.18-.939-.18-.777-.454-.38.156-.162.28.117.373-.643-.267-1.006-.031-1.673-.211.105.1.201.304.098.298-.975-.236-.43.33-1.09.398-.373-.273.136-.622-.529-.429-.406-.193-.086-.479.075-.622-.605.336-1.129-.255-1.475-.33l.279-.173a1 1 0 0 1-.504.074l.182.367c-.187-.068-.345-.074-.342-.224-.194.237.148.622-.239.94-.239-.194-.761.192-.847-.305.784.18-.086-.498.579-.566a.63.63 0 0 1-.478 0c-.029-.056.026-.1.079-.13-.751-.461-.347.553-1.124.528.098-.28-.179-.541-.306-.485.313 0 .148.478-.139.69-.499-.23-.542.155-.803.124l.299.112c-.103.28-.351.243-.698.33-.031-.224.316-.15.191-.25-.387.498-.872-.54-1.41-.204-.239-.2-.024-.547-.239-.684-.603.367-.653-.417-1.286-.112.181.398.215.298-.24.684l1.043-.268-.65.535c.315 0 .664-.236.851-.168-.318.317-.285.218-.134.547-.43-.621-.854.342-1.35-.062l.014-.988c-.749-.46-1.33.485-2.3.224l.31.18c-.129.398-.597.05-.913.211.03-.342-.167-.466-.3-.678.016.255-.718-.03-.8.622L95.11 1.3c-.784-.199-.894.97-1.65.852.227-.38-.115-.622.39-.889-.251 0-.478-.075-.478.168-.148-.218-.698.46-.93.13-.108.15-.141.517-.423.485-.031-.068 0-.174 0-.174 0 .174-.443.237-.196.622-.775-1.094-2.166.075-2.843-.877-.547.119-1.21.224-1.709.25.034-.107 0-.175.096-.138-.686-.342-.424 1.026-1.196.653-.399-.584.416-.317.168-.534-.11-1.188-.956.155-1.473-.541l.127-.069c-.402-.404-.983.448-1.64.36 0 0 .033-.105 0-.18-.45.622-1.303.809-1.937.977.199-.473.29-.249.168-.728-.282.069.084.765-.478.902-.184-.261-.593-.485-.646-.995h.533c-.272-.66-.69 0-.973-.093l.036-.293c-.817.094-.83.821-1.709.765l.09.224c-.477.721-.403-.41-.881.13l-.146-.74q-.828.55-1.673.853c.322-.548.99-.827 1.4-1.15-.315 0-1.068.055-1.233.416.13-.133.272-.18.411-.137-.468.629-.992.923-1.518.852.11-1.43-1.635-.36-2.09-1.467-1.109.528-2.199-.224-3.49-.137.457 1.106-.377.03-.298 1.169-.302.074-.416.056-.443 0l-.91-.678c-.218-.33.284-.249.258-.504-.66-.08-.277-.478-.717-.777.088.404-.24.578-.605.43l.528.515c-.934.603-.81-.951-1.738-.33l.294-.372c-.478.205-1.757 0-2.223.907-.084-.13-.196-.435.014-.516-1.137-.124-2.531.97-3.416.43l.086-.274c-.212.08-.37.516-.636.242.015-.112.087-.267-.011-.286-.27.263-.559.373-.847.324l.24-.305c-1.112-.336-1.705.752-2.63.939 0-.784-.873-1.026-1.308-1.144l.014-.106c-1.29-.075-2.194.671-3.392.982-.74-.814-2.515-.31-3.71-.733.184.13-.029.572-.239.621-.28-.143-.775.523-.717-.149h.098C46.698.56 46.12.715 45.672.71l-.074.864c-1.176-1.244-3.082.497-3.722-.578-.285.211-.636.217-.918.429l.017-.442a7.1 7.1 0 0 0-2.152 0l.198-.31c-.55 0-.693 1.243-1.195 1.28l-.153-.622c-.956 0-1.912-.472-2.869.1.015-.087.043-.261.199-.292-.452 0-1.743-.336-1.58.46 0-.522-.985 0-1.501.211L32 1.43c-.324.474-.687.736-1.059.766-.143-.05-.126-.293.067-.205-.478-.18-.375.354-.956.167l.218-.23c-.249-.073-.5.057-.718.373-.313.15-.939-.074-1.013-.385-.184.325-.409.456-.629.367-.038-.118.067-.193.122-.23-.858-.187-1.257.435-1.831.124a.5.5 0 0 0-.038-.13q-.026-.053-.058-.063h1.136c0-.317-.53-.348-.108-.796-.425.255-1.154.778-1.673.653a.3.3 0 0 1-.07-.105l.053-.031a.5.5 0 0 0-.325.055 1.5 1.5 0 0 0-.43-.074c-.06-.236-.607-.1-.873-.106.022.311-.325.274 0 .522-.043 0 .05-.043.24-.062a.3.3 0 0 0 .111 0h-.019l.658-.037c-.23.22-.478.267-.717.137a6 6 0 0 1-.369.51c-.363-.43-1.06-.622-1.159-.883-.808.192-1.912.186-2.412.715a.19.19 0 0 1-.183-.02.5.5 0 0 1-.166-.204q.183-.033.363-.124c-.461.143-1.362.093-1.472.435-.579-.143.325-.324-.478-.249l.107-.106a3.4 3.4 0 0 0-2.077.2 3.58 3.58 0 0 1-2.204.086.28.28 0 0 1 .205.087c-.99-.1-2.008 0-3.024.05s-2.03.087-3.005 0q-.481-.031-.956.168l-.12-.124-.58.155c-.82.093-1.42-.205-2.46 0l.134.05c-.373 0-1.184.05-1.121 0a.8.8 0 0 1-.268 0l-.012-.031-.918.1c-.717 0 .11-.082-.928 0l-.956.068h.409H.09c-.064 0-.334-.031.531.05h.602l.196.037-.509-.044c.285.044.471.044.677.044.048 0 .131 0 .25.043h.594c.071 0-.266 0 .131.081.277 0-.265-.08.194-.08q.27.086.542.061c.048 0-.024.044-.157.044.3 0 .798.043.956 0 .301.087 1.018.031.987.162.096 0 .533-.075.81-.069-.506.156 1.036.062.902.28.375-.168 1.353 0 2.017-.087a.25.25 0 0 1-.17.037c.374.044.479.118.718.18.048-.198.629-.217.944-.348.457.237-.28.25-.136.46-.022-.18.796-.13.64-.298q.25.03.479.286c.062-.298.327-.031.616-.205.507.18.132.305.687.236.27.08-.225.168-.225.168m14.345-.193h-.478c-.038-.112 0-.23.115-.224-.052.087.198.143.363.243zM24.36 1.63c.177-.056.24 0 .258.068l-.306.05-.021.037a.4.4 0 0 1 .07-.136z"/><path fill="#000" d="M24.044 2.064a.13.13 0 0 1-.074 0q.053.042.105.069l.063-.1zm100.805.491h-.021a.2.2 0 0 1 .047.044zM42.067 5.018v-.112l-.098.093zm88.907-1.573q.038.05.081.056a.2.2 0 0 0-.081-.056m2.658-.013.375.056a4 4 0 0 0-.375-.056m2.022.031a.2.2 0 0 0 .041-.074zm-32.341 1.269h-.079c-.184.112-.06.074.079 0m9.624-1.144q-.153.12-.311.192c.172.031.306.031.311-.192"/><path fill="#000" d="M112.179 3.78a.53.53 0 0 0 .447 0 .8.8 0 0 0-.447 0m29.6-.547h-.031q.015.012.031 0m-.82.044c.196 0 .49.05.763 0h.026c-.129.043-.603-.069-.789 0m-3.414-.541.684.056c-.119-.056-.277-.13.036-.137-.865-.168.177.13-.72.08m-2.127-.142c.368 0 0-.1.017-.143-.235.037-.292.074-.017.143m-15.365-.373.036-.311c-.284.037-.002.124-.036.31m-2.937 1.655.275.199.134-.299zm-1.736-2.413.125-.043-.474.112zm-25.806-.348.086.566c.192-.106.225-.734-.086-.566m-11.14.522c-.089-.175-.194-.285-.304-.319s-.223.01-.325.127q.312.157.629.192M45.021.97l.225-.174-.423.15z"/></svg>