<svg xmlns="http://www.w3.org/2000/svg" width="32" height="58" fill="none" viewBox="0 0 32 58"><path fill="#406C92" fill-rule="evenodd" d="M16 39.516c-5.248 0-10.304-1.1-14.256-3.094-.624-.314-1.2-.644-1.744-.99v2.984c0 3.91 7.168 7.067 16 7.067s16-3.157 16-7.067v-2.983c-.544.345-1.12.675-1.744 1.005-3.936 1.978-9.008 3.078-14.256 3.078Z" clip-rule="evenodd"/><path fill="#406C92" fill-rule="evenodd" d="M27.072 19.306c-.8-.361-1.76-.016-2.128.77a1.568 1.568 0 0 0 .784 2.088c1.92.863 3.072 1.947 3.072 2.905 0 1.916-4.992 4.71-12.8 4.71-7.808 0-12.8-2.794-12.8-4.71 0-.958 1.152-2.042 3.072-2.921a1.568 1.568 0 0 0 .784-2.089c-.368-.785-1.328-1.13-2.128-.769C1.744 20.75 0 22.792 0 25.069v7.019c.816.707 1.808 1.366 2.992 1.963C6.56 35.857 11.184 36.846 16 36.846c4.816 0 9.44-.99 13.008-2.795 1.184-.597 2.176-1.256 2.992-1.963v-7.02c0-2.276-1.744-4.318-4.928-5.762Z" clip-rule="evenodd"/><path fill="#406C92" fill-rule="evenodd" d="m12.736 20.609-1.264 3.8c-.24.723.608 1.32 1.248.88L16 22.933l3.28 2.34c.624.455 1.472-.157 1.232-.88l-1.248-3.8 3.28-2.34c.624-.455.304-1.428-.464-1.428h-4.064l-1.248-3.8c-.24-.723-1.28-.723-1.52 0l-1.264 3.815H9.92c-.784 0-1.104.974-.464 1.43l3.28 2.339Z" clip-rule="evenodd"/></svg>