<svg xmlns="http://www.w3.org/2000/svg" width="32" height="59" fill="none" viewBox="0 0 32 59"><path fill="#406C92" fill-rule="evenodd" d="M30.4 18.432h-9.984l1.408-1.152a1.578 1.578 0 0 0 .208-2.227 1.629 1.629 0 0 0-2.256-.205L16 17.958l-3.776-3.11c-.688-.553-1.696-.474-2.256.205-.56.663-.48 1.658.208 2.227l1.408 1.152H1.6c-.88 0-1.6.71-1.6 1.58v1.578c0 .869.72 1.58 1.6 1.58h28.8c.88 0 1.6-.712 1.6-1.58v-1.579c0-.868-.72-1.579-1.6-1.579ZM3.2 42.906c0 .868.72 1.579 1.6 1.579h9.6V25.222H3.2v17.684Zm24 1.579h-9.6V25.222h11.2v17.684c0 .868-.72 1.579-1.6 1.579Z" clip-rule="evenodd"/></svg>