<svg xmlns="http://www.w3.org/2000/svg" width="411" height="292" fill="none" viewBox="0 0 411 292"><g filter="url(#a)"><path fill="#000210" fill-opacity="0.1" d="M239.559 292H24c-13.255 0-24-10.745-24-24V36.441a24 24 0 0 1 7.03-16.97L19.47 7.029A24 24 0 0 1 36.442 0H387c13.255 0 24 10.745 24 24v76.5c0 13.255-10.745 24-24 24h-51.559a24 24 0 0 0-16.97 7.029l-26.442 26.442a24 24 0 0 0-7.029 16.97v71.618a24 24 0 0 1-7.029 16.97l-21.442 21.442a24 24 0 0 1-16.97 7.029Z"/><path stroke="#6B6B6B" stroke-width="1.5" d="M239.559 291.25H24C11.16 291.25.75 280.841.75 268V36.441a23.25 23.25 0 0 1 6.81-16.44L20 7.56A23.25 23.25 0 0 1 36.442.75H387c12.841 0 23.25 10.41 23.25 23.25v76.5c0 12.841-10.409 23.25-23.25 23.25h-51.559a24.753 24.753 0 0 0-17.501 7.249l-26.441 26.441a24.753 24.753 0 0 0-7.249 17.501v71.618a23.25 23.25 0 0 1-6.81 16.44l-21.441 21.441a23.25 23.25 0 0 1-16.44 6.81Z"/></g><path fill="#FDFDFD" d="M37.12 48h49.024v9.6H67.072V96h-10.88V57.6H37.12V48Zm88.722 48-14.464-18.24h-8.352V96H92.178V48h27.328c3.477 0 6.549.63 9.216 1.888 2.667 1.237 4.736 2.987 6.208 5.248 1.472 2.261 2.208 4.864 2.208 7.808 0 2.517-.555 4.79-1.664 6.816-1.109 2.027-2.688 3.701-4.736 5.024-2.027 1.323-4.405 2.208-7.136 2.656L138.578 96h-12.736Zm-22.816-39.424v12.736h15.168c2.475 0 4.416-.565 5.824-1.696 1.429-1.13 2.144-2.688 2.144-4.672 0-1.984-.715-3.541-2.144-4.672-1.408-1.13-3.349-1.696-5.824-1.696h-15.168ZM198.511 96h-11.584l-4.544-10.112h-26.624L151.215 96h-11.584l22.432-48h14.016l22.432 48Zm-29.44-39.648-9.312 20.704h18.656l-9.344-20.704ZM244.734 48v9.312h-30.208V68.32h29.088v9.312h-29.088V96h-10.848V48h41.056Zm48.375 0v9.312h-30.208V68.32h29.088v9.312h-29.088V96h-10.848V48h41.056Zm7.319 48V48h10.848v48h-10.848Zm72.656-19.552c-.47 4.053-1.888 7.637-4.256 10.752-2.368 3.093-5.494 5.493-9.376 7.2-3.883 1.707-8.278 2.56-13.184 2.56-5.44 0-10.24-1.035-14.4-3.104-4.139-2.09-7.35-5.024-9.632-8.8-2.283-3.776-3.424-8.128-3.424-13.056 0-4.928 1.141-9.28 3.424-13.056 2.282-3.776 5.493-6.699 9.632-8.768 4.16-2.09 8.96-3.136 14.4-3.136 4.906 0 9.301.853 13.184 2.56 3.882 1.707 7.008 4.117 9.376 7.232 2.368 3.093 3.786 6.667 4.256 10.72h-10.912c-.448-2.261-1.376-4.213-2.784-5.856-1.387-1.664-3.2-2.933-5.44-3.808-2.24-.896-4.811-1.344-7.712-1.344-3.35 0-6.262.63-8.736 1.888-2.454 1.259-4.352 3.05-5.696 5.376-1.323 2.325-1.984 5.056-1.984 8.192s.661 5.867 1.984 8.192c1.344 2.325 3.242 4.117 5.696 5.376 2.474 1.259 5.386 1.888 8.736 1.888 4.394 0 7.978-.96 10.752-2.88 2.794-1.92 4.522-4.63 5.184-8.128h10.912ZM37.376 148.704h10.656v1.856c0 4.245.928 7.456 2.784 9.632 1.877 2.176 4.853 3.264 8.928 3.264 4.01 0 6.976-1.035 8.896-3.104 1.92-2.091 2.88-5.099 2.88-9.024V124h10.848v27.84c0 4.459-.939 8.277-2.816 11.456-1.877 3.157-4.523 5.557-7.936 7.2-3.392 1.643-7.35 2.464-11.872 2.464-4.48 0-8.405-.843-11.776-2.528-3.35-1.685-5.952-4.149-7.808-7.392-1.835-3.243-2.752-7.147-2.752-11.712l-.032-2.624ZM143.324 172H131.74l-4.544-10.112h-26.624L96.028 172H84.442l22.433-48h14.016l22.432 48Zm-29.44-39.648-9.312 20.704h18.656l-9.344-20.704Zm68.335 29.248 16.928-37.6h16.704v48h-10.336v-38.272L187.787 172h-11.232l-17.728-38.112V172h-10.336v-48h16.704l17.024 37.6ZM56.128 239.232h29.12V248h-46.08v-7.68l20.512-12c3.52-2.091 6.208-3.829 8.064-5.216 1.877-1.387 3.221-2.688 4.032-3.904.81-1.216 1.216-2.539 1.216-3.968 0-1.493-.416-2.816-1.248-3.968-.81-1.152-2.037-2.048-3.68-2.688-1.621-.661-3.605-.992-5.952-.992-4.075 0-7.157.864-9.248 2.592-2.09 1.707-3.285 3.947-3.584 6.72H38.432c.256-3.584 1.44-6.72 3.552-9.408 2.112-2.709 4.939-4.789 8.48-6.24 3.563-1.472 7.573-2.208 12.032-2.208 4.203 0 7.915.661 11.136 1.984 3.243 1.301 5.75 3.136 7.52 5.504 1.792 2.347 2.688 5.056 2.688 8.128a12.7 12.7 0 0 1-1.856 6.688c-1.216 2.048-3.157 4.096-5.824 6.144-2.667 2.027-6.272 4.256-10.816 6.688l-9.216 5.056Zm60.93 9.728c-5.291 0-9.91-1.035-13.856-3.104-3.947-2.069-6.987-4.981-9.12-8.736-2.134-3.776-3.2-8.149-3.2-13.12s1.066-9.333 3.2-13.088c2.133-3.776 5.173-6.699 9.12-8.768 3.946-2.069 8.565-3.104 13.856-3.104 5.269 0 9.866 1.035 13.792 3.104 3.946 2.069 6.986 4.992 9.12 8.768 2.133 3.755 3.2 8.117 3.2 13.088 0 4.971-1.067 9.344-3.2 13.12-2.134 3.755-5.174 6.667-9.12 8.736-3.926 2.069-8.523 3.104-13.792 3.104Zm0-8.864c3.178 0 5.909-.629 8.192-1.888 2.282-1.28 4.021-3.125 5.216-5.536 1.216-2.411 1.824-5.301 1.824-8.672 0-3.371-.608-6.261-1.824-8.672-1.195-2.411-2.934-4.245-5.216-5.504-2.283-1.28-5.014-1.92-8.192-1.92-3.222 0-5.984.629-8.288 1.888-2.283 1.259-4.032 3.093-5.248 5.504-1.195 2.411-1.792 5.312-1.792 8.704 0 3.392.597 6.293 1.792 8.704 1.216 2.411 2.965 4.245 5.248 5.504 2.304 1.259 5.066 1.888 8.288 1.888Zm49.195-.864h29.12V248h-46.08v-7.68l20.512-12c3.52-2.091 6.208-3.829 8.064-5.216 1.877-1.387 3.221-2.688 4.032-3.904.811-1.216 1.216-2.539 1.216-3.968 0-1.493-.416-2.816-1.248-3.968-.811-1.152-2.037-2.048-3.68-2.688-1.621-.661-3.605-.992-5.952-.992-4.075 0-7.157.864-9.248 2.592-2.091 1.707-3.285 3.947-3.584 6.72h-10.848c.256-3.584 1.44-6.72 3.552-9.408 2.112-2.709 4.939-4.789 8.48-6.24 3.563-1.472 7.573-2.208 12.032-2.208 4.203 0 7.915.661 11.136 1.984 3.243 1.301 5.749 3.136 7.52 5.504 1.792 2.347 2.688 5.056 2.688 8.128a12.7 12.7 0 0 1-1.856 6.688c-1.216 2.048-3.157 4.096-5.824 6.144-2.667 2.027-6.272 4.256-10.816 6.688l-9.216 5.056Zm69.922-16.096c3.648.661 6.453 1.931 8.416 3.808 1.984 1.856 2.976 4.245 2.976 7.168 0 2.901-.918 5.472-2.752 7.712-1.814 2.24-4.47 3.989-7.968 5.248-3.478 1.259-7.638 1.888-12.48 1.888-4.779 0-8.971-.672-12.576-2.016-3.584-1.365-6.39-3.285-8.416-5.76-2.027-2.496-3.115-5.408-3.264-8.736h10.848c.362 2.603 1.653 4.587 3.872 5.952 2.24 1.344 5.418 2.016 9.536 2.016 3.968 0 6.986-.619 9.056-1.856 2.069-1.237 3.104-2.987 3.104-5.248 0-1.344-.363-2.453-1.088-3.328-.704-.875-1.878-1.536-3.52-1.984-1.622-.448-3.819-.672-6.592-.672h-8.48v-7.616h8.48c3.52 0 6.101-.523 7.744-1.568 1.642-1.045 2.464-2.507 2.464-4.384 0-1.984-.907-3.509-2.72-4.576-1.792-1.067-4.48-1.6-8.064-1.6-3.67 0-6.56.651-8.672 1.952-2.112 1.301-3.382 3.168-3.808 5.6h-10.88c.256-3.029 1.354-5.76 3.296-8.192 1.941-2.453 4.661-4.384 8.16-5.792 3.52-1.408 7.68-2.112 12.48-2.112 4.245 0 7.968.555 11.168 1.664 3.2 1.088 5.664 2.635 7.392 4.64 1.749 2.005 2.624 4.32 2.624 6.944 0 2.581-.875 4.832-2.624 6.752-1.728 1.899-4.299 3.264-7.712 4.096Z"/><defs><filter id="a" width="433" height="314" x="-11" y="-11" color-interpolation-filters="sRGB" filterUnits="userSpaceOnUse"><feFlood flood-opacity="0" result="BackgroundImageFix"/><feGaussianBlur in="BackgroundImageFix" stdDeviation="5.5"/><feComposite in2="SourceAlpha" operator="in" result="effect1_backgroundBlur_54_233"/><feBlend in="SourceGraphic" in2="effect1_backgroundBlur_54_233" result="shape"/></filter></defs></svg>