<svg xmlns="http://www.w3.org/2000/svg" width="946" height="436" fill="none" viewBox="0 0 946 436"><g filter="url(#a)" opacity="0.3"><path fill="url(#b)" d="M874.971 168.415c.715.394-11.843-.163-13.862-.306-9.402-.667-18.817-1.246-28.248-1.533-28.34-.863-56.7-.402-84.978 1.415-85.742 5.511-171.47 21.84-249.699 52.273-62.712 24.395-114.103 57.876-161.055 100.034-28.061 25.196-62.903 41.952-104.549 44.398-95.038 5.583-174.218-66.587-159.899-145.743 15.392-85.081 122.312-114.027 208.803-131.707 186.515-38.126 430.728-8.38 593.487 81.169Z"/></g><defs><linearGradient id="b" x1="204.313" x2="693.852" y1="181.539" y2="58.5105" gradientUnits="userSpaceOnUse"><stop stop-color="#FB25FF"/><stop offset="0.54658" stop-color="#4B75FF"/><stop offset="1" stop-color="#0BFFC4"/></linearGradient><filter id="a" width="946" height="436" x="0" y="0" color-interpolation-filters="sRGB" filterUnits="userSpaceOnUse"><feFlood flood-opacity="0" result="BackgroundImageFix"/><feBlend in="SourceGraphic" in2="BackgroundImageFix" result="shape"/><feGaussianBlur result="effect1_foregroundBlur_193_1265" stdDeviation="35.5"/></filter></defs></svg>