<svg xmlns="http://www.w3.org/2000/svg" width="174" height="209" fill="none" viewBox="0 0 174 209"><g filter="url(#a)"><path fill="#FCFDFD" d="m144 27 10 4.773V20.227L144 25v2ZM26 178.167a5.333 5.333 0 1 0 0 10.666 5.333 5.333 0 1 0 0-10.666Zm0-106.921h-1 1Zm4.766-11.393-.702-.712.702.712ZM145 25H71.66v2H145v-2ZM25 71.246V183.5h2V71.246h-2Zm34.725-41.351L30.065 59.14l1.403 1.424L61.13 31.319l-1.404-1.424ZM27 71.245a15 15 0 0 1 4.468-10.68l-1.404-1.424A17 17 0 0 0 25 71.246h2ZM71.66 25a17 17 0 0 0-11.935 4.895l1.404 1.424A15 15 0 0 1 71.661 27v-2Z"/></g><defs><filter id="a" width="173.334" height="208.607" x="0.666016" y="0.226562" color-interpolation-filters="sRGB" filterUnits="userSpaceOnUse"><feFlood flood-opacity="0" result="BackgroundImageFix"/><feGaussianBlur in="BackgroundImageFix" stdDeviation="5.5"/><feComposite in2="SourceAlpha" operator="in" result="effect1_backgroundBlur_187_1351"/><feColorMatrix in="SourceAlpha" result="hardAlpha" values="0 0 0 0 0 0 0 0 0 0 0 0 0 0 0 0 0 0 127 0"/><feOffset/><feGaussianBlur stdDeviation="10"/><feComposite in2="hardAlpha" operator="out"/><feColorMatrix values="0 0 0 0 0 0 0 0 0 0.52 0 0 0 0 1 0 0 0 1 0"/><feBlend in2="effect1_backgroundBlur_187_1351" result="effect2_dropShadow_187_1351"/><feColorMatrix in="SourceAlpha" result="hardAlpha" values="0 0 0 0 0 0 0 0 0 0 0 0 0 0 0 0 0 0 127 0"/><feOffset/><feGaussianBlur stdDeviation="10"/><feComposite in2="hardAlpha" operator="out"/><feColorMatrix values="0 0 0 0 0 0 0 0 0 0.52 0 0 0 0 1 0 0 0 1 0"/><feBlend in2="effect2_dropShadow_187_1351" result="effect3_dropShadow_187_1351"/><feColorMatrix in="SourceAlpha" result="hardAlpha" values="0 0 0 0 0 0 0 0 0 0 0 0 0 0 0 0 0 0 127 0"/><feOffset/><feGaussianBlur stdDeviation="3.5"/><feComposite in2="hardAlpha" operator="out"/><feColorMatrix values="0 0 0 0 1 0 0 0 0 1 0 0 0 0 1 0 0 0 1 0"/><feBlend in2="effect3_dropShadow_187_1351" result="effect4_dropShadow_187_1351"/><feBlend in="SourceGraphic" in2="effect4_dropShadow_187_1351" result="shape"/><feColorMatrix in="SourceAlpha" result="hardAlpha" values="0 0 0 0 0 0 0 0 0 0 0 0 0 0 0 0 0 0 127 0"/><feOffset/><feGaussianBlur stdDeviation="10"/><feComposite in2="hardAlpha" k2="-1" k3="1" operator="arithmetic"/><feColorMatrix values="0 0 0 0 0 0 0 0 0 0.88 0 0 0 0 1 0 0 0 1 0"/><feBlend in2="shape" result="effect5_innerShadow_187_1351"/><feColorMatrix in="SourceAlpha" result="hardAlpha" values="0 0 0 0 0 0 0 0 0 0 0 0 0 0 0 0 0 0 127 0"/><feOffset/><feGaussianBlur stdDeviation="10"/><feComposite in2="hardAlpha" k2="-1" k3="1" operator="arithmetic"/><feColorMatrix values="0 0 0 0 0 0 0 0 0 0.88 0 0 0 0 1 0 0 0 1 0"/><feBlend in2="effect5_innerShadow_187_1351" result="effect6_innerShadow_187_1351"/><feColorMatrix in="SourceAlpha" result="hardAlpha" values="0 0 0 0 0 0 0 0 0 0 0 0 0 0 0 0 0 0 127 0"/><feOffset/><feGaussianBlur stdDeviation="3.5"/><feComposite in2="hardAlpha" k2="-1" k3="1" operator="arithmetic"/><feColorMatrix values="0 0 0 0 1 0 0 0 0 1 0 0 0 0 1 0 0 0 1 0"/><feBlend in2="effect6_innerShadow_187_1351" result="effect7_innerShadow_187_1351"/></filter></defs></svg>