<svg xmlns="http://www.w3.org/2000/svg" width="293" height="265" fill="none" viewBox="0 0 293 265"><g filter="url(#a)"><path fill="#FCFDFD" d="m30 27-10 4.773V20.227L30 25v2Zm237 207.167a5.332 5.332 0 0 1 5.333 5.333 5.332 5.332 0 0 1-5.333 5.333 5.332 5.332 0 0 1-5.333-5.333 5.332 5.332 0 0 1 5.333-5.333Zm-4.686-121.353.707-.707-.707.707Zm-82.128-82.128-.707.707.707-.707ZM29 25h139.873v2H29v-2Zm239 99.127V239.5h-2V124.127h2Zm-87.107-94.148 82.128 82.128-1.414 1.414-82.128-82.128 1.414-1.414ZM266 124.127c0-3.978-1.58-7.793-4.393-10.606l1.414-1.414a17 17 0 0 1 4.979 12.02h-2ZM168.873 25a17 17 0 0 1 12.02 4.98l-1.414 1.413A15 15 0 0 0 168.873 27v-2Z"/></g><defs><filter id="a" width="292.333" height="264.607" x="0" y="0.226501" color-interpolation-filters="sRGB" filterUnits="userSpaceOnUse"><feFlood flood-opacity="0" result="BackgroundImageFix"/><feGaussianBlur in="BackgroundImageFix" stdDeviation="5.5"/><feComposite in2="SourceAlpha" operator="in" result="effect1_backgroundBlur_117_502"/><feColorMatrix in="SourceAlpha" result="hardAlpha" values="0 0 0 0 0 0 0 0 0 0 0 0 0 0 0 0 0 0 127 0"/><feOffset/><feGaussianBlur stdDeviation="10"/><feComposite in2="hardAlpha" operator="out"/><feColorMatrix values="0 0 0 0 0 0 0 0 0 0.52 0 0 0 0 1 0 0 0 1 0"/><feBlend in2="effect1_backgroundBlur_117_502" result="effect2_dropShadow_117_502"/><feColorMatrix in="SourceAlpha" result="hardAlpha" values="0 0 0 0 0 0 0 0 0 0 0 0 0 0 0 0 0 0 127 0"/><feOffset/><feGaussianBlur stdDeviation="10"/><feComposite in2="hardAlpha" operator="out"/><feColorMatrix values="0 0 0 0 0 0 0 0 0 0.52 0 0 0 0 1 0 0 0 1 0"/><feBlend in2="effect2_dropShadow_117_502" result="effect3_dropShadow_117_502"/><feColorMatrix in="SourceAlpha" result="hardAlpha" values="0 0 0 0 0 0 0 0 0 0 0 0 0 0 0 0 0 0 127 0"/><feOffset/><feGaussianBlur stdDeviation="3.5"/><feComposite in2="hardAlpha" operator="out"/><feColorMatrix values="0 0 0 0 1 0 0 0 0 1 0 0 0 0 1 0 0 0 1 0"/><feBlend in2="effect3_dropShadow_117_502" result="effect4_dropShadow_117_502"/><feBlend in="SourceGraphic" in2="effect4_dropShadow_117_502" result="shape"/><feColorMatrix in="SourceAlpha" result="hardAlpha" values="0 0 0 0 0 0 0 0 0 0 0 0 0 0 0 0 0 0 127 0"/><feOffset/><feGaussianBlur stdDeviation="10"/><feComposite in2="hardAlpha" k2="-1" k3="1" operator="arithmetic"/><feColorMatrix values="0 0 0 0 0 0 0 0 0 0.88 0 0 0 0 1 0 0 0 1 0"/><feBlend in2="shape" result="effect5_innerShadow_117_502"/><feColorMatrix in="SourceAlpha" result="hardAlpha" values="0 0 0 0 0 0 0 0 0 0 0 0 0 0 0 0 0 0 127 0"/><feOffset/><feGaussianBlur stdDeviation="10"/><feComposite in2="hardAlpha" k2="-1" k3="1" operator="arithmetic"/><feColorMatrix values="0 0 0 0 0 0 0 0 0 0.88 0 0 0 0 1 0 0 0 1 0"/><feBlend in2="effect5_innerShadow_117_502" result="effect6_innerShadow_117_502"/><feColorMatrix in="SourceAlpha" result="hardAlpha" values="0 0 0 0 0 0 0 0 0 0 0 0 0 0 0 0 0 0 127 0"/><feOffset/><feGaussianBlur stdDeviation="3.5"/><feComposite in2="hardAlpha" k2="-1" k3="1" operator="arithmetic"/><feColorMatrix values="0 0 0 0 1 0 0 0 0 1 0 0 0 0 1 0 0 0 1 0"/><feBlend in2="effect6_innerShadow_117_502" result="effect7_innerShadow_117_502"/></filter></defs></svg>