<svg width="148" height="84" viewBox="0 0 148 84" fill="none" xmlns="http://www.w3.org/2000/svg">
<path d="M122.011 55.219L122.216 55.1152L122.173 55.3785L122.132 55.469C121.939 55.8943 121.676 56.2927 121.464 56.7096C120.85 57.9141 120.037 59.6803 119.735 60.9831C119.475 60.9896 119.213 60.9838 118.953 60.9833C118.921 60.681 119.151 60.2293 119.264 59.9545C119.956 58.2803 120.873 56.6327 122.011 55.219Z" fill="#03133C"/>
<path d="M108.196 52.6414C108.631 53.2652 108.914 53.9795 109.339 54.6029C109.615 55.1769 110.052 55.6539 110.383 56.1949C111.311 57.7109 112.005 59.2303 112.501 60.9411C112.205 60.9406 111.909 60.9306 111.614 60.9243C111.382 58.937 110.387 56.7952 109.362 55.1043C108.864 55.1254 108.363 55.1936 107.867 55.2452L107.669 55.1908C107.871 55.0935 108.263 55.1167 108.492 55.0982C108.721 55.0796 109.196 55.1039 109.35 54.923C109.327 54.6215 108.377 53.0928 108.157 52.7091L108.196 52.6414Z" fill="#03133C"/>
<path d="M85.2472 50.549C85.7209 50.304 86.5491 49.5207 87.039 49.1521C87.6838 48.6668 88.3993 48.2452 89.0889 47.8252C89.888 47.3383 90.7497 46.94 91.5961 46.5432C92.0654 46.3234 92.6 46.1217 93.0251 45.8252C93.2884 46.3106 93.5421 46.8048 93.8378 47.2714C91.7323 47.6902 89.6264 48.3235 87.6756 49.2267C87.0979 49.4942 86.4681 49.796 85.9563 50.1772C85.7713 50.315 85.3955 50.7077 85.1792 50.7309C85.2005 50.6721 85.2199 50.6051 85.2472 50.549Z" fill="#03133C"/>
<path d="M129.529 29.5108C130.893 28.9974 132.328 28.5457 133.74 28.1865C134.069 28.1029 135.025 27.7945 135.28 27.9456L135.274 28.0885L135.184 28.0211C134.669 28.2188 133.578 29.2384 133.002 29.6195C132.421 29.6415 129.815 31.9822 129.126 32.4793C129.143 31.4985 129.435 30.4926 129.529 29.5108Z" fill="#01445B"/>
<path d="M91.6277 43.262C92.0456 43.8961 92.4385 44.6584 92.7475 45.3545L92.9822 45.6963L93.0244 45.8253C92.5994 46.1218 92.0647 46.3235 91.5955 46.5434C90.7491 46.9401 89.8873 47.3384 89.0882 47.8253C88.3986 48.2454 87.6831 48.6669 87.0383 49.1522C86.5484 49.5208 85.7202 50.3041 85.2466 50.5492C85.6712 49.1061 87.7486 46.1919 88.9486 45.2902C89.7257 44.503 90.6722 43.8113 91.6277 43.262Z" fill="url(#paint0_linear_217_2442)"/>
<path d="M91.6288 43.262C92.0466 43.8961 92.4395 44.6584 92.7486 45.3545C92.683 45.3642 92.6354 45.3626 92.5696 45.3524C91.6929 45.2155 90.7233 45.2544 89.8343 45.2669C89.5767 45.2705 89.1724 45.3996 88.9497 45.2902C89.7268 44.503 90.6733 43.8113 91.6288 43.262Z" fill="url(#paint1_linear_217_2442)"/>
<path d="M87.3389 24.3235C90.0149 24.3678 92.6196 24.6043 95.2735 24.9299C95.7781 26.6401 96.4451 28.2771 97.0347 29.9568C96.8612 29.9141 94.206 28.0703 93.8461 27.8508C92.4634 27.0066 91.052 26.2132 89.612 25.4708C88.9588 25.1336 87.8912 24.7249 87.3389 24.3235Z" fill="#00556B"/>
<path d="M95.373 24.948C96.1575 25.0753 96.9373 25.2265 97.7124 25.4016C98.3915 25.5551 101.564 26.2489 101.864 26.7233C101.908 27.1222 101.815 27.5436 101.769 27.9408C101.681 28.714 101.485 30.34 101.672 31.0616C101.79 31.5194 101.687 32.0559 101.734 32.5291C101.775 32.954 101.968 33.6049 102.091 34.03C102.114 34.1103 102.123 34.1526 102.095 34.2353C101.152 33.4452 100.272 32.5818 99.3253 31.7928C98.6559 31.2349 97.8821 30.7326 97.2515 30.141C97.1867 30.0802 97.1679 30.025 97.1463 29.9413C96.5085 28.2923 95.849 26.6535 95.373 24.948Z" fill="#00556B"/>
<path d="M103.495 47.3264C104.218 47.926 104.864 48.5858 105.565 49.2035C106.333 50.0573 107.739 51.5929 108.196 52.6411L108.156 52.7089C108.376 53.0926 109.327 54.6213 109.349 54.9227C109.195 55.1037 108.72 55.0794 108.492 55.0979C108.262 55.1165 107.871 55.0932 107.669 55.1906L107.866 55.245C107.506 55.3117 107.103 55.3145 106.736 55.338C104.594 55.4759 102.397 55.2565 100.482 54.2217L100.539 54.1849C100.638 54.2276 100.711 54.2642 100.821 54.2675C101.427 53.173 101.906 52.0665 102.421 50.9317C102.671 50.3795 102.963 49.8431 103.199 49.2849C103.423 48.7584 103.475 48.1828 103.755 47.6757C103.632 47.566 103.534 47.4948 103.495 47.3264Z" fill="#046060"/>
<path d="M101.863 26.7234L101.936 26.6553C102.19 26.6989 102.421 26.8222 102.662 26.9112C104.611 27.6315 106.79 28.8612 108.372 30.2076C108.233 30.5195 107.95 30.8268 107.771 31.1285C107.582 31.4477 107.448 31.793 107.261 32.1107C106.557 32.9806 105.954 37.0228 105.798 38.2425C105.072 37.3375 104.3 36.4739 103.481 35.6518C103.031 35.1959 102.488 34.7386 102.095 34.2354C102.123 34.1527 102.114 34.1104 102.09 34.0301C101.968 33.605 101.775 32.9541 101.733 32.5292C101.687 32.056 101.79 31.5195 101.672 31.0617C101.485 30.3401 101.681 28.7141 101.769 27.9409C101.814 27.5437 101.908 27.1223 101.863 26.7234Z" fill="#01445B"/>
<path d="M122.472 54.5453L122.474 54.461C122.563 51.5594 124.169 48.6517 126.279 46.7272C129.338 43.9363 133.443 42.4284 137.541 42.1865C138.763 42.1142 140.007 42.1749 141.228 42.2347C141.38 42.25 141.515 42.2637 141.66 42.318L141.684 42.4151C141.476 42.6829 141.17 42.584 140.898 42.7221L140.965 42.891C139.634 43.141 138.298 43.6047 137.032 44.0796C132.64 45.7265 129.07 47.8463 125.538 50.916C124.691 51.8407 123.552 52.763 122.954 53.8781C122.797 54.103 122.636 54.3254 122.472 54.5453Z" fill="#039E76"/>
<path d="M125.538 50.9166C125.557 50.8314 125.542 50.8639 125.592 50.789C125.671 50.6707 125.75 50.5511 125.831 50.4341C126.168 49.9508 126.804 49.5343 127.263 49.1721C130.429 46.6716 134.274 44.7726 138.089 43.4919C139.001 43.1858 139.946 42.8779 140.897 42.7227L140.965 42.8916C139.634 43.1416 138.298 43.6052 137.032 44.0801C132.64 45.727 129.07 47.8468 125.538 50.9166Z" fill="#02C198"/>
<path d="M133.002 29.6194C133.578 29.2383 134.669 28.2187 135.184 28.021L135.274 28.0885C135.079 28.896 134.773 29.6959 134.511 30.4845C133.258 34.2532 131.654 37.9982 129.18 41.1403C128.907 41.4878 128.517 42.0901 128.148 42.3251C128.132 42.2364 128.12 42.26 128.174 42.1795C128.339 41.9338 128.594 41.6988 128.785 41.4676C129.32 40.8213 130.447 39.421 130.708 38.701C130.308 38.8001 129.854 38.7512 129.435 38.8499C129.033 38.9448 128.616 38.9465 128.206 38.9933C127.828 39.0365 127.451 39.1041 127.073 39.1566C126.833 39.19 126.574 39.1983 126.345 39.2819C125.899 39.4451 125.426 39.5258 124.987 39.7046C124.615 39.8557 122.805 40.7892 122.622 40.7828C122.596 40.782 122.571 40.779 122.545 40.7771C123.035 39.9818 123.551 39.2043 124.095 38.4446C124.638 37.685 125.207 36.9449 125.802 36.2245C126.937 34.4497 131.213 30.9221 133.002 29.6194Z" fill="#07967C"/>
<path d="M133.002 29.6194C133.578 29.2383 134.669 28.2187 135.184 28.021L135.274 28.0885C134.906 28.3 134.406 29.115 134.107 29.4669C132.955 30.8045 131.793 32.1341 130.622 33.4555C130.291 33.826 129.73 34.5475 129.368 34.8064C129.061 35.0268 127.987 35.3246 127.573 35.4862C127.066 35.6841 126.275 36.1212 125.802 36.2245C126.936 34.4497 131.213 30.9221 133.002 29.6194Z" fill="#03133C"/>
<path d="M101.363 60.9487C102.687 60.8438 104.045 60.8978 105.374 60.8988C107.454 60.8954 109.535 60.9038 111.615 60.924C111.91 60.9303 112.206 60.9403 112.501 60.9408C112.805 60.9453 113.111 60.9547 113.415 60.9517C114.615 60.9816 115.855 61.0397 117.053 60.9658C117.672 60.9854 118.319 60.938 118.933 60.9963C118.669 61.2057 118.272 61.0913 117.949 61.1156C117.706 61.887 116.987 63.0001 117.49 63.7906C117.758 64.2117 118.918 63.9723 119.091 64.2149C118.683 64.2576 118.245 64.2272 117.835 64.2262L115.538 64.222L107.798 64.2032C107.275 64.1078 106.648 64.1646 106.114 64.1633C104.547 64.1595 102.942 64.2469 101.379 64.1545C101.311 63.0936 101.358 62.0119 101.363 60.9487Z" fill="#00E5BC"/>
<path d="M89.605 39.8917C91.1079 39.7911 92.6771 39.922 94.1743 40.0617C94.8908 40.1286 95.6357 40.2558 96.3546 40.2451C96.8136 40.4722 97.7583 40.6453 98.2829 40.7221C100.047 41.2472 101.75 41.9351 103.271 42.9903C103.811 43.365 104.28 43.8652 104.845 44.1976C107.493 46.8627 108.939 49.859 109.311 53.6074C109.353 53.9375 109.341 54.2706 109.339 54.6027C108.914 53.9793 108.631 53.265 108.197 52.6412C107.74 51.593 106.334 50.0574 105.566 49.2035C104.864 48.5858 104.219 47.926 103.496 47.3264C103.274 46.9651 101.851 46.0183 101.437 45.7296C100.39 44.9943 99.2974 44.3346 98.159 43.7507C97.2513 43.2743 90.4543 40.223 90.0412 40.2971L90.0111 40.3546L90.0906 40.3152L90.1302 40.3346C90.107 40.3761 90.0599 40.4116 90.0606 40.4592C90.0613 40.5061 90.7063 41.4171 90.7916 41.5509C91.1275 42.0783 92.8918 45.259 92.9689 45.6212C92.9742 45.6462 92.9784 45.6713 92.9832 45.6963L92.7484 45.3545C92.4394 44.6584 92.0465 43.8962 91.6287 43.262C91.449 42.5723 90.5072 41.2829 90.0972 40.6744C89.9283 40.4237 89.7234 40.1705 89.605 39.8917Z" fill="url(#paint2_linear_217_2442)"/>
<path d="M91.6287 43.2621C91.449 42.5724 90.5072 41.2831 90.0972 40.6745C89.9283 40.4239 89.7234 40.1707 89.605 39.8918C89.9977 40.2773 92.35 40.8115 93.0303 41.0461C95.0356 41.7378 97.5962 42.8307 99.428 43.9147C100.074 44.2959 100.693 44.7154 101.287 45.1732C101.562 45.3855 103.096 46.7661 103.256 46.8033C103.115 46.6506 102.976 46.4955 102.84 46.3381C103.135 46.414 103.69 46.9272 103.881 47.1596C105.336 48.4465 106.804 49.925 107.88 51.5526C108.234 52.0891 108.868 53.4284 109.206 53.7944L109.271 53.7579L109.311 53.6075C109.353 53.9377 109.341 54.2707 109.339 54.6028C108.914 53.9794 108.631 53.2651 108.197 52.6413C107.74 51.5931 106.334 50.0575 105.566 49.2037C104.864 48.5859 104.219 47.9261 103.496 47.3266C103.274 46.9652 101.851 46.0184 101.437 45.7298C100.39 44.9944 99.2974 44.3348 98.159 43.7508C97.2513 43.2744 90.4543 40.2232 90.0412 40.2973L90.0111 40.3547L90.0906 40.3153L90.1302 40.3347C90.107 40.3762 90.0599 40.4117 90.0606 40.4593C90.0613 40.5063 90.7063 41.4172 90.7916 41.551C91.1275 42.0784 92.8918 45.2591 92.9689 45.6213C92.9742 45.6463 92.9784 45.6714 92.9832 45.6964L92.7484 45.3547C92.4394 44.6585 92.0465 43.8963 91.6287 43.2621Z" fill="#02C198"/>
<path d="M115.323 9.53488C115.588 9.14335 115.773 8.67401 115.969 8.24426C116.579 6.90446 117.157 5.5762 117.435 4.12183C119.099 7.11865 120.378 10.1809 121.154 13.5272C119.872 15.3651 118.678 17.2613 117.432 19.1232C116.979 19.7997 116.044 20.9814 115.727 21.647C116.243 21.2831 120.493 14.63 121.164 13.6189C121.427 14.8209 121.624 16.0338 121.754 17.2574C119.724 18.5739 117.866 20.0461 116.399 21.9923C115.942 22.5994 115.623 23.3329 115.144 23.9113C115.16 23.5597 115.162 23.2098 115.16 22.858L115.154 22.4448L115.187 22.368C115.169 20.9787 115.327 19.5685 115.368 18.1763C115.451 15.2954 115.436 12.4149 115.323 9.53488Z" fill="#039E76"/>
<path d="M92.9826 45.6964C92.9778 45.6714 92.9736 45.6462 92.9683 45.6213C92.8912 45.2591 91.1269 42.0784 90.791 41.551C90.7058 41.4172 90.0607 40.5062 90.0601 40.4593C90.0593 40.4117 90.1064 40.3762 90.1297 40.3347L90.09 40.3153L90.0105 40.3547L90.0406 40.2972C90.4537 40.2231 97.2507 43.2744 98.1584 43.7508C99.2968 44.3347 100.39 44.9944 101.437 45.7297C101.851 46.0184 103.274 46.9652 103.496 47.3265C103.535 47.4949 103.632 47.5662 103.755 47.6758C103.476 48.1829 103.423 48.7585 103.2 49.2851C102.963 49.8432 102.671 50.3796 102.421 50.9318C101.907 52.0666 101.427 53.1732 100.821 54.2676C100.712 54.2643 100.638 54.2277 100.539 54.1851L100.483 54.2218C98.4532 53.3176 96.5319 51.1843 95.2523 49.3901C94.7594 48.6988 94.3278 47.9651 93.8375 47.2716C93.5419 46.805 93.2881 46.3108 93.0248 45.8254L92.9826 45.6964Z" fill="#039E76"/>
<path d="M126.603 30.6022C127.561 30.2235 128.526 29.8722 129.494 29.5208C129.28 30.5497 129.121 31.5911 128.96 32.6292L129.126 32.4797C129.815 31.9826 132.421 29.6419 133.003 29.6199C131.213 30.9226 126.937 34.4502 125.802 36.225C125.207 36.9454 124.638 37.6855 124.095 38.4451C123.551 39.2048 123.035 39.9823 122.545 40.7776C122.335 41.2792 122.002 41.7508 121.743 42.2326C121.539 42.6113 121.357 43.105 121.105 43.4442L120.498 44.7449C120.231 45.3843 119.999 46.051 119.703 46.6763C119.544 47.1163 119.141 48.4807 118.799 48.7337C118.893 48.3029 118.979 47.8764 119.04 47.4392C118.098 45.2983 117.356 43.0994 117.644 40.7225C117.7 40.2578 117.772 39.7554 117.94 39.3162C117.962 39.0708 118.046 38.8094 118.107 38.5695C118.511 36.9936 119.381 35.733 120.502 34.5853C120.462 34.4487 120.416 34.3457 120.345 34.222C120.545 34.0466 120.853 33.9065 121.082 33.7573C121.74 33.3272 124.401 31.4492 124.93 31.4327C125.246 31.3517 126.26 30.7861 126.603 30.6022Z" fill="#01445B"/>
<path d="M120.345 34.2217C120.545 34.0463 120.853 33.9062 121.081 33.7569C121.739 33.3269 124.4 31.4488 124.929 31.4324C123.743 32.1169 121.424 33.5123 120.556 34.5549L120.502 34.5849C120.461 34.4484 120.416 34.3453 120.345 34.2217Z" fill="#00E4A1"/>
<path d="M129.126 32.4792C129.815 31.9821 132.421 29.6414 133.002 29.6194C131.213 30.9221 126.936 34.4497 125.802 36.2245C125.207 36.9449 124.638 37.685 124.095 38.4446C123.551 39.2043 123.035 39.9818 122.545 40.7771C122.335 41.2787 122.002 41.7503 121.742 42.2322C121.539 42.6108 121.357 43.1045 121.105 43.4437L120.498 44.7444C120.23 45.3838 119.998 46.0505 119.702 46.6758C119.543 47.1158 119.141 48.4802 118.798 48.7332C118.893 48.3024 118.978 47.8759 119.039 47.4387C119.216 47.3272 119.383 46.8186 119.486 46.6101C119.658 46.1704 119.835 45.7329 120.019 45.2977C119.185 43.4999 118.877 40.9304 117.97 39.353L118.08 39.3367C118.581 40.0301 119.164 42.4424 119.45 43.3591C119.638 43.9469 119.847 44.5273 120.076 45.1005C120.162 44.9246 120.24 44.7299 120.341 44.5635C120.532 44.1348 120.747 43.715 120.951 43.2927C121.152 42.6326 122.031 41.1959 122.465 40.6362C122.318 38.978 121.527 37.0187 120.982 35.4405C121.55 36.0055 122.375 39.475 122.597 40.3903C123.231 39.4733 123.827 38.53 124.469 37.6174C124.754 37.2114 125.086 36.8424 125.365 36.4327C125.365 35.4677 125.307 34.48 125.187 33.5223C125.184 33.4921 125.177 33.4623 125.172 33.4322C125.152 33.3062 125.134 33.1316 125.21 33.0266C125.376 33.3502 125.479 35.8434 125.479 36.336C126.166 35.4633 126.948 34.6042 127.736 33.8195C128.131 33.426 128.61 33.0596 128.959 32.6287L129.126 32.4792Z" fill="#01887D"/>
<path d="M119.486 46.6101L119.547 46.6213C119.702 46.3572 119.835 45.7265 120.048 45.5537C119.952 45.8226 119.635 46.4136 119.657 46.6708L119.702 46.6758C119.543 47.1158 119.141 48.4801 118.798 48.7332C118.893 48.3024 118.978 47.8759 119.039 47.4387C119.216 47.3272 119.383 46.8186 119.486 46.6101Z" fill="#046060"/>
<path d="M119.04 47.4392C118.098 45.2983 117.356 43.0994 117.644 40.7225C117.7 40.2578 117.772 39.7554 117.94 39.3162L117.97 39.3535C118.878 40.9309 119.186 43.5004 120.019 45.2982C119.836 45.7334 119.658 46.1709 119.486 46.6106C119.384 46.8191 119.216 47.3277 119.04 47.4392Z" fill="#002E4C"/>
<path d="M120.502 34.5849L120.556 34.5549L120.718 34.6115L120.727 34.6924L120.689 34.694C120.772 34.9555 120.856 35.1959 120.982 35.4406C121.527 37.0189 122.318 38.9782 122.465 40.6364C122.031 41.196 121.152 42.6327 120.951 43.2929C120.747 43.7151 120.532 44.135 120.341 44.5637C120.24 44.7301 120.162 44.9247 120.076 45.1007C119.847 44.5275 119.638 43.947 119.45 43.3593C119.164 42.4426 118.581 40.0303 118.08 39.3368L117.97 39.3532L117.939 39.3158C117.961 39.0705 118.045 38.809 118.107 38.5691C118.511 36.9933 119.381 35.7326 120.502 34.5849Z" fill="#002E4C"/>
<path d="M140.965 42.8908C141.742 42.7027 142.53 42.5577 143.313 42.4023C142.714 43.2512 142.066 44.1099 141.539 45.0041C141.29 45.3824 140.385 46.6101 140.323 46.9563C140.056 47.5149 139.649 48.0002 139.363 48.5516C138.934 49.2253 138.117 50.6645 137.645 51.1669C137.632 51.1753 137.619 51.1827 137.607 51.1922C137.313 51.4283 136.57 52.6279 136.162 53.0573C133.969 55.3654 131.189 55.8724 128.143 55.7001C126.275 55.5944 124.547 55.1375 122.721 54.7918C122.447 54.8961 122.349 55.1653 122.172 55.3782L122.215 55.1149L122.01 55.2186C122.16 54.9918 122.314 54.7672 122.471 54.5451C122.636 54.3252 122.796 54.1028 122.954 53.8779C123.552 52.7628 124.691 51.8405 125.538 50.9158C129.07 47.8461 132.64 45.7263 137.032 44.0794C138.298 43.6045 139.634 43.1408 140.965 42.8908Z" fill="url(#paint3_linear_217_2442)"/>
<path d="M122.954 53.8782L122.976 53.9628C122.966 53.9792 122.956 53.9954 122.946 54.0119C122.84 54.1897 122.792 54.3389 122.754 54.5412C122.789 54.6624 122.803 54.6817 122.893 54.7703L122.721 54.7921C122.447 54.8964 122.349 55.1656 122.172 55.3785L122.215 55.1152L122.01 55.219C122.16 54.9921 122.314 54.7676 122.471 54.5454C122.636 54.3256 122.796 54.1032 122.954 53.8782Z" fill="#002E4C"/>
<path d="M87.1589 24.4439L87.0711 24.3705L87.0684 24.3073C87.181 24.2768 87.23 24.2869 87.3399 24.3238C87.8923 24.7252 88.9599 25.1339 89.613 25.4711C91.053 26.2136 92.4644 27.0069 93.8472 27.8511C94.2071 28.0706 96.8622 29.9144 97.0357 29.9571C97.1277 29.9565 97.0923 29.9685 97.1467 29.9415C97.1683 30.0251 97.1871 30.0804 97.2519 30.1412C97.8825 30.7328 98.6563 31.2351 99.3257 31.793C100.272 32.582 101.153 33.4454 102.096 34.2355C102.488 34.7387 103.032 35.196 103.482 35.6519C104.3 36.474 105.073 37.3376 105.799 38.2426C105.955 37.0229 106.557 32.9807 107.262 32.1108C107.448 31.7931 107.583 31.4477 107.772 31.1286C107.951 30.8269 108.234 30.5196 108.373 30.2077C110.03 31.588 111.659 33.2641 112.583 35.2434C112.364 35.318 112.255 35.5902 112.094 35.7489L112.072 35.796C111.829 36.3008 111.515 36.7684 111.266 37.2703C110.461 38.8959 109.632 41.1233 109.558 42.9245L109.546 43.1886L109.533 43.1495C110.071 44.0821 111.38 46.1239 111.253 47.1678C111.14 46.8867 110.982 46.6268 110.878 46.341C110.273 46.0336 109.558 45.8465 108.915 45.6268C107.555 45.1627 106.184 44.7206 104.846 44.1978C104.281 43.8654 103.811 43.3652 103.271 42.9905C101.75 41.9353 100.047 41.2474 98.2831 40.7223C97.7585 40.6455 96.8137 40.4724 96.3548 40.2453C94.5257 37.987 93.0443 35.6001 91.6618 33.0507C92.8317 32.8503 94.051 32.7911 95.2352 32.842C96.0255 32.8288 96.7898 32.8394 97.5777 32.9097C98.0816 32.9548 98.6716 33.0854 99.166 33.0628L99.1125 33.0064C96.6534 32.6297 94.0685 32.6347 91.6032 32.9499C90.0518 30.1566 88.781 27.1978 87.1589 24.4439Z" fill="#002E4C"/>
<path d="M91.6614 33.0505C92.8313 32.8501 94.0506 32.7908 95.2348 32.8418C95.2216 32.8447 95.2085 32.8478 95.1952 32.8505C94.5331 32.9821 93.599 32.7314 93.0151 33.0945C93.0445 33.1681 93.0953 33.2063 93.1494 33.2641C93.7333 33.8874 94.0097 35.4965 94.1687 36.3253C94.2361 36.6759 94.2788 37.0513 94.4122 37.3833C94.6656 38.0137 95.1973 38.625 95.6149 39.1597C95.8243 39.4278 96.0818 39.8789 96.338 40.0874C96.8032 40.466 97.8836 40.3362 98.2826 40.7221C97.7581 40.6452 96.8133 40.4722 96.3543 40.2451C94.5252 37.9868 93.0439 35.5999 91.6614 33.0505Z" fill="#00556B"/>
<path d="M87.1589 24.4439L87.0711 24.3705L87.0684 24.3073C87.181 24.2768 87.23 24.2869 87.3399 24.3238C87.8923 24.7252 88.9599 25.1339 89.613 25.4711C91.053 26.2136 92.4644 27.0069 93.8472 27.8511C94.2071 28.0706 96.8622 29.9144 97.0357 29.9571C97.1277 29.9565 97.0923 29.9685 97.1467 29.9415C97.1683 30.0251 97.1871 30.0804 97.2519 30.1412C97.8825 30.7328 98.6563 31.2351 99.3257 31.793C100.272 32.582 101.153 33.4454 102.096 34.2355C102.488 34.7387 103.032 35.196 103.482 35.6519C104.3 36.474 105.073 37.3376 105.799 38.2426C105.955 37.0229 106.557 32.9807 107.262 32.1108C107.075 32.7742 106.839 33.4216 106.657 34.0872C106.28 35.4629 106.032 36.9415 105.934 38.3646C106.649 39.1951 107.33 40.0524 107.978 40.9365C108.457 41.5994 108.899 42.3062 109.414 42.9407C109.517 42.1126 109.695 41.2606 109.926 40.4591C110.222 39.4358 111.351 36.4169 112.094 35.7489L112.072 35.796C111.829 36.3008 111.515 36.7684 111.266 37.2703C110.461 38.8959 109.632 41.1233 109.558 42.9245L109.546 43.1886L109.533 43.1495C110.071 44.0821 111.38 46.1239 111.253 47.1678C111.14 46.8867 110.982 46.6268 110.878 46.341C110.227 44.3521 107.049 39.8773 105.529 38.3841C103.156 37.8095 100.847 37.3512 98.3989 37.3121C98.7985 37.2002 99.3001 37.2291 99.7117 37.2496C100.837 37.3058 101.982 37.4866 103.08 37.7363C103.843 37.91 104.605 38.1332 105.378 38.254L105.468 38.2676C104.42 36.9462 103.221 35.6892 101.994 34.5337C101.434 34.0066 100.834 33.5193 100.282 32.9849C97.2903 30.12 93.611 27.8837 90.0179 25.8657C89.1973 25.4047 88.0543 24.6949 87.1589 24.4439Z" fill="#02C198"/>
<path d="M87.158 24.4438C88.0533 24.6949 89.1963 25.4047 90.0169 25.8657C93.6101 27.8837 97.2894 30.12 100.281 32.9849L100.167 33.064L100.156 33.1266C100.26 33.1779 100.356 33.2116 100.467 33.2428L100.474 33.2842C100.306 33.3456 99.3886 33.1686 99.2056 33.0843C99.1917 33.0779 99.1786 33.07 99.1651 33.0628L99.1115 33.0064C96.6525 32.6297 94.0676 32.6347 91.6023 32.9499C90.0509 30.1566 88.7801 27.1978 87.158 24.4438Z" fill="#01445B"/>
<path d="M108.372 30.207C110.029 31.5874 111.658 33.2635 112.582 35.2427C112.363 35.3173 112.255 35.5896 112.093 35.7482C111.351 36.4162 110.221 39.4352 109.925 40.4585C109.694 41.2599 109.516 42.112 109.413 42.94C108.898 42.3056 108.456 41.5988 107.977 40.9359C107.329 40.0517 106.648 39.1944 105.933 38.364C106.032 36.9408 106.279 35.4623 106.656 34.0865C106.838 33.421 107.075 32.7735 107.261 32.1101C107.448 31.7925 107.582 31.4471 107.771 31.1279C107.95 30.8262 108.233 30.519 108.372 30.207Z" fill="url(#paint4_linear_217_2442)"/>
<path d="M101.259 15.8584C103.062 15.88 105.853 16.7196 107.528 17.4263C110.676 18.8414 112.986 20.5035 114.253 23.8547C114.385 24.2082 114.504 24.5658 114.611 24.9276C114.741 25.5949 114.425 26.2139 114.292 26.8595C114.214 27.2375 114.157 27.6186 114.12 28.0027C114.083 28.3868 114.066 28.7717 114.07 29.1576C114.073 31.266 114.736 32.6143 116.019 34.2549C116.221 34.5251 116.566 35.0864 116.911 35.165L116.974 35.159C118.271 35.0884 119.206 34.8386 120.345 34.2214C120.416 34.3451 120.461 34.4481 120.502 34.5847C119.381 35.7324 118.511 36.993 118.107 38.5689C118.045 38.8088 117.961 39.0702 117.939 39.3155C117.772 39.7548 117.7 40.2572 117.643 40.7219C117.355 43.0987 118.098 45.2977 119.039 47.4386C118.978 47.8758 118.893 48.3023 118.798 48.733C119.141 48.48 119.543 47.1157 119.702 46.6757C119.998 46.0504 120.23 45.3837 120.498 44.7442L121.105 43.4436C121.357 43.1043 121.539 42.6106 121.742 42.232C122.002 41.7502 122.335 41.2786 122.545 40.777C122.57 40.7789 122.596 40.7818 122.622 40.7827C122.805 40.7891 124.615 39.8556 124.987 39.7044C125.426 39.5257 125.899 39.445 126.345 39.2818C126.573 39.1981 126.832 39.1899 127.073 39.1565C127.45 39.104 127.828 39.0363 128.206 38.9931C128.616 38.9464 129.032 38.9446 129.435 38.8498C129.853 38.7511 130.307 38.8 130.708 38.7009C130.447 39.4209 129.32 40.8211 128.785 41.4675C128.593 41.6987 128.338 41.9336 128.174 42.1794C128.12 42.2599 128.132 42.2363 128.148 42.325C127.236 43.3746 126.093 44.2283 124.937 44.9903C123.722 45.7912 120.046 47.7032 119.401 48.7626C118.885 49.6099 118.485 51.6078 118.247 52.6116C117.605 55.3252 117.144 58.1756 117.053 60.9656C115.854 61.0395 114.615 60.9814 113.414 60.9515C113.11 60.9546 112.805 60.9451 112.501 60.9406C112.005 59.2298 111.311 57.7104 110.383 56.1944C110.052 55.6534 109.615 55.1764 109.339 54.6024C109.341 54.2703 109.353 53.9373 109.31 53.6071C108.938 49.8587 107.493 46.8624 104.845 44.1973C106.183 44.7201 107.554 45.1622 108.914 45.6263C109.558 45.846 110.272 46.0331 110.877 46.3406C110.981 46.6263 111.139 46.8862 111.253 47.1673C111.379 46.1234 110.07 44.0816 109.532 43.149L109.545 43.1881L109.557 42.9241C109.631 41.1228 110.461 38.8954 111.266 37.2698C111.514 36.7679 111.828 36.3003 112.071 35.7955L112.093 35.7484C112.255 35.5897 112.363 35.3175 112.583 35.2429C114.04 37.7437 113.4 40.7484 112.268 43.254C111.947 43.9642 111.425 44.734 111.428 45.5353C111.431 46.4273 112.02 47.3867 112.308 48.2278C112.641 49.1783 112.932 50.1415 113.181 51.1174C113.519 52.4983 113.806 53.8897 114.042 55.2914C114.279 56.6932 114.464 58.1017 114.599 59.5169L114.616 59.4958L114.581 59.4694L114.65 59.434L114.628 59.4161C114.661 58.9835 114.633 58.5414 114.635 58.1071L114.669 55.5748L114.817 45.4082C114.835 43.6109 114.862 41.8138 114.899 40.0169C114.934 38.7353 115.073 37.3629 114.922 36.0935C114.749 34.6265 113.991 31.9385 113.073 30.8218C112.547 30.1822 110.353 29.0519 109.488 28.4479C104.995 25.3087 103.05 21.0282 101.315 16.0066C103.631 17.692 105.752 19.6211 107.773 21.6457C108.466 22.3395 109.074 23.14 109.794 23.8002C109.07 22.8009 108.18 21.8906 107.307 21.0199C105.413 19.1309 103.427 17.4249 101.259 15.8584Z" fill="#046150"/>
<path d="M120.344 34.2219C120.415 34.3456 120.461 34.4486 120.501 34.5852C119.38 35.7329 118.51 36.9935 118.106 38.5694C118.045 38.8093 117.961 39.0707 117.939 39.3161C117.772 39.7553 117.699 40.2577 117.643 40.7225C117.355 43.0993 118.098 45.2982 119.039 47.4391C118.978 47.8763 118.892 48.3028 118.798 48.7336C118.549 49.4389 118.318 50.1498 118.105 50.8665C117.891 51.5832 117.695 52.3047 117.517 53.031C117.339 53.7573 117.179 54.4876 117.037 55.2218C116.895 55.956 116.772 56.6933 116.666 57.4336C116.655 57.377 116.652 57.3681 116.644 57.3019C116.523 56.1835 116.536 55.0066 116.493 53.8801C116.384 51.2677 116.308 48.6544 116.264 46.0401C116.191 43.916 116.15 41.7913 116.142 39.666C116.135 38.7451 116.048 37.7351 116.169 36.8248C116.253 36.1923 116.509 35.6555 116.91 35.1655L116.974 35.1595C118.271 35.089 119.205 34.8392 120.344 34.2219Z" fill="white"/>
<path d="M104.845 44.1978C106.184 44.7206 107.555 45.1626 108.914 45.6268C109.558 45.8465 110.272 46.0336 110.878 46.341C110.981 46.6268 111.14 46.8867 111.253 47.1678C111.732 48.7442 112.253 50.3062 112.635 51.9105C113.349 54.9171 113.457 57.8759 113.415 60.952C113.11 60.955 112.805 60.9456 112.501 60.9411C112.005 59.2303 111.311 57.7109 110.384 56.1949C110.053 55.6539 109.615 55.1769 109.339 54.6029C109.341 54.2708 109.353 53.9377 109.31 53.6076C108.939 49.8592 107.493 46.8629 104.845 44.1978Z" fill="white"/>
<path d="M110.47 7.28694C111.661 4.71938 113.205 2.31693 114.822 0L114.858 0.00598319L114.924 0.168342C115.404 0.745252 117.175 3.4791 117.435 4.12236C117.157 5.57673 116.58 6.90499 115.969 8.24479C115.774 8.67454 115.588 9.14388 115.323 9.53541C115.436 12.4154 115.451 15.2959 115.369 18.1769C115.328 19.5691 115.169 20.9793 115.187 22.3685L115.155 22.4454L115.161 22.8585C115.163 23.2103 115.16 23.5602 115.145 23.9119C115.623 23.3334 115.942 22.5999 116.4 21.9928C117.866 20.0466 119.725 18.5745 121.754 17.2579C124.781 15.4724 127.99 14.0268 131.408 13.1775C131.786 13.0835 132.36 12.8702 132.742 12.8838C132.85 12.8876 132.861 12.9142 132.928 12.9886L132.913 13.1637C132.841 14.0562 132.684 14.9457 132.534 15.8281C131.835 19.9357 130.629 24.0803 128.663 27.7698C128.357 28.3435 127.976 28.9125 127.576 29.4233C127.355 29.7065 126.71 30.3559 126.603 30.6021C126.259 30.786 125.245 31.3517 124.929 31.4327C124.401 31.4491 121.74 33.3272 121.081 33.7572C120.853 33.9065 120.545 34.0466 120.345 34.222C119.206 34.8392 118.271 35.089 116.974 35.1596L116.911 35.1656C116.566 35.087 116.221 34.5257 116.019 34.2555C114.736 32.6149 114.073 31.2666 114.07 29.1582C114.066 28.7723 114.083 28.3874 114.12 28.0033C114.157 27.6192 114.214 27.2381 114.292 26.8601C114.425 26.2145 114.741 25.5955 114.612 24.9282C114.504 24.5664 114.385 24.2088 114.253 23.8553C112.986 20.5042 110.676 18.842 107.528 17.4269C107.818 15.9846 107.887 14.486 108.344 13.0765L112.117 18.6819C112.732 19.5808 113.315 20.5819 114.044 21.3914C113.732 20.818 113.322 20.2757 112.952 19.7382L111.103 17.0586C110.169 15.6988 109.328 14.2725 108.37 12.9278C108.947 11.044 109.654 9.23363 110.431 7.42547C110.919 8.54736 111.709 9.79995 112.305 10.8883C113.097 12.3326 113.838 13.8342 114.699 15.2372L114.716 15.2157C114.244 13.7852 113.075 11.8494 112.314 10.5097C111.704 9.43736 111.119 8.3358 110.47 7.28694Z" fill="#00E4A1"/>
<path d="M114.713 23.296C114.689 22.6318 114.709 21.947 114.755 21.2839L114.761 21.3448C114.787 21.6172 114.678 22.2719 114.861 22.4597C114.973 22.4771 115.044 22.4723 115.155 22.4451L115.161 22.8583C115.143 22.8854 115.124 22.9122 115.106 22.9399C114.985 23.1285 115.006 23.353 114.897 23.5492L114.815 23.5627C114.745 23.4752 114.734 23.4047 114.713 23.296Z" fill="#CBF7FD"/>
<path d="M114.713 23.2962C114.734 23.4049 114.745 23.4754 114.815 23.5629L114.897 23.5494C115.006 23.3532 114.985 23.1286 115.106 22.94C115.123 22.9124 115.142 22.8856 115.161 22.8584C115.163 23.2102 115.16 23.5601 115.145 23.9118L115.115 23.9694C115.014 24.1721 114.985 24.5044 114.819 24.654L114.775 24.628C114.733 24.1812 114.696 23.746 114.713 23.2962Z" fill="#29F2E0"/>
<path d="M115.022 1.35278C115.239 1.8671 115.157 2.97422 115.17 3.55629L115.248 7.34663C115.262 8.06604 115.239 8.82114 115.324 9.53547C115.437 12.4155 115.452 15.296 115.369 18.1769C115.328 19.5691 115.169 20.9793 115.187 22.3686L115.155 22.4454C115.044 22.4726 114.974 22.4774 114.861 22.46C114.679 22.2722 114.788 21.6175 114.762 21.3451L114.755 21.2842C114.692 20.6213 114.747 19.9029 114.752 19.2362C114.767 17.0495 114.914 14.8702 114.97 12.6845C115.01 10.1299 115.034 7.57516 115.041 5.02024C115.038 3.79844 115 2.57429 115.022 1.35278Z" fill="#EDF7FE"/>
<path d="M132.215 13.8349C132.466 13.6419 132.675 13.3759 132.914 13.1636C132.841 14.0561 132.685 14.9456 132.535 15.828C131.836 19.9356 130.63 24.0802 128.664 27.7698C128.358 28.3434 127.977 28.9124 127.577 29.4232C127.355 29.7064 126.71 30.3558 126.603 30.602C126.26 30.7859 125.246 31.3516 124.93 31.4326C124.401 31.449 121.74 33.3271 121.082 33.7571C120.853 33.9064 120.545 34.0465 120.345 34.2219C119.206 34.8392 118.272 35.0889 116.975 35.1595L116.911 35.1655C116.567 35.0869 116.222 34.5256 116.02 34.2554C116.219 33.9683 116.763 32.5616 116.966 32.1121C117.435 31.0992 117.965 30.1192 118.556 29.1721C118.961 28.5196 119.425 27.893 119.865 27.263C122.728 23.1705 126.004 19.6901 129.577 16.2218C130.319 15.5017 131.323 14.3426 132.215 13.8349Z" fill="#039E76"/>
<path d="M116.02 34.2553C116.219 33.9681 116.763 32.5615 116.966 32.112C117.435 31.099 117.965 30.119 118.556 29.1719C118.961 28.5194 119.425 27.8929 119.865 27.2628C122.728 23.1703 126.004 19.6899 129.577 16.2216C130.319 15.5015 131.323 14.3424 132.215 13.8347C132.056 14.2372 128.874 17.5064 128.344 18.1153C127.028 19.626 125.713 21.1926 124.523 22.8032C123.536 24.1123 122.591 25.4509 121.688 26.8191C120.784 28.1872 119.925 29.5821 119.108 31.0039C118.651 31.8158 118.242 32.6536 117.836 33.4925C117.565 34.0537 117.311 34.6332 116.975 35.1593L116.911 35.1653C116.567 35.0867 116.222 34.5255 116.02 34.2553Z" fill="#02C198"/>
<path d="M102.712 64.1936C104.407 64.208 106.103 64.2114 107.798 64.2035L115.538 64.2223L117.834 64.2265C118.245 64.2276 118.683 64.2579 119.09 64.2153C119.567 64.2286 120.044 64.2323 120.521 64.2266L126.268 64.2171C127.042 64.216 128.16 64.1255 128.889 64.2401C129.171 69.2642 129.403 72.9003 127.096 77.5416C126.684 78.2509 126.328 78.9943 125.893 79.6896C125.438 80.4162 124.904 81.0845 124.382 81.7631C126.489 81.7697 128.59 81.8477 130.695 81.8688C131.756 81.8194 132.809 81.8386 133.87 81.8536L133.882 81.9287C133.912 81.9404 133.941 81.9517 133.971 81.9636C134.062 82.0011 134.115 82.0416 134.184 82.1146C134.576 82.1671 135.619 82.2221 135.882 82.4943C135.893 82.5058 135.901 82.5203 135.91 82.5334C135.761 82.7405 135.359 82.7762 135.115 82.8155C133.627 83.0546 132.076 83.1195 130.571 83.1717C124.537 83.3381 118.501 83.3789 112.465 83.294C107.647 83.2461 102.832 83.2182 98.0212 82.9215C97.4628 82.887 95.2685 82.8254 94.9214 82.5471C94.9098 82.5377 94.8999 82.5263 94.8892 82.5161C95.306 82.2893 96.288 82.2852 96.7885 82.2424C98.9329 82.067 101.08 81.9457 103.231 81.8783C104.583 81.8439 105.984 81.9084 107.328 81.7883C107.161 81.5943 107.003 81.3987 106.851 81.1925C107.808 81.0981 109.336 81.1896 110.348 81.1897C112.774 81.1774 115.201 81.1792 117.627 81.1952C119.361 76.7533 119.988 71.5536 120.504 66.8344C118.187 66.411 115.727 65.6868 113.383 65.5331C112.809 65.3625 111.779 65.3407 111.144 65.2821C108.393 65.0288 105.636 64.8612 102.875 64.7793L102.754 64.741C102.681 64.5776 102.709 64.3699 102.712 64.1936Z" fill="#005546"/>
<path d="M102.874 64.7791C105.636 64.8609 108.392 65.0285 111.144 65.2818C111.778 65.3404 112.809 65.3622 113.382 65.5328C115.727 65.6866 118.186 66.4107 120.504 66.8342C119.988 71.5533 119.361 76.7531 117.627 81.1949C115.201 81.1789 112.774 81.1771 110.348 81.1894C109.336 81.1893 107.808 81.0978 106.85 81.1922C106.697 81.0484 106.56 80.8041 106.435 80.6321C105.707 79.6321 105.076 78.6033 104.494 77.5131C103.638 75.6331 103.077 73.7868 102.813 71.735C102.741 71.574 102.74 71.2829 102.72 71.1064C102.497 69.1499 102.53 67.0725 102.737 65.1153C102.754 64.9545 102.747 64.8837 102.874 64.7791Z" fill="#00E5BC"/>
<path d="M119.734 60.9831L126.009 60.9816C127.209 60.9845 128.455 60.9211 129.646 61.0735L130.405 61.0801L130.399 64.27C129.903 64.2684 129.381 64.2992 128.889 64.24C128.16 64.1254 127.041 64.2158 126.267 64.217L120.52 64.2265C120.043 64.2321 119.566 64.2284 119.09 64.2151C118.917 63.9725 117.758 64.2119 117.49 63.7908C116.986 63.0003 117.705 61.8872 117.948 61.1158C118.272 61.0915 118.668 61.2059 118.932 60.9965L118.952 60.9833C119.212 60.9839 119.474 60.9896 119.734 60.9831Z" fill="#056C59"/>
<path d="M119.734 60.9831L126.009 60.9816C127.209 60.9845 128.455 60.9211 129.646 61.0735C127.037 61.1497 124.419 61.0659 121.808 61.0921C121.033 62.0205 120.619 63.0244 120.52 64.2265C120.043 64.2321 119.566 64.2284 119.09 64.2151C118.917 63.9725 117.758 64.2119 117.49 63.7908C116.986 63.0003 117.705 61.8872 117.948 61.1158C118.272 61.0915 118.668 61.2059 118.932 60.9965L118.952 60.9833C119.212 60.9839 119.474 60.9896 119.734 60.9831Z" fill="#02BE9C"/>
<path d="M140.323 46.9568C140.655 46.9534 141.21 47.3992 141.501 47.5862C142.102 48.0131 142.706 48.4672 143.22 48.9972C144.646 50.4681 146.842 53.8844 147.555 55.8007C147.298 55.6857 147.023 55.2513 146.835 55.0297C146.325 54.4285 145.771 53.8757 145.206 53.3264C144.019 52.1725 142.833 51.0786 141.511 50.0767C140.811 49.5459 140.055 49.0909 139.363 48.5522C139.649 48.0007 140.056 47.5154 140.323 46.9568Z" fill="#01445B"/>
<path d="M139.363 48.552C140.056 49.0908 140.811 49.5457 141.511 50.0766C142.833 51.0784 144.019 52.1723 145.206 53.3263C145.771 53.8756 146.326 54.4283 146.836 55.0296C147.024 55.2512 147.298 55.6855 147.555 55.8006C147.716 56.0987 147.857 56.4064 148 56.7129C145.968 54.8759 144.111 53.7384 141.637 52.5799C140.36 51.9111 138.99 51.631 137.645 51.1673C138.118 50.6649 138.935 49.2257 139.363 48.552Z" fill="#03133C"/>
<path d="M33.8176 28.8881C34.9889 28.8133 36.22 28.8608 37.3971 28.8609L43.8396 28.8635L64.1089 28.8677L91.7519 28.8736L100.603 28.8777C102.03 28.8782 103.494 28.8253 104.917 28.8786C105.609 28.9046 106.255 29.0436 106.821 29.327C107.52 29.6773 107.998 30.2462 108.126 30.8356C108.258 31.4393 108.197 32.0862 108.197 32.696L108.196 35.7804L108.205 46.7886L108.241 69.3512L108.238 76.5995C108.237 77.9277 108.294 79.2733 108.209 80.5994C108.175 81.1318 108.025 81.6141 107.556 82.0502C106.975 82.5906 106.15 82.8941 105.199 82.9831C103.849 83.0354 102.471 82.9994 101.118 82.9999L93.7026 83.0019L70.6194 83.0033L46.0312 83.0016L38.1684 83.0033C36.7456 83.0041 35.306 83.0394 33.8856 82.994C33.2885 82.9748 32.7365 82.8427 32.2433 82.6087C32.1968 82.5869 32.1511 82.5643 32.1062 82.5409C32.0614 82.5175 32.0174 82.4934 31.9742 82.4685C31.9311 82.4435 31.8889 82.4178 31.8476 82.3914C31.8064 82.365 31.7661 82.3378 31.7269 82.31C31.6876 82.2821 31.6493 82.2536 31.6122 82.2245C31.5749 82.1952 31.5388 82.1654 31.5038 82.1349C31.4687 82.1044 31.4348 82.0733 31.402 82.0417C31.3693 82.01 31.3377 81.9778 31.3073 81.945C31.2768 81.9122 31.2476 81.8789 31.2195 81.8451C31.1915 81.8112 31.1648 81.777 31.1393 81.7423C31.1137 81.7075 31.0894 81.6722 31.0665 81.6367C31.0435 81.601 31.0218 81.565 31.0015 81.5286C30.9811 81.4923 30.9621 81.4555 30.9444 81.4184C30.9267 81.3814 30.9104 81.3441 30.8954 81.3065C30.8805 81.2688 30.8669 81.2309 30.8546 81.1928C30.8425 81.1547 30.8316 81.1164 30.8222 81.0779C30.6779 80.5046 30.7587 79.8789 30.7628 79.2967L30.7604 76.594L30.762 65.55L30.7138 42.5114L30.7116 35.2635C30.7116 33.9736 30.658 32.6707 30.7244 31.382C30.753 30.8285 30.8748 30.3426 31.3433 29.8814C31.946 29.288 32.8197 29.0109 33.8176 28.8881Z" fill="#106EB2"/>
<path d="M63.8268 79.5226C65.9228 79.4442 68.0743 79.5156 70.1738 79.5207L73.317 79.5248C73.9082 79.5248 74.509 79.5021 75.0989 79.535C75.2521 79.5435 75.4252 79.557 75.5667 79.619C75.7059 79.6799 75.8047 79.7965 75.8578 79.9374C75.9299 80.1288 75.9324 80.3977 75.8325 80.5803C75.7513 80.7288 75.614 80.7836 75.4617 80.8355C74.5874 80.8706 73.703 80.846 72.8273 80.8517L67.1384 80.8725L65.0604 80.8809C64.6995 80.8835 64.2737 80.9305 63.9219 80.8605C63.7577 80.8279 63.599 80.7157 63.5132 80.5724C63.4071 80.395 63.3908 80.1821 63.4413 79.9841C63.5017 79.7475 63.6231 79.6433 63.8268 79.5226Z" fill="#85FFE9"/>
<path d="M94.6241 76.4335L102.252 76.4277C102.954 76.4542 103.664 76.4364 104.367 76.432L104.37 77.3558L34.7329 77.499C34.7316 77.1434 34.7356 76.7902 34.7602 76.4349C37.7389 76.4434 40.7281 76.3981 43.7049 76.4446C51.2415 76.4473 58.7899 76.3684 66.3251 76.4432C68.4532 76.4688 70.5896 76.4087 72.7152 76.4531L94.6241 76.4335Z" fill="#85FFE9"/>
<path d="M34.6553 31.8009L104.365 31.7996L104.373 62.8471C104.527 64.5494 104.4 66.4186 104.385 68.1398L104.378 76.4432C103.688 76.4468 102.965 76.4196 102.28 76.4636L94.6416 76.4694L72.7019 76.4888C70.5733 76.4447 68.4339 76.5044 66.3028 76.479C58.757 76.4046 51.198 76.4831 43.6509 76.4804C40.6699 76.4342 37.6764 76.4792 34.6936 76.4708C34.746 75.8194 34.7085 75.1558 34.7 74.5036L34.6776 71.5771L34.6678 61.7534L34.6553 31.8009Z" fill="#00E5BC"/>
<path d="M47.5239 45.2805C48.4516 45.2647 49.3796 45.287 50.3074 45.2737L55.0202 45.2805C55.0415 45.7132 55.1075 49.0036 54.9738 49.1599C54.9679 49.1669 54.9607 49.1726 54.9541 49.1789L47.5232 49.1795C47.5049 47.881 47.5233 46.5794 47.5239 45.2805Z" fill="#07967C"/>
<path d="M47.527 51.422C50.0295 51.3935 52.5349 51.4189 55.0379 51.413C55.0517 51.9132 55.1121 55.1035 54.9642 55.3285L54.9494 55.3251C52.4869 55.3214 50.0104 55.2845 47.5489 55.3424C47.4507 55.1507 47.5254 51.925 47.527 51.422Z" fill="#07967C"/>
<path d="M47.5291 39.0626C50.0236 39.0193 52.5243 39.0493 55.0194 39.0542C55.0659 39.671 55.0377 40.2975 55.0342 40.9159C55.0304 41.5977 55.044 42.2816 55.0234 42.963C54.3045 42.9597 53.4049 42.8842 52.7053 42.9802C50.9964 43.0255 49.2687 43.0085 47.5589 42.9839C47.4596 42.8315 47.5281 39.5461 47.5291 39.0626Z" fill="#07967C"/>
<path d="M55.0193 39.0548C55.5181 39.0529 58.613 38.9811 58.7752 39.0937C59.9606 40.3642 61.2018 41.6214 62.4731 42.8048C61.8067 44.8921 62.003 46.1338 62.7021 48.1654C62.9457 48.7756 63.0576 49.3999 63.2181 50.0337C63.3259 50.4591 63.4689 50.8751 63.6119 51.2897C63.6772 51.479 63.7322 51.7276 63.8517 51.8888C63.9028 52.0704 63.913 52.2741 63.9102 52.4625C64.0818 54.2693 64.6724 55.3668 66.0178 56.6189C65.9702 57.0055 65.9675 57.4045 65.9115 57.7877C65.8751 58.2156 65.8411 59.3961 65.657 59.7146C64.6067 60.0969 63.5174 60.3547 62.4705 60.7549C60.4165 61.5685 58.3274 63.0642 56.791 64.6425L50.5644 58.4011C49.5573 57.3883 48.5148 56.394 47.5488 55.3425C50.0104 55.2846 52.4869 55.3215 54.9494 55.3252L54.9642 55.3286C55.112 55.1036 55.0517 51.9133 55.0379 51.4132C55.8274 51.4123 56.6194 51.4234 57.4088 51.41C56.8335 51.3091 56.0299 51.3894 55.4305 51.3852L49.8699 51.388C49.1631 50.6245 48.353 49.9524 47.6192 49.2143L52.3377 49.2165C53.204 49.2164 54.0799 49.2432 54.9452 49.203L54.9543 49.1792C54.961 49.1729 54.9682 49.1672 54.9741 49.1603C55.1078 49.0039 55.0418 45.7135 55.0205 45.2809L50.3077 45.274C50.1939 45.2252 50.0296 45.2464 49.9055 45.2458C49.1293 44.4859 48.347 43.7321 47.5589 42.9845C49.2686 43.0091 50.9964 43.0261 52.7053 42.9808C53.4048 42.8847 54.3044 42.9603 55.0234 42.9636C55.044 42.2822 55.0304 41.5983 55.0342 40.9165C55.0377 40.2981 55.0659 39.6716 55.0193 39.0548Z" fill="#037460"/>
<path d="M57.4084 51.4099L58.7901 51.4156L58.7898 55.3346C57.92 55.3241 57.0502 55.3238 56.1804 55.3339C55.794 55.3358 55.3297 55.3826 54.949 55.3252L54.9638 55.3286C55.1116 55.1036 55.0513 51.9132 55.0375 51.4131C55.827 51.4122 56.619 51.4234 57.4084 51.4099Z" fill="#00BE9C"/>
<path d="M55.0206 45.2803L58.795 45.2783L58.7961 49.188L56.2881 49.1898C55.8469 49.1907 55.384 49.1619 54.9453 49.2024L54.9545 49.1786C54.9611 49.1724 54.9683 49.1666 54.9742 49.1597C55.1079 49.0033 55.0419 45.7129 55.0206 45.2803Z" fill="#00BE9C"/>
<path d="M55.0186 39.0548C55.5175 39.0529 58.6123 38.9811 58.7746 39.0937C58.814 40.3903 58.7868 41.6941 58.7866 42.9915L52.7046 42.9808C53.4042 42.8847 54.3038 42.9603 55.0227 42.9636C55.0433 42.2822 55.0297 41.5983 55.0335 40.9165C55.037 40.2981 55.0652 39.6716 55.0186 39.0548Z" fill="#00BE9C"/>
<path d="M74.3345 52.7063C75.0894 53.4153 75.9374 54.0626 76.7531 54.7236L80.2923 57.6191L87.675 63.6142C89.3537 64.9876 102.674 75.2082 104.37 76.5665L102.616 76.5251C102.004 76.5251 101.889 76.5251 102.146 76.5251C101.975 76.5251 101.932 76.5251 101.761 76.5251H92.704C92.1754 76.5284 91.6208 76.5037 91.0958 76.5436L85.2403 76.5488L68.4213 76.5665C68.326 75.6971 68.1426 74.8267 68.0082 73.9602L67.4756 70.2755C67.3936 69.734 67.1194 68.5433 67.1673 68.0934C67.2986 68.0103 67.4111 67.9001 67.5264 67.802C67.9247 67.4475 68.3279 67.0951 68.6633 66.6977C67.7869 65.9472 66.8397 65.2095 65.8984 64.5145C67.3334 63.4701 68.7925 62.4039 70.1418 61.2845C69.9056 61.0863 69.8243 59.9536 69.7774 59.619C69.7277 59.2807 69.6621 58.9459 69.5929 58.61C70.6028 57.8125 71.6102 56.9068 71.8908 55.738C71.9604 55.4481 71.9624 55.1752 71.9887 54.8842C71.9989 54.7698 72.018 54.742 72.1236 54.6699C72.1743 54.6516 72.2245 54.6325 72.2742 54.6125C73.2849 54.2121 73.964 53.5745 74.3345 52.7063Z" fill="#037460"/>
<path d="M63.91 52.4616C63.0819 52.1015 62.3125 51.3081 61.9523 50.4848C61.7455 50.0123 61.636 49.4489 61.8394 48.9564C62.0069 48.5508 62.3167 48.3345 62.7019 48.1646C62.9455 48.7748 63.0574 49.3991 63.218 50.0329C63.3258 50.4583 63.4687 50.8743 63.6117 51.2888C63.6771 51.4782 63.732 51.7268 63.8515 51.888C63.9026 52.0695 63.9128 52.2732 63.91 52.4616Z" fill="#F0CAAB"/>
<path d="M65.6569 59.7144C66.4938 60.4978 67.3383 61.2731 68.1904 62.0401C68.5362 62.3495 69.3021 62.934 69.544 63.2675L69.5751 63.2708C70.4303 64.0362 71.2907 64.8485 72.0869 65.675C71.7822 66.1127 71.416 66.5007 71.0541 66.8911C70.9494 66.9992 70.8472 67.1206 70.7279 67.212C70.6844 67.7075 70.9335 69.0188 71.0079 69.6152L71.4918 73.6731C71.6139 74.6274 71.7805 75.5859 71.8671 76.5433C70.3847 76.4993 68.8947 76.5589 67.4105 76.5335C62.1553 76.4592 56.8909 76.5376 51.6348 76.5349C51.6673 75.4266 51.8874 74.3002 52.1544 73.2269C52.762 70.7839 53.7796 68.4665 55.2886 66.4424C55.7557 65.816 56.279 65.2319 56.7909 64.6423C58.3273 63.0639 60.4163 61.5683 62.4703 60.7547C63.5172 60.3545 64.6065 60.0967 65.6569 59.7144Z" fill="white"/>
<path d="M63.2725 62.1458C64.2388 63.5878 65.078 65.1116 66.0358 66.5596C66.3617 66.2799 66.6814 65.9933 66.995 65.6999C67.3844 66.0918 67.7605 66.4962 68.1232 66.913C67.8741 67.1168 67.5824 67.2877 67.3166 67.4705C66.9418 67.7283 66.5806 68.0009 66.2207 68.2788C65.8956 67.4996 65.4627 66.7621 65.0736 66.0134C64.6627 65.2224 64.2828 64.4171 63.8817 63.6215C63.6843 63.23 63.4522 62.8375 63.28 62.4353C63.2256 62.3083 63.2214 62.2743 63.2725 62.1458Z" fill="#7AB4C8"/>
<path d="M68.3578 67.1758C69.1295 67.3045 69.9553 67.1016 70.7275 67.2121C70.684 67.7075 70.9331 69.0188 71.0075 69.6152L71.4914 73.6731C71.6135 74.6274 71.7801 75.5859 71.8667 76.5434C70.3843 76.4993 68.8943 76.5589 67.4102 76.5336C67.4412 75.6239 67.571 74.7023 67.6654 73.7965C67.8951 71.5922 68.19 69.3851 68.3578 67.1758Z" fill="#2F577E"/>
<path d="M65.6563 59.7144C66.4932 60.4978 67.3377 61.2731 68.1898 62.0401C68.5356 62.3495 69.3015 62.934 69.5434 63.2675L69.5745 63.2708C70.4297 64.0362 71.2901 64.8485 72.0863 65.675C71.7817 66.1127 71.4154 66.5007 71.0535 66.8911C70.9488 66.9992 70.8466 67.1206 70.7273 67.212C69.9551 67.1015 69.1293 67.3045 68.3576 67.1758L68.1233 66.9131C67.7607 66.4963 67.3846 66.092 66.9952 65.7001C66.6816 65.9935 66.3619 66.28 66.036 66.5597C65.0782 65.1118 64.239 63.5879 63.2727 62.1459C63.1681 61.8365 62.6522 61.1141 62.4697 60.7547C63.5166 60.3545 64.606 60.0967 65.6563 59.7144Z" fill="#F9F9F9"/>
<path d="M69.5441 63.2673L69.5752 63.2706C70.4304 64.036 71.2908 64.8483 72.087 65.6749C71.7823 66.1125 71.416 66.5006 71.0542 66.891C70.9495 66.9991 70.8473 67.1204 70.728 67.2119C69.9558 67.1014 69.13 67.3043 68.3583 67.1756L68.124 66.913C67.7613 66.4962 67.3853 66.0918 66.9958 65.6999C67.8621 64.9193 68.6333 63.9929 69.5441 63.2673Z" fill="#414C5F"/>
<path d="M62.4728 42.8047C62.4917 42.7493 62.5113 42.6942 62.5315 42.6393C62.5518 42.5844 62.5728 42.5298 62.5944 42.4754C62.6161 42.421 62.6384 42.367 62.6614 42.3132C62.6844 42.2594 62.7081 42.2058 62.7324 42.1526C62.7567 42.0994 62.7817 42.0465 62.8074 41.9939C62.833 41.9413 62.8593 41.8891 62.8863 41.8372C62.9133 41.7852 62.9409 41.7337 62.9691 41.6824C62.9973 41.6312 63.0262 41.5803 63.0558 41.5298C63.0853 41.4793 63.1154 41.4291 63.1462 41.3793C63.1769 41.3296 63.2083 41.2802 63.2404 41.2312C63.2724 41.1822 63.305 41.1336 63.3382 41.0855C63.3714 41.0373 63.4052 40.9895 63.4396 40.9422C63.474 40.8949 63.509 40.848 63.5445 40.8015C63.5801 40.7551 63.6163 40.709 63.653 40.6635C63.6898 40.618 63.7271 40.5729 63.7649 40.5283C63.8028 40.4837 63.8412 40.4395 63.8801 40.3958C63.9191 40.3522 63.9586 40.309 63.9986 40.2664C64.0386 40.2237 64.0792 40.1815 64.1203 40.1398C64.1614 40.0982 64.203 40.057 64.2451 40.0164C64.2872 39.9758 64.3298 39.9357 64.3729 39.8961C64.416 39.8566 64.4596 39.8175 64.5037 39.779C64.5478 39.7406 64.5923 39.7027 64.6374 39.6653C64.6825 39.628 64.728 39.5912 64.7739 39.555C64.8198 39.5188 64.8662 39.4831 64.9131 39.448C64.96 39.413 65.0072 39.3785 65.0549 39.3447C65.1026 39.3108 65.1507 39.2775 65.1993 39.2448C65.2478 39.2121 65.2968 39.18 65.3461 39.1486C65.3954 39.1171 65.4452 39.0863 65.4953 39.0561C65.5454 39.0258 65.5958 38.9962 65.6467 38.9673C65.6975 38.9384 65.7488 38.91 65.8003 38.8823C65.8519 38.8546 65.9038 38.8276 65.956 38.8012C66.0082 38.7749 66.0607 38.7491 66.1136 38.7241C66.1676 38.6982 66.222 38.673 66.2767 38.6485C66.3313 38.624 66.3863 38.6002 66.4416 38.5771C66.4968 38.5539 66.5523 38.5315 66.6081 38.5096C66.6639 38.4879 66.72 38.4668 66.7764 38.4464C66.8327 38.426 66.8893 38.4062 66.9461 38.3872C67.0029 38.3683 67.0599 38.35 67.1172 38.3324C67.1745 38.3147 67.2319 38.2978 67.2896 38.2817C67.3473 38.2655 67.4051 38.25 67.4632 38.2352C67.5212 38.2204 67.5795 38.2064 67.6379 38.1931C67.6963 38.1797 67.7549 38.1671 67.8136 38.1552C67.8723 38.1433 67.9311 38.1321 67.9902 38.1217C68.0492 38.1113 68.1083 38.1016 68.1675 38.0926C68.2267 38.0836 68.2861 38.0754 68.3455 38.0678C68.4049 38.0603 68.4644 38.0535 68.524 38.0474C68.5837 38.0414 68.6433 38.0361 68.703 38.0315C68.7628 38.0269 68.8225 38.023 68.8824 38.0199C68.9422 38.0168 69.0021 38.0144 69.0619 38.0128C69.1218 38.0111 69.1817 38.0102 69.2416 38.0101C69.3016 38.0098 69.3615 38.0104 69.4214 38.0118C69.4813 38.0131 69.5412 38.0151 69.601 38.0178C69.6608 38.0206 69.7206 38.0241 69.7804 38.0284C69.8401 38.0326 69.8998 38.0376 69.9594 38.0433C70.0191 38.0491 70.0786 38.0555 70.1381 38.0627C70.1976 38.0699 70.257 38.0778 70.3163 38.0865C70.3755 38.0951 70.4347 38.1045 70.4938 38.1146C70.5528 38.1247 70.6118 38.1355 70.6705 38.1471C70.7293 38.1586 70.7879 38.1709 70.8464 38.1839C70.9049 38.1969 70.9632 38.2106 71.0213 38.225C71.0795 38.2395 71.1374 38.2546 71.1952 38.2705C71.253 38.2863 71.3105 38.3029 71.3679 38.3202C71.4252 38.3375 71.4824 38.3555 71.5393 38.3742C71.5963 38.3928 71.653 38.4122 71.7094 38.4323C73.3399 39.0179 74.4056 40.0543 75.2579 41.535C76.0386 41.8805 76.6206 42.3131 76.9421 43.131C77.4489 44.4204 77.0559 45.8759 76.8199 47.1829C76.7698 47.4607 76.7447 47.9783 76.6045 48.2122C76.5618 48.2835 76.5342 48.2709 76.4627 48.2857C76.7877 48.3684 77.0625 48.5489 77.2294 48.8462C77.4645 49.265 77.3999 49.7574 77.2621 50.195C77.2546 50.2189 77.2474 50.243 77.2389 50.2666C76.9024 51.2228 76.2854 51.925 75.3672 52.3659C75.3221 52.3879 75.2764 52.409 75.2304 52.4291C75.1345 52.5086 75.1171 52.5392 75.1078 52.6651C75.0839 52.9856 75.0821 53.2861 75.0189 53.6054C74.764 54.8926 73.8488 55.89 72.9313 56.7683C72.9941 57.1381 73.0537 57.5069 73.0989 57.8794C73.1416 58.2479 73.2154 59.4953 73.43 59.7136C72.2042 60.9464 70.8786 62.1206 69.575 63.2708L69.5438 63.2676C69.3019 62.9341 68.536 62.3495 68.1902 62.0402C67.3382 61.2732 66.4937 60.4979 65.6567 59.7144C65.8408 59.396 65.8748 58.2154 65.9112 57.7876C65.9672 57.4043 65.9699 57.0054 66.0175 56.6187C64.672 55.3667 64.0815 54.2692 63.9098 52.4623C63.9126 52.2739 63.9025 52.0702 63.8514 51.8887C63.7319 51.7275 63.6769 51.4789 63.6115 51.2895C63.4685 50.875 63.3256 50.459 63.2178 50.0336C63.0572 49.3998 62.9454 48.7755 62.7017 48.1652C62.0027 46.1336 61.8064 44.892 62.4728 42.8047Z" fill="#F0CAAB"/>
<path d="M66.0178 56.6184C67.1148 57.6304 68.2595 58.2041 69.783 58.1442C70.8762 58.1013 72.1301 57.6335 72.8865 56.818C72.9019 56.8016 72.9166 56.7847 72.9316 56.7679C72.9944 57.1378 73.054 57.5065 73.0992 57.8791C73.1419 58.2476 73.2157 59.495 73.4303 59.7133C72.2045 60.946 70.8789 62.1202 69.5753 63.2705L69.5441 63.2672C69.3022 62.9337 68.5363 62.3492 68.1905 62.0399C67.3385 61.2728 66.494 60.4976 65.657 59.7141C65.8411 59.3957 65.8751 58.2151 65.9115 57.7872C65.9675 57.404 65.9702 57.0051 66.0178 56.6184Z" fill="#F0CAAB"/>
<path d="M66.0179 56.6184C67.1149 57.6304 68.2596 58.2041 69.7831 58.1442C70.8763 58.1013 72.1302 57.6335 72.8866 56.818C72.902 56.8016 72.9167 56.7847 72.9317 56.7679C72.9945 57.1378 73.0541 57.5065 73.0993 57.8791C72.8985 58.0193 72.7257 58.2492 72.5713 58.4389C71.9991 59.1418 71.5125 59.752 70.6237 60.0559C69.0111 60.6074 67.7371 59.5576 66.6732 58.4765C66.4969 58.2973 66.1784 57.901 65.9585 57.8059C65.943 57.7992 65.9272 57.7935 65.9116 57.7872C65.9676 57.404 65.9703 57.0051 66.0179 56.6184Z" fill="#DD6E37"/>
<path d="M62.4728 42.8047C62.4917 42.7493 62.5113 42.6942 62.5315 42.6393C62.5518 42.5844 62.5728 42.5298 62.5944 42.4754C62.6161 42.421 62.6384 42.367 62.6614 42.3132C62.6844 42.2594 62.7081 42.2058 62.7324 42.1526C62.7567 42.0994 62.7817 42.0465 62.8074 41.9939C62.833 41.9413 62.8593 41.8891 62.8863 41.8372C62.9133 41.7852 62.9409 41.7337 62.9691 41.6824C62.9973 41.6312 63.0262 41.5803 63.0558 41.5298C63.0853 41.4793 63.1154 41.4291 63.1462 41.3793C63.1769 41.3296 63.2083 41.2802 63.2404 41.2312C63.2724 41.1822 63.305 41.1336 63.3382 41.0855C63.3714 41.0373 63.4052 40.9895 63.4396 40.9422C63.474 40.8949 63.509 40.848 63.5445 40.8015C63.5801 40.7551 63.6163 40.709 63.653 40.6635C63.6898 40.618 63.7271 40.5729 63.7649 40.5283C63.8028 40.4837 63.8412 40.4395 63.8801 40.3958C63.9191 40.3522 63.9586 40.309 63.9986 40.2664C64.0386 40.2237 64.0792 40.1815 64.1203 40.1398C64.1614 40.0982 64.203 40.057 64.2451 40.0164C64.2872 39.9758 64.3298 39.9357 64.3729 39.8961C64.416 39.8566 64.4596 39.8175 64.5037 39.779C64.5478 39.7406 64.5923 39.7027 64.6374 39.6653C64.6825 39.628 64.728 39.5912 64.7739 39.555C64.8198 39.5188 64.8662 39.4831 64.9131 39.448C64.96 39.413 65.0072 39.3785 65.0549 39.3447C65.1026 39.3108 65.1507 39.2775 65.1993 39.2448C65.2478 39.2121 65.2968 39.18 65.3461 39.1486C65.3954 39.1171 65.4452 39.0863 65.4953 39.0561C65.5454 39.0258 65.5958 38.9962 65.6467 38.9673C65.6975 38.9384 65.7488 38.91 65.8003 38.8823C65.8519 38.8546 65.9038 38.8276 65.956 38.8012C66.0082 38.7749 66.0607 38.7491 66.1136 38.7241C66.1676 38.6982 66.222 38.673 66.2767 38.6485C66.3313 38.624 66.3863 38.6002 66.4416 38.5771C66.4968 38.5539 66.5523 38.5315 66.6081 38.5096C66.6639 38.4879 66.72 38.4668 66.7764 38.4464C66.8327 38.426 66.8893 38.4062 66.9461 38.3872C67.0029 38.3683 67.0599 38.35 67.1172 38.3324C67.1745 38.3147 67.2319 38.2978 67.2896 38.2817C67.3473 38.2655 67.4051 38.25 67.4632 38.2352C67.5212 38.2204 67.5795 38.2064 67.6379 38.1931C67.6963 38.1797 67.7549 38.1671 67.8136 38.1552C67.8723 38.1433 67.9311 38.1321 67.9902 38.1217C68.0492 38.1113 68.1083 38.1016 68.1675 38.0926C68.2267 38.0836 68.2861 38.0754 68.3455 38.0678C68.4049 38.0603 68.4644 38.0535 68.524 38.0474C68.5837 38.0414 68.6433 38.0361 68.703 38.0315C68.7628 38.0269 68.8225 38.023 68.8824 38.0199C68.9422 38.0168 69.0021 38.0144 69.0619 38.0128C69.1218 38.0111 69.1817 38.0102 69.2416 38.0101C69.3016 38.0098 69.3615 38.0104 69.4214 38.0118C69.4813 38.0131 69.5412 38.0151 69.601 38.0178C69.6608 38.0206 69.7206 38.0241 69.7804 38.0284C69.8401 38.0326 69.8998 38.0376 69.9594 38.0433C70.0191 38.0491 70.0786 38.0555 70.1381 38.0627C70.1976 38.0699 70.257 38.0778 70.3163 38.0865C70.3755 38.0951 70.4347 38.1045 70.4938 38.1146C70.5528 38.1247 70.6118 38.1355 70.6705 38.1471C70.7293 38.1586 70.7879 38.1709 70.8464 38.1839C70.9049 38.1969 70.9632 38.2106 71.0213 38.225C71.0795 38.2395 71.1374 38.2546 71.1952 38.2705C71.253 38.2863 71.3105 38.3029 71.3679 38.3202C71.4252 38.3375 71.4824 38.3555 71.5393 38.3742C71.5963 38.3928 71.653 38.4122 71.7094 38.4323C73.3399 39.0179 74.4056 40.0543 75.2579 41.535C76.0386 41.8805 76.6206 42.3131 76.9421 43.131C77.4489 44.4204 77.0559 45.8759 76.8199 47.1829C76.7698 47.4607 76.7447 47.9783 76.6045 48.2122C76.5618 48.2835 76.5342 48.2709 76.4627 48.2857L76.3373 48.2864C76.2305 48.446 76.2066 48.7161 76.1662 48.9071C75.9269 50.0369 75.6622 51.0717 75.2168 52.1412C75.1386 51.7411 75.2275 51.2368 75.2315 50.8255C75.2543 48.4703 75.4766 46.4099 73.6844 44.5865C73.5021 44.7593 73.3106 44.9211 73.1097 45.0719C70.6863 46.8866 66.6377 47.1881 63.718 46.7646C63.6679 48.4579 63.695 50.2026 63.8514 51.8887C63.7319 51.7275 63.6769 51.4789 63.6115 51.2895C63.4685 50.875 63.3256 50.459 63.2178 50.0336C63.0572 49.3998 62.9454 48.7755 62.7017 48.1652C62.0027 46.1336 61.8064 44.892 62.4728 42.8047Z" fill="#2C3649"/>
<path d="M73.43 59.7136C74.1661 59.9681 74.9064 60.2097 75.6509 60.4384C76.029 60.5584 76.4371 60.6582 76.7973 60.8205C77.8916 61.3587 78.9555 61.9385 79.9523 62.6441C80.0439 62.7095 80.1348 62.7757 80.225 62.8429C80.3152 62.9101 80.4048 62.9781 80.4937 63.0471C80.5827 63.116 80.6709 63.1858 80.7584 63.2564C80.8459 63.3271 80.9327 63.3986 81.0189 63.4709C81.105 63.5433 81.1904 63.6165 81.2752 63.6905C81.3599 63.7645 81.4438 63.8394 81.527 63.915C81.6103 63.9907 81.6928 64.0672 81.7745 64.1445C81.8563 64.2218 81.9372 64.2999 82.0175 64.3787C82.0977 64.4576 82.1771 64.5373 82.2557 64.6177C82.3344 64.6981 82.4123 64.7793 82.4893 64.8613C82.5663 64.9433 82.6426 65.026 82.718 65.1094C82.7935 65.1929 82.8681 65.277 82.9419 65.362C83.0156 65.4469 83.0886 65.5325 83.1607 65.6188C83.2328 65.7052 83.304 65.7922 83.3745 65.88C83.4449 65.9677 83.5144 66.0561 83.5831 66.1452C83.6517 66.2343 83.7195 66.3241 83.7865 66.4145C83.8533 66.5049 83.9194 66.596 83.9845 66.6878C84.0496 66.7795 84.1138 66.8718 84.1772 66.9648C84.2405 67.0578 84.3029 67.1514 84.3644 67.2456C84.4258 67.3398 84.4864 67.4346 84.546 67.53C84.6057 67.6254 84.6643 67.7213 84.7221 67.8179C84.7798 67.9145 84.8366 68.0116 84.8924 68.1092C84.9483 68.2068 85.0032 68.305 85.0571 68.4038C85.111 68.5025 85.1639 68.6017 85.2159 68.7015C85.2679 68.8013 85.3189 68.9015 85.3689 69.0023C85.4189 69.1031 85.4679 69.2043 85.516 69.306C85.564 69.4078 85.611 69.5099 85.657 69.6126C85.703 69.7153 85.748 69.8184 85.792 69.9219C85.836 70.0254 85.879 70.1294 85.921 70.2337C85.9629 70.3381 86.0039 70.4429 86.0438 70.548C86.0837 70.6532 86.1226 70.7588 86.1604 70.8647C86.1983 70.9707 86.2351 71.077 86.2709 71.1836C86.8571 72.9114 87.0832 74.7068 87.1466 76.5239L71.8669 76.5434C71.7803 75.5859 71.6137 74.6274 71.4916 73.6732L71.0077 69.6152C70.9333 69.0189 70.6842 67.7076 70.7277 67.2121C70.847 67.1206 70.9492 66.9993 71.0539 66.8912C71.4158 66.5008 71.7821 66.1127 72.0867 65.6751C71.2906 64.8485 70.4301 64.0362 69.575 63.2708C70.8786 62.1205 72.2042 60.9463 73.43 59.7136Z" fill="white"/>
<path d="M75.8668 62.4521C75.91 62.5476 75.9328 62.5615 75.8973 62.663C75.7739 63.0166 75.572 63.3744 75.4127 63.715L74.4244 65.8296C73.9671 66.8117 73.5878 67.832 73.1264 68.8083C72.4455 68.1536 71.7751 67.5022 71.0537 66.891C71.4156 66.5006 71.7819 66.1126 72.0865 65.6749C72.4653 65.9931 72.8216 66.3505 73.1847 66.6872C74.0201 65.25 74.9345 63.8288 75.8668 62.4521Z" fill="#7AB4C8"/>
<path d="M73.43 59.7136C74.1661 59.9681 74.9064 60.2097 75.6509 60.4384C76.029 60.5584 76.4371 60.6582 76.7973 60.8205C76.5734 61.2957 76.0103 62.0535 75.867 62.4523C74.9347 63.829 74.0203 65.2502 73.1849 66.6874C72.8218 66.3507 72.4655 65.9933 72.0867 65.6751C71.2906 64.8485 70.4301 64.0362 69.575 63.2708C70.8786 62.1205 72.2042 60.9463 73.43 59.7136Z" fill="#F9F9F9"/>
<path d="M28.8169 59.219C31.8346 59.3883 34.8741 59.1656 37.8922 59.3265L37.9005 63.8964L36.3705 63.956C33.8818 63.8312 31.3313 63.9498 28.8363 63.9629C28.8714 62.3837 28.831 60.7988 28.8169 59.219Z" fill="#00568D"/>
<path d="M14.3838 64.8233C14.3996 64.5523 14.4312 64.2903 14.4688 64.0219C15.0715 63.7671 27.1383 63.9588 28.836 63.9627C31.331 63.9497 33.8815 63.831 36.3702 63.9559C36.1098 66.4227 35.8295 68.8874 35.5293 71.3499C35.1546 74.515 34.9471 78.4588 33.6778 81.3833C33.4474 81.7678 33.2309 82.186 32.9475 82.5331C32.0553 83.2071 31.946 83.1665 31.3732 83.2071C28.9861 83.2071 27.443 83.2347 25.576 83.2071C24.1208 83.1856 24.2119 83.2071 18.0737 83.2071L17.7229 82.5331C16.5823 82.5098 18.8723 82.712 17.7422 82.5846L17.3887 81.6376C17.2286 81.1899 17.1219 80.7156 16.998 80.2563C16.1707 76.9963 15.4342 73.7559 14.9612 70.4219C14.7313 68.7993 14.6635 67.1578 14.4515 65.5333L14.4825 65.4617L14.3838 64.8233Z" fill="#00294F"/>
<path d="M28.9669 66.9709C30.7519 70.9352 30.701 74.0192 29.1718 78.0943C28.5726 79.6912 27.7684 81.2849 26.6692 82.6006C25.1837 82.6393 22.4724 82.4217 21.2023 82.6532C20.0617 82.6299 18.8724 82.7119 17.7422 82.5845L17.3887 81.6376C17.2286 81.1898 17.122 80.7156 16.998 80.2563C21.6515 77.7517 26.5181 71.6176 28.9669 66.9709Z" fill="#00568D"/>
<path d="M14.4824 65.4615C16.4777 65.4123 27.8084 66.0888 28.9667 66.9708C26.5179 71.6174 21.6514 77.7516 16.9979 80.2561C16.1706 76.9961 15.4341 73.7557 14.9611 70.4217C14.7312 68.7991 14.6634 67.1576 14.4514 65.5331L14.4824 65.4615Z" fill="#018CBE"/>
<path d="M31.1572 13.5015C33.4983 9.0136 38.348 5.75505 43.0656 4.25838C43.6998 4.05122 44.3429 3.87674 44.995 3.73498C45.647 3.59321 46.3045 3.48486 46.9674 3.40991C41.7991 6.48403 37.5115 12.3249 34.3166 17.3279C33.5271 18.5642 32.9864 20.3586 31.9465 21.3691C29.9805 23.4738 29.1087 26.1187 28.2616 28.8075C28.2628 27.9894 28.4176 25.5325 27.9944 24.914C27.9044 23.5325 27.9991 22.3058 27.7305 20.9196L28.131 20.9679C28.2953 21.2923 28.2248 21.5291 28.163 21.8696L28.1357 22.0132L28.2784 22.1363C28.6567 21.8162 28.5413 20.3607 28.6242 19.8367C28.9769 17.6076 30.0833 15.4527 31.1572 13.5015Z" fill="#026C6B"/>
<path d="M32.1666 32.1122C34.0873 29.7585 37.0334 28.2911 40.0415 27.987C42.5144 27.7369 44.4394 28.3757 46.7911 28.9303C42.823 29.5805 39.3458 31.8647 36.6353 34.7815C35.8037 35.6763 35.0672 36.8287 34.061 37.5291L34.2495 37.5874L34.1249 37.7075C33.2709 38.5252 32.2765 39.2042 31.4876 40.0939C29.2214 42.6495 27.555 47.0132 27.5187 50.4267C27.5176 50.5283 27.5223 50.5612 27.5304 50.6516C27.1947 51.8296 26.8538 52.9948 26.4356 54.1469C26.3178 54.6693 25.9126 55.6137 25.5544 56.0056C25.5796 54.0649 25.3924 52.0775 25.5638 50.1463C25.7408 48.1513 26.2379 46.1855 26.4322 44.1815C26.5713 43.8361 26.5373 43.3871 26.5572 43.0156C26.6168 41.9075 26.6632 40.7938 26.7818 39.69C26.8775 38.7975 27.2116 37.6919 27.1267 36.8157L27.5473 35.1506C27.6685 35.6966 27.7023 36.2542 27.8269 36.7984C27.9476 37.3263 28.175 37.8952 28.2361 38.4277C28.2622 38.6551 28.2267 38.8902 28.2682 39.1136C29.141 36.4436 30.2083 34.1966 32.0055 32.0053L32.1666 32.1122Z" fill="#01736C"/>
<path d="M28.2684 39.1139C29.1412 36.4439 30.2085 34.1969 32.0057 32.0056L32.1668 32.1125C28.8758 36.7833 26.9835 42.3 27.4913 48.0509C28.7232 44.4746 29.1951 41.9922 31.9775 39.1842C32.5241 38.6324 33.2591 37.9324 33.9471 37.5794C33.9841 37.5604 34.0232 37.546 34.0612 37.5294L34.2497 37.5877L34.1251 37.7078C33.2711 38.5255 32.2767 39.2045 31.4878 40.0942C29.2216 42.6498 27.5552 47.0135 27.5189 50.427C27.5178 50.5286 27.5225 50.5615 27.5306 50.6519C27.1949 51.8299 26.854 52.9951 26.4357 54.1472C26.355 53.361 26.8589 52.4559 26.9149 51.6422C26.9918 50.5256 26.6907 49.3916 26.6999 48.2702C26.7159 46.3309 27.6869 40.9749 28.2684 39.1139Z" fill="#07896C"/>
<path d="M27.5473 35.1509C27.6685 35.6969 27.7023 36.2545 27.8269 36.7986C27.9476 37.3265 28.175 37.8954 28.2361 38.428C28.2622 38.6554 28.2267 38.8905 28.2682 39.1139C27.6867 40.9749 26.7158 46.3309 26.6997 48.2702C26.6905 49.3915 26.9917 50.5255 26.9147 51.6422C26.8587 52.4558 26.3548 53.3609 26.4356 54.1472C26.3178 54.6695 25.9126 55.614 25.5544 56.0059C25.5796 54.0651 25.3924 52.0778 25.5638 50.1466C25.7408 48.1516 26.2379 46.1858 26.4322 44.1817C26.5713 43.8364 26.5373 43.3874 26.5572 43.0159C26.6168 41.9078 26.6632 40.7941 26.7818 39.6902C26.8775 38.7978 27.2116 37.6922 27.1267 36.816L27.5473 35.1509Z" fill="#00294F"/>
<path d="M32.1053 21.4592C34.8967 18.2166 39.1432 16.26 43.3826 15.9395C44.6099 15.8467 45.8339 15.9001 47.0596 15.9925C42.2503 18.6483 38.0537 23.1621 34.8781 27.6004C33.8563 29.0286 32.9553 30.53 32.0053 32.0055C30.2081 34.1968 29.1408 36.4438 28.268 39.1138C28.2265 38.8904 28.262 38.6553 28.2359 38.4279C28.1748 37.8954 27.9474 37.3264 27.8267 36.7986C27.7021 36.2544 27.6683 35.6968 27.5471 35.1508C27.8525 33.7813 27.9485 32.3301 28.1571 30.9397C28.5757 28.1464 29.4345 25.623 30.9149 23.208C31.2855 22.6036 31.7285 22.0565 32.1053 21.4592Z" fill="url(#paint5_linear_217_2442)"/>
<path d="M34.2499 37.5876C36.0242 36.2519 38.5818 35.9777 40.7228 36.2846C42.4531 36.5327 44.2344 37.0377 45.7986 37.8218L45.5834 37.9152C45.8454 38.0144 45.9726 37.9977 46.1059 38.2593C45.6573 39.2134 48.765 36.8294 37.5115 40.5805C28.9862 47.4008 33.0614 45.7109 31.488 47.4008C30.5441 48.4149 35.4655 48.7649 37.8526 49.4469L38.5346 49.6817L37.1705 49.7879C38.3913 49.6929 37.6117 49.77 35.8065 50.1289L30.6913 52.175C29.6022 53.119 32.3963 52.175 33.4288 52.7545C33.9586 53.2598 34.4455 53.7727 34.9163 54.3333C34.5575 54.2997 34.2016 54.2153 33.8479 54.1452L33.8894 54.6265C33.4019 54.4487 32.9236 54.2685 32.4521 54.0503C30.4964 55.5222 29.0636 57.3161 27.3509 59.0222L27.1586 59.0639L26.7698 59.0464L26.1398 59.0695L25.3396 59.0218C25.3808 58.0135 25.5384 57.0218 25.5548 56.0058C25.913 55.6139 26.3182 54.6694 26.436 54.1471C26.8542 52.995 27.1951 51.8298 27.5308 50.6518C27.5227 50.5614 27.518 50.5285 27.5191 50.4269C27.5554 47.0134 29.2218 42.6497 31.488 40.0941C32.2769 39.2044 33.2713 38.5254 34.1253 37.7077L34.2499 37.5876Z" fill="#01736C"/>
<path d="M27.5308 50.6518C27.9053 50.3357 28.1938 49.8809 28.5174 49.5112C29.4823 48.4082 30.5058 47.866 31.8571 47.3428C31.3637 48.188 30.8176 49.0094 30.2962 49.8381C30.1324 50.9097 29.3393 51.7024 29.1316 52.7738C28.524 53.5318 27.5802 54.6998 27.4817 55.6867L27.319 55.5113C27.3218 55.4619 27.3263 55.4126 27.3276 55.363C27.3321 55.1948 27.3158 55.1125 27.2571 54.9601C26.869 56.3258 26.4697 57.6884 26.1398 59.0695L25.3396 59.0218C25.3808 58.0135 25.5384 57.0219 25.5548 56.0058C25.913 55.6139 26.3182 54.6695 26.436 54.1471C26.8542 52.995 27.1951 51.8298 27.5308 50.6518Z" fill="#002346"/>
<path d="M27.2569 54.9601C27.2518 54.9212 27.243 54.8827 27.2417 54.8436C27.2118 53.933 29.6138 50.5064 30.296 49.8381C30.1323 50.9097 29.3392 51.7024 29.1314 52.7738C28.5238 53.5318 27.58 54.6998 27.4815 55.6867L27.3189 55.5113C27.3217 55.4619 27.3262 55.4125 27.3274 55.363C27.3319 55.1948 27.3157 55.1125 27.2569 54.9601Z" fill="#024055"/>
<path d="M29.1317 52.7735C29.5376 52.3899 30.0086 51.9862 30.5386 51.7949L30.706 51.8838C31.2837 51.8336 31.8088 51.8535 32.3839 51.9061C32.7555 52.1717 33.103 52.4333 33.4289 52.7543C33.9588 53.2595 34.4456 53.7724 34.9164 54.333C34.5576 54.2995 34.2018 54.2151 33.8481 54.145L33.8895 54.6263C33.402 54.4484 32.9237 54.2683 32.4523 54.0501C30.4965 55.522 29.0638 57.3159 27.351 59.022L27.1587 59.0637L26.7699 59.0462L26.1399 59.0692C26.4699 57.6882 26.8691 56.3255 27.2572 54.9599C27.316 55.1123 27.3322 55.1945 27.3277 55.3627C27.3265 55.4123 27.322 55.4617 27.3192 55.5111L27.4818 55.6865C27.5804 54.6996 28.5241 53.5316 29.1317 52.7735Z" fill="#07896C"/>
<path d="M30.7056 51.8838C31.2833 51.8335 31.8084 51.8534 32.3835 51.906C32.7552 52.1716 33.1027 52.4332 33.4286 52.7542C33.9584 53.2595 34.4453 53.7724 34.9161 54.333C34.5573 54.2994 34.2014 54.215 33.8477 54.1449L33.8892 54.6262C33.4017 54.4484 32.9234 54.2682 32.4519 54.05C32.4209 54.0222 32.3938 53.9899 32.3592 53.9669C31.3357 53.2864 29.8751 53.7974 28.78 53.9624C28.8085 53.6591 29.0562 53.448 29.2421 53.2101C29.6443 52.6553 30.1662 52.293 30.7056 51.8838Z" fill="#025C64"/>
<path d="M29.2421 53.2101C31.1281 52.9949 32.2051 53.1823 33.8477 54.1449L33.8892 54.6262C33.4017 54.4484 32.9234 54.2682 32.4519 54.05C32.4209 54.0222 32.3938 53.99 32.3592 53.9669C31.3357 53.2864 29.8751 53.7974 28.78 53.9624C28.8085 53.6591 29.0562 53.448 29.2421 53.2101Z" fill="#024055"/>
<path d="M11.9597 50.2722C13.3891 50.0046 14.7203 49.8469 16.1717 50.0168C17.5987 50.3829 18.504 50.8507 19.2817 52.1535C19.4796 52.485 19.6831 52.834 19.8218 53.1937L19.754 53.3315C19.9083 53.6648 20.0655 53.9967 20.2257 54.3272C19.9581 54.0364 19.661 53.6239 19.2979 53.4596L19.1881 53.5147C18.193 52.981 17.3787 52.1864 16.3555 51.6647C14.9409 50.9937 13.475 50.638 11.9597 50.2722Z" fill="#026C6B"/>
<path d="M16.4447 46.0234C18.7257 46.5656 20.1365 47.5483 21.3782 49.5438C23.0623 52.2501 24.1941 55.863 24.1995 59.069C23.7227 59.0714 23.2461 59.0796 22.7697 59.0936C22.476 59.1045 22.18 59.1243 21.8862 59.1194L21.8911 59.0844C21.3485 56.7805 20.9078 55.202 19.1882 53.5147L19.2981 53.4595C19.6612 53.6239 19.9582 54.0363 20.2258 54.3272C20.0657 53.9967 19.9084 53.6648 19.7541 53.3315L19.8219 53.1936C19.6832 52.834 19.4797 52.485 19.2818 52.1535C18.5041 50.8507 17.5988 50.3828 16.1718 50.0167C16.3214 49.5222 16.2983 48.8911 16.3381 48.3713C15.0872 47.2937 13.5661 46.9794 11.9727 46.8011C13.5022 46.2854 14.8301 46.0067 16.4447 46.0234Z" fill="#025C64"/>
<path d="M16.3384 48.3716C18.3471 50.0347 21.517 54.9731 22.4351 57.4721C22.6268 57.9938 22.6939 58.5463 22.77 59.0938C22.4764 59.1047 22.1804 59.1246 21.8865 59.1197L21.8914 59.0846C21.3488 56.7807 20.9081 55.2022 19.1885 53.5149L19.2984 53.4598C19.6615 53.6241 19.9586 54.0366 20.2261 54.3275C20.066 53.9969 19.9088 53.665 19.7545 53.3318L19.8222 53.1939C19.6835 52.8342 19.48 52.4852 19.2821 52.1538C18.5044 50.8509 17.5991 50.3831 16.1721 50.017C16.3217 49.5225 16.2986 48.8913 16.3384 48.3716Z" fill="white"/>
<path d="M20.2261 54.3274C20.0659 53.9969 19.9087 53.665 19.7544 53.3317L19.8222 53.1938C20.6069 54.2939 22.4953 57.4701 22.4541 58.7691L22.3197 59.0292C22.1752 59.0538 22.0382 59.0799 21.8914 59.0846C21.3487 56.7807 20.9081 55.2022 19.1885 53.5149L19.2983 53.4597C19.6614 53.6241 19.9585 54.0365 20.2261 54.3274Z" fill="#025C64"/>
<path d="M16.71 59.1391C18.074 59.1391 17.733 59.2188 19.0971 59.2187C20.9909 59.1391 20.8022 59.1194 21.8916 59.0843L21.8867 59.1194C22.1806 59.1243 22.4766 59.1044 22.7702 59.0935C23.2467 59.0796 23.7233 59.0714 24.2 59.0689L24.4005 59.113L24.9318 59.0713L25.3396 59.0217L26.1397 59.0694L26.7698 59.0463L27.1585 59.0638L27.3509 59.0221C27.8232 59.2604 28.3211 59.1123 28.817 59.2188C28.8311 60.7986 28.8715 62.3835 28.8364 63.9627C27.1386 63.9588 15.0719 63.7671 14.4692 64.0219C14.4316 64.2903 14.4 64.5523 14.3842 64.8233C14.3662 64.5316 14.369 64.2674 14.2284 64.0033C13.7552 63.7442 13.1377 63.8545 12.5992 63.8682L12.5825 59.0888C13.8264 59.1617 15.0837 59.1326 16.3296 59.139C19.0971 59.2187 18.4151 59.1411 17.051 59.1411L16.71 59.1391Z" fill="#4CF1D5"/>
<path d="M16.3557 51.6648C17.379 52.1865 18.1933 52.9811 19.1883 53.5147C20.9079 55.202 21.3486 56.7806 21.8912 59.0844L21.8863 59.1195C20.0879 59.2289 18.2441 59.1672 16.4399 59.1988C16.4373 57.4006 16.4957 55.5716 16.3625 53.7793L16.3557 51.6648Z" fill="white"/>
<path d="M1.21387 22.5129C2.60239 22.635 3.99648 22.6512 5.38501 22.7754C9.4636 23.1406 12.953 24.3366 16.4562 26.4272C22.7455 31.1792 23.9676 35.1945 25.0285 42.7324L25.0473 42.8692C25.1518 44.6131 25.4204 46.3981 25.298 48.1433C25.149 48.7218 25.1992 49.5023 25.1428 50.1138C25.1273 49.9828 25.11 49.8521 25.0911 49.7216C24.4348 45.1767 22.2939 39.6617 18.5214 36.8355C17.2323 35.6457 16.3105 33.9806 15.1778 32.635C12.5888 29.5601 9.21525 26.5033 5.70814 24.5507C4.26341 23.7465 2.74409 23.1306 1.21387 22.5129Z" fill="#025C64"/>
<path d="M0 35.101C2.66806 34.3322 5.36818 33.6877 8.15378 33.5622C11.6278 33.4058 15.7277 34.5761 18.33 36.956L18.5212 36.8351C22.2938 39.6613 24.4346 45.1763 25.0909 49.7212C25.1099 49.8517 25.1271 49.9824 25.1426 50.1134C25.1991 49.5019 25.1488 48.7214 25.2978 48.1429C25.4203 46.3977 25.1516 44.6127 25.0471 42.8688L25.2559 42.9654C25.4374 43.5646 25.3814 44.1951 25.5028 44.8033C25.5718 45.6712 25.6222 46.5458 25.7346 47.4092L25.8035 47.3526C25.9005 46.2675 26.12 45.1921 26.1929 44.1079L26.4322 44.1816C26.238 46.1857 25.7408 48.1514 25.5639 50.1465C25.3925 52.0777 25.5797 54.065 25.5545 56.0058C25.538 57.0218 25.3805 58.0135 25.3393 59.0218L24.9315 59.0714L24.4002 59.113L24.1997 59.069C24.1944 55.863 23.0625 52.2501 21.3784 49.5438C20.1367 47.5483 18.726 46.5657 16.445 46.0235C16.4631 44.9002 16.4056 43.7875 16.3447 42.6666C16.3073 42.6234 16.2706 42.5796 16.2325 42.5371C11.4478 37.146 7.00119 35.5994 0 35.101Z" fill="#026C6B"/>
<path d="M16.3447 42.6665C20.0495 46.7376 23.1023 50.7403 24.0614 56.2985C24.2042 57.1262 24.4506 58.1876 24.4102 59.0183C24.4087 59.0499 24.4036 59.0815 24.4002 59.113L24.1997 59.0689C24.1944 55.8629 23.0625 52.25 21.3784 49.5437C20.1367 47.5483 18.726 46.5656 16.445 46.0234C16.4631 44.9001 16.4056 43.7875 16.3447 42.6665Z" fill="white"/>
<path d="M18.5214 36.8354C22.2939 39.6617 24.4347 45.1767 25.091 49.7216C25.11 49.8521 25.1272 49.9828 25.1428 50.1137C25.1992 49.5023 25.149 48.7218 25.2979 48.1433C25.4204 46.3981 25.1517 44.6131 25.0472 42.8691L25.256 42.9657C25.4375 43.565 25.3815 44.1955 25.5029 44.8037C25.5719 45.6716 25.6223 46.5462 25.7348 47.4096L25.8036 47.3529C25.9006 46.2679 26.1201 45.1925 26.193 44.1083L26.4323 44.182C26.2381 46.186 25.741 48.1518 25.564 50.1469C25.3926 52.078 25.5798 54.0654 25.5546 56.0062C25.5381 57.0222 25.3806 58.0138 25.3394 59.0222L24.9316 59.0717C25.05 57.623 25.1712 56.1654 25.2056 54.7121C25.3163 50.0528 24.149 44.8939 21.6042 40.9512C20.6607 39.4892 19.5258 38.2122 18.3301 36.9564L18.5214 36.8354Z" fill="#07896C"/>
<path d="M10.7942 11.3569C12.6879 11.3695 14.8311 11.7348 16.5996 12.4133C17.2651 12.7835 18.058 12.9325 18.7622 13.231C20.1843 13.8339 21.4636 14.7766 22.6425 15.7593C24.8773 17.7394 26.1705 20.3472 27.1742 23.1125C27.3101 23.4867 27.6232 24.8586 27.9946 24.9141C28.4178 25.5326 28.2631 27.9895 28.2618 28.8076C29.1089 26.1189 29.9807 23.4739 31.9467 21.3692L32.1055 21.4594C31.7287 22.0567 31.2857 22.6038 30.9151 23.2082C29.4346 25.6232 28.5759 28.1466 28.1573 30.9399C27.9487 32.3304 27.8527 33.7815 27.5473 35.151L27.1267 36.8161C27.2116 37.6923 26.8775 38.7979 26.7818 39.6904C26.6632 40.7942 26.6168 41.9079 26.5571 43.016C26.5373 43.3875 26.5713 43.8365 26.4321 44.1819L26.1928 44.1081C26.1199 45.1923 25.9004 46.2678 25.8034 47.3528L25.7345 47.4095C25.6221 46.546 25.5717 45.6715 25.5027 44.8036C25.3813 44.1953 25.4373 43.5649 25.2558 42.9656L25.047 42.869L25.0282 42.7322C23.9673 35.1944 28.1139 34.7612 21.8246 30.0091C22.1679 29.2887 16.5528 23.9473 16.5321 23.1148C14.3406 21.2651 12.0639 20.1253 9.38428 19.1801C11.8536 19.2944 14.1818 19.4872 16.556 20.2322C21.4836 23.1125 26.7468 30.3412 17.0504 16.0276C15.4713 14.4172 12.8072 12.3217 10.7942 11.3569Z" fill="#07896C"/>
<path d="M26.1826 36.8737C26.1492 35.682 26.2988 34.5083 26.2974 33.3213C26.2961 32.4446 25.9015 31.0661 26.2159 30.2711C26.258 30.9511 26.1486 32.2484 26.5014 32.7962C26.797 32.8205 26.9379 32.7925 27.2078 32.6705C27.8496 31.9505 27.5901 30.6819 27.8303 29.7812C27.8733 31.532 26.868 35.4822 27.0934 36.6617C27.1033 36.7134 27.1159 36.7645 27.1272 36.816C27.2121 37.6922 26.878 38.7978 26.7823 39.6903C26.6637 40.7941 26.6173 41.9078 26.5576 43.016C26.5378 43.3874 26.5718 43.8364 26.4326 44.1818L26.1933 44.1081C26.1204 45.1922 25.9009 46.2677 25.8039 47.3527L25.735 47.4094C25.6226 46.5459 25.5722 45.6714 25.5032 44.8035C25.5579 44.656 25.6094 44.509 25.6611 44.3607C26.0676 43.1921 25.9952 41.7725 26.0236 40.5434C26.2121 39.3962 26.1636 38.0438 26.1826 36.8737Z" fill="#004954"/>
<path d="M26.0236 40.5435L26.145 40.4722C26.1922 40.7613 26.1757 41.009 26.1683 41.2978C26.1636 41.4779 26.1591 41.4106 26.2328 41.5935C26.3559 41.2014 26.217 40.8066 26.3444 40.4224C26.6825 41.1075 26.1728 43.2223 26.1933 44.1082C26.1204 45.1923 25.9009 46.2678 25.8039 47.3528L25.735 47.4095C25.6226 46.546 25.5722 45.6715 25.5032 44.8036C25.5579 44.6561 25.6094 44.5091 25.6611 44.3608C26.0676 43.1922 25.9952 41.7726 26.0236 40.5435Z" fill="#024055"/>
<path d="M9.38428 19.1799C11.8536 19.2943 14.1818 19.4871 16.556 20.2321C20.1813 21.5093 22.9859 23.4613 24.685 27.0272C25.0092 27.7079 25.2554 28.4083 25.4661 29.1309C25.6354 30.3615 25.8286 31.5739 25.8882 32.8175C25.944 33.9823 25.8792 35.1353 25.9021 36.297C25.9068 36.5447 25.885 36.7587 26.0628 36.942L26.1821 36.8737C26.1631 38.0438 26.2116 39.3962 26.0231 40.5434C25.9947 41.7725 26.0671 43.192 25.6606 44.3606C25.6089 44.5089 25.5574 44.656 25.5027 44.8034C25.3813 44.1952 25.4373 43.5647 25.2558 42.9655L25.047 42.8689L25.0282 42.7321C23.9673 35.1943 19.0965 32.8175 15.6864 27.0272C16.0296 26.3068 22.0243 33.6155 20.528 31.3732C20.1196 27.281 12.0639 20.1252 9.38428 19.1799Z" fill="url(#paint6_linear_217_2442)"/>
<defs>
<linearGradient id="paint0_linear_217_2442" x1="90.3146" y1="48.8348" x2="87.6888" y2="46.6718" gradientUnits="userSpaceOnUse">
<stop stop-color="#054660"/>
<stop offset="1" stop-color="#036D80"/>
</linearGradient>
<linearGradient id="paint1_linear_217_2442" x1="91.9395" y1="45.7459" x2="90.2525" y2="44.0846" gradientUnits="userSpaceOnUse">
<stop stop-color="#03536A"/>
<stop offset="1" stop-color="#046E7D"/>
</linearGradient>
<linearGradient id="paint2_linear_217_2442" x1="106.774" y1="55.3647" x2="93.8349" y2="37.0312" gradientUnits="userSpaceOnUse">
<stop stop-color="#02896F"/>
<stop offset="1" stop-color="#00F9A7"/>
</linearGradient>
<linearGradient id="paint3_linear_217_2442" x1="124.464" y1="56.8676" x2="143.054" y2="42.5026" gradientUnits="userSpaceOnUse">
<stop stop-color="#013647"/>
<stop offset="1" stop-color="#027E74"/>
</linearGradient>
<linearGradient id="paint4_linear_217_2442" x1="110.456" y1="42.3515" x2="107.805" y2="30.4665" gradientUnits="userSpaceOnUse">
<stop stop-color="#002E4A"/>
<stop offset="1" stop-color="#004459"/>
</linearGradient>
<linearGradient id="paint5_linear_217_2442" x1="38.4398" y1="36.7407" x2="35.9885" y2="16.9517" gradientUnits="userSpaceOnUse">
<stop stop-color="#012E51"/>
<stop offset="1" stop-color="#00616A"/>
</linearGradient>
<linearGradient id="paint6_linear_217_2442" x1="17.1491" y1="32.2365" x2="24.5297" y2="26.8158" gradientUnits="userSpaceOnUse">
<stop stop-color="#024C5D"/>
<stop offset="1" stop-color="#00646E"/>
</linearGradient>
</defs>
</svg>
