<svg width="124" height="117" viewBox="0 0 124 117" fill="none" xmlns="http://www.w3.org/2000/svg">
<path d="M14.5024 74.5177C13.2745 72.8421 12.951 68.0599 14.15 65.8264C14.8936 65.2596 15.5421 65.8349 15.9989 66.4314C16.5699 67.1769 17.4415 69.8805 18.0493 70.9453C18.5354 71.7972 19.5319 73.2913 20.1727 73.7059C20.2065 75.1248 18.4539 75.8771 16.9875 76.254C16.6069 75.7569 15.7304 76.1933 14.5024 74.5177Z" fill="#019174"/>
<path fill-rule="evenodd" clip-rule="evenodd" d="M12.688 64.7568C11.9446 65.0139 11.0581 64.7057 10.377 64.3883C9.36624 64.3426 8.11723 64.745 7.23269 65.2196C7.26629 65.2248 7.30051 65.2293 7.33496 65.2339C7.54527 65.2621 7.76456 65.2914 7.90838 65.4582C8.13393 65.7197 8.08658 66.0264 8.03607 66.3387C8.01253 66.4842 7.98325 66.6203 7.93822 66.7603L7.91427 66.8681C7.78925 67.4148 7.60902 67.9425 7.42873 68.4703C7.21586 69.0935 7.00288 69.7171 6.88054 70.3726C6.61654 71.787 6.56699 73.1991 6.52963 74.6323C6.4753 76.7151 6.55626 78.7786 6.63738 80.8464C6.67834 81.8906 6.71935 82.9358 6.743 83.9851C9.73636 84.6438 13.2646 85.0887 16.1839 83.9508L16.5629 82.6243V79.2219L16.4498 77.6198V75.6169V74.6915V73.5743C16.2844 71.0297 16.0874 68.3644 15.4566 65.8859C15.4515 65.8793 15.4465 65.8726 15.4415 65.866C15.4316 65.8529 15.4217 65.8398 15.4112 65.8273C14.8332 65.1427 13.8497 64.6785 12.9564 64.6221C12.8699 64.676 12.7848 64.7232 12.688 64.7568ZM25.9319 82.4803L31.2027 80.1743C31.2009 80.3925 31.1981 80.6114 31.1953 80.8307C31.1835 81.7431 31.1716 82.662 31.2357 83.5623C31.2807 84.1959 31.4093 84.739 31.6412 85.3306C29.685 85.3499 27.7301 85.411 25.7765 85.5141L25.9319 82.4803Z" fill="#00E5BC"/>
<path d="M26.3308 17.2222H99.5896V57.1429V113.414H26.3308V17.2222Z" fill="#106EB2"/>
<path d="M120.734 113.023C120.905 113.534 121.174 114.022 121.337 114.525L121.317 114.564C120.55 115.026 119.637 115.547 118.755 115.738C119.193 115.212 119.772 114.743 120.267 114.265C120.119 113.951 119.994 113.624 119.863 113.302L120.734 113.023Z" fill="#E67C48"/>
<path d="M108.966 113.504L109.895 113.534C109.846 114.073 109.745 114.662 109.903 115.19C109.06 115.53 108.044 115.891 107.127 115.909C107.685 115.473 108.342 115.192 108.905 114.723L108.966 113.504Z" fill="#E67C48"/>
<path d="M109.903 115.19C110.012 115.536 110.241 116.414 110.061 116.737C110.05 116.758 110.033 116.774 110.019 116.793C109.846 116.778 109.765 116.73 109.655 116.591C109.551 116.46 109.464 116.303 109.377 116.16C109.099 116.279 108.826 116.438 108.546 116.543C107.641 116.884 106.428 116.738 105.465 116.726C105.957 116.246 106.474 116.066 107.127 115.909C108.044 115.891 109.06 115.53 109.903 115.19Z" fill="#011C3C"/>
<path d="M121.317 114.564C121.566 114.892 121.848 115.453 121.905 115.861C121.791 116.019 121.805 116.022 121.615 116.058C121.499 116.018 121.28 115.916 121.161 115.929C120.546 115.996 117.943 117.294 117.511 116.883C117.561 116.624 118.325 115.933 118.582 115.786C118.652 115.746 118.684 115.747 118.755 115.738C119.637 115.547 120.55 115.026 121.317 114.564Z" fill="#011C3C"/>
<path d="M17.2872 114.256L18.0021 114.253C18.0045 114.493 18.0049 114.731 18.0289 114.97C18.1003 114.932 18.1625 114.864 18.2432 114.854C18.4339 114.83 19.0529 115.074 19.2661 115.125C20.1657 115.342 21.1034 115.48 21.9894 115.739C22.2692 115.821 22.5896 115.935 22.8032 116.138L22.7064 116.331C21.9061 116.49 21.0136 116.418 20.1991 116.416C18.8851 116.412 17.5731 116.403 16.2597 116.448C16.2531 116.172 16.1541 115.382 16.3411 115.184C16.3938 114.904 16.376 114.605 16.3775 114.321C16.677 114.28 16.9856 114.275 17.2872 114.256Z" fill="#011C3C"/>
<path d="M17.2873 114.256L18.0022 114.253C18.0046 114.493 18.005 114.731 18.029 114.97L17.9823 115.082C17.4851 115.196 16.8548 115.191 16.3412 115.184C16.3939 114.904 16.3761 114.605 16.3776 114.321C16.677 114.28 16.9857 114.275 17.2873 114.256Z" fill="#F4CC86"/>
<path d="M7.24865 114.092L7.64446 114.104C7.66827 114.243 7.67744 114.395 7.74245 114.521C8.43757 114.645 12.4349 115.693 12.7403 116.098C12.7544 116.117 12.7634 116.139 12.775 116.159C12.7193 116.29 12.7615 116.256 12.6327 116.31C12.2352 116.477 6.57816 116.402 5.6908 116.389C5.72901 115.92 5.72293 115.365 5.88336 114.924L6.03626 115.024L6.13764 114.075C6.52793 114.128 6.85667 114.18 7.24865 114.092Z" fill="#011C3C"/>
<path d="M7.24864 114.092L7.64445 114.104C7.66826 114.243 7.67743 114.395 7.74244 114.521C7.75777 114.754 7.80416 114.87 7.67592 115.07C7.15612 115.266 6.56857 115.122 6.03625 115.024L6.13763 114.075C6.52792 114.128 6.85666 114.18 7.24864 114.092Z" fill="#F4CC86"/>
<path d="M6.68518 40.5806C7.24385 40.6754 13.4744 45.917 14.2964 46.6099C14.0155 45.9032 12.4397 42.2845 12.6017 41.7267C12.9172 42.1476 13.6582 44.4595 13.93 45.1479C14.1491 45.7029 14.3511 46.3521 14.7075 46.8355C15.4403 47.8294 17.1912 49.0242 18.1968 49.856C18.882 50.4228 19.5345 51.0391 20.2324 51.588C18.9943 48.8857 17.4809 45.2494 16.7564 42.3932C16.7683 42.4144 16.7803 42.4353 16.7918 42.4565C17.1846 43.1814 17.4491 44.0129 17.7466 44.7827C18.2622 46.1413 18.7949 47.4933 19.3447 48.8384C19.5531 49.3444 20.4708 51.2808 20.5002 51.5713C20.5026 51.5938 20.4452 51.7798 20.4486 51.7978C20.4824 51.9773 23.0898 53.9905 23.4279 54.2984C23.4929 54.4302 23.5164 54.4981 23.5067 54.6454C22.929 54.2904 22.4063 53.8041 21.8873 53.3682C20.46 53.5008 19.0347 53.6934 17.6132 53.8777C16.7559 53.989 15.8101 54.1931 14.9461 54.1387C16.063 53.893 17.1877 53.6912 18.3203 53.5332C19.453 53.3753 20.59 53.2617 21.7314 53.1925L18.7394 50.7025C16.8822 50.7333 15.0249 50.7476 13.1675 50.7455L13.1396 50.6949L12.9015 50.7252L12.9325 50.7674C12.9828 50.7263 13.0274 50.6772 13.0832 50.6441C13.4374 50.4345 17.8503 50.4537 18.554 50.4596C17.5373 49.6 16.4825 48.7886 15.4551 47.9425C14.851 47.4452 14.2831 46.8695 13.6264 46.4436C11.9326 46.4175 10.0375 46.3846 8.36982 46.1076L8.36736 46.0657C9.99178 45.8978 11.7622 46.076 13.3891 46.1835C12.4772 45.4277 6.86146 41.0518 6.68518 40.5806Z" fill="#F9FCFD"/>
<path d="M0.738873 74.9102C1.58805 75.644 2.34108 75.9717 3.43433 76.1797C3.2373 77.5093 4.12721 83.5819 4.87418 84.6043C4.95209 84.7109 5.02867 84.7686 5.13877 84.8372C5.83306 85.2637 6.16799 86.033 6.63115 86.6732L6.19067 87.0458L5.53789 87.4583C5.27275 87.1761 4.99645 86.9058 4.72021 86.6346C4.67893 86.5948 4.63745 86.555 4.59889 86.5124C4.04438 85.9009 3.66289 85.0636 3.29344 84.3288C1.84567 81.4493 0.561417 78.1846 0.738873 74.9102Z" fill="#EEA08A"/>
<path fill-rule="evenodd" clip-rule="evenodd" d="M7.93814 66.7605C7.00665 67.9153 5.02589 71.9844 4.81125 73.3157C4.64552 73.5871 4.38808 74.1714 4.13567 74.7443C3.84715 75.3991 3.56519 76.0391 3.43427 76.1798C3.26188 77.3432 3.92166 82.138 4.58971 84.0034C3.92167 82.1379 3.26191 77.3433 3.4343 76.1798C3.56522 76.0391 3.84718 75.3992 4.1357 74.7443C4.38811 74.1714 4.64555 73.5871 4.81128 73.3157C4.81137 73.3683 4.81147 73.4208 4.81156 73.4733C4.81551 75.6759 4.81945 77.8724 4.92854 80.0732C4.95506 80.6083 5.00138 81.1482 5.0478 81.6891C5.12628 82.6038 5.20504 83.5217 5.18883 84.4254C5.22435 84.2044 5.22484 83.9726 5.22532 83.7448C5.22547 83.6726 5.22562 83.6009 5.22689 83.53L6.74291 83.9853C6.71926 82.936 6.67826 81.8908 6.6373 80.8466C6.55617 78.7789 6.47522 76.7153 6.52955 74.6326C6.56691 73.1993 6.61645 71.7872 6.88046 70.3728C7.0028 69.7173 7.21578 69.0938 7.42865 68.4705C7.60894 67.9427 7.78916 67.4151 7.91419 66.8683L7.93814 66.7605Z" fill="#019174"/>
<path d="M104.732 73.0414C106.203 71.57 107.321 69.792 108.803 68.334C108.924 69.0904 108.384 70.056 108.277 70.8289C108.179 71.5563 108.123 72.287 108.111 73.021C108.103 73.525 108.182 74.1591 108.078 74.6454C108.047 74.6539 108.015 74.6616 107.984 74.6707C106.517 75.1053 105.747 77.0894 103.886 76.1918C103.281 75.9002 102.763 75.4154 102.264 74.9752C100.902 73.702 99.7277 72.1845 98.6357 70.6784L98.4026 70.0812C98.6251 69.5727 98.7876 69.0186 98.9826 68.4969C100.154 69.2811 101.172 70.2499 102.281 71.1134C103.069 71.8056 103.855 72.4605 104.732 73.0414Z" fill="#ED4C41"/>
<path d="M12.489 56.1917C13.3964 56.0109 14.2828 55.9638 15.0966 56.4992C15.28 56.6199 15.4828 56.8236 15.5047 57.0546C15.5225 57.242 15.4371 57.5744 15.2953 57.7047C15.2706 57.7274 15.2438 57.7477 15.2179 57.7692L15.3656 58.2532C15.4834 59.2503 15.5568 60.2378 15.4555 61.2416C15.4452 61.7523 15.5826 63.0534 15.2424 63.4503C15.0465 63.6788 14.703 63.7004 14.4244 63.6931C13.9754 63.6814 13.4654 63.643 13.0284 63.5386L12.9564 64.6223C12.8699 64.6762 12.7847 64.7234 12.688 64.757C11.9445 65.0141 11.0581 64.7059 10.3769 64.3885C10.6582 63.5753 10.8175 62.7559 10.9469 61.9073C10.3364 61.3867 9.95141 60.6423 9.77417 59.8667C9.576 58.9994 9.59639 57.9454 10.1044 57.188C10.888 56.0198 11.3972 56.449 12.4278 56.2072C12.4483 56.2024 12.4686 56.1968 12.489 56.1917Z" fill="#072B61"/>
<path d="M11.3025 60.3352C11.2623 60.3314 11.2221 60.3286 11.1818 60.324C10.9206 60.2933 10.6717 60.1324 10.5264 59.9137C10.3606 59.6644 10.3179 59.3412 10.3923 59.0532C10.4433 58.8556 10.5405 58.7272 10.7207 58.6284C10.924 58.6174 11.0567 58.6398 11.216 58.7766C11.472 58.9966 11.5193 59.3297 11.5243 59.6491C11.5281 59.8897 11.5215 60.1635 11.474 60.3982L11.3025 60.3352Z" fill="#EEA08A"/>
<path d="M11.3026 60.3352L11.474 60.3982C11.4541 61.3019 11.5237 62.2715 12.1748 62.9701C12.398 63.2096 12.7225 63.42 13.0284 63.5383L12.9564 64.622C12.8699 64.6759 12.7848 64.7232 12.688 64.7567C11.9446 65.0139 11.0581 64.7056 10.377 64.3883C10.6582 63.575 10.8175 62.7556 10.947 61.9071C11.0603 61.3796 11.1097 60.8421 11.3026 60.3352Z" fill="#EEA08A"/>
<path d="M15.4555 61.2416C14.7343 61.3008 12.9948 61.4651 12.4362 61.0092C12.1865 60.8055 12.0817 60.4799 12.0481 60.1704C11.9663 59.4175 12.2578 57.9422 12.7301 57.3482C13.1819 57.1711 13.9749 57.6071 14.4541 57.7087C14.7011 57.7613 14.9661 57.7616 15.2179 57.7691L15.3656 58.2532C15.4834 59.2502 15.5568 60.2377 15.4555 61.2416Z" fill="#EEA08A"/>
<path d="M4.72009 86.6348C4.99634 86.9059 5.27263 87.1762 5.53778 87.4584L6.19056 87.0459C6.37802 87.801 6.38416 88.6338 6.52073 89.4076C7.18095 93.1479 7.76795 97.0076 7.88429 100.809C7.95806 103.22 7.80381 105.668 7.69788 108.077C7.61576 109.944 7.5654 112.267 7.24856 114.092C6.85659 114.18 6.52784 114.128 6.13755 114.076C5.96088 113.98 5.77357 113.97 5.57689 113.94C5.56685 108.885 5.96044 103.832 5.92325 98.7747C5.91693 97.7565 5.88705 96.739 5.83361 95.7222C5.78018 94.7053 5.70325 93.6902 5.60283 92.6768C5.5024 91.6636 5.37858 90.6532 5.23138 89.6456C5.08418 88.638 4.91375 87.6344 4.72009 86.6348Z" fill="#011C3C"/>
<path d="M110.606 61.3164C110.405 60.9128 110.269 60.3036 110.43 59.8637C110.696 59.1359 111.298 58.6202 112.011 58.3377C112.71 58.061 114.03 58.1729 114.677 58.5066C115.229 58.7917 115.553 59.2954 115.731 59.8784C116.16 61.2805 115.403 62.8118 115.923 64.1306C116.294 65.0708 117.329 65.6434 118.062 66.2823C118.104 66.3188 118.145 66.356 118.186 66.3937C118.226 66.4314 118.266 66.4697 118.305 66.5087C118.345 66.5477 118.383 66.5872 118.422 66.6274C118.46 66.6675 118.497 66.7082 118.534 66.7496C118.571 66.7909 118.607 66.8327 118.643 66.8751C118.678 66.9175 118.713 66.9604 118.748 67.0039C118.782 67.0474 118.816 67.0914 118.849 67.1358C118.881 67.1803 118.914 67.2254 118.945 67.2709C118.977 67.3163 119.008 67.3623 119.038 67.4087C119.068 67.4552 119.098 67.502 119.126 67.5493C119.155 67.5966 119.183 67.6444 119.21 67.6926C119.238 67.7407 119.264 67.7893 119.29 67.8383C119.316 67.8873 119.341 67.9367 119.365 67.9864C119.389 68.0361 119.413 68.0862 119.436 68.1367C119.459 68.1872 119.481 68.238 119.502 68.2891C119.523 68.3403 119.543 68.3918 119.563 68.4435C119.583 68.4953 119.602 68.5473 119.62 68.5997C119.638 68.6521 119.655 68.7047 119.671 68.7575C119.688 68.8103 119.704 68.8634 119.718 68.9168C119.733 68.9702 119.747 69.0237 119.76 69.0775C119.774 69.1312 119.786 69.1852 119.797 69.2394C119.809 69.2936 119.82 69.3479 119.83 69.4024C119.84 69.4569 119.849 69.5115 119.857 69.5662C119.865 69.621 119.872 69.6758 119.879 69.7309C119.885 69.7858 119.891 69.8408 119.896 69.896C119.901 69.9512 119.905 70.0064 119.908 70.0617C119.911 70.1169 119.914 70.1722 119.915 70.2275C119.917 70.2829 119.917 70.3383 119.917 70.3937C119.917 70.4491 119.916 70.5044 119.914 70.5597C119.912 70.6151 119.909 70.6704 119.906 70.7256C119.902 70.7809 119.898 70.8361 119.893 70.8912C119.887 70.9463 119.881 71.0013 119.874 71.0562C119.559 70.6972 119.244 70.347 118.897 70.0179C117.808 68.6975 116.5 67.78 115.011 66.9788L114.583 66.7655C114.225 66.3365 114.215 65.5283 114.146 64.9835L114.1 65.0181C113.231 65.6863 112.959 66.1155 111.824 66.4266C111.88 66.094 111.908 65.7685 111.928 65.4325C111.783 65.4376 111.629 65.4473 111.485 65.4198C111.186 65.3623 110.959 65.1223 110.809 64.8695C110.246 63.9145 110.364 62.3572 110.606 61.3164Z" fill="#072B61"/>
<path d="M111.815 59.79C112.179 60.8057 112.614 61.2286 113.521 61.7892C113.577 62.0573 113.634 62.2605 113.771 62.4988L113.9 62.5627C114.285 62.3009 114.15 61.9395 114.717 61.934C114.878 62.047 114.9 62.071 114.982 62.25C114.972 62.5571 114.912 62.755 114.677 62.9618C114.324 63.272 114.163 63.2123 114.098 63.7299C114.11 64.1438 114.102 64.5724 114.146 64.9834L114.1 65.0181C113.231 65.6862 112.959 66.1154 111.824 66.4265C111.88 66.0939 111.908 65.7685 111.928 65.4325C111.783 65.4375 111.629 65.4473 111.485 65.4197C111.186 65.3623 110.959 65.1222 110.809 64.8694C110.246 63.9144 110.364 62.3572 110.606 61.3163C110.91 60.6906 111.313 60.2611 111.815 59.79Z" fill="#EEA08A"/>
<path d="M114.098 63.73C114.11 64.1439 114.102 64.5725 114.146 64.9835L114.1 65.0181C113.231 65.6863 112.959 66.1155 111.824 66.4266C111.88 66.094 111.908 65.7685 111.928 65.4326C112.1 65.3288 112.32 65.2776 112.504 65.1861C113.192 64.8428 113.638 64.3283 114.098 63.73Z" fill="#ED4C41"/>
<path fill-rule="evenodd" clip-rule="evenodd" d="M117.09 90.3876C117.231 88.8516 117.177 87.335 117.086 85.7983C116.916 85.8929 116.791 85.9435 116.601 85.9842C115.024 86.1019 113.445 86.1603 111.863 86.1594L110.88 86.1495C110.973 86.6559 111.062 87.163 111.151 87.6701C111.313 88.5971 111.475 89.524 111.663 90.4461C111.725 90.7517 111.802 91.0578 111.879 91.364C111.984 91.7794 112.089 92.1952 112.157 92.6108C112.171 92.699 112.165 92.8046 112.146 92.8911C111.985 94.0207 111.897 95.1705 111.809 96.3177C111.758 96.976 111.708 97.6335 111.644 98.2858L110.603 108.064C110.556 108.505 110.513 108.95 110.47 109.395C110.338 110.753 110.205 112.123 109.96 113.453C109.96 113.453 109.96 113.453 109.96 113.453C110.205 112.123 110.338 110.754 110.47 109.395C110.513 108.95 110.556 108.505 110.603 108.064L111.644 98.2859C111.708 97.6336 111.758 96.9761 111.809 96.3178C111.897 95.1706 111.985 94.0208 112.146 92.8912C112.304 93.1622 112.38 93.4884 112.456 93.8129C112.505 94.0222 112.554 94.2308 112.625 94.4233C112.768 95.2089 113.003 95.9903 113.236 96.7622C113.3 96.974 113.364 97.1852 113.425 97.3955C114.603 101.424 116.206 105.267 117.93 109.09C118.078 109.417 118.225 109.746 118.372 110.075C118.855 111.157 119.34 112.241 119.863 113.302C119.894 113.378 119.924 113.453 119.954 113.529C120.054 113.776 120.153 114.024 120.267 114.265C120.267 114.265 120.267 114.265 120.267 114.265C120.153 114.024 120.054 113.776 119.954 113.528C119.924 113.453 119.894 113.378 119.863 113.302L120.734 113.023C120.761 112.156 120.531 111.159 120.319 110.245C120.258 109.978 120.198 109.719 120.146 109.472C119.459 106.18 118.616 102.899 117.778 99.6419L117.765 99.5909C117.641 99.1086 117.499 98.6205 117.355 98.1293C117.057 97.1098 116.756 96.0771 116.608 95.0557C116.5 94.3086 116.703 93.0174 116.882 91.8758C116.97 91.3167 117.053 90.7935 117.09 90.3876Z" fill="url(#paint0_linear_217_2095)"/>
<path d="M111.439 31.9554C112.89 31.6873 114.368 31.5284 115.81 31.2205C116.383 36.6458 115.082 42.4773 111.599 46.7582C109.17 49.7439 105.982 51.7932 102.271 52.8178L102.259 48.076C102.257 47.2456 102.195 46.3753 102.278 45.5512C102.224 45.421 102.222 45.4076 102.235 45.2771C102.274 41.9553 102.281 38.6335 102.258 35.3117C104.523 33.5975 107.124 32.7933 109.869 32.2339L111.439 31.9554Z" fill="#00606F"/>
<path d="M115.582 31.6335C114.825 32.781 113.799 33.7664 112.843 34.7473C111.572 36.0513 110.278 37.3374 109.049 38.6818C111.015 38.2012 113.044 37.5405 115.064 37.3662L114.968 37.403C113.006 38.1498 110.824 38.3275 108.873 39.0913C108.153 39.3731 104.262 43.6038 103.406 44.4483C104.703 44.2141 109.847 43.1315 110.749 43.2795C110.431 43.4772 104.01 44.692 103.102 44.839L102.278 45.5512C102.224 45.4211 102.222 45.4077 102.235 45.2771C103.105 44.3119 104.023 43.3817 104.918 42.4388C105.017 41.8642 105.049 41.2724 105.123 40.6932C105.29 39.4824 105.445 38.2701 105.587 37.0562C105.684 36.2588 105.752 35.4263 105.952 34.6473C105.977 35.5778 105.84 36.5548 105.748 37.4802C105.589 39.0497 105.422 40.6183 105.246 42.1861C106.584 40.6997 108.158 39.4312 109.383 37.8505C109.435 36.7079 109.482 33.8025 109.862 32.8631C109.866 34.461 109.672 36.0496 109.657 37.6437C110.685 36.5131 111.787 35.4406 112.859 34.3527C113.756 33.443 114.637 32.4917 115.582 31.6335Z" fill="#F9FCFD"/>
<path d="M115.011 66.9788C116.5 67.78 117.808 68.6975 118.897 70.0178C118.856 70.0008 118.815 69.9851 118.775 69.9671C118.602 69.8898 118.494 69.7677 118.365 69.6338C117.717 68.9603 117.387 69.2737 116.585 69.5416C116.241 69.6567 115.966 69.7879 115.658 69.984C115.587 70.0289 115.515 70.0714 115.444 70.1156C115.698 70.5188 116.276 71.2027 116.363 71.6481C115.73 70.927 115.282 69.9897 115.079 69.0537C115.014 68.7547 114.996 68.3872 114.895 68.1035C114.85 67.9772 114.82 67.9759 114.697 67.9212C114.78 67.605 114.907 67.2894 115.011 66.9788Z" fill="#F4CC86"/>
<path fill-rule="evenodd" clip-rule="evenodd" d="M113.563 65.4548C113.053 65.8832 112.689 66.1892 111.824 66.4265L111.562 66.5836L111.224 66.7337C110.106 66.9277 109.522 67.5244 108.803 68.3339C108.877 68.7992 108.702 69.3436 108.53 69.8736C108.423 70.2053 108.318 70.5313 108.277 70.8288C108.179 71.5563 108.123 72.287 108.111 73.0209C108.108 73.1807 108.114 73.3535 108.121 73.5305C108.135 73.9121 108.149 74.3132 108.078 74.6454C108.078 74.8166 108.074 74.99 108.07 75.1641C108.062 75.5349 108.054 75.9088 108.079 76.2721C107.993 77.1372 107.939 78.0089 107.885 78.8809C107.84 79.5972 107.796 80.3136 107.734 81.0267C107.687 81.5671 107.626 82.1116 107.565 82.6572C107.463 83.5824 107.359 84.5108 107.321 85.4282C107.401 85.4565 107.482 85.4869 107.564 85.5174C107.739 85.583 107.916 85.6493 108.092 85.6965C108.156 85.7145 108.221 85.7332 108.286 85.7519C108.507 85.8162 108.731 85.881 108.957 85.92C109.052 85.9373 109.147 85.9554 109.242 85.9735C109.688 86.0588 110.14 86.145 110.592 86.153L110.88 86.1493L111.864 86.1592C113.445 86.1601 115.024 86.1017 116.601 85.984C116.791 85.9434 116.916 85.8927 117.086 85.7982C117.431 84.4086 116.829 82.7423 116.357 81.4362L116.35 81.4169C116.988 81.1741 117.628 80.986 118.261 80.7997C119.737 80.3652 121.179 79.9408 122.491 78.8576C123.012 78.4273 123.429 77.8897 123.478 77.1936C123.609 75.3405 121.265 72.6513 119.996 71.1955C119.954 71.1477 119.914 71.1012 119.874 71.0561C119.559 70.6971 119.244 70.3469 118.897 70.0178C117.808 68.6974 116.5 67.7799 115.011 66.9787L114.583 66.7654C114.289 66.4137 114.23 65.807 114.18 65.2996C114.169 65.1882 114.158 65.0815 114.146 64.9834L114.1 65.018C113.894 65.1765 113.722 65.3216 113.563 65.4548ZM119.585 75.1696C118.949 74.6162 118.312 74.0624 117.706 73.4644C117.538 74.6959 117.258 76.0648 116.661 77.1672C116.564 77.3939 116.449 77.6216 116.333 77.8513C115.902 78.705 115.458 79.5866 115.869 80.5503C115.874 80.5612 115.879 80.5715 115.885 80.5819C115.888 80.5871 115.891 80.5923 115.893 80.5975L115.943 80.5667C117.762 79.4285 119.731 78.1968 121.093 76.5171C120.601 76.0532 120.093 75.6115 119.585 75.1696Z" fill="#E8B941"/>
<path d="M114.697 67.9211C114.82 67.9759 114.85 67.9771 114.895 68.1034C114.996 68.3872 115.014 68.7546 115.079 69.0537C115.282 69.9897 115.73 70.9269 116.363 71.648C116.617 72.3833 117.376 72.8077 117.706 73.4645C117.538 74.696 117.258 76.0649 116.661 77.1673L116.523 77.1149C116.538 77.093 116.554 77.072 116.567 77.0493C116.653 76.9023 117.161 75.7486 117.155 75.6435C117.013 75.3284 116.735 75.1638 116.438 75.0086C115.407 75.0374 113.327 75.4865 112.445 75.9903C112.152 76.4625 112.416 77.2701 112.041 77.641C112.067 76.9909 112.223 76.2999 112.346 75.6589C112.861 72.9732 113.694 70.4575 114.697 67.9211Z" fill="url(#paint1_linear_217_2095)"/>
<path d="M112.041 77.6412C112.416 77.2703 112.152 76.4627 112.445 75.9905C113.327 75.4867 115.407 75.0377 116.438 75.0088C116.735 75.164 117.013 75.3286 117.156 75.6437C117.161 75.7488 116.653 76.9026 116.567 77.0495C116.554 77.0723 116.538 77.0932 116.523 77.1151L116.661 77.1675C116.204 78.2368 115.347 79.3276 115.869 80.5506C115.876 80.5669 115.885 80.5821 115.894 80.5979L115.874 80.6696L116.32 81.4211L116.35 81.4171C116.823 82.7261 117.433 84.4019 117.086 85.7984C116.916 85.8929 116.791 85.9436 116.601 85.9842C115.024 86.1019 113.445 86.1603 111.864 86.1594C111.738 84.1449 111.541 79.4615 112.041 77.6412Z" fill="#E67C48"/>
<path d="M115.873 80.6694L116.319 81.4209C115.898 81.8177 115.116 82.2639 114.528 82.2904C114.606 82.1503 114.571 82.2058 114.663 82.0704L114.729 81.9747L114.689 81.8777C114.413 81.8715 114.162 82.036 113.915 82.1489C114.006 81.9765 114.137 81.8213 114.253 81.664C114.168 81.5893 113.821 81.8291 113.646 81.8251C113.669 81.7453 113.667 81.7385 113.713 81.6533C114.108 80.9341 115.15 80.836 115.873 80.6694Z" fill="#EDCFC7"/>
<path d="M111.824 66.4265C112.959 66.1154 113.231 65.6862 114.1 65.018L114.146 64.9834C114.215 65.5282 114.225 66.3364 114.583 66.7654L115.011 66.9787C114.907 67.2894 114.78 67.605 114.697 67.9212C113.694 70.4575 112.861 72.9732 112.346 75.659C112.223 76.2999 112.067 76.9909 112.041 77.641C111.541 79.4613 111.738 84.1447 111.864 86.1592L110.88 86.1493L110.592 86.153C110.044 86.1433 109.496 86.0185 108.957 85.92C108.665 85.8696 108.377 85.7762 108.092 85.6965C107.833 85.6273 107.574 85.5172 107.321 85.4282C107.382 83.9698 107.607 82.4835 107.734 81.0267C107.871 79.4455 107.922 77.8478 108.079 76.2721C108.043 75.7383 108.077 75.1816 108.078 74.6454C108.182 74.1591 108.103 73.525 108.111 73.0209C108.123 72.287 108.179 71.5563 108.277 70.8288C108.384 70.0559 108.924 69.0904 108.803 68.3339C109.522 67.5244 110.106 66.9277 111.224 66.7337L111.562 66.5836L111.824 66.4265Z" fill="#F9FCFD"/>
<path d="M111.824 66.4265C112.959 66.1154 113.231 65.6862 114.1 65.018L114.146 64.9834C114.215 65.5282 114.225 66.3364 114.583 66.7654C114.535 66.8059 114.527 66.8156 114.465 66.8529C113.878 67.2073 113.117 67.5041 112.429 67.3264C111.981 67.2106 111.8 66.9631 111.562 66.5836L111.824 66.4265Z" fill="#EEA08A"/>
<path d="M108.803 68.3338C109.522 67.5243 110.106 66.9276 111.224 66.7336C109.554 68.5111 108.756 71.4376 108.83 73.8361C108.84 74.1706 108.844 74.5094 108.873 74.8426C108.947 76.5416 109.046 78.2445 109.06 79.9451C109.076 81.9404 108.996 83.9263 108.957 85.9199C108.665 85.8695 108.377 85.7762 108.092 85.6964C107.833 85.6272 107.574 85.5171 107.321 85.4281C107.382 83.9697 107.607 82.4834 107.734 81.0266C107.871 79.4454 107.922 77.8477 108.079 76.272C108.043 75.7382 108.077 75.1815 108.078 74.6453C108.182 74.159 108.103 73.5249 108.111 73.0208C108.123 72.2869 108.179 71.5562 108.277 70.8287C108.384 70.0558 108.924 69.0903 108.803 68.3338Z" fill="#E67C48"/>
<path d="M108.803 68.3338C109.522 67.5243 110.106 66.9276 111.224 66.7336C109.554 68.5111 108.756 71.4376 108.83 73.8361C108.84 74.1706 108.844 74.5094 108.873 74.8426L108.772 74.7758C108.717 74.0099 108.625 73.1748 108.725 72.4118C108.784 71.958 108.94 71.5196 109.006 71.0648C109.062 70.6725 109.218 70.1804 109.39 69.8217C109.275 69.903 109.325 69.8478 109.257 69.9825C109.167 70.1599 109.02 70.2451 108.888 70.3864C108.524 70.7751 108.464 71.0716 108.315 71.5542C107.926 72.8083 108.448 75.9466 108.122 76.8069C108.096 76.6298 108.102 76.4494 108.079 76.272C108.043 75.7382 108.077 75.1815 108.078 74.6453C108.182 74.159 108.103 73.5249 108.111 73.0208C108.123 72.2869 108.179 71.5562 108.277 70.8287C108.384 70.0558 108.924 69.0903 108.803 68.3338Z" fill="#E8B941"/>
<path d="M108.092 85.6965C108.377 85.7763 108.665 85.8697 108.957 85.92C109.496 86.0186 110.044 86.1434 110.592 86.1531L110.88 86.1494C111.143 87.5813 111.373 89.0194 111.663 90.4459C111.81 91.1663 112.039 91.8886 112.157 92.6107C112.171 92.6988 112.166 92.8045 112.146 92.891C111.893 94.6688 111.819 96.4968 111.644 98.2857L110.604 108.064C110.413 109.85 110.285 111.686 109.96 113.453L109.895 113.534L108.966 113.505L108.908 113.473C108.72 111.715 108.755 109.88 108.693 108.108L108.349 95.9336C108.195 94.9693 108.247 93.8867 108.216 92.9058C108.152 90.8788 108.072 88.8444 108.1 86.8163L108.088 86.2226L108.07 86.0748L108.092 85.6965Z" fill="url(#paint2_linear_217_2095)"/>
<path d="M108.092 85.6965C108.377 85.7763 108.665 85.8697 108.957 85.92C109.496 86.0186 110.044 86.1434 110.592 86.1531L110.531 86.2538C110.14 86.311 109.706 86.0804 109.341 86.2036C109.369 86.3713 109.485 86.4516 109.598 86.5752C109.349 86.6679 108.386 86.3298 108.088 86.2226L108.07 86.0748L108.092 85.6965Z" fill="#072B61"/>
<path fill-rule="evenodd" clip-rule="evenodd" d="M102.264 74.9752C100.901 73.702 99.7276 72.1845 98.6356 70.6785L98.6797 95.5853C98.7144 98.8994 98.7109 102.214 98.6691 105.528C98.6645 105.934 98.6754 106.355 98.6863 106.781C98.7094 107.675 98.733 108.589 98.6149 109.428C98.5292 110.036 98.1712 110.606 97.7505 111.042C96.8547 111.969 95.4812 111.929 94.2347 111.892C94.0011 111.885 93.772 111.879 93.5513 111.878C93.4206 111.878 93.1807 111.875 92.8709 111.871C91.3667 111.853 88.2149 111.813 87.9199 111.984C87.9376 112.062 87.9554 112.141 87.9732 112.219C88.2027 113.234 88.4348 114.26 88.5687 115.29L94.4392 115.314C94.7708 115.316 95.1143 115.325 95.4637 115.335C96.6314 115.368 97.8654 115.402 98.9437 115.142C100.142 114.853 101.041 114.05 101.673 113.02C101.749 112.872 101.817 112.721 101.878 112.567C101.939 112.412 101.993 112.256 102.04 112.096C102.086 111.937 102.125 111.776 102.157 111.613C102.189 111.45 102.213 111.285 102.229 111.12C102.295 110.44 102.287 109.745 102.279 109.056C102.277 108.843 102.274 108.631 102.274 108.42L102.269 103.901L102.257 89.8249C102.838 89.4156 103.391 88.9729 103.944 88.5305C104.911 87.758 105.876 86.9863 106.981 86.3952C107.001 86.3848 107.021 86.3739 107.042 86.3627C107.34 86.2019 107.754 85.9786 108.07 86.0748L108.092 85.6965C108.092 85.6965 108.092 85.6965 108.092 85.6965L108.07 86.0747C107.754 85.9785 107.34 86.2018 107.041 86.3626C107.021 86.3738 107.001 86.3846 106.981 86.3951C105.876 86.9861 104.911 87.7578 103.944 88.5303C103.391 88.9728 102.837 89.4155 102.257 89.8247L102.264 74.9752ZM108.078 74.6454C108.078 74.8167 108.074 74.99 108.07 75.164C108.062 75.5349 108.054 75.9088 108.078 76.272C107.993 77.1371 107.939 78.0089 107.884 78.8809C107.84 79.5971 107.796 80.3136 107.733 81.0266C107.686 81.567 107.626 82.1115 107.565 82.6571C107.462 83.5823 107.359 84.5108 107.321 85.4281C107.321 85.4282 107.321 85.4282 107.321 85.4282C107.359 84.5108 107.463 83.5824 107.565 82.6573C107.626 82.1117 107.686 81.5672 107.734 81.0268C107.796 80.3137 107.84 79.5973 107.884 78.881C107.939 78.009 107.993 77.1373 108.079 76.2722C108.054 75.9089 108.062 75.535 108.07 75.1642C108.074 74.9901 108.078 74.8167 108.078 74.6454C108.078 74.6454 108.078 74.6454 108.078 74.6454Z" fill="#5AEEFB"/>
<path d="M107.421 14.0971C108.773 11.5323 110.357 9.08836 111.815 6.58254C112.619 5.20173 113.288 3.70965 114.143 2.36621L114.28 2.54701C114.713 3.16973 114.871 4.41477 115.026 5.16409C115.165 5.81711 115.288 6.47309 115.395 7.13204C115.501 7.79108 115.592 8.45235 115.666 9.11586C115.74 9.77928 115.798 10.4442 115.84 11.1105C115.881 11.7768 115.906 12.4438 115.915 13.1113C115.924 13.7788 115.916 14.4462 115.892 15.1135C115.868 15.7806 115.827 16.4468 115.77 17.1119C115.714 17.7771 115.64 18.4405 115.551 19.102C115.461 19.7636 115.356 20.4226 115.234 21.079C114.803 23.4604 114.129 25.9784 113.175 28.2015C112.638 29.4516 111.901 30.6864 111.439 31.9554L109.869 32.2339C107.124 32.7932 104.523 33.5974 102.259 35.3116C102.159 33.4214 102.375 31.5037 102.226 29.6154C102.206 29.4582 102.205 29.3812 102.269 29.2352C102.229 28.2185 102.265 27.1865 102.265 26.1681C102.265 25.4536 102.177 24.632 102.311 23.9352C102.237 23.63 102.264 23.4165 102.369 23.1231C103.066 21.7236 103.869 20.3881 104.642 19.0305C105.476 17.5651 106.274 16.0892 107.148 14.6463C107.042 12.4795 106.658 10.0765 106.816 7.93351C107.181 9.95497 107.287 12.049 107.421 14.0971Z" fill="#00E5BC"/>
<path d="M102.269 29.2353C104.267 28.7412 106.302 28.192 108.343 27.9097C107.73 28.2516 103.239 29.3548 102.226 29.6155C102.206 29.4583 102.205 29.3814 102.269 29.2353Z" fill="#F9FCFD"/>
<path d="M111.389 18.5305L111.446 18.5423C111.159 18.9009 104.658 21.6247 103.907 21.8735C103.815 21.8425 103.86 21.872 103.8 21.7539C103.88 21.5928 103.933 21.5118 104.093 21.422C104.844 20.9992 105.839 20.7451 106.647 20.4244C108.227 19.7972 109.78 19.0782 111.389 18.5305Z" fill="#F9FCFD"/>
<path d="M107.421 14.0971C108.773 11.5323 110.357 9.08836 111.815 6.58254C112.619 5.20173 113.288 3.70965 114.143 2.36621L114.28 2.54701C113.44 3.90112 112.755 5.37938 111.967 6.77017C110.584 9.21071 109.118 11.6113 107.763 14.0659C108.881 13.3132 110.01 12.5759 111.148 11.8542C111.874 11.3897 112.599 10.8906 113.371 10.5052C113.354 10.5216 113.337 10.5381 113.32 10.5543C112.138 11.6729 110.596 12.5515 109.24 13.4452C108.713 13.7927 108.155 14.1228 107.688 14.55C107.056 15.1276 106.324 16.7897 105.883 17.5877L103.797 21.2901C103.309 22.1704 102.849 23.0849 102.311 23.9352C102.237 23.63 102.264 23.4165 102.369 23.1231C103.066 21.7236 103.869 20.3881 104.642 19.0305C105.476 17.5651 106.274 16.0891 107.148 14.6463C107.042 12.4795 106.658 10.0765 106.816 7.93351C107.181 9.95497 107.287 12.049 107.421 14.0971Z" fill="#F9FCFD"/>
<path d="M88.475 14.0769C89.2446 10.9493 91.7797 6.57406 94.0513 4.3328C96.6335 1.78532 100.145 -0.0559507 103.849 0.00129888C106.716 0.0456013 109.617 1.18595 111.621 3.26404C112.415 2.91941 113.273 2.456 114.143 2.36635C113.288 3.7098 112.619 5.20187 111.815 6.58268C110.357 9.0885 108.773 11.5325 107.421 14.0973C107.287 12.0491 107.181 9.95511 106.816 7.93365C106.658 10.0766 107.042 12.4797 107.148 14.6465C106.274 16.0893 105.476 17.5652 104.642 19.0306C103.869 20.3883 103.066 21.7238 102.369 23.1232C102.2 22.8123 102.24 22.3605 102.241 22.0148C102.247 20.0025 102.701 17.5339 101.377 15.8399C100.475 14.6858 99.3331 14.3021 97.9278 14.1208C96.7745 14.0284 95.5858 14.0781 94.4296 14.0774L88.475 14.0769Z" fill="#00E5BC"/>
<path d="M13.2774 10.5035C13.4554 10.4475 13.5382 10.4323 13.7197 10.4805C17.0393 11.3759 21.7867 13.6426 24.1446 16.1406C23.9059 16.6425 23.7077 17.0966 23.6189 17.6502C23.3802 19.139 23.8072 25.4789 23.4825 26.123C23.5554 26.3166 23.5885 26.4484 23.5955 26.6549C23.5804 27.0767 23.6906 27.8727 23.4899 28.2275L23.5788 28.3782C23.5363 28.4751 23.5385 28.5014 23.45 28.5658C23.486 28.574 23.4801 28.5654 23.4987 28.5937C23.6546 28.8297 23.5752 37.8087 23.5562 38.8178C23.5563 41.0183 23.6579 43.2777 23.5262 45.4704C20.3714 42.1745 15.9838 40.9448 11.6472 40.174C12.188 39.2875 16.8676 35.7679 18.0195 35.0739C16.062 33.2346 14.47 30.7057 13.4806 28.2316C11.7084 23.8005 11.5688 18.8356 12.3478 14.1783C12.5449 13.0002 12.8047 11.6021 13.2774 10.5035Z" fill="#00E5BC"/>
<path d="M18.019 26.3987C19.882 26.7896 21.709 27.5676 23.4899 28.2276L23.5787 28.3783C23.5362 28.4752 23.5384 28.5014 23.4499 28.5659C21.672 27.8393 19.6981 27.3225 18.019 26.3987Z" fill="#F9FCFD"/>
<path d="M13.2772 10.5035C13.4553 10.4475 13.5381 10.4323 13.7196 10.4805C14.2369 11.6272 14.9535 12.7093 15.6013 13.7864C17.2501 16.5279 19.0682 19.2159 20.5964 22.0238C20.7691 20.8904 21.207 16.7951 21.6848 16.0311L21.7523 16.0381C21.8393 16.6013 21.5931 17.3341 21.5047 17.8993C21.2755 19.3658 20.9675 20.9021 20.8725 22.3792C21.7412 23.6244 22.646 24.8563 23.4824 26.123C23.5552 26.3166 23.5883 26.4484 23.5953 26.6549C22.3529 25.4865 21.7434 23.6498 20.4221 22.5451C19.3724 21.6675 17.6446 20.8388 16.4348 20.1336C15.9185 19.8328 15.3678 19.54 14.9353 19.1233C16.5849 19.71 18.886 21.1747 20.3774 22.1515C18.6238 19.4119 16.9948 16.5813 15.3076 13.7998C14.6404 12.7003 13.9999 11.5672 13.2772 10.5035Z" fill="#F9FCFD"/>
<path d="M13.7197 10.4807C17.0393 11.3761 21.7867 13.6428 24.1446 16.1408C23.9059 16.6427 23.7077 17.0968 23.6189 17.6504C23.3802 19.1392 23.8072 25.4791 23.4825 26.1232C22.6462 24.8565 21.7414 23.6246 20.8727 22.3794C20.9677 20.9023 21.2756 19.366 21.5049 17.8995C21.5933 17.3342 21.8395 16.6015 21.7525 16.0383L21.685 16.0313C21.2072 16.7953 20.7692 20.8906 20.5965 22.024C19.0683 19.2161 17.2502 16.5281 15.6015 13.7866C14.9537 12.7095 14.2371 11.6273 13.7197 10.4807Z" fill="#00E5BC"/>
<path d="M12.8056 88.981C13.3614 90.3333 13.927 91.6816 14.5024 93.0258C15.0619 94.3196 16.8486 98.0034 16.9741 99.0625C17.1199 100.291 17.0059 102.056 17.0112 103.361C17.0198 105.489 17.1203 107.612 17.1437 109.739C17.1585 111.086 17.0709 112.474 17.161 113.815C17.1718 113.976 17.2 114.117 17.2873 114.256C16.9856 114.275 16.677 114.28 16.3776 114.321C16.1913 114.303 16.0333 114.294 15.8647 114.204C15.6698 113.93 15.7001 113.475 15.6641 113.14C15.1954 109.547 14.7549 105.951 14.3427 102.351C14.2179 101.251 14.2822 99.6744 14.0097 98.6659C13.6274 97.251 12.649 95.4514 11.9698 94.1255C11.8687 93.4048 12.6084 89.8721 12.8056 88.981Z" fill="#011C3C"/>
<path fill-rule="evenodd" clip-rule="evenodd" d="M6.74299 83.9854L5.22696 83.53C5.2257 83.6009 5.22555 83.6727 5.22539 83.7448C5.22491 83.9727 5.22442 84.2046 5.18887 84.4257L5.13879 84.8373C5.64772 85.1499 5.96356 85.6468 6.27835 86.1419C6.393 86.3223 6.50752 86.5024 6.63117 86.6734L6.19069 87.0459C6.29962 87.4846 6.34733 87.9496 6.39498 88.4141C6.42933 88.7489 6.46365 89.0834 6.52086 89.4076C7.18109 93.1479 7.76809 97.0076 7.88442 100.809C7.94562 102.809 7.84989 104.835 7.755 106.843C7.73552 107.255 7.71606 107.667 7.69802 108.077C7.6858 108.355 7.67429 108.642 7.6625 108.937C7.59502 110.624 7.51841 112.538 7.2487 114.092L7.6445 114.104C7.93936 114.053 8.02037 113.942 8.18469 113.717L8.19359 113.705C8.85028 113.683 9.52335 113.588 10.192 113.493C10.584 113.437 10.9745 113.382 11.3594 113.342C12.7907 113.193 14.2262 113.158 15.6641 113.14C15.6726 113.22 15.6774 113.306 15.6824 113.394C15.6984 113.68 15.716 113.995 15.8647 114.204C16.0204 114.287 16.167 114.301 16.3351 114.317C16.3491 114.319 16.3633 114.32 16.3776 114.321C16.5969 114.291 16.8211 114.28 17.0438 114.269C17.1253 114.265 17.2065 114.261 17.2873 114.256L18.0021 114.253C18.0619 113.873 18.0827 113.497 18.1027 113.114L18.657 102.291C18.6805 101.805 18.7182 101.313 18.756 100.82C18.835 99.7899 18.9146 98.7521 18.8668 97.7384C18.8207 96.7589 18.6524 95.7686 18.4863 94.7916C18.4417 94.5295 18.3973 94.2684 18.3555 94.0086C17.7886 90.6179 17.0957 87.2531 16.2768 83.9142C13.3398 85.0983 9.7682 84.6511 6.74299 83.9854ZM12.2258 94.622C12.1372 94.4507 12.0513 94.2846 11.9698 94.1254C11.795 94.9113 11.6783 95.716 11.5618 96.52C11.482 97.0702 11.4023 97.62 11.3041 98.1633C10.7048 101.558 10.0655 104.946 9.38633 108.326C9.30961 108.718 9.23643 109.115 9.16286 109.513C8.90261 110.924 8.63756 112.36 8.19358 113.704C8.85027 113.683 9.52333 113.588 10.192 113.493C10.584 113.437 10.9745 113.382 11.3593 113.342C12.7907 113.193 14.2262 113.158 15.6641 113.14C15.1954 109.547 14.7549 105.951 14.3427 102.35C14.2968 101.947 14.2765 101.478 14.2556 100.998C14.2197 100.169 14.1821 99.3039 14.0097 98.6658C13.6733 97.4208 12.8754 95.878 12.2258 94.622Z" fill="#072B61"/>
<path d="M57.3408 11.0496C56.5486 9.39551 56.1338 7.71265 56.7531 5.92344C56.7876 5.8259 56.8244 5.72923 56.8637 5.63343C56.9029 5.53772 56.9445 5.44305 56.9884 5.34944C57.0323 5.25573 57.0786 5.16321 57.1271 5.07188C57.1757 4.98046 57.2265 4.89031 57.2795 4.80144C57.3325 4.71257 57.3877 4.62512 57.4451 4.53908C57.5025 4.45294 57.562 4.36832 57.6235 4.2852C57.685 4.20198 57.7486 4.12037 57.8143 4.04035C57.8799 3.96042 57.9475 3.88213 58.017 3.80549C58.0865 3.72885 58.1578 3.65399 58.2311 3.5809C58.3043 3.50772 58.3793 3.43647 58.4561 3.36712C58.5328 3.29778 58.6112 3.23035 58.6913 3.16484C58.7715 3.09933 58.8532 3.03587 58.9365 2.97446C59.0197 2.91306 59.1044 2.85375 59.1906 2.79654C59.2768 2.73933 59.3644 2.68431 59.4534 2.63148C59.5424 2.57856 59.6326 2.52793 59.724 2.47957C59.8155 2.43121 59.9081 2.38513 60.0018 2.34134C61.4553 1.66038 63.1928 1.52046 64.7062 2.08882C66.308 2.69061 67.5683 3.93195 68.2682 5.48343C68.9058 6.89708 68.9381 8.45239 68.3848 9.89821C68.2307 10.3007 68.0369 10.6943 67.8309 11.0728C69.5487 11.0648 71.2663 11.0437 72.9838 11.0094C74.2715 10.9883 75.7609 10.8241 77.0155 11.1234C77.12 11.1486 77.2236 11.1773 77.3263 11.2095C77.4288 11.2416 77.5303 11.2771 77.6305 11.3161C77.7308 11.3551 77.8296 11.3974 77.927 11.443C78.0244 11.4885 78.1202 11.5373 78.2143 11.5893C78.3084 11.6413 78.4007 11.6964 78.4913 11.7546C78.5817 11.8127 78.6701 11.8739 78.7564 11.938C78.8427 12.0021 78.9268 12.0691 79.0087 12.1388C79.0906 12.2085 79.17 12.2809 79.247 12.356C79.7576 12.8564 80.1019 13.454 80.3221 14.1304C80.61 15.375 80.5085 16.7125 80.499 17.9834C79.0907 17.7729 77.1547 17.913 75.6894 17.913L66.1208 17.9069L52.1964 17.9073L47.8017 17.9077C46.8203 17.9084 45.8274 17.8772 44.8496 17.9697C44.9146 17.1608 44.8786 16.2995 44.8462 15.4885C44.8529 14.9932 45.0182 14.4968 45.1684 14.0295C45.6791 12.8202 46.5619 11.9172 47.7823 11.4138C48.0152 11.3187 48.2535 11.2401 48.4971 11.1777C48.7408 11.1153 48.9877 11.0698 49.2376 11.0413C50.223 10.9262 51.2616 10.9943 52.2544 11.0005C53.95 11.0072 55.6454 11.0236 57.3408 11.0496Z" fill="#083F85"/>
<path d="M62.008 4.57611C62.6826 4.51999 63.3018 4.53614 63.9329 4.82164C63.9821 4.8439 64.0308 4.8674 64.0788 4.89212C64.1267 4.91694 64.1741 4.94294 64.2208 4.97013C64.2675 4.99732 64.3135 5.02575 64.3586 5.0554C64.4039 5.08496 64.4483 5.11571 64.4918 5.14764C64.5354 5.17949 64.5782 5.21247 64.6202 5.2466C64.6621 5.28072 64.703 5.31594 64.7431 5.35225C64.7831 5.38848 64.8222 5.4257 64.8604 5.46393C64.8985 5.50226 64.9357 5.54149 64.9718 5.58164C65.0079 5.62187 65.043 5.66298 65.0769 5.70495C65.1109 5.74701 65.1438 5.78989 65.1756 5.8336C65.2073 5.8773 65.2379 5.92183 65.2674 5.96718C65.2968 6.01243 65.325 6.05846 65.3521 6.10527C65.3792 6.15199 65.405 6.19939 65.4296 6.24747C65.4542 6.29565 65.4776 6.34437 65.4997 6.39364C65.5217 6.443 65.5425 6.49287 65.5621 6.54323C65.5815 6.5936 65.5997 6.64446 65.6165 6.69583C65.6335 6.7462 65.6493 6.79697 65.6638 6.84816C65.6782 6.89935 65.6913 6.95086 65.7032 7.00268C65.715 7.05451 65.7256 7.10661 65.7348 7.15898C65.7441 7.21135 65.752 7.2639 65.7586 7.31664C65.7653 7.36947 65.7706 7.42239 65.7745 7.4754C65.7784 7.52841 65.781 7.58152 65.7823 7.63471C65.7837 7.68781 65.7836 7.74096 65.7822 7.79416C65.7808 7.84735 65.7781 7.90045 65.7741 7.95346C65.7701 8.00648 65.7647 8.05935 65.7579 8.11209C65.7513 8.16483 65.7433 8.21738 65.734 8.26975C65.7246 8.32213 65.7139 8.37423 65.702 8.42605C65.69 8.47788 65.6768 8.52934 65.6623 8.58043C65.6477 8.63162 65.6319 8.68239 65.6148 8.73276C65.5977 8.78313 65.5794 8.83304 65.5599 8.88249C65.5403 8.93194 65.5194 8.98085 65.4973 9.0292C65.4754 9.07756 65.4521 9.12537 65.4277 9.17264C64.9669 10.0498 64.1974 10.514 63.2825 10.8013C62.5956 10.9223 61.8861 10.8697 61.2514 10.5649C61.2029 10.5414 61.155 10.5167 61.1076 10.4909C61.0603 10.465 61.0136 10.4379 60.9676 10.4097C60.9216 10.3815 60.8764 10.3521 60.8318 10.3217C60.7873 10.2913 60.7436 10.2597 60.7006 10.227C60.6576 10.1945 60.6154 10.1608 60.5741 10.126C60.5329 10.0914 60.4925 10.0556 60.453 10.0189C60.4134 9.98218 60.3748 9.9445 60.3372 9.90581C60.2995 9.86721 60.2628 9.82771 60.2272 9.78729C60.1914 9.74678 60.1567 9.70544 60.1232 9.66329C60.0895 9.62113 60.0569 9.57816 60.0254 9.53436C59.9939 9.49057 59.9634 9.446 59.9341 9.40065C59.9049 9.35539 59.8767 9.30941 59.8497 9.26269C59.8226 9.21598 59.7967 9.16862 59.7721 9.12063C59.7475 9.07264 59.724 9.0241 59.7018 8.97501C59.6795 8.92583 59.6585 8.87615 59.6387 8.82596C59.6188 8.77578 59.6002 8.72514 59.583 8.67405C59.3076 7.85 59.4082 6.92453 59.811 6.15906C60.2905 5.24769 61.0645 4.85284 62.008 4.57611Z" fill="#00E5BC"/>
<path d="M95.4974 63.6936C97.0065 65.2382 97.4817 66.6329 98.6581 68.2863L98.9826 68.4969C98.7876 69.0187 98.6252 69.5728 98.4026 70.0813C98.0391 69.393 97.5749 68.759 97.1963 68.0779C96.431 66.701 95.8885 65.2162 95.4974 63.6936Z" fill="#EEA08A"/>
<path d="M77.0693 99.1993C73.287 99.2653 69.4891 99.1766 65.7055 99.1566C63.324 99.144 60.8978 99.2497 58.5218 99.136C58.3549 99.128 58.1919 99.1257 58.061 99.0115C58.2005 98.8791 58.3168 98.8674 58.5032 98.8498C59.0807 98.7952 59.7137 98.8487 60.2975 98.8481L64.2994 98.8451L77.1163 98.8491L77.0693 99.1993Z" fill="#E6FEFF"/>
<path d="M77.5701 95.3638L63.6807 95.361C62.5546 95.3603 58.9387 95.506 58.1313 95.2722L58.0875 95.183C58.1112 95.1679 58.1334 95.1503 58.1584 95.1377C58.3559 95.0391 58.5997 95.0232 58.818 95.0198C60.219 94.9975 77.1715 94.9299 77.5628 95.0885L77.5806 95.2979L77.5701 95.3638Z" fill="#E6FEFF"/>
<path d="M57.9606 79.2497C60.3484 79.1163 62.7989 79.2209 65.1931 79.2204L78.8421 79.2191L85.923 79.2255C86.6764 79.2255 88.2399 79.0589 88.894 79.2637C89.017 79.3023 89.0152 79.3944 89.0633 79.5042C83.3981 79.6012 77.7159 79.5022 72.0485 79.5025L62.777 79.5042C61.3416 79.5051 59.8985 79.5492 58.4641 79.5142C58.2925 79.5099 58.1641 79.5044 58.0011 79.4367L57.9606 79.2497Z" fill="#F9FCFD"/>
<path d="M57.9995 60.4096C60.3616 60.3189 62.7523 60.3962 65.117 60.3991L78.4517 60.3998L85.6612 60.3828C86.5863 60.3799 87.92 60.2626 88.7909 60.384C88.9702 60.5301 88.9606 60.6089 89.0174 60.8277C83.5378 60.9112 78.0395 60.8127 72.5587 60.813L62.0077 60.8101C60.9553 60.8079 59.8967 60.8617 58.8461 60.8417C58.628 60.8375 58.328 60.8427 58.1336 60.746C58.034 60.6966 58.0255 60.5134 57.9995 60.4096Z" fill="#5AEEFB"/>
<path d="M57.983 41.0338L79.1544 41.0249L85.8474 41.0265C87.0086 41.0271 88.2117 40.9605 89.3659 41.0485C89.4873 41.1935 89.4434 41.3317 89.4424 41.5157L67.9863 41.5135L61.4405 41.518C60.3483 41.5184 59.2096 41.5844 58.1222 41.4961C57.9744 41.3425 58.0021 41.2418 57.983 41.0338Z" fill="#E6FEFF"/>
<path d="M39.0031 43.6953C38.8096 43.5712 38.6099 43.4482 38.4514 43.2795C38.404 43.2295 38.3605 43.1763 38.321 43.12C38.2814 43.0635 38.2462 43.0045 38.2153 42.9429C38.1845 42.8812 38.1584 42.8176 38.137 42.7521C38.1156 42.6867 38.0991 42.62 38.0875 42.552C37.9206 41.5337 38.0252 40.3575 38.0218 39.3241C38.0162 37.721 37.9476 36.0874 38.0232 34.4872C38.0438 34.0495 38.1656 33.683 38.5044 33.3883C38.7485 33.1761 39.1319 33.1423 39.4454 33.1079C40.862 32.953 42.4289 33.0811 43.8614 33.084C45.3292 33.087 46.8691 32.9713 48.3273 33.11C48.7619 33.3721 48.9032 33.5607 49.0907 34.0335C48.947 34.1805 48.8223 34.3198 48.6352 34.4128C48.4016 34.1165 48.1863 33.7352 47.7834 33.6833C46.6039 33.5311 45.2895 33.6524 44.0914 33.6559C42.6691 33.66 41.2037 33.5806 39.7873 33.67C39.4817 33.6893 39.1814 33.7326 38.8854 33.8132C38.4228 34.2908 38.593 40.4353 38.6055 41.4145C38.6113 41.8701 38.6241 42.4926 38.8546 42.8917C39.1113 43.031 39.3655 43.0685 39.6541 43.0875C41.0121 43.1773 42.4143 43.0881 43.7767 43.0892C44.7925 43.0899 47.5429 43.2631 48.3188 43.0525C48.4405 43.0195 48.458 43.0237 48.5198 42.9054C48.8342 42.3032 48.752 36.9817 48.6594 36.0355C48.8946 35.8231 49.0919 35.6077 49.2867 35.3577C49.39 36.7645 49.3227 38.217 49.3225 39.6287C49.3225 40.6005 49.4557 41.9543 49.2468 42.8794C49.1499 43.3086 48.7774 43.5207 48.4287 43.7347C47.2756 43.7981 46.0886 43.7393 44.9325 43.7346C42.956 43.7341 40.9795 43.721 39.0031 43.6953Z" fill="#F9FCFD"/>
<path d="M49.2315 74.0443C49.2602 75.4677 49.2369 76.8969 49.2394 78.3207C49.2412 79.3132 49.2876 80.3316 49.2271 81.322C49.2005 81.7579 49.1483 82.2287 48.7893 82.5225C48.5673 82.7041 48.2937 82.8025 48.01 82.8301C47.5104 82.8786 46.978 82.8359 46.4753 82.8318L43.5892 82.8214C42.2632 82.8186 40.5923 82.9554 39.3028 82.8084C38.8997 82.7626 38.5176 82.5224 38.2814 82.1954C38.1587 82.0256 38.0623 81.8397 38.0316 81.631C37.8598 80.4632 37.992 78.9355 37.9842 77.7334C37.9764 76.5305 37.8102 73.91 38.0019 72.8392C38.0692 72.4638 38.289 72.1411 38.6067 71.9309C38.8021 71.8015 39.0189 71.7109 39.2532 71.6875C40.2035 71.5925 47.6708 71.5828 48.2339 71.7388C48.6631 71.8576 48.9313 72.1856 49.1262 72.5655C48.9454 72.7329 48.7674 72.9049 48.5814 73.0666C48.4828 72.7905 48.4159 72.5265 48.1379 72.3806C47.8715 72.2407 39.3133 72.2937 39.0467 72.4085C38.8322 72.5009 38.655 72.6694 38.5864 72.8964C38.557 72.9939 38.5483 73.1004 38.5363 73.2005C38.604 75.1065 38.5473 77.0286 38.5428 78.9362C38.541 79.7115 38.4348 80.6773 38.6016 81.4308C38.655 81.6712 38.7657 81.8297 38.9457 81.9951C39.0329 82.075 39.1257 82.1403 39.2238 82.206C41.0782 82.2295 42.9327 82.2406 44.7873 82.2392C45.8763 82.2422 46.9939 82.2941 48.0791 82.2273C48.2109 82.1711 48.3545 82.1048 48.4561 82.0009C48.5614 81.8935 48.5982 81.7472 48.6179 81.6029C48.7359 80.7403 48.655 79.7751 48.6519 78.901C48.6468 77.4831 48.6935 76.0429 48.5962 74.6291C48.8122 74.4388 49.024 74.2439 49.2315 74.0443Z" fill="#F9FCFD"/>
<path d="M58.0681 74.2156L84.3303 74.2124L84.3271 75.9277C80.8874 76.0119 77.4201 75.9429 73.9778 75.9317L58.0777 75.908L58.0681 74.2156Z" fill="#5AEEFB"/>
<path d="M58.0627 54.9858L84.2346 54.9864C84.2695 55.5793 84.2529 56.1752 84.2477 56.7686C81.4329 56.8693 78.5843 56.7909 75.7661 56.7957L58.0637 56.7813L58.0627 54.9858Z" fill="#5AEEFB"/>
<path d="M61.6362 36.006L76.3809 35.9925C79.0296 35.9953 81.6927 35.9411 84.3398 36.0274L84.3448 37.8156L80.7489 37.8149L58.0683 37.809L58.0643 36.0256C59.252 35.9885 60.4475 36.0108 61.6362 36.006Z" fill="#5AEEFB"/>
<path d="M49.7566 93.7911C49.9332 94.6234 49.9537 101.031 49.7594 101.845C49.623 102.415 49.3374 102.76 48.8305 103.062C48.5424 103.234 48.2602 103.324 47.9277 103.364C46.8258 103.494 38.9731 103.568 38.2473 103.354C37.8367 103.233 37.3458 102.884 37.1447 102.499C37.0016 102.225 36.9537 101.854 36.93 101.55C36.8094 99.9988 36.919 98.3579 36.9247 96.8002C36.9296 95.4068 36.8368 93.9718 36.9085 92.5827C36.9247 92.2704 36.9708 91.9597 37.0801 91.6655C37.2912 91.0982 37.7493 90.6468 38.3031 90.4103C38.5548 90.3029 38.7947 90.2464 39.0663 90.2225C40.5749 90.0899 42.1397 90.1737 43.6547 90.164C44.9662 90.1556 46.3011 90.0576 47.6101 90.1147C47.9493 90.1296 48.3376 90.1453 48.6489 90.2899C49.324 90.6033 49.5824 91.1282 49.8276 91.7884L49.201 92.4441C49.0192 92.6763 48.8293 92.9016 48.6312 93.1199C48.5856 92.791 48.5671 92.4591 48.5431 92.1282C48.4551 91.8746 48.3827 91.6775 48.1241 91.549C47.8118 91.3938 39.3191 91.4139 39.116 91.5383C38.8455 91.7039 38.7359 92.0069 38.6646 92.3017C38.7247 94.3162 38.6487 96.3456 38.6426 98.3618C38.64 99.1929 38.5392 100.192 38.7204 101.002C38.7609 101.183 38.8725 101.343 39.0076 101.468C39.1819 101.629 39.3949 101.679 39.6237 101.712C40.2637 101.805 40.9621 101.749 41.6084 101.745C43.016 101.738 44.4237 101.74 45.8313 101.752C46.5275 101.755 47.3132 101.696 47.9994 101.796C48.1382 101.73 48.3191 101.655 48.4189 101.534C48.8192 101.048 48.6359 95.9948 48.6098 95.0803C48.7549 94.8754 48.9803 94.6867 49.1566 94.505C49.3367 94.2561 49.5571 94.0253 49.7566 93.7911Z" fill="url(#paint3_linear_217_2095)"/>
<path d="M49.1567 94.5051C49.1682 95.6713 49.3462 100.996 48.9912 101.706C48.8513 101.985 48.5242 102.243 48.2227 102.322C47.4096 102.535 44.9157 102.374 43.9437 102.373C42.5303 102.372 40.8851 102.49 39.491 102.348C39.2347 102.322 39.0165 102.262 38.7936 102.131C38.383 101.89 38.2182 101.547 38.119 101.093C37.9523 100.329 38.0158 99.4805 38.0154 98.7008L38.0263 94.8859C38.0273 94.0243 37.9305 93.1182 38.015 92.2632C38.0445 91.9637 38.1139 91.6487 38.2906 91.3992C38.5224 91.0721 38.9481 90.8584 39.3395 90.8094C40.3746 90.6797 41.5546 90.8008 42.6062 90.8026C44.1453 90.8052 46.5908 90.6778 48.0133 90.8587C48.2695 90.8913 48.4173 90.9412 48.6217 91.1C49.084 91.4592 49.1311 91.902 49.201 92.4442C49.0193 92.6765 48.8293 92.9017 48.6313 93.1201C48.5857 92.7912 48.5672 92.4593 48.5431 92.1284C48.4551 91.8748 48.3827 91.6777 48.1242 91.5492C47.8119 91.394 39.3191 91.4141 39.116 91.5385C38.8456 91.7041 38.736 92.0071 38.6646 92.3019C38.7247 94.3164 38.6488 96.3458 38.6426 98.3619C38.64 99.1931 38.5393 100.192 38.7205 101.002C38.761 101.183 38.8725 101.343 39.0076 101.468C39.182 101.629 39.3949 101.679 39.6238 101.712C40.2637 101.806 40.9622 101.749 41.6084 101.745C43.0161 101.738 44.4237 101.74 45.8313 101.752C46.5275 101.755 47.3133 101.696 47.9995 101.796C48.1383 101.73 48.3192 101.656 48.419 101.534C48.8193 101.048 48.6359 95.995 48.6099 95.0805C48.755 94.8756 48.9804 94.6869 49.1567 94.5051Z" fill="#F9FCFD"/>
<path d="M49.8604 54.2638C49.9646 54.6938 49.9707 62.4041 49.8938 63.0277C49.8151 63.666 49.5043 64.2705 48.9618 64.6388C48.6735 64.8345 48.1302 64.8908 47.7852 64.9145C46.4252 65.0077 45.0007 64.9197 43.6349 64.9136C42.2313 64.9075 39.4406 65.0783 38.2093 64.7632C37.6534 64.621 37.3855 64.3506 37.1071 63.8472C36.9496 63.5623 36.9054 63.3007 36.8843 62.9807C36.824 62.0659 36.8568 53.37 36.9819 52.9913C37.1523 52.4758 37.5615 52.0056 38.0605 51.7896C38.4225 51.6329 38.8296 51.5549 39.2217 51.5281C40.8163 51.419 42.4804 51.5119 44.0819 51.5127C45.3307 51.5134 46.6274 51.4227 47.8691 51.4918C48.1358 51.5066 48.3968 51.5431 48.6456 51.645C49.1686 51.859 49.4345 52.2801 49.6472 52.7823C49.4749 52.9551 49.3091 53.1455 49.1083 53.2846C48.946 53.4313 48.8074 53.5702 48.6755 53.745L48.5416 53.6702L48.4751 53.4996C48.439 53.404 48.4067 53.3076 48.3653 53.2139C48.2892 53.0414 48.1604 52.8989 47.9731 52.8433C47.4334 52.6835 40.5038 52.7353 39.5147 52.8057C39.322 52.8194 39.1443 52.8543 38.975 52.9516C38.7162 53.1003 38.6436 53.3147 38.5783 53.591L38.5853 53.6571C38.664 54.482 38.626 55.3391 38.6251 56.168L38.6176 60.2292C38.616 60.9387 38.5387 61.7408 38.665 62.437C38.7116 62.693 38.8111 62.8941 39.0099 63.0665C39.1541 63.1915 39.2657 63.2189 39.4538 63.2386C40.7046 63.3696 42.068 63.2677 43.3308 63.2701C44.7419 63.2728 46.2631 63.388 47.6625 63.2428C47.9357 63.2145 48.255 63.176 48.4984 63.0419C48.7572 62.2322 48.6252 57.7925 48.5784 56.6725C48.5631 56.3972 48.5386 56.1314 48.5935 55.859L48.6088 55.5958C49.0215 55.1475 49.4387 54.7035 49.8604 54.2638Z" fill="url(#paint4_linear_217_2095)"/>
<path d="M49.1036 55.3738C49.1955 56.8875 49.1548 58.4247 49.1617 59.9418C49.1662 60.9279 49.2607 62.0138 49.1117 62.9836C49.0635 63.2966 48.9186 63.4676 48.6587 63.64C48.4679 63.7666 48.2955 63.802 48.0683 63.8179C46.656 63.9162 45.1837 63.8231 43.7658 63.8245C42.9258 63.8253 39.6905 63.9541 39.0486 63.7759C38.7709 63.6989 38.3709 63.4577 38.2493 63.187C38.11 62.8771 38.0483 62.4341 38.0257 62.0967C37.9518 60.9891 37.9081 53.6024 38.1543 52.9547C38.277 52.6321 38.5663 52.3965 38.883 52.2786C39.482 52.0557 46.8897 52.072 47.8316 52.1549C48.0309 52.1724 48.2319 52.2017 48.4111 52.2961C48.8099 52.5065 48.9716 52.877 49.1083 53.2844C48.946 53.4311 48.8073 53.5701 48.6754 53.7448L48.5415 53.6701L48.475 53.4994C48.4389 53.4039 48.4066 53.3074 48.3653 53.2138C48.2892 53.0412 48.1604 52.8987 47.973 52.8432C47.4334 52.6833 40.5037 52.7352 39.5146 52.8055C39.3219 52.8192 39.1443 52.8541 38.975 52.9514C38.7162 53.1002 38.6435 53.3145 38.5782 53.5909L38.5852 53.657C38.6639 54.4818 38.626 55.339 38.625 56.1679L38.6175 60.2291C38.616 60.9386 38.5387 61.7406 38.665 62.4368C38.7115 62.6929 38.811 62.894 39.0099 63.0664C39.154 63.1914 39.2657 63.2187 39.4537 63.2384C40.7045 63.3694 42.0679 63.2676 43.3308 63.2699C44.7418 63.2727 46.263 63.3879 47.6625 63.2427C47.9356 63.2144 48.2549 63.1759 48.4983 63.0418C48.7571 62.2321 48.6252 57.7924 48.5783 56.6723C48.563 56.3971 48.5385 56.1313 48.5934 55.8588L49.1036 55.3738Z" fill="#F9FCFD"/>
<path d="M49.6509 33.4241C49.9615 33.1348 50.4235 32.5612 50.8845 32.5623C51.076 32.5627 51.128 32.6143 51.2548 32.7366C51.2845 33.0708 51.1054 33.2919 50.8989 33.5419C50.6019 33.9015 50.2772 34.239 49.9705 34.5902C49.7602 34.7983 49.3857 35.0815 49.2866 35.3578C49.0919 35.6079 48.8945 35.8233 48.6594 36.0357C48.7519 36.9818 48.8342 42.3033 48.5198 42.9055C48.4579 43.0239 48.4404 43.0197 48.3187 43.0526C47.5429 43.2633 44.7925 43.09 43.7767 43.0893C42.4142 43.0882 41.012 43.1775 39.6541 43.0877C39.3654 43.0687 39.1113 43.0312 38.8545 42.8918C38.6241 42.4927 38.6112 41.8703 38.6054 41.4147C38.593 40.4354 38.4227 34.291 38.8853 33.8133C39.1814 33.7327 39.4816 33.6895 39.7873 33.6702C41.2037 33.5808 42.669 33.6602 44.0913 33.6561C45.2894 33.6525 46.6038 33.5312 47.7833 33.6834C48.1862 33.7353 48.4015 34.1166 48.6352 34.4129C48.8222 34.32 48.9469 34.1807 49.0906 34.0337L49.6509 33.4241Z" fill="#106EB2"/>
<path d="M39.4121 38.0199C39.65 37.7101 39.9003 37.3325 40.268 37.1738C40.3852 37.6316 43.2783 40.4851 43.8122 40.993C44.447 40.3885 45.066 39.7683 45.6692 39.1323C45.9974 38.7924 46.3395 38.3638 46.7178 38.0862L46.7295 38.1476C46.3562 38.7985 43.8153 41.1895 43.1171 41.7642C41.827 40.5962 40.6406 39.2566 39.4121 38.0199Z" fill="#072B61"/>
<path d="M49.651 33.4241C49.9615 33.1348 50.4235 32.5612 50.8845 32.5623C51.076 32.5627 51.128 32.6143 51.2548 32.7366C51.2845 33.0708 51.1054 33.2919 50.8989 33.5419C50.6019 33.9015 50.2772 34.239 49.9705 34.5902C49.7602 34.7983 49.3857 35.0815 49.2866 35.3578C49.0919 35.6079 48.8945 35.8233 48.6594 36.0357C47.9473 36.6275 47.3268 37.3893 46.7179 38.0859C46.3396 38.3636 45.9974 38.7921 45.6692 39.1321C45.066 39.768 44.447 40.3882 43.8123 40.9927C43.2784 40.4848 40.3852 37.6314 40.2681 37.1736C40.5322 36.9579 40.802 36.765 41.085 36.576C42.0232 37.3731 42.8496 38.3934 43.6906 39.2956C44.6173 38.3617 45.5379 37.4217 46.4523 36.4757C47.0889 35.821 47.8426 34.8739 48.6352 34.4129C48.8223 34.32 48.9469 34.1807 49.0906 34.0337L49.651 33.4241Z" fill="#ED4C41"/>
<path d="M49.526 72.1855C49.9152 71.8593 50.8808 70.9009 51.3495 70.8759C51.369 70.8748 51.3884 70.8793 51.4078 70.881C51.4772 71.0598 51.4448 71.168 51.3753 71.346C51.0662 72.1368 50.3669 72.641 49.864 73.2918C49.6544 73.5347 49.4088 73.7782 49.2315 74.0444C49.024 74.244 48.8122 74.4389 48.5961 74.6292C48.6934 76.043 48.6468 77.4832 48.6518 78.9011C48.655 79.7753 48.7359 80.7404 48.6179 81.6031C48.5982 81.7473 48.5614 81.8936 48.4561 82.0011C48.3544 82.1049 48.2109 82.1712 48.0791 82.2274C46.9939 82.2942 45.8763 82.2423 44.7872 82.2393C42.9327 82.2407 41.0782 82.2296 39.2238 82.2061C39.1257 82.1404 39.0329 82.0751 38.9457 81.9952C38.7657 81.8298 38.655 81.6713 38.6016 81.4309C38.4348 80.6775 38.541 79.7116 38.5428 78.9363C38.5473 77.0287 38.6039 75.1066 38.5363 73.2006C38.5482 73.1005 38.557 72.994 38.5864 72.8965C38.655 72.6695 38.8322 72.501 39.0467 72.4086C39.3133 72.2938 47.8715 72.2408 48.1379 72.3807C48.4159 72.5266 48.4828 72.7906 48.5814 73.0667C48.7674 72.905 48.9454 72.733 49.1262 72.5656L49.526 72.1855Z" fill="#106EB2"/>
<path d="M39.3867 76.5797C39.5916 76.3492 39.7922 76.1431 40.0335 75.9509C41.086 77.0338 42.6762 78.6451 43.8803 79.4975C44.215 79.1456 44.5456 78.7932 44.9084 78.4699L44.8793 78.7696C44.3262 79.2748 43.7953 79.8132 43.2048 80.2748C41.9463 79.0778 40.4969 77.9124 39.3867 76.5797Z" fill="#083F85"/>
<path d="M49.526 72.1855C49.9152 71.8593 50.8808 70.9009 51.3495 70.8759C51.369 70.8748 51.3884 70.8793 51.4078 70.881C51.4772 71.0598 51.4448 71.168 51.3753 71.346C51.0662 72.1368 50.3668 72.641 49.864 73.2918C49.6543 73.5347 49.4088 73.7782 49.2314 74.0444C49.024 74.244 48.8122 74.4389 48.5961 74.6292C47.2554 75.7326 46.1062 77.2085 44.9084 78.4701C44.5455 78.7934 44.2149 79.1458 43.8802 79.4977C42.6761 78.6453 41.0859 77.034 40.0334 75.9512L40.7683 75.1805C41.8774 75.9822 42.8421 77.016 43.7725 78.0157C44.1913 77.4458 44.7466 76.9207 45.2366 76.4112C46.2479 75.3663 47.2727 74.3349 48.3112 73.3171L48.5813 73.0667C48.7673 72.905 48.9454 72.733 49.1262 72.5656L49.526 72.1855Z" fill="#ED4C41"/>
<path d="M21.449 74.9683C21.7877 73.6844 21.9586 72.3614 22.1579 71.0504L22.8955 66.2209C22.9932 65.579 23.0217 64.4216 23.2698 63.8655L23.4083 63.877C24.5221 64.3104 25.9589 64.1648 27.1427 64.3706C28.5534 64.5796 29.998 64.6505 31.4167 64.8133C30.6638 67.8617 30.1087 71.0011 29.4957 74.084C29.7237 74.2532 29.9091 74.4499 29.9354 74.7482C29.9491 74.9041 29.8452 75.0774 29.7365 75.1833C29.1668 75.7394 28.0181 75.8275 27.2669 75.96C25.9712 76.2529 24.7613 76.7987 23.4859 77.1105C22.6116 77.4391 21.6789 77.7867 20.7313 77.7687C19.3877 77.7431 18.5424 76.9546 17.6598 76.0665C18.7255 75.715 19.5028 74.8984 20.1074 73.987C20.4781 74.4003 20.8465 74.9333 21.449 74.9683Z" fill="#F9FCFD"/>
<path d="M23.8499 71.4185C24.6371 71.4921 27.0237 71.5537 27.5993 71.798C27.7116 71.8456 27.6983 71.9233 27.732 72.0311C27.2279 72.0134 24.1828 71.8604 23.9384 71.7042C23.8614 71.655 23.8656 71.503 23.8499 71.4185Z" fill="#00E5BC"/>
<path d="M24.4762 65.7615C25.1307 65.7749 27.9922 65.819 28.4094 66.0154L28.483 66.2629C27.8165 66.3013 25.1463 66.1719 24.5576 65.9735L24.4762 65.7615Z" fill="#31D2ED"/>
<path d="M25.9232 68.9791C25.4637 68.9578 24.601 69.0066 24.2448 68.7161L24.3337 68.6293C24.7447 68.5405 25.1509 68.6278 25.5622 68.6844C26.0928 68.7068 27.7669 68.6933 28.1489 68.9717L28.1025 69.0797C27.622 69.1551 26.3957 69.0876 25.9232 68.9791Z" fill="#00E5BC"/>
<path d="M24.2748 67.1294C24.9446 67.0699 27.4366 67.2597 28.0827 67.4037C28.2654 67.4445 28.2638 67.487 28.3607 67.6395C27.6977 67.7417 24.9492 67.5498 24.3639 67.328L24.2748 67.1294Z" fill="#00E5BC"/>
<path d="M24.0166 69.9329C25.2313 70.113 26.5016 70.0351 27.7042 70.2446C27.9069 70.2799 27.9228 70.2832 28.035 70.4439C28.0124 70.4565 27.9911 70.4718 27.9671 70.4817C27.6912 70.5946 24.3945 70.4204 24.1054 70.2544C24.0263 70.2089 24.03 70.0213 24.0166 69.9329Z" fill="#00E5BC"/>
<path d="M20.1074 73.9868C20.4781 74.4001 20.8465 74.9331 21.449 74.9681C23.0423 75.0645 24.6347 74.8781 26.1966 74.5794C27.2774 74.3729 28.39 74.0537 29.4957 74.0838C29.7237 74.253 29.9091 74.4497 29.9354 74.748C29.9491 74.9039 29.8452 75.0772 29.7365 75.1831C29.1668 75.7392 28.0181 75.8273 27.2669 75.9598C25.9712 76.2527 24.7613 76.7985 23.4859 77.1103C22.6116 77.4389 21.6789 77.7865 20.7313 77.7685C19.3877 77.7429 18.5424 76.9544 17.6598 76.0663C18.7255 75.7148 19.5028 74.8982 20.1074 73.9868Z" fill="#EEA08A"/>
<path d="M49.8276 91.7883C50.2674 91.3493 50.8533 90.5775 51.5375 90.6428C51.679 90.6564 51.7072 90.7049 51.7889 90.8062C51.8453 91.3111 51.3652 91.8873 51.0623 92.2663C50.6537 92.7776 50.2162 93.3271 49.7566 93.7911C49.5571 94.0252 49.3367 94.2561 49.1566 94.5049C48.9803 94.6867 48.7549 94.8754 48.6098 95.0803C48.6359 95.9948 48.8192 101.048 48.4189 101.534C48.3191 101.655 48.1382 101.73 47.9994 101.796C47.3132 101.696 46.5275 101.755 45.8313 101.752C44.4237 101.74 43.016 101.738 41.6084 101.745C40.9621 101.749 40.2637 101.805 39.6237 101.712C39.3949 101.679 39.1819 101.629 39.0076 101.468C38.8725 101.343 38.7609 101.183 38.7204 101.002C38.5392 100.192 38.64 99.1929 38.6426 98.3617C38.6487 96.3456 38.7247 94.3162 38.6646 92.3017C38.7359 92.0069 38.8455 91.7039 39.116 91.5383C39.3191 91.4139 47.8118 91.3938 48.1241 91.549C48.3827 91.6775 48.4551 91.8746 48.5431 92.1282C48.5671 92.4591 48.5856 92.791 48.6312 93.1199C48.8293 92.9015 49.0192 92.6763 49.201 92.4441L49.8276 91.7883Z" fill="#106EB2"/>
<path d="M39.8701 96.161C40.0901 95.9161 40.3047 95.6857 40.5589 95.4746C41.8403 96.7169 43.1332 98.0353 44.507 99.1717C44.2416 99.3682 44.0187 99.6102 43.7877 99.845C42.424 98.6828 41.1507 97.4131 39.8701 96.161Z" fill="#072B61"/>
<path d="M49.8277 91.7883C50.2674 91.3493 50.8534 90.5775 51.5375 90.6428C51.679 90.6564 51.7072 90.7049 51.7889 90.8062C51.8453 91.3111 51.3652 91.8873 51.0623 92.2663C50.6538 92.7776 50.2163 93.3271 49.7567 93.7911C49.5571 94.0252 49.3368 94.2561 49.1567 94.5049C48.9804 94.6867 48.755 94.8754 48.6099 95.0803C48.3215 95.3024 48.0912 95.576 47.8515 95.8477C46.7549 96.9783 45.6341 98.0718 44.507 99.1717C43.1332 98.0353 41.8403 96.7169 40.559 95.4746C40.8945 95.2059 41.2025 94.8798 41.5148 94.5832C42.462 95.5698 43.4296 96.5361 44.4175 97.482C45.7699 96.3408 46.9971 94.9506 48.1823 93.6387L48.6313 93.1199C48.8293 92.9015 49.0193 92.6763 49.201 92.4441L49.8277 91.7883Z" fill="#ED4C41"/>
<path d="M49.6471 52.7823C50.045 52.4311 50.5942 51.7898 51.1485 51.783C51.2907 51.856 51.4138 51.928 51.4645 52.0942C51.5157 52.2612 51.466 52.4005 51.3746 52.542C50.9783 53.1561 50.3276 53.691 49.8604 54.2639C49.4387 54.7036 49.0215 55.1475 48.6088 55.5958L48.5934 55.859C48.5386 56.1315 48.5631 56.3973 48.5784 56.6725C48.6252 57.7926 48.7571 62.2323 48.4983 63.042C48.255 63.1761 47.9357 63.2145 47.6625 63.2429C46.2631 63.3881 44.7419 63.2728 43.3308 63.2701C42.068 63.2678 40.7045 63.3696 39.4538 63.2386C39.2657 63.2189 39.154 63.1916 39.0099 63.0666C38.811 62.8942 38.7115 62.6931 38.665 62.437C38.5387 61.7408 38.616 60.9388 38.6175 60.2293L38.6251 56.168C38.626 55.3392 38.6639 54.482 38.5852 53.6572L38.5782 53.5911C38.6435 53.3147 38.7162 53.1004 38.975 52.9516C39.1443 52.8543 39.322 52.8194 39.5147 52.8057C40.5038 52.7354 47.4334 52.6835 47.973 52.8434C48.1604 52.8989 48.2892 53.0414 48.3653 53.214C48.4066 53.3076 48.4389 53.4041 48.4751 53.4996L48.5416 53.6703L48.6754 53.745C48.8074 53.5702 48.946 53.4313 49.1083 53.2846C49.3091 53.1456 49.4748 52.9552 49.6471 52.7823Z" fill="#106EB2"/>
<path d="M43.7323 60.5894C44.9826 59.6411 46.1783 58.1899 47.2898 57.0562L47.2823 57.3973C46.0112 58.7966 44.6924 60.247 43.2504 61.47C41.9821 60.4179 40.6811 59.1404 39.5905 57.9026L40.3195 57.1717C41.3469 58.3641 42.5606 59.5369 43.7323 60.5894Z" fill="#072B61"/>
<path d="M49.6472 52.7823C50.045 52.4311 50.5943 51.7898 51.1486 51.783C51.2908 51.856 51.4138 51.928 51.4646 52.0942C51.5158 52.2612 51.4661 52.4005 51.3747 52.542C50.9783 53.1561 50.3277 53.691 49.8604 54.2639C49.4387 54.7036 49.0215 55.1475 48.6088 55.5958C48.165 56.0724 47.6869 56.54 47.2899 57.0564C46.1784 58.1902 44.9826 59.6413 43.7324 60.5897C42.5607 59.5372 41.347 58.3644 40.3196 57.1719C40.3845 57.0533 40.4515 56.9401 40.5317 56.831C40.671 56.6416 40.8019 56.5461 41.038 56.5121C41.6722 56.8125 43.0849 58.4505 43.5987 59.0505C44.4872 58.0255 45.4548 57.0457 46.4237 56.0962C47.1709 55.3638 48.0961 54.612 48.6755 53.745C48.8074 53.5702 48.946 53.4313 49.1084 53.2846C49.3091 53.1456 49.4749 52.9552 49.6472 52.7823Z" fill="#ED4C41"/>
<path d="M44.8496 17.9698C45.8273 17.8773 46.8203 17.9085 47.8017 17.9078L52.1964 17.9074L66.1208 17.907L75.6894 17.9131C77.1546 17.9131 79.0907 17.773 80.499 17.9835L80.5069 20.9865C73.8988 20.8946 67.2824 20.9395 60.6734 20.9382C55.3881 20.9373 50.0872 20.8665 44.8036 20.9785C44.8084 19.9754 44.8238 18.9726 44.8496 17.9698Z" fill="#072B61"/>
<path d="M24.1444 16.1407C24.3475 15.8351 24.5574 15.5463 24.8127 15.2815C25.3913 14.681 26.0955 14.3133 26.9141 14.1575C28.4317 13.8688 31.1558 14.0596 32.8019 14.0604C36.9241 14.0752 41.0462 14.0649 45.1682 14.0296C45.0181 14.4968 44.8528 14.9932 44.8461 15.4885C44.7317 16.3245 44.8069 17.2145 44.7973 18.0592L34.0101 18.1096C32.8002 18.1123 30.3753 17.9595 29.3182 18.166C28.8426 18.2589 28.2839 18.5767 27.9408 18.9163C27.5131 19.3394 27.2732 19.8866 27.2112 20.4806C27.0586 21.9435 27.1682 23.5135 27.1647 24.9897L27.159 34.0663L27.1426 64.3707C25.9588 64.1648 24.522 64.3104 23.4082 63.877C23.6503 63.4438 23.5082 60.4706 23.5034 59.7732L23.5036 56.4334C23.2773 56.3546 23.0667 56.2658 22.8527 56.1579C23.0518 56.1243 23.3069 56.2366 23.5028 56.2952L23.5066 54.6455C23.5163 54.4982 23.4928 54.4303 23.4278 54.2985C23.627 53.9347 23.523 46.5516 23.526 45.4705C23.6577 43.2778 23.5561 41.0183 23.556 38.8179C23.575 37.8088 23.6544 28.8298 23.4985 28.5938C23.4799 28.5655 23.4858 28.5741 23.4498 28.5659C23.5383 28.5014 23.5362 28.4752 23.5786 28.3783L23.4898 28.2276C23.6904 27.8728 23.5802 27.0768 23.5953 26.655C23.5883 26.4485 23.5552 26.3167 23.4824 26.123C23.807 25.479 23.38 19.1391 23.6187 17.6503C23.7075 17.0967 23.9057 16.6426 24.1444 16.1407Z" fill="#5AEEFB"/>
<path d="M88.4749 14.0766L94.4295 14.0772C95.5858 14.0779 96.7744 14.0282 97.9278 14.1206C99.3331 14.3019 100.475 14.6855 101.377 15.8397C102.701 17.5336 102.247 20.0022 102.241 22.0145C102.24 22.3602 102.2 22.812 102.369 23.123C102.264 23.4164 102.237 23.6299 102.311 23.9351C102.177 24.6319 102.265 25.4535 102.265 26.168C102.265 27.1864 102.229 28.2184 102.268 29.2351C102.204 29.3812 102.206 29.4581 102.226 29.6153C102.375 31.5036 102.159 33.4213 102.258 35.3116C102.281 38.6334 102.274 41.9552 102.235 45.2769C102.222 45.4075 102.224 45.4209 102.278 45.5511C102.195 46.3751 102.257 47.2454 102.259 48.0759L102.271 52.8177L102.281 71.1132C101.172 70.2497 100.154 69.2809 98.9826 68.4966L98.6581 68.286L98.5294 17.9808C94.6521 18.031 90.7698 17.995 86.892 18.0123L82.9295 18.0313C82.1281 18.0346 81.295 18.0775 80.499 17.9832C80.5084 16.7123 80.61 15.3749 80.322 14.1303C80.8548 13.9376 87.3867 14.0749 88.4749 14.0766Z" fill="#5AEEFB"/>
<path d="M23.4858 77.1107C24.7613 76.7989 25.9711 76.2531 27.2668 75.9602L27.3159 99.2782L27.2943 106.289C27.2893 107.565 27.1947 108.913 27.3388 110.18C27.3904 110.633 27.6318 111.033 27.948 111.356C28.2894 111.705 28.7014 111.895 29.1845 111.943C30.658 112.089 32.4425 111.952 33.9426 111.944L43.2072 111.935C50.3333 111.977 57.4593 111.977 64.5854 111.937C67.6331 111.931 70.6854 111.976 73.7323 111.934C74.0759 111.929 74.9414 111.811 75.1938 112.026L89.8164 111.86C89.6395 112.867 89.7369 114.311 89.6094 115.326C84.66 115.319 64.8943 115.019 59.9451 114.979C54.6172 114.958 49.2894 114.971 43.9617 115.017C39.8733 115.05 35.7848 115.053 31.6962 115.026C30.3139 115.024 27.9793 115.217 26.6884 114.958C25.5408 114.728 24.5898 113.886 23.9673 112.93C23.7353 112.339 23.6068 111.796 23.5618 111.162C23.4726 109.908 23.5306 108.619 23.5306 107.36L23.5284 100.301L23.4858 77.1107Z" fill="#5AEEFB"/>
<path d="M1.13351 70.4831C1.6776 68.4782 5.31875 65.2992 7.81248 64.8435C8.71929 65.0713 8.38447 66.0676 8.2031 66.7966C7.9764 67.7079 5.66756 71.8501 5.21415 72.9892C4.85143 73.9005 4.91188 75.6472 4.98745 76.4066C3.89928 77.3179 1.20908 75.7231 0 74.8118C0.151135 74.2043 0.589426 72.488 1.13351 70.4831Z" fill="#00E5BC"/>
<defs>
<linearGradient id="paint0_linear_217_2095" x1="123.005" y1="112.908" x2="113.245" y2="84.9718" gradientUnits="userSpaceOnUse">
<stop stop-color="#001A42"/>
<stop offset="1" stop-color="#208BBD"/>
</linearGradient>
<linearGradient id="paint1_linear_217_2095" x1="115.205" y1="75.7791" x2="113.445" y2="68.4415" gradientUnits="userSpaceOnUse">
<stop stop-color="#E7A028"/>
<stop offset="1" stop-color="#EFC65A"/>
</linearGradient>
<linearGradient id="paint2_linear_217_2095" x1="111.484" y1="99.9685" x2="106.617" y2="99.4247" gradientUnits="userSpaceOnUse">
<stop stop-color="#000439"/>
<stop offset="1" stop-color="#1D599A"/>
</linearGradient>
<linearGradient id="paint3_linear_217_2095" x1="36.3436" y1="95.3027" x2="50.4156" y2="98.229" gradientUnits="userSpaceOnUse">
<stop stop-color="#003973"/>
<stop offset="1" stop-color="#005795"/>
</linearGradient>
<linearGradient id="paint4_linear_217_2095" x1="36.7522" y1="58.5185" x2="49.8773" y2="57.8709" gradientUnits="userSpaceOnUse">
<stop stop-color="#00417E"/>
<stop offset="1" stop-color="#005998"/>
</linearGradient>
</defs>
</svg>
