<svg xmlns="http://www.w3.org/2000/svg" width="48" height="48" fill="none" viewBox="0 0 48 48"><path fill="#000" fill-rule="evenodd" d="M15.466 9.052c10.997-.007 11.131-.007 11.719.142.327.09.81.275 1.079.417.268.141.67.402.893.573.223.18.573.544.773.805.194.26.462.678.58.923.127.246.29.7.365 1.006.127.492.142.849.142 5.586l-6.957.045-.67.208c-.364.112-.9.328-1.183.477a8.062 8.062 0 0 0-1.004.685c-.268.231-.67.648-.878.931a8.16 8.16 0 0 0-.655 1.058 7.4 7.4 0 0 0-.409 1.154 6.119 6.119 0 0 0-.149 1.4c0 .515.052.984.142 1.379.081.327.223.76.312.968.09.201.283.559.424.782.142.223.41.588.603.812.186.223.558.574.826.767a7.51 7.51 0 0 0 1.004.626c.29.141.789.328 1.116.417.566.156.766.164 7.478.208v2.518c0 2.22-.015 2.577-.142 3.069a5.52 5.52 0 0 1-.364 1.005c-.12.246-.387.663-.58.924-.201.26-.551.626-.774.804a7.64 7.64 0 0 1-.893.574 6.368 6.368 0 0 1-1.08.417c-.587.149-.728.149-11.643.149-10.9 0-11.057 0-11.644-.15a7.33 7.33 0 0 1-1.042-.372 6.063 6.063 0 0 1-.893-.58 6.26 6.26 0 0 1-.803-.798 5.44 5.44 0 0 1-.61-.968 7.109 7.109 0 0 1-.387-1.005c-.12-.447-.127-1.252-.157-11.024-.015-7.24 0-10.77.06-11.284.045-.41.164-.983.26-1.266.104-.283.298-.7.432-.916.126-.224.424-.604.647-.85a5.47 5.47 0 0 1 .893-.767 5.99 5.99 0 0 1 .893-.484c.223-.09.58-.208.781-.26.305-.082 2.403-.105 11.495-.105Zm15.84-.022 1.325.03c1.243.03 1.362.044 1.957.253.35.12.863.372 1.153.566.29.186.707.544.93.79.224.245.521.625.648.849a5.5 5.5 0 0 1 .424.916c.104.283.223.819.26 1.192.045.372.082 1.325.082 2.122 0 .797-.037 1.587-.074 1.75-.038.165-.134.38-.209.485a1.88 1.88 0 0 1-.394.357c-.246.164-.298.172-4.085.164v-2.368c.008-1.296-.03-2.615-.074-2.92a12.947 12.947 0 0 0-.201-1.043 9.046 9.046 0 0 0-.35-1.043 7.768 7.768 0 0 0-.506-.968 9.973 9.973 0 0 0-.58-.775l-.305-.357Zm6.727 11.567c.03 0 .052 1.743.052 3.873s-.015 3.873-.037 3.873c-.015 0-.127-.044-.238-.096-.157-.075-1.756-.105-6.83-.134-6.131-.038-6.652-.045-7.032-.172a5.214 5.214 0 0 1-.78-.35c-.202-.112-.537-.387-.745-.603a4.114 4.114 0 0 1-.58-.79 5.161 5.161 0 0 1-.313-.82 4.526 4.526 0 0 1-.111-.908c0-.268.052-.678.111-.916.067-.238.201-.603.313-.82.111-.215.372-.573.58-.789a4.29 4.29 0 0 1 .707-.596 5.53 5.53 0 0 1 .781-.342c.432-.15.67-.15 7.069-.187 4.888-.03 6.674-.067 6.807-.126a1.05 1.05 0 0 1 .246-.097Zm-13.973 3.39a1.49 1.49 0 0 0-.112.483c0 .12.06.343.134.492.075.149.231.328.35.402.127.075.313.142.41.149.103.015.282.015.394.007.111-.007.32-.119.468-.253.15-.134.305-.357.35-.499a.896.896 0 0 0 0-.559 1.242 1.242 0 0 0-.35-.543c-.23-.209-.32-.239-.655-.239-.262 0-.473.05-.632.15a1.06 1.06 0 0 0-.357.41Zm9.263 6.442h1.898c1.488 0 1.941.022 2.105.104.112.052.298.194.402.313.111.12.238.365.283.551.037.179.074.983.074 1.788 0 .797-.03 1.75-.074 2.122a7.428 7.428 0 0 1-.26 1.192c-.105.283-.291.7-.425.916a7.097 7.097 0 0 1-.655.85c-.223.245-.64.603-.93.79a6.714 6.714 0 0 1-1.153.565c-.588.209-.714.224-3.31.283l.327-.365a8.36 8.36 0 0 0 .587-.767 7.1 7.1 0 0 0 .506-.968c.127-.313.29-.782.357-1.043.067-.268.157-.737.201-1.043.037-.313.075-1.623.075-2.927l-.008-2.361Z" clip-rule="evenodd"/><path fill="#000" fill-opacity="0.8" d="M20.786 9.022c-2.909.015-7.641.015-10.528 0-2.887-.007-.506-.015 5.283-.015 5.788 0 8.154.008 5.245.015Zm11.868 0a8.911 8.911 0 0 1-.893 0c-.268-.015-.082-.022.409-.022s.707.007.484.022ZM20.786 39.933c-2.909.015-7.641.015-10.528 0-2.887-.008-.506-.015 5.283-.015 5.788 0 8.154.008 5.245.015Zm11.794 0a9.679 9.679 0 0 1-.93 0c-.246-.015-.03-.022.483-.022s.714.007.446.022Z"/><path fill="#000" fill-opacity="0.7" d="m31.017 18.504.015-2.287.022-2.294.015 2.235c.015 1.229.007 2.279-.015 2.324-.003.008-.014.015-.037.022h-.002c-.197.055-1.267.064-6.137.037l6.137-.037h.002Zm4.977.06c-.506.014-1.331.014-1.823 0-.49-.015-.067-.023.93-.023 1.005 0 1.407.008.893.023ZM31.01 30.421l-3.029-.014-3.036-.023h6.102l.007 4.618-.045-4.58Zm4.992-.014c-.514.014-1.332.014-1.823 0-.491-.008-.075-.023.93-.023 1.004 0 1.406.015.893.023Z"/><path fill="#000" fill-opacity="0.3" d="M33.956 20.79c-1.637.016-4.346.016-6.027 0-1.682-.007-.342-.014 2.976-.014 3.319 0 4.688.007 3.05.015Zm0 7.375a432.43 432.43 0 0 1-6.027 0c-1.682-.008-.342-.015 2.976-.015 3.319 0 4.688.007 3.05.015ZM33.3 17.983c-.014.186-.029.067-.029-.261s.015-.477.03-.335c.015.141.015.41 0 .596Zm0 13.481c-.014.186-.029.067-.029-.26 0-.328.015-.477.03-.336.015.142.015.41 0 .596Z"/></svg>