<svg xmlns="http://www.w3.org/2000/svg" width="48" height="48" fill="none" viewBox="0 0 48 48"><path fill="#252529" d="M10 8h6v5.416A5 5 0 0 0 9.416 20H4v-6a6 6 0 0 1 6-6ZM4 29v-6h9.88l-3.44 3.44a1.5 1.5 0 1 0 2.12 2.12L16 25.12V35h-6a6 6 0 0 1-6-6Zm15 6h14a6 6 0 0 0 6-6v-6H21.12l3.44 3.44a1.5 1.5 0 1 1-2.12 2.12L19 25.12V35Zm6.584-15H39v-6a6 6 0 0 0-6-6H19v5.416A5 5 0 0 1 25.584 20ZM21 20h-2v-2a2 2 0 1 1 2 2Zm-7 0h2v-2.016A2 2 0 1 0 14 20Zm1 20a6 6 0 0 1-5.198-3H33a8 8 0 0 0 8-8V13.802A5.997 5.997 0 0 1 44 19v10a11 11 0 0 1-11 11H15Z"/></svg>