<svg xmlns="http://www.w3.org/2000/svg" width="48" height="48" fill="none" viewBox="0 0 48 48"><path fill="#252529" d="M44 24c0-11.046-8.954-20-20-20S4 12.954 4 24s8.954 20 20 20 20-8.954 20-20Zm-29-6.512c.694-.764 1.83-1.488 3.5-1.488 2.304 0 3.788 1.584 4.31 3.322.506 1.694.2 3.79-1.24 5.236-.5.48-1.03.928-1.586 1.34l-.08.062c-.56.432-1.06.824-1.5 1.26-.51.512-.928 1.07-1.17 1.78H21.5a1.5 1.5 0 0 1 0 3h-6a1.5 1.5 0 0 1-1.5-1.5c0-2.494 1.048-4.166 2.288-5.402.592-.592 1.236-1.09 1.78-1.512l.006-.004c.572-.442 1.016-.786 1.37-1.14.544-.548.734-1.45.492-2.26-.23-.762-.74-1.182-1.436-1.182-.706 0-1.07.274-1.28.506-.123.136-.223.29-.296.458v.006a1.5 1.5 0 1 1-2.856-.924l.07-.192c.206-.502.498-.964.862-1.366ZM26.5 16a1.5 1.5 0 0 1 1.5 1.5V23h3v-5.5a1.5 1.5 0 0 1 3 0v12.94a1.5 1.5 0 1 1-3 0V26h-4.5a1.5 1.5 0 0 1-1.5-1.5v-7a1.5 1.5 0 0 1 1.5-1.5Z"/></svg>