<svg xmlns="http://www.w3.org/2000/svg" width="48" height="48" fill="none" viewBox="0 0 48 48"><path fill="#252529" d="M35.43 31.906A4.41 4.41 0 0 1 34.304 28h-21.8a4.498 4.498 0 0 0-4.496 4.498v1.84a5.5 5.5 0 0 0 1.02 3.192C12.112 41.858 17.16 44 24 44c.78 0 1.534-.028 2.266-.084a4.503 4.503 0 0 1 .706-4.32l1.6-2.02a4.39 4.39 0 0 1 4.476-1.54l1.676.406c1.04-.874 1.66-1.95 1.896-3.288l-1.19-1.25v.002ZM24 4.01a10 10 0 1 1 0 20 10 10 0 0 1 0-20Zm12.384 23.98.952-2.41a2.494 2.494 0 0 1 3.096-1.456l.862.282c1.448.474 2.652 1.612 2.7 3.138.2 6.22-4.952 15.166-10.426 18.11-1.346.724-2.936.246-4.07-.782l-.674-.61a2.506 2.506 0 0 1-.284-3.412l1.6-2.02a2.39 2.39 0 0 1 2.44-.84l2.584.626c2.206-1.46 3.388-3.512 3.548-6.158l-1.834-1.928a2.405 2.405 0 0 1-.494-2.54Z"/></svg>