<svg xmlns="http://www.w3.org/2000/svg" width="48" height="48" fill="none" viewBox="0 0 48 48"><path fill="#252529" d="M12.5 4A4.5 4.5 0 0 0 8 8.5v31a4.5 4.5 0 0 0 4.5 4.5h15a4.5 4.5 0 0 0 4.5-4.458v-3.04a1.5 1.5 0 0 0-1.5-1.5c-.906 0-1.478-.246-1.872-.564-.416-.334-.76-.85-1.022-1.578-.546-1.51-.604-3.5-.604-5.36a1.5 1.5 0 0 0-.404-1.024l-.33-.354a4.89 4.89 0 0 0-.34-.346c-.148-.14-.6-.57-2.366-2.336-.938-.938-1.456-1.73-1.626-2.336a1.232 1.232 0 0 1-.032-.65c.075-.249.217-.472.41-.646a1.42 1.42 0 0 1 .644-.408 1.22 1.22 0 0 1 .648.032c.604.17 1.396.692 2.334 1.63 1.08 1.08 2.106 2.092 3.024 3 1.52 1.504 2.746 2.72 3.44 3.46a1.5 1.5 0 0 0 2.194-2.046A109.11 109.11 0 0 0 32 22.848V16.12l5.682 5.684a4.5 4.5 0 0 1 1.32 3.18V42.5a1.5 1.5 0 0 0 3 0V24.986a7.499 7.499 0 0 0-2.198-5.304L32 11.878v-3.38A4.5 4.5 0 0 0 27.5 4h-15Zm14.248 32.776A5.42 5.42 0 0 0 29 37.844V38h-1.5a1.5 1.5 0 0 0-1.5 1.5V41h-3v-1.5a4.5 4.5 0 0 1 2.552-4.056c.32.488.712.944 1.196 1.332Zm-2.744-8.684c.004.506.014 1.052.044 1.62a7 7 0 1 1-3.1-12.648c-.266.178-.52.386-.756.624-.584.584-1 1.26-1.194 2.02a4.207 4.207 0 0 0 .05 2.208c.378 1.346 1.33 2.582 2.394 3.646.813.823 1.637 1.636 2.472 2.438l.008.006.074.078.008.008ZM14 7h3v1.5a4.5 4.5 0 0 1-4.5 4.5H11v-3h1.5A1.5 1.5 0 0 0 14 8.5V7Zm9 0h3v1.5a1.5 1.5 0 0 0 1.5 1.5H29v3h-1.5A4.5 4.5 0 0 1 23 8.5V7Zm-6 34h-3v-1.5a1.5 1.5 0 0 0-1.5-1.5H11v-3h1.5a4.5 4.5 0 0 1 4.5 4.5V41Z"/></svg>