<svg xmlns="http://www.w3.org/2000/svg" width="48" height="48" fill="none" viewBox="0 0 48 48"><path fill="#252529" d="M4 13.5C4 11.568 5.568 10 7.5 10h27c1.932 0 3.5 1.568 3.5 3.5v17a3.5 3.5 0 0 1-3.5 3.5h-27A3.5 3.5 0 0 1 4 30.5v-17Zm6-1v2A1.5 1.5 0 0 1 8.5 16h-2v3h2a4.501 4.501 0 0 0 4.5-4.5v-2h-3ZM21 27a4.5 4.5 0 1 0 0-9 4.5 4.5 0 0 0 0 9ZM6.5 28h2a1.5 1.5 0 0 1 1.5 1.5v2h3v-2A4.5 4.5 0 0 0 8.5 25h-2v3ZM32 29.5a1.5 1.5 0 0 1 1.5-1.5h2v-3h-2a4.5 4.5 0 0 0-4.5 4.5v2h3v-2Zm0-15v-2h-3v2a4.5 4.5 0 0 0 4.5 4.5h2v-3h-2a1.5 1.5 0 0 1-1.5-1.5ZM8.802 37A5.999 5.999 0 0 0 14 40h20.5a9.5 9.5 0 0 0 9.5-9.5V20a5.998 5.998 0 0 0-3-5.198V30.5a6.5 6.5 0 0 1-6.5 6.5H8.802Z"/></svg>