<svg xmlns="http://www.w3.org/2000/svg" width="48" height="48" fill="none" viewBox="0 0 48 48"><path fill="#252529" d="m21.892 4.094.01.014C22.592 4.036 23.292 4 24 4c11.044 0 20 8.954 20 20s-8.956 20-20 20a19.966 19.966 0 0 1-15.792-7.724h-.006v-.006A19.914 19.914 0 0 1 4 24C4 13.676 11.822 5.18 21.864 4.112l.028-.018ZM24 7l-.32.002c.246.49.51 1.066.748 1.7.694 1.846 1.332 4.564.2 6.974-1.044 2.226-2.848 2.8-4.18 3.146l-.168.042c-1.314.34-1.82.47-2.186 1.028-.34.514-.288 1.164.122 2.5l.092.296c.164.516.36 1.14.46 1.726.128.728.164 1.654-.304 2.55a4.373 4.373 0 0 1-1.8 1.89c-.682.37-1.388.512-1.916.604l-.186.034c-1.03.18-1.522.268-2 .78-.374.4-.614 1.106-.754 2.158-.058.428-.092.854-.128 1.292l-.02.234c-.04.484-.088 1.042-.198 1.52v.004A16.956 16.956 0 0 0 24.002 41c3.152 0 6.106-.86 8.638-2.356a8.932 8.932 0 0 1-.62-.7c-.68-.856-1.572-2.328-1.262-4.066.148-.836.596-1.536 1.03-2.072.444-.527.925-1.022 1.44-1.48l.316-.292c.358-.326.66-.602.92-.874.344-.36.42-.524.424-.534.136-.448-.03-.768-.212-.908a.608.608 0 0 0-.38-.122c-.168 0-.44.048-.802.28a1.824 1.824 0 0 1-1.672.17 2.05 2.05 0 0 1-.972-.864c-.288-.474-.45-1.092-.556-1.544-.08-.348-.16-.744-.23-1.106l-.08-.412a8.238 8.238 0 0 0-.268-1.08l-.04-.074a3.015 3.015 0 0 0-.128-.21 12.511 12.511 0 0 0-.454-.634l-.22-.286a25.41 25.41 0 0 1-1.032-1.424c-.392-.596-.834-1.376-.974-2.208a2.92 2.92 0 0 1 .11-1.468c.188-.528.53-.964.974-1.298.966-.724 2.386-2.344 3.646-3.918a78.34 78.34 0 0 0 1.472-1.9A16.92 16.92 0 0 0 24 7Z"/></svg>