<svg xmlns="http://www.w3.org/2000/svg" width="48" height="48" fill="none" viewBox="0 0 48 48"><path fill="#252529" d="M8 10.5A4.5 4.5 0 0 1 12.5 6h19a4.5 4.5 0 0 1 4.5 4.5V28h8v7.5a6.499 6.499 0 0 1-6.5 6.5H23.956A12.94 12.94 0 0 0 26 35c0-4.02-1.826-7.616-4.692-10H27.5a1.5 1.5 0 1 0 0-3h-11c-.32 0-.614.1-.858.268A13.06 13.06 0 0 0 8 22.996V10.5ZM36 39h1.5a3.5 3.5 0 0 0 3.5-3.5V31h-5v8ZM15 15.5a1.5 1.5 0 0 0 1.5 1.5h11a1.5 1.5 0 1 0 0-3h-11a1.5 1.5 0 0 0-1.5 1.5ZM24 35a11 11 0 1 1-22 0 11 11 0 0 1 22 0Zm-14 3.998a1 1 0 0 0 1.554.832l6.004-3.998a.998.998 0 0 0 0-1.664l-6.004-4a1 1 0 0 0-1.554.834v7.996Z"/></svg>