<svg width="143" height="120" viewBox="0 0 143 120" fill="none" xmlns="http://www.w3.org/2000/svg">
<path d="M90.8785 95.4938C87.3204 91.9356 86.082 87.1217 85.9076 85.1595L93.2332 75.6101L112.332 99.6798L107.884 110.276C103.437 107.18 94.4366 99.0519 90.8785 95.4938Z" fill="#106EB2"/>
<ellipse cx="71.649" cy="114.985" rx="61.8748" ry="4.31685" fill="#106EB2"/>
<path d="M12.9048 97.6682L13.9707 97.1609C14.698 97.6322 15.7466 97.9227 16.5512 98.2713C19.6237 99.6021 22.6861 100.857 25.8524 101.948C26.849 102.291 27.8623 102.684 28.8805 102.951L29.2186 103.295C29.2877 103.494 29.3691 103.618 29.4926 103.785L29.5182 103.887C29.0769 103.992 28.6265 104.016 28.1759 104.052C27.5638 104.041 26.9538 104 26.3458 103.928C22.5857 103.452 18.726 101.677 15.5229 99.7091C14.6108 99.1486 13.5675 98.5233 12.9048 97.6682Z" fill="#004B77"/>
<path d="M142.176 70.5996C142.27 70.7542 141.762 72.2484 141.693 72.5106C140.908 75.5138 140.445 78.5758 139.828 81.6141C136.892 82.9491 133.214 83.7115 129.996 83.8469L129.94 83.769C130.163 83.2993 131.899 81.6585 132.366 81.1516C134.453 78.8803 136.553 76.6208 138.665 74.373C139.832 73.1137 140.946 71.799 142.176 70.5996Z" fill="#032C59"/>
<path d="M139.719 81.8479C139.034 84.4207 137.97 87.038 136.549 89.2957C134.252 89.6823 131.918 89.8485 129.602 90.0853L129.697 90.2714C127.715 90.5404 125.667 90.772 123.728 91.267L123.656 91.1018C124.127 89.6438 128.627 85.9013 129.595 84.1012C130.471 83.8231 131.645 83.9149 132.572 83.7814C133.185 83.6915 133.793 83.5836 134.399 83.4577C135.005 83.3317 135.606 83.188 136.203 83.0264C136.8 82.8649 137.392 82.6858 137.979 82.4892C138.565 82.2926 139.145 82.0788 139.719 81.8479Z" fill="#032C59"/>
<path d="M123.656 91.1021C123.667 91.096 123.679 91.0903 123.69 91.0839C124.748 90.4975 128.321 90.0569 129.602 90.0856L129.697 90.2717C127.715 90.5407 125.667 90.7723 123.728 91.2673L123.656 91.1021Z" fill="#106EB2"/>
<path d="M130.104 96.1929C130.534 96.2188 130.966 96.2365 131.394 96.2823C130.26 97.273 129.137 98.2864 127.925 99.1817C127.686 99.3609 127.444 99.5356 127.199 99.7058C126.955 99.8762 126.707 100.042 126.455 100.203C126.204 100.364 125.951 100.521 125.694 100.673C125.437 100.825 125.178 100.972 124.916 101.115C124.654 101.257 124.389 101.395 124.122 101.528C123.855 101.66 123.585 101.788 123.313 101.911C123.042 102.034 122.768 102.152 122.491 102.265C122.215 102.378 121.937 102.486 121.657 102.589C121.377 102.692 121.095 102.79 120.812 102.882C120.528 102.975 120.243 103.062 119.956 103.144C119.669 103.226 119.381 103.303 119.091 103.375C118.802 103.446 118.511 103.512 118.219 103.573C117.927 103.634 117.634 103.69 117.34 103.74C117.046 103.791 116.751 103.835 116.455 103.875C116.159 103.914 115.863 103.949 115.566 103.977C115.269 104.006 114.972 104.029 114.674 104.047L113.535 104.054L112.889 104.068C113.831 102.982 117.699 97.5108 118.486 97.1413C119.865 96.8735 121.252 96.6629 122.648 96.5095C124.044 96.3561 125.444 96.2604 126.847 96.2223C127.932 96.1874 129.02 96.2496 130.104 96.1929Z" fill="#032C59"/>
<path d="M129.697 90.2716C131.913 89.9241 134.189 89.7917 136.42 89.5217C136.09 90.1176 135.742 90.7023 135.375 91.2759C135.007 91.8494 134.622 92.4106 134.219 92.9596C133.816 93.5086 133.396 94.0441 132.959 94.5663C132.522 95.0884 132.068 95.5961 131.599 96.0892L130.555 96.0183C130.395 96.0688 130.252 96.112 130.104 96.1928C129.02 96.2496 127.932 96.1874 126.847 96.2222C125.444 96.2603 124.044 96.356 122.648 96.5095C121.252 96.6629 119.865 96.8735 118.486 97.1412C118.59 96.9904 118.737 96.8862 118.878 96.7723C118.931 96.466 119.193 96.1757 119.375 95.9313C120.12 94.9317 122.492 92.0609 123.345 91.4009C123.466 91.3079 123.581 91.2884 123.728 91.2671C125.667 90.7721 127.715 90.5405 129.697 90.2716Z" fill="#032C59"/>
<path d="M118.878 96.7723C122.003 95.9495 127.343 95.6362 130.555 96.0182C130.395 96.0688 130.252 96.112 130.104 96.1927C129.02 96.2495 127.932 96.1873 126.847 96.2222C125.444 96.2602 124.044 96.356 122.648 96.5094C121.252 96.6628 119.865 96.8734 118.486 97.1411C118.59 96.9903 118.737 96.8861 118.878 96.7723Z" fill="#106EB2"/>
<path d="M132.083 73.3831C135.296 72.1146 138.722 71.3744 142.04 70.4363L134.172 78.8764C134.242 77.6204 134.429 76.3904 134.618 75.1483C134.711 74.538 134.872 73.8623 134.87 73.2476C134.345 74.8065 134.087 77.4356 133.959 79.0915C133.421 79.816 132.736 80.4654 132.115 81.1216C131.224 82.0648 130.348 83.0561 129.361 83.8994C129.392 82.0556 129.584 80.1954 129.805 78.3655C129.893 77.6291 130.063 76.8673 130.109 76.1322C129.629 76.5585 129.224 82.3571 129.172 83.2256C129.155 83.4877 129.147 83.75 129.147 84.0125C127.717 85.0308 125.484 87.6305 124.233 89.0339L124.139 89.007C124.429 85.6571 124.297 81.7709 123.364 78.5295L123.297 78.439C123.301 78.4185 123.303 78.397 123.31 78.3774C123.437 78.047 124.21 77.6197 124.504 77.4195C126.07 76.3521 127.631 75.3443 129.349 74.5392C130.247 74.1188 131.187 73.8022 132.083 73.3831Z" fill="#032C59"/>
<path d="M101.092 47.9639C103.9 51.5297 106.399 56.6837 108.18 60.8677C108.124 61.3288 108.752 62.1631 108.917 62.6368L109.061 63.1496C110.095 65.3114 112.371 75.4385 112.149 77.6381C112.133 77.5369 112.091 77.0353 112.046 76.9752C111.454 77.406 110.906 78.22 110.428 78.7872C109.142 80.3141 107.89 81.911 106.53 83.3715C106.082 78.9515 105.676 74.5022 104.871 70.1294C104.823 69.8613 104.802 69.6064 104.792 69.3343C104.632 68.4315 104.532 67.5095 104.408 66.6005C103.558 60.3425 102.279 54.1619 101.092 47.9639Z" fill="#106EB2"/>
<path d="M123.054 78.8235C123.13 78.6937 123.247 78.6215 123.364 78.5295C124.297 81.771 124.429 85.6572 124.139 89.0071L124.233 89.034C125.484 87.6306 127.717 85.0309 129.147 84.0126C129.297 84.0488 129.441 84.0896 129.595 84.1012C128.627 85.9012 124.127 89.6437 123.656 91.1018L123.728 91.2669C123.581 91.2882 123.466 91.3077 123.345 91.4007C122.492 92.0607 120.12 94.9315 119.375 95.9311C119.193 96.1756 118.931 96.4658 118.878 96.7722C118.737 96.886 118.59 96.9902 118.486 97.1411C117.7 97.5105 113.831 102.982 112.889 104.068C112.885 104.07 112.881 104.072 112.876 104.072C112.644 104.107 112.528 104.147 112.32 104.035C112.175 103.741 112.229 103.381 112.236 103.061C112.229 102.226 112.142 101.387 112.083 100.554C112.074 100.016 112.081 99.4785 112.103 98.941C112.174 98.4596 112.188 97.9673 112.26 97.4825C112.574 95.1908 113.224 92.9444 113.805 90.7095C114.074 90.2211 114.262 89.6617 114.495 89.1522C114.859 88.3738 115.256 87.6129 115.687 86.8696C115.877 86.531 116.074 86.1967 116.279 85.8668C116.484 85.5369 116.696 85.2117 116.915 84.8911C117.134 84.5705 117.36 84.2549 117.594 83.9443C117.827 83.6337 118.066 83.3283 118.313 83.0282C118.559 82.728 118.812 82.4335 119.072 82.1446C119.331 81.8556 119.597 81.5724 119.869 81.2952C120.141 81.0179 120.418 80.7467 120.702 80.4818C120.986 80.2166 121.276 79.9579 121.571 79.7057C121.931 79.3917 122.5 78.7983 122.961 78.6722L123.054 78.8235Z" fill="#032C59"/>
<path d="M123.053 78.8235C123.13 78.6937 123.246 78.6215 123.364 78.5295C124.297 81.771 124.429 85.6572 124.139 89.0071C124.054 89.3028 124.048 89.458 123.779 89.6419C123.746 88.541 123.846 87.4328 123.839 86.3296C123.83 85.0689 123.759 83.8115 123.628 82.5576C123.497 81.3036 123.305 80.0589 123.053 78.8235Z" fill="#106EB2"/>
<path d="M129.147 84.0129C129.297 84.0492 129.441 84.0899 129.594 84.1016C128.627 85.9016 124.127 89.6441 123.656 91.1021L123.728 91.2673C123.581 91.2886 123.466 91.3081 123.345 91.4011C122.492 92.0611 120.12 94.9319 119.375 95.9315C119.193 96.1759 118.931 96.4662 118.878 96.7725C118.737 96.8864 118.59 96.9906 118.486 97.1414C117.699 97.5109 113.831 102.983 112.889 104.069C112.885 104.07 112.88 104.072 112.876 104.073C112.644 104.108 112.528 104.147 112.32 104.035C112.175 103.742 112.229 103.381 112.236 103.061C112.274 103.212 112.265 103.148 112.276 103.308C112.288 103.47 112.252 103.396 112.382 103.512L112.449 103.425L112.391 103.413L112.505 103.081L112.629 103.091C113.578 101.517 115.212 99.5104 116.41 98.0865C117.086 97.2831 117.984 96.4277 118.491 95.5159C119.243 94.1627 118.955 86.9912 118.527 85.3485L118.507 85.3502L118.66 85.2834C119.473 86.409 119.253 93.1768 119.171 94.7806C120.003 93.7607 120.941 92.8107 121.814 91.8239C122.356 91.2104 123.148 90.0987 123.779 89.6423C124.048 89.4584 124.054 89.3031 124.139 89.0075L124.233 89.0344C125.484 87.631 127.717 85.0313 129.147 84.0129Z" fill="url(#paint0_linear_217_2198)"/>
<path d="M11.1929 36.4177C12.8332 37.6597 14.6999 38.6161 16.3916 39.798C17.0209 40.2313 17.6406 40.6779 18.2509 41.1376C18.8612 41.5972 19.4615 42.0696 20.0517 42.5547C20.642 43.0398 21.2217 43.5372 21.7909 44.0469C22.36 44.5565 22.9181 45.078 23.4653 45.6114C24.0123 46.1448 24.5478 46.6895 25.0719 47.2455C25.5958 47.8015 26.1078 48.3684 26.6078 48.9462C27.1077 49.5239 27.5952 50.112 28.0702 50.7104C28.5453 51.3088 29.0074 51.9169 29.4567 52.5349C30.4627 53.9184 31.5177 55.3084 32.3698 56.7932C32.881 57.6845 34.052 60.3151 34.5554 60.8948C34.5699 60.9114 34.5852 60.9271 34.6 60.9434C33.808 62.5618 31.5805 66.5271 32.133 68.2467C32.6242 69.7755 35.7995 73.8567 36.9418 75.2385C37.5331 75.9026 38.1984 76.5917 38.6164 77.3802C38.8433 77.8151 39.0789 78.2394 39.3318 78.6598C39.4216 80.2145 39.2586 81.8005 39.1692 83.3538C39.0301 85.7236 38.9033 88.094 38.789 90.4649L38.5833 95.3267C38.5578 95.9656 38.6327 96.789 38.4766 97.4002C38.4011 101.358 38.1649 105.333 37.9482 109.286L37.8621 111.129C37.7817 111.554 37.7486 111.697 37.3788 111.951C35.7905 113.042 33.516 112.803 31.6863 112.781L31.2397 111.542L28.1759 104.052C28.6265 104.016 29.0769 103.992 29.5182 103.887L29.4926 103.785C29.3691 103.618 29.2877 103.494 29.2186 103.295L28.8805 102.952C27.8623 102.684 26.849 102.292 25.8524 101.948C22.6861 100.857 19.6237 99.6021 16.5512 98.2714C15.7466 97.9227 14.698 97.6322 13.9707 97.1609L12.9048 97.6683L12.8172 97.591C11.833 97.1143 8.31966 91.8079 7.52722 90.6037L7.44198 90.4981C7.17796 89.6832 6.53234 88.8228 6.14018 88.0472C5.29256 86.3592 4.50494 84.6437 3.77731 82.9007L3.74879 82.7465C3.43962 82.4228 3.2391 81.5621 3.07985 81.1325C1.90201 77.9551 0.182586 72.8286 0 69.5043C2.99145 69.9481 5.82881 70.8701 8.64952 71.9375C8.48883 72.3587 8.35383 72.788 8.2445 73.2254C8.13519 73.6628 8.05234 74.1051 7.99596 74.5523C7.90849 75.2744 7.86973 77.2889 8.30907 77.8512L8.37661 77.7776C7.84978 75.8754 8.11298 73.844 8.79632 72.024C9.89631 72.4115 10.9735 72.9089 12.0501 73.3593C11.7539 71.8457 11.3492 70.3646 11.1149 68.8374C9.46808 58.1125 10.0153 47.1603 11.1929 36.4177Z" fill="#00E5BC"/>
<path d="M19.3817 56.8498C17.9889 52.9659 16.2929 49.1562 14.7002 45.3498C14.1195 43.9616 13.4895 42.5676 12.9752 41.1535C12.9133 40.9833 12.8449 40.8806 12.9119 40.7092C13.2461 41.108 13.9864 43.162 14.2448 43.7629C15.9684 47.7717 17.7816 51.7534 19.2807 55.8528C19.2679 55.0501 19.2458 54.2431 19.3031 53.4418C19.4365 51.5712 19.9949 48.3796 20.9223 46.7934C20.975 47.1277 20.213 49.3593 20.0648 49.9684C19.6126 51.8281 19.1993 54.0692 19.5052 55.9736C19.6923 57.1385 20.2877 58.2912 20.7179 59.3858C21.3128 60.8744 21.8774 62.3743 22.4116 63.8857C22.5868 62.7301 22.8127 61.5979 23.1657 60.4818C23.8433 58.3394 25.9501 53.5748 27.7094 52.2578C27.4631 52.8121 26.9437 53.3743 26.6064 53.8921C25.8707 55.0106 25.2075 56.1705 24.6167 57.3718C23.7853 59.0986 22.5546 62.2803 22.6464 64.1237C22.684 64.8796 24.1549 68.6051 24.4832 69.5519C25.1023 71.3373 25.6533 73.1459 26.279 74.9286C26.3799 72.0473 27.6011 68.1822 29.0497 65.7416C29.4471 65.0721 30.8915 62.9077 31.6465 62.7155L31.5198 62.8858L31.531 62.8731C30.6529 63.8468 29.8095 64.7804 29.1401 65.9171C27.9232 67.9833 26.2879 73.0833 26.5432 75.5211C26.6773 76.8013 27.2405 78.1875 27.5841 79.4379C28.1094 81.3506 28.5595 83.2806 29.0509 85.202C29.4256 82.3604 31.0629 77.4539 33.3638 75.6853C33.0065 76.1384 32.6549 76.5985 32.3367 77.0802C31.0863 78.9732 29.3077 83.126 29.2431 85.4243C29.2176 86.336 29.8862 88.6972 30.1029 89.6888L31.7089 97.3963C31.6698 97.7578 31.6199 98.1213 31.5935 98.4837C31.1737 97.7253 31.0078 96.203 30.8313 95.3213C30.2927 92.5793 29.7205 89.8444 29.1146 87.1165C28.929 86.2642 28.707 84.7148 28.3634 83.9545C28.1354 83.4499 27.6742 82.9661 27.3731 82.4856L27.4417 82.4542L27.4202 82.5425L27.546 82.6114C27.6427 82.8426 28.0875 83.2714 28.2587 83.4798C27.7239 81.2171 27.0666 78.9758 26.4163 76.7444C26.0448 75.4696 25.7274 74.0832 25.1775 72.8751C25.0014 72.4885 24.7491 72.1592 24.4679 71.8445C22.0873 69.1801 18.428 67.7248 14.9226 67.4647C14.2176 67.4124 13.5269 67.598 12.8269 67.5506C12.8044 67.5491 12.7819 67.5468 12.7594 67.545L12.7985 67.5879L12.8973 67.4702C13.6589 67.3289 14.5197 67.2146 15.2935 67.2912C18.9556 67.6539 22.6466 69.3234 24.9914 72.2172C23.9973 68.924 22.6981 65.7178 21.5081 62.4925C20.9604 61.008 20.1692 58.3818 19.401 57.0985C19.2514 56.8486 18.8304 56.623 18.5931 56.4375C16.4501 54.7626 14.5589 54.1586 11.9567 53.567L11.854 53.658L11.657 53.461C11.9523 53.4616 12.3291 53.5676 12.6303 53.6109C15.2743 53.9908 17.3208 55.2408 19.3817 56.8498Z" fill="#FDFEFE"/>
<path d="M13.9707 97.1609C16.6419 95.9978 19.7687 95.6647 22.6087 96.3875C23.4275 96.5961 24.2032 96.9289 24.9934 97.2232C25.8424 98.394 26.6697 99.5799 27.4753 100.781C27.9522 101.483 28.4906 102.199 28.8805 102.952C27.8623 102.684 26.849 102.292 25.8524 101.948C22.6861 100.857 19.6238 99.6021 16.5513 98.2714C15.7466 97.9227 14.6981 97.6322 13.9707 97.1609Z" fill="#106EB2"/>
<path d="M3.77734 82.9008C6.80217 81.934 10.4179 82.1336 13.2421 83.665C14.8306 84.5261 17.836 88.2938 19.1635 89.7976C18.4662 89.4795 17.8097 89.2083 17.0556 89.061C14.5225 88.5665 10.8898 89.1356 8.49667 90.0368C8.13637 90.1725 7.78857 90.3311 7.44201 90.4982C7.17799 89.6833 6.53237 88.8229 6.14022 88.0472C5.2926 86.3593 4.50497 84.6438 3.77734 82.9008Z" fill="#106EB2"/>
<path d="M20.4387 78.627C22.9702 80.4499 25.5679 83.4818 27.0159 86.2532C25.0885 88.5258 24.1111 91.6368 23.886 94.5755C23.8434 94.7552 23.8201 94.9383 23.7933 95.121C23.5932 95.0114 21.5614 92.2995 21.2101 91.8675C20.3427 90.8007 19.3116 89.7966 18.5464 88.658C18.3833 85.0916 18.5367 81.7639 20.4387 78.627Z" fill="#106EB2"/>
<path d="M7.52734 90.6039C10.5474 89.3814 15.2938 88.2856 18.4269 89.628C18.882 89.823 19.284 90.0724 19.6533 90.4046C20.7426 91.3841 24.0623 95.7241 24.797 96.9916C24.0173 96.6855 23.2457 96.3843 22.4271 96.1958C19.6876 95.565 16.5039 95.9286 13.9303 97.0331C13.5509 97.1959 13.1649 97.3674 12.8173 97.5912C11.8331 97.1145 8.31978 91.8081 7.52734 90.6039Z" fill="#106EB2"/>
<path d="M36.9418 75.2385C37.5332 75.9026 38.1984 76.5918 38.6164 77.3803C38.8434 77.8152 39.0789 78.2395 39.3318 78.6598C39.4217 80.2145 39.2586 81.8006 39.1692 83.3539C39.0301 85.7237 38.9034 88.094 38.789 90.465L38.5833 95.3268C38.5578 95.9657 38.6327 96.7891 38.4766 97.4003C37.7811 98.4221 37.027 99.2804 36.0949 100.093C35.7953 100.354 35.4171 100.579 35.1386 100.852C34.8013 101.007 34.4893 101.158 34.1185 101.219C34.064 101.209 34.0093 101.198 33.9553 101.186C33.1535 100.999 32.4113 100.562 31.9727 99.8578C31.8153 99.4102 31.7773 98.9166 31.5935 98.4837C31.6199 98.1213 31.6698 97.7579 31.7089 97.3964C31.887 96.9378 32.114 94.8327 32.2564 94.1344C32.5422 92.7313 32.8802 91.3273 33.0986 89.9122C33.8603 84.9771 34.2249 79.5838 36.9418 75.2385Z" fill="#053C3E"/>
<path d="M36.8531 79.7244C37.2925 80.5947 36.6127 85.0141 36.4382 86.08L36.3988 86.0803C36.1593 85.0875 36.6849 80.9251 36.8531 79.7244Z" fill="#00E5BC"/>
<path d="M27.1063 86.3857C28.956 89.888 30.3547 93.7472 30.4041 97.7541C30.4741 98.2187 30.4761 98.6747 30.4785 99.1432C30.8477 99.4556 31.1388 99.8306 31.4749 100.175C31.8166 101.753 32.316 103.419 32.4215 105.032C32.4375 105.278 32.4674 105.425 32.5956 105.634L32.684 105.644C32.6659 105.606 32.6468 105.569 32.6296 105.531C32.5419 105.339 31.6721 100.107 31.7099 99.99L31.9726 99.8578C32.4113 100.562 33.1534 100.999 33.9552 101.185C34.0093 101.198 34.0639 101.209 34.1185 101.219C34.4893 101.158 34.8013 101.007 35.1386 100.852C35.417 100.579 35.7953 100.354 36.0949 100.093C37.027 99.2803 37.7811 98.4221 38.4766 97.4003C38.4011 101.358 38.1649 105.333 37.9482 109.286L37.8621 111.129C37.7817 111.554 37.7486 111.697 37.3788 111.951C35.7905 113.042 33.516 112.803 31.6863 112.781L31.2397 111.542L28.1759 104.052C28.6265 104.016 29.0769 103.992 29.5182 103.887L29.4926 103.785C29.3691 103.618 29.2877 103.494 29.2186 103.295C28.895 101.955 24.9618 96.9452 23.9575 95.3339L23.9823 94.5469C24.3337 91.6044 25.1542 88.6838 27.1063 86.3857Z" fill="#106EB2"/>
<path d="M38.4765 97.4004C38.401 101.358 38.1649 105.333 37.9482 109.286L37.8621 111.129C37.7816 111.554 37.7486 111.697 37.3788 111.951C35.7904 113.042 33.5159 112.803 31.6863 112.781L31.2396 111.542L28.1759 104.052C28.6265 104.016 29.0769 103.992 29.5181 103.887C30.202 104.647 31.9742 108.711 32.7152 109.92C32.7721 107.717 33.1161 105.617 33.4913 103.448C33.6114 102.755 33.6725 101.94 33.9297 101.285L34.1184 101.219C34.4893 101.158 34.8012 101.008 35.1386 100.852C35.417 100.579 35.7952 100.355 36.0948 100.093C37.0269 99.2805 37.781 98.4222 38.4765 97.4004Z" fill="#00E5BC"/>
<path d="M38.4766 97.4004C38.4011 101.358 38.165 105.333 37.9483 109.286C37.7968 109.239 37.6443 109.195 37.4894 109.162C36.4327 108.936 35.4272 109.071 34.5238 109.657C34.6849 106.722 35.1414 103.796 35.1387 100.852C35.4171 100.579 35.7954 100.355 36.0949 100.093C37.027 99.2805 37.7811 98.4222 38.4766 97.4004Z" fill="#106EB2"/>
<path d="M0 69.5044C2.99144 69.9482 5.82881 70.8702 8.64952 71.9376C8.48883 72.3587 8.35382 72.788 8.2445 73.2254C8.13519 73.6628 8.05234 74.1051 7.99596 74.5524C7.90849 75.2745 7.86973 77.2889 8.30907 77.8512L8.37661 77.7777C7.84978 75.8754 8.11298 73.8441 8.79632 72.0241C9.89631 72.4116 10.9735 72.9089 12.0501 73.3594C12.8226 73.7379 13.6187 74.0826 14.3828 74.4754C13.6261 76.482 13.2948 78.0956 13.487 80.2435C13.5206 80.6184 13.5192 81.1468 13.6838 81.4845C13.6993 81.5166 13.7205 81.5456 13.7387 81.5761C13.8106 81.1684 13.6084 80.494 13.5826 80.0537C13.4664 78.0643 13.7643 76.3437 14.5735 74.5249C16.1052 75.4436 19.2927 77.1873 20.3795 78.47C18.2815 81.6961 18.3567 84.9702 18.4139 88.6346C17.1344 87.3138 15.9696 85.8775 14.7177 84.529C11.8919 81.4853 8.68961 78.3421 5.64988 75.5004C4.55261 74.4746 3.47497 73.3482 2.31251 72.404C2.92283 73.4263 5.63917 75.6979 6.64073 76.6529C7.87406 77.829 9.05909 79.0622 10.2557 80.2757C11.2944 81.329 12.3671 82.3676 13.3205 83.4996C9.9709 82.0688 7.29598 81.6555 3.74879 82.7466C3.43962 82.4228 3.2391 81.5622 3.07985 81.1326C1.90201 77.9551 0.182586 72.8286 0 69.5044Z" fill="#106EB2"/>
<path d="M66.3036 13.3906C65.88 11.8823 65.8799 10.4615 66.659 9.06554C66.7053 8.9829 66.7536 8.90146 66.804 8.82123C66.8544 8.7409 66.9067 8.66193 66.961 8.58432C67.0154 8.5067 67.0716 8.4305 67.1297 8.35571C67.1877 8.28081 67.2477 8.20748 67.3095 8.1357C67.3713 8.06383 67.4348 7.99356 67.5001 7.92491C67.5654 7.85625 67.6324 7.78926 67.701 7.72393C67.7697 7.6586 67.8399 7.59508 67.9117 7.53337C67.9835 7.47156 68.0568 7.41157 68.1317 7.35338C68.2065 7.2952 68.2827 7.23898 68.3603 7.18472C68.4379 7.13036 68.5168 7.07796 68.5971 7.02753C68.6773 6.9772 68.7587 6.92888 68.8414 6.88257C68.924 6.83616 69.0078 6.79192 69.0926 6.74984C69.1775 6.70767 69.2634 6.66765 69.3502 6.6298C69.4371 6.59195 69.5248 6.55632 69.6134 6.5229C69.7021 6.48937 69.7916 6.45812 69.8818 6.42913C69.9719 6.40013 70.0628 6.37341 70.1543 6.34895C70.2443 6.32509 70.3348 6.30345 70.4258 6.28402C70.5169 6.26459 70.6084 6.24743 70.7002 6.23253C70.7921 6.21753 70.8843 6.20489 70.9768 6.19463C71.0693 6.18426 71.162 6.17615 71.2549 6.17032C71.3478 6.16458 71.4409 6.1611 71.534 6.1599C71.6271 6.15869 71.7201 6.1598 71.8132 6.16322C71.9062 6.16664 71.9991 6.17233 72.0919 6.18028C72.1846 6.18823 72.2771 6.1985 72.3693 6.21109C72.4616 6.22367 72.5535 6.23852 72.645 6.25563C72.7365 6.27264 72.8275 6.29197 72.918 6.31361C73.0086 6.33516 73.0986 6.35896 73.188 6.38503C73.2774 6.41101 73.3661 6.43919 73.4541 6.46959C73.542 6.49999 73.6292 6.53256 73.7156 6.56729C73.802 6.60202 73.8874 6.63881 73.972 6.67767C74.0565 6.71663 74.1401 6.75765 74.2226 6.80073C74.3052 6.84372 74.3866 6.88876 74.4669 6.93587C75.7139 7.67667 76.6194 8.96151 76.9605 10.3653C77.2243 11.4515 77.068 12.3584 76.8212 13.4338C77.9628 13.3045 79.1675 13.3746 80.3184 13.374L86.5235 13.3729L86.5098 14.2389C89.2123 13.5129 92.7061 13.8546 95.1671 15.2353C95.2513 15.2826 95.3302 15.3393 95.406 15.3991C95.7505 15.3959 96.0951 15.3898 96.4395 15.3809C97.3161 15.4949 98.08 15.7623 98.6418 16.4896C99.6147 17.749 99.2215 19.9034 99.2502 21.3998L99.3009 42.7418C99.2645 48.6582 99.0818 54.5956 99.257 60.5102C99.7236 59.7579 100.328 50.0726 100.928 47.8911C101.001 49.3954 101.56 51.1433 101.834 52.6673C102.516 56.485 103.171 60.3071 103.801 64.1338C103.888 64.6582 104.019 66.1126 104.194 66.5344L104.408 66.6008C104.532 67.5098 104.632 68.4318 104.792 69.3346C104.802 69.6067 104.823 69.8616 104.87 70.1298C105.676 74.5025 106.082 78.9518 106.53 83.3718C107.89 81.9114 109.142 80.3144 110.428 78.7875C110.906 78.2204 111.454 77.4063 112.046 76.9755C112.091 77.0356 112.133 77.5373 112.149 77.6384C112.371 75.4388 110.095 65.3117 109.061 63.1499L108.917 62.6371C108.752 62.1634 108.124 61.3292 108.18 60.868C109.526 58.4437 110.871 56.0595 112.451 53.7767C117.906 45.8978 125.026 40.3032 132.826 34.9319C133.002 37.3218 133.135 39.7141 133.225 42.1087C133.316 44.5034 133.363 46.8989 133.368 49.2953C133.373 51.6916 133.336 54.0873 133.255 56.4823C133.175 58.8773 133.052 61.2701 132.887 63.6607C132.743 65.6879 132.569 67.7124 132.363 69.7343C132.251 70.8123 132.079 71.9063 132.016 72.9869C132.007 73.1334 132.02 73.2495 132.083 73.3835C131.187 73.8025 130.247 74.1191 129.349 74.5395C127.631 75.3446 126.07 76.3524 124.504 77.4198C124.21 77.62 123.437 78.0473 123.31 78.3777C123.303 78.3973 123.301 78.4188 123.297 78.4393L123.364 78.5298C123.246 78.6217 123.13 78.6939 123.053 78.8238L122.96 78.6725C122.5 78.7985 121.931 79.392 121.571 79.7059C121.276 79.9582 120.986 80.2168 120.702 80.4819C120.418 80.7469 120.141 81.0181 119.869 81.2954C119.597 81.5727 119.331 81.8558 119.072 82.1448C118.812 82.4337 118.559 82.7283 118.313 83.0284C118.066 83.3285 117.826 83.6338 117.593 83.9444C117.36 84.255 117.134 84.5707 116.915 84.8913C116.696 85.2119 116.484 85.5372 116.279 85.867C116.074 86.1969 115.877 86.5312 115.687 86.8698C115.256 87.6131 114.859 88.374 114.495 89.1525C114.262 89.6619 114.074 90.2214 113.805 90.7097C113.224 92.9446 112.574 95.191 112.26 97.4827L112.195 97.0194C112.172 97.269 112.123 97.4961 112.061 97.7386C111.868 97.809 111.83 97.8455 111.636 97.7904C111.506 97.6193 111.476 97.4572 111.502 97.2483C111.517 97.1239 111.527 97.0474 111.519 96.9255L111.509 96.7919C111.324 97.448 111.119 98.105 110.968 98.7696C110.23 101.426 109.583 104.09 109.228 106.829L109.19 106.714C108.81 105.559 107.739 100.552 106.854 99.9447C106.782 99.8958 106.7 99.8718 106.62 99.8434C106.262 100.3 106.419 101.666 106.472 102.243C106.274 102.181 106.152 102.133 105.946 102.203C105.898 102.287 105.864 102.352 105.834 102.445C105.809 102.25 105.753 102.15 105.656 101.984C105.168 101.219 104.381 100.503 103.765 99.8278C102.55 98.4886 101.328 97.1554 100.099 95.8284C100.874 94.2905 101.465 92.6657 102.088 91.0624C102.041 90.7749 101.96 90.5893 101.775 90.3651C101.028 92.0579 100.323 93.7676 99.6585 95.4943C98.608 94.375 96.6724 92.3045 95.9122 91.0645C96.0501 89.4579 96.1155 87.8444 96.2068 86.2346C96.2758 85.018 96.403 83.7858 96.3681 82.5679L96.6811 82.8309L96.684 18.6379C96.5741 18.4706 96.4634 18.2926 96.3186 18.1527C96.162 18.0014 96.0137 17.9477 95.8016 17.9222C94.8186 17.8036 93.7243 17.8912 92.7292 17.8929L86.5504 17.9077L86.5661 18.3468C87.2462 18.3598 87.9533 18.3336 88.628 18.4165C88.6924 20.123 88.6484 21.8399 88.6417 23.5479L54.6275 23.5662L54.629 18.4265L56.5974 18.3984L56.6124 17.9173L46.3118 17.9087L46.31 34.1775C46.3047 36.8995 46.197 39.6554 46.2902 42.3732C46.2958 42.5324 46.3041 42.661 46.3827 42.8025C45.6851 42.9336 44.9629 43.0347 44.281 43.2307L44.2819 25.158C44.2745 23.6041 44.2573 22.0504 44.2306 20.4968C44.2162 19.4942 44.1299 18.4185 44.283 17.4254C44.3607 16.9203 44.6221 16.5233 44.9768 16.1606C45.304 15.8259 45.6265 15.6495 46.0827 15.5566C47.3393 15.3005 48.8236 15.463 50.1051 15.4701L56.6045 15.4783C56.5401 14.7742 56.5841 14.0328 56.5817 13.324C57.5617 13.3817 65.9484 13.4997 66.3036 13.3906Z" fill="#106EB2"/>
<path d="M86.5099 14.2388C89.2124 13.5128 92.7062 13.8545 95.1672 15.2352C95.2514 15.2825 95.3303 15.3393 95.4061 15.3991L90.765 15.4474L86.5141 15.4232L86.5099 14.2388Z" fill="#FDFEFE"/>
<path d="M99.2625 64.5793L99.2991 64.3943C99.6811 64.466 103.948 68.2924 104.484 68.8557C104.396 68.0807 104.28 67.309 104.194 66.5342L104.408 66.6007C104.532 67.5097 104.632 68.4317 104.792 69.3345C104.802 69.6066 104.823 69.8615 104.871 70.1296C105.676 74.5024 106.082 78.9517 106.53 83.3717C107.89 81.9112 109.142 80.3143 110.428 78.7874C110.906 78.2202 111.454 77.4062 112.046 76.9754C112.091 77.0355 112.133 77.5371 112.149 77.6383L112.14 77.9699C110.922 79.164 109.823 80.4556 108.701 81.7388C108.032 82.5047 107.35 83.372 106.557 84.0095C106.789 84.9881 106.773 86.1126 106.84 87.1167C107.086 90.7958 107.25 94.4866 107.033 98.1719L106.873 98.2299C106.762 96.635 106.975 95.0183 106.932 93.4185C106.814 89.6696 106.551 85.9309 106.144 82.2025C105.265 81.6148 104.473 80.8376 103.673 80.1462C102.156 78.8337 100.622 77.477 99.0383 76.2481L99.0098 75.8765C100.215 76.6206 101.32 77.6996 102.393 78.6217C103.639 79.6913 104.928 80.7339 106.108 81.8751C105.728 77.6904 105.289 73.4187 104.495 69.2914C103.554 68.4969 102.638 67.6699 101.713 66.8559C100.879 66.1211 100.009 65.4051 99.2625 64.5793Z" fill="#00E5BC"/>
<path d="M69.1203 13.7453C68.8617 13.4031 68.6568 13.0459 68.528 12.6346C68.2815 11.8476 68.3416 11.0046 68.7353 10.2751C68.761 10.2276 68.7878 10.1808 68.8159 10.1347C68.844 10.0886 68.8733 10.0433 68.9037 9.9986C68.934 9.95401 68.9655 9.91022 68.9982 9.86724C69.0308 9.82425 69.0645 9.78212 69.0992 9.74085C69.134 9.69958 69.1699 9.65926 69.2067 9.6199C69.2436 9.58044 69.2814 9.54194 69.3201 9.50439C69.359 9.46694 69.3987 9.4305 69.4394 9.39507C69.4801 9.35953 69.5216 9.3251 69.5641 9.29178C69.6065 9.25846 69.6497 9.22625 69.6938 9.19514C69.7379 9.16394 69.7828 9.13394 69.8284 9.10515C69.8741 9.07636 69.9204 9.04873 69.9674 9.02225C70.0144 8.99578 70.0621 8.97051 70.1104 8.94645C70.1588 8.92239 70.2077 8.89964 70.2572 8.8782C70.3067 8.85666 70.3568 8.83637 70.4073 8.81735C70.4578 8.79842 70.5088 8.78081 70.5603 8.7645C70.6117 8.74809 70.6635 8.73304 70.7156 8.71935C71.5457 8.49935 72.4936 8.58708 73.2344 9.0369C73.9742 9.48612 74.4608 10.269 74.6523 11.1025C74.8673 12.039 74.5946 12.804 74.1119 13.5928C73.3998 14.2685 72.5173 14.7417 71.5084 14.6995C70.632 14.6628 69.8065 14.2697 69.1203 13.7453Z" fill="#00E5BC"/>
<path d="M56.6006 19.8049L86.5777 19.8382L86.592 21.0043C81.2516 20.9365 75.9049 20.9848 70.5636 20.9906C65.9117 20.9955 61.2545 20.9478 56.6035 21.0245L56.6006 19.8049Z" fill="#040C38"/>
<path d="M106.969 98.5209C107.051 98.4726 107.132 98.4232 107.21 98.3673C107.823 97.927 108.322 97.0126 108.695 96.3734C111.051 92.3309 111.754 88.1507 112.089 83.5399C112.175 82.356 112.007 80.6044 112.187 79.5621C112.196 79.5113 112.206 79.4607 112.216 79.4102C112.652 80.4434 113.077 81.4806 113.39 82.5594C113.607 83.3053 113.727 84.1575 114.031 84.8666C114.187 85.838 113.072 89.5519 112.813 90.6876C112.503 92.0503 112.231 93.4211 111.93 94.7858C111.79 95.4203 111.54 96.1469 111.509 96.7918C111.324 97.4479 111.119 98.1049 110.968 98.7696C110.23 101.426 109.583 104.09 109.228 106.829L109.19 106.714C108.81 105.559 107.739 100.552 106.854 99.9446C106.782 99.8957 106.7 99.8717 106.62 99.8433L106.545 99.8157C106.613 99.3615 106.8 98.9447 106.969 98.5209Z" fill="#004B77"/>
<path d="M108.18 60.8678C109.526 58.4435 110.871 56.0592 112.451 53.7765C117.907 45.8976 125.026 40.3029 132.826 34.9316C133.002 37.3215 133.135 39.7138 133.225 42.1084C133.316 44.5031 133.364 46.8987 133.369 49.295C133.374 51.6913 133.336 54.087 133.256 56.482C133.175 58.8771 133.052 61.2699 132.887 63.6605C132.743 65.6877 132.569 67.7122 132.363 69.734C132.251 70.812 132.079 71.906 132.016 72.9867C132.007 73.1332 132.02 73.2493 132.083 73.3832C131.187 73.8022 130.247 74.1189 129.35 74.5392C127.631 75.3444 126.07 76.3521 124.504 77.4195C124.21 77.6197 123.437 78.0471 123.311 78.3774C123.303 78.3971 123.302 78.4185 123.297 78.4391L123.364 78.5295C123.247 78.6215 123.13 78.6936 123.054 78.8235L122.961 78.6722C122.5 78.7983 121.931 79.3917 121.571 79.7056C121.276 79.9579 120.986 80.2166 120.702 80.4816C120.418 80.7467 120.141 81.0178 119.869 81.2952C119.597 81.5724 119.331 81.8555 119.072 82.1445C118.812 82.4334 118.559 82.728 118.313 83.0282C118.066 83.3283 117.827 83.6336 117.593 83.9441C117.36 84.2548 117.134 84.5704 116.915 84.891C116.696 85.2117 116.484 85.5369 116.279 85.8668C116.074 86.1967 115.877 86.5309 115.687 86.8696C115.256 87.6129 114.859 88.3737 114.495 89.1522C114.262 89.6617 114.074 90.2211 113.805 90.7094C113.804 90.5042 113.82 90.3094 113.856 90.1074C114.111 88.6657 114.505 87.2395 114.852 85.8174C115.674 82.4586 116.58 79.1611 117.58 75.8519C118.064 74.2517 118.474 72.6308 118.974 71.0349C120.046 67.5826 121.248 64.176 122.58 60.8152C122.929 59.9157 123.618 57.5958 124.333 57.1014C125.309 56.0183 127.342 54.9977 128.678 54.4221C129.296 54.1556 130.531 53.8642 130.984 53.3952C131.082 53.2933 131.055 53.3399 131.054 53.191L130.946 53.1562C129.131 53.5412 125.31 55.5495 124.209 57.0066L124.099 57.0154C124.208 56.4542 124.54 55.8714 124.757 55.337C125.318 53.9207 125.898 52.5124 126.498 51.1121C127.344 49.0961 128.072 47.0226 128.958 45.0246C129.229 44.412 130.789 41.1212 130.8 40.6987C130.637 40.7496 130.638 40.7979 130.566 40.9447C130.521 41.0344 130.507 41.105 130.484 41.2011C130.353 41.7655 129.948 42.3203 129.702 42.8469C129.58 43.1089 129.524 43.3939 129.413 43.6598C129.177 44.2231 128.86 44.754 128.61 45.312C127.125 48.6276 125.586 51.9382 124.128 55.2692C122.974 57.9053 122.077 60.97 120.816 63.4941C120.545 60.4217 119.387 57.4368 117.864 54.7776C117.495 54.1339 117.144 53.4189 116.556 52.9461C116.507 52.907 116.478 52.8909 116.423 52.8549L116.339 52.8838C116.376 53.5635 117.781 55.4184 118.183 56.1684C119.123 57.9188 120.572 62.3708 120.444 64.3386C120.367 65.5303 119.241 68.2313 118.813 69.5445C118.218 71.373 117.709 73.229 117.084 75.0483L117.017 75.0946L116.9 74.654C116.774 71.4208 114.489 64.5074 112.173 62.3253L112.235 62.3883L112.073 62.409C112.4 63.5748 113.324 64.6261 113.853 65.716C115.48 69.0672 116.23 72.2199 116.626 75.9061C116.651 76.7313 114.6 84.0637 114.221 84.8368L114.115 84.8627C114.215 82.8748 113.238 80.5129 112.271 78.814C112.191 78.5324 112.165 78.2607 112.14 77.9698L112.149 77.6382C112.371 75.4386 110.095 65.3115 109.061 63.1496L108.917 62.6368C108.752 62.1632 108.124 61.3289 108.18 60.8678Z" fill="#004B77"/>
<path d="M122.564 46.4116C122.809 46.5664 122.843 46.6493 122.969 46.9102C123.86 48.7681 124.642 53.5063 123.945 55.4123C123.781 54.8329 123.935 53.9858 123.9 53.3611C123.769 51.0395 123.335 48.8308 122.45 46.6763L122.564 46.4116Z" fill="#106EB2"/>
<path d="M128.233 66.9691C128.434 66.9598 128.449 66.9168 128.611 67.0529C128.444 67.4186 127.252 67.8418 126.844 68.0369C124.142 69.3299 121.28 70.7688 119.199 72.9715L119.13 73.0846L119.069 73.078C119.079 73.0482 119.086 73.0177 119.098 72.9887C120.066 70.5713 125.836 68.0138 128.233 66.9691Z" fill="#106EB2"/>
<path d="M127.556 74.467C127.616 74.4903 127.665 74.5549 127.711 74.5998C127.702 74.9214 126.672 75.2158 126.369 75.3363C122.905 76.714 119.559 78.5183 117.284 81.5547L117.233 81.5671C117.274 81.3412 117.398 81.1514 117.514 80.9566C119.177 78.1503 124.325 75.2794 127.556 74.467Z" fill="#106EB2"/>
<path d="M38.244 113.37C38.5263 113.394 38.809 113.422 39.0918 113.437C39.2748 113.464 39.456 113.491 39.6377 113.526C39.7085 113.699 39.7059 113.833 39.7088 114.017C39.5125 114.175 39.4205 114.234 39.1721 114.273C38.8179 114.248 38.4689 114.301 38.1127 114.268C38.0039 114.199 37.9324 114.184 37.8819 114.057C37.8147 113.889 37.8017 113.629 37.8991 113.467C37.9548 113.375 38.1446 113.386 38.244 113.37Z" fill="#FDFEFE"/>
<path d="M48.8422 114.401C49.8557 114.501 50.8312 114.911 51.8139 115.149C52.2244 115.249 52.6658 115.28 53.0669 115.409C53.236 115.464 53.4727 115.547 53.5919 115.689C53.6166 115.718 53.6311 115.755 53.6508 115.788C53.5765 115.948 53.5781 115.946 53.4191 116.001C52.7715 116.226 49.7017 116.11 48.8081 116.088C48.6542 115.936 48.3882 115.583 48.1824 115.573C48.1396 115.723 48.1069 115.87 48.0796 116.024C47.8204 116.197 47.1767 116.119 46.8385 116.12L46.8518 114.559C47.5204 114.558 48.1902 114.569 48.8422 114.401Z" fill="#040C38"/>
<path d="M39.7088 114.017C40.8259 114.307 43.7975 114.904 44.6286 115.463C44.6768 115.654 44.715 115.734 44.6615 115.927C43.865 116.148 40.6099 116.007 39.575 116.017C39.4507 115.836 39.3129 115.542 39.1065 115.48C38.9796 115.628 38.9318 115.781 38.8691 115.961C38.6252 116.125 38.0073 116.028 37.7078 116.019C37.7449 115.45 37.7753 114.881 37.7988 114.312C38.2541 114.314 38.7211 114.34 39.1721 114.273C39.4205 114.234 39.5125 114.175 39.7088 114.017Z" fill="#040C38"/>
<path d="M50.3727 88.9342L84.7411 88.812C85.4161 88.8668 86.0928 88.873 86.7696 88.8857C87.0894 89.5323 87.3756 90.181 87.6477 90.8485C87.3014 90.8478 86.9529 90.838 86.607 90.8511C81.8174 90.826 77.0281 90.846 72.239 90.9109C70.7388 90.9177 69.2395 90.8425 67.7407 90.8518C61.9667 90.8878 56.1609 90.9352 50.3979 90.5281L50.3727 88.9342Z" fill="url(#paint1_linear_217_2198)"/>
<path d="M111.509 96.7917L111.519 96.9254C111.527 97.0472 111.517 97.1238 111.502 97.2482C111.476 97.457 111.506 97.6192 111.636 97.7903C111.83 97.8454 111.868 97.8089 112.061 97.7385C112.123 97.496 112.173 97.2689 112.195 97.0193L112.26 97.4826C112.188 97.9674 112.174 98.4597 112.103 98.9411C112.081 99.4786 112.074 100.016 112.083 100.554C112.142 101.387 112.229 102.226 112.236 103.061C112.229 103.381 112.175 103.742 112.32 104.035C112.528 104.147 112.644 104.107 112.876 104.073C112.881 104.072 112.885 104.07 112.889 104.068L113.536 104.054L114.674 104.047C112.871 106.173 112.073 108.974 111.86 111.705C111.845 112.022 111.838 112.341 111.814 112.656L107.962 112.66L104.971 112.68L104.906 111.399C104.923 110.1 104.569 108.72 104.75 107.436C104.086 106.288 103.408 105.165 102.646 104.079C104.838 105.292 105.578 106.734 107.065 108.593C107.107 107.413 105.351 103.568 104.755 102.473C105.079 102.468 105.402 102.461 105.726 102.452L105.834 102.445C105.865 102.352 105.898 102.287 105.947 102.203C106.152 102.132 106.275 102.181 106.472 102.243C106.419 101.666 106.262 100.3 106.62 99.8433C106.7 99.8716 106.783 99.8957 106.854 99.9446C107.739 100.552 108.81 105.559 109.19 106.714L109.229 106.829C109.583 104.09 110.23 101.426 110.968 98.7695C111.119 98.1048 111.324 97.4478 111.509 96.7917Z" fill="#00E5BC"/>
<path d="M105.834 102.445C105.865 102.352 105.898 102.287 105.947 102.203C106.152 102.132 106.274 102.181 106.472 102.243C106.598 103.271 106.797 104.288 106.917 105.317C107.068 106.612 107.111 107.954 107.415 109.223L107.065 108.593C107.107 107.413 105.351 103.568 104.755 102.473C105.079 102.468 105.402 102.461 105.726 102.452L105.834 102.445Z" fill="#004B77"/>
<path d="M39.9172 76.7861C40.4372 77.3391 40.8751 77.8994 41.1508 78.6176C41.6517 80.0232 42.0363 81.4835 42.4725 82.9112C43.0842 84.8558 43.7072 86.7969 44.3414 88.7343C44.8824 90.393 46.0224 92.9873 46.2662 94.5738C46.4194 95.5716 46.2375 96.6493 46.011 97.6219C45.9608 97.0025 46.0057 96.3074 45.8819 95.7066C45.7271 94.1531 45.0278 92.6998 44.6458 91.1903C44.1998 93.6926 43.561 96.1759 43.0342 98.6642C42.13 102.934 41.2743 107.222 40.2213 111.457C40.0766 112.063 39.9848 112.852 39.7157 113.404C39.5113 113.429 39.2898 113.408 39.0918 113.437C38.809 113.422 38.5263 113.394 38.244 113.37L37.9598 113.302C37.6912 112.841 37.8624 111.681 37.8622 111.129L37.9483 109.286C38.165 105.333 38.4011 101.358 38.4766 97.4003C38.6328 96.7891 38.5579 95.9657 38.5834 95.3268L38.7891 90.465C38.9034 88.094 39.0301 85.7237 39.1693 83.3539C39.2587 81.8006 39.4217 80.2145 39.3319 78.6599C39.079 78.2395 38.8434 77.8152 38.6165 77.3803C39.2236 77.2959 39.466 77.2119 39.9172 76.7861Z" fill="#040C38"/>
<path d="M39.917 76.7861C40.4371 77.3391 40.875 77.8994 41.1507 78.6176L40.3353 80.0274L39.3318 78.6599C39.0788 78.2395 38.8433 77.8152 38.6163 77.3803C39.2235 77.2959 39.4658 77.2119 39.917 76.7861Z" fill="#DF6663"/>
<path d="M38.7805 74.4073L38.8824 73.8933C40.3107 75.1072 44.1456 75.1605 46.0002 75.0558C46.1293 75.0486 46.0862 75.0519 46.2253 75.005C47.4439 74.9841 48.6666 74.7619 49.8508 74.4876L49.9498 74.5559C50.1014 75.4518 50.0356 76.4456 50.085 77.3613C50.1959 79.7494 50.2758 82.1385 50.3247 84.5287C50.3421 85.9876 50.281 87.4802 50.3726 88.9342L50.3978 90.5281C50.4456 95.4443 50.2479 100.351 49.8047 105.247C49.6561 107.091 49.5275 108.95 49.2995 110.786C49.1717 111.735 49.1444 112.703 48.9673 113.645C48.9292 113.897 48.8984 114.153 48.8422 114.401C48.1902 114.57 47.5204 114.558 46.8518 114.559C46.8391 114.224 46.8251 113.906 46.7598 113.576C46.4278 113.264 46.4856 111.409 46.4279 110.869C46.2535 108.851 46.2274 106.785 46.1373 104.759C46.0029 101.743 45.8332 98.7267 45.8818 95.7064C46.0056 96.3073 45.9608 97.0023 46.0109 97.6217C46.2374 96.6491 46.4193 95.5714 46.2661 94.5737C46.0224 92.9871 44.8823 90.3928 44.3413 88.7341C43.7071 86.7967 43.0842 84.8557 42.4724 82.911C42.0362 81.4834 41.6516 80.0231 41.1507 78.6174C40.875 77.8993 40.4371 77.3389 39.9171 76.786C39.5575 76.212 39.2948 75.5958 39.0177 74.9796C38.9151 74.8103 38.8533 74.5938 38.7805 74.4073Z" fill="#032C59"/>
<path d="M46.7599 113.576C47.496 113.593 48.2318 113.616 48.9673 113.645C48.9293 113.897 48.8985 114.153 48.8423 114.401C48.1903 114.57 47.5205 114.558 46.8518 114.559C46.8392 114.224 46.8251 113.906 46.7599 113.576Z" fill="#FDFEFE"/>
<path d="M38.7805 74.4073L38.8824 73.8933C40.3107 75.1072 44.1456 75.1605 46.0002 75.0558C46.1293 75.0486 46.0862 75.0519 46.2253 75.005C47.4439 74.9841 48.6666 74.7619 49.8508 74.4876L49.9498 74.5559C49.9059 75.0235 49.934 75.4702 49.9673 75.9372C46.9886 76.6895 43.7852 76.9392 40.8539 75.8487C40.2061 75.6077 39.6407 75.2594 39.0177 74.9796C38.9151 74.8103 38.8533 74.5938 38.7805 74.4073Z" fill="#040C38"/>
<path d="M86.5505 17.9076L92.7293 17.8928C93.7244 17.8912 94.8187 17.8036 95.8017 17.9221C96.0138 17.9476 96.1621 18.0014 96.3187 18.1527C96.4635 18.2925 96.5742 18.4705 96.6841 18.6378L96.6813 82.8309L96.3682 82.5678C96.4031 83.7858 96.276 85.0179 96.207 86.2345C96.1156 87.8443 96.0502 89.4579 95.9124 91.0645C96.6725 92.3045 98.6081 94.375 99.6586 95.4943C100.323 93.7676 101.028 92.0578 101.775 90.3651C101.96 90.5893 102.041 90.7749 102.088 91.0624C101.465 92.6656 100.874 94.2904 100.099 95.8283C101.328 97.1554 102.55 98.4885 103.765 99.8278C104.381 100.503 105.168 101.219 105.656 101.984C105.753 102.15 105.809 102.25 105.834 102.445L105.726 102.452C104.931 102.364 104.124 102.373 103.325 102.337C101.66 102.262 99.9896 102.056 98.3887 101.575C97.8566 101.415 97.2419 101.227 96.8167 100.862C98.3579 101.25 99.877 101.58 101.464 101.715C102.485 101.802 104.46 101.694 105.331 101.959C104.089 100.762 102.949 99.4462 101.76 98.1967C100.907 97.3011 99.8715 96.3995 99.149 95.4031C98.1637 95.4516 97.1539 95.3986 96.1666 95.3862C94.2717 95.3633 92.377 95.3297 90.4825 95.2853C90.3981 95.0501 90.184 94.8287 90.0292 94.6312C92.9131 94.7077 95.816 94.9903 98.7016 94.8799C96.5669 92.5915 94.7639 90.0042 92.9816 87.4422C92.8125 87.1949 92.6135 86.9744 92.4174 86.7487C90.3179 87.1672 88.2468 87.5739 86.1336 87.0209C86.3518 87.6134 86.5668 88.2071 86.7784 88.8019C86.1039 88.7966 85.4133 88.7603 84.7411 88.8122L50.3727 88.9344C50.281 87.4804 50.3422 85.9878 50.3248 84.5288C50.2759 82.1386 50.196 79.7495 50.085 77.3614C50.0357 76.4458 50.1015 75.4519 49.9499 74.556L49.8508 74.4878C48.6667 74.762 47.4439 74.9843 46.2254 75.0051C46.0863 75.0521 46.1293 75.0488 46.0002 75.056C44.1457 75.1606 40.3108 75.1073 38.8825 73.8935L38.7806 74.4075C38.8534 74.594 38.9151 74.8105 39.0178 74.9798C39.2949 75.596 39.5576 76.2122 39.9171 76.7861C39.466 77.212 39.2236 77.2959 38.6165 77.3803C38.1985 76.5918 37.5332 75.9026 36.9419 75.2386C35.7996 73.8568 32.6243 69.7756 32.1331 68.2468C31.5806 66.5272 33.8081 62.5618 34.6001 60.9435C35.7422 58.8888 36.6212 56.6628 37.9016 54.6869C38.1918 54.0489 38.5351 53.476 39.0865 53.0251C39.9573 52.3132 41.0388 52.1826 42.1194 52.3085L42.426 52.3694L43.0411 50.9538C42.2298 50.3253 41.7583 49.2426 41.4428 48.2908C41.1783 47.4923 40.4378 45.0846 40.9379 44.339C41.2849 43.8217 43.6216 43.375 44.2811 43.2307C44.963 43.0347 45.6853 42.9335 46.3829 42.8024C46.3042 42.661 46.2959 42.5323 46.2903 42.3732C46.1971 39.6554 46.3048 36.8995 46.3101 34.1775L46.3119 17.9087L56.6125 17.9173L56.5976 18.3984L54.6291 18.4264L54.6276 23.5661L88.6418 23.5478C88.6485 21.8399 88.6926 20.1229 88.6281 18.4165C87.9534 18.3336 87.2463 18.3597 86.5662 18.3467L86.5505 17.9076Z" fill="#00E5BC"/>
<path d="M61.3107 56.155C61.9444 55.6214 62.552 55.0665 63.1575 54.5015C62.8595 55.0512 62.5297 55.837 62.1042 56.2864C61.8041 56.2837 61.587 56.278 61.3107 56.155Z" fill="#106EB2"/>
<path d="M54.2682 64.405C54.7348 63.4712 60.542 56.8216 61.3106 56.1548C61.5869 56.2777 61.804 56.2834 62.1041 56.2862C61.4555 57.2524 60.4959 57.9218 59.8528 58.8474C58.0721 60.7312 56.2928 62.7812 54.2682 64.405Z" fill="#032C59"/>
<path d="M45.1376 45.5462C45.7495 45.3568 46.3666 45.2019 46.9692 44.9822C47.1379 45.9806 48.1547 49.3611 47.6323 50.1086C47.3981 50.4438 46.9668 50.6154 46.5976 50.7559L46.5037 50.888C46.411 50.5964 45.7199 50.3175 45.4694 50.061C45.1458 49.7295 45.104 49.3718 45.1126 48.9274C45.5884 47.9192 45.3007 46.6045 45.1376 45.5462Z" fill="#F7B098"/>
<path d="M92.8425 79.6008C93.9487 80.4081 94.9726 81.2757 95.9898 82.1921C95.8151 83.2523 95.805 84.3737 95.7458 85.4469C95.641 87.1396 95.5625 88.8336 95.5105 90.5288C94.7554 89.5249 94.0558 88.4756 93.3413 87.4423L93.0672 87.0243C93.0865 86.0386 93.0098 85.0368 92.9745 84.0506L92.8425 79.6008Z" fill="#106EB2"/>
<path d="M46.3827 42.8022C47.1786 42.6022 47.9871 42.3553 48.7976 42.2288C48.6669 43.0887 48.5512 43.9601 47.8118 44.5301C47.5699 44.7167 47.2516 44.8653 46.9692 44.982C46.3666 45.2017 45.7494 45.3567 45.1376 45.546C45.3007 46.6044 45.5883 47.9191 45.1125 48.9273C44.7797 48.982 44.7128 48.9124 44.4326 48.7289L44.3249 48.7798C44.3183 48.8024 44.3119 48.8251 44.3047 48.8474C44.0626 49.5953 43.5165 50.3333 43.041 50.9536C42.2297 50.3251 41.7581 49.2424 41.4427 48.2906C41.1781 47.4921 40.4376 45.0844 40.9378 44.3388C41.2847 43.8215 43.6214 43.3748 44.281 43.2305C44.9629 43.0345 45.6851 42.9333 46.3827 42.8022Z" fill="#032C59"/>
<path d="M43.6068 46.4079C43.8133 46.4059 43.9831 46.4239 44.1511 46.5569C44.5261 46.8537 44.7737 47.6056 44.7772 48.0741C44.779 48.3426 44.6855 48.3719 44.5051 48.5337C44.4303 48.4614 44.3696 48.412 44.2704 48.3764C44.1504 48.3332 44.0335 48.3006 43.9273 48.2265C43.6355 48.0228 43.315 47.6632 43.2799 47.298C43.2445 46.9314 43.38 46.6821 43.6068 46.4079Z" fill="#F7B098"/>
<path d="M82.9943 74.5032C86.2501 75.6414 89.6024 77.1647 92.3715 79.2433C92.4011 80.88 92.4517 82.516 92.5234 84.1513C92.5559 84.8805 92.6856 85.7262 92.6244 86.4489C91.7888 85.5669 91.1915 84.2566 90.5896 83.2047C89.2693 80.8978 87.3299 78.139 85.1664 76.5702C86.1737 77.8144 87.2938 78.9254 88.2274 80.236C89.6549 82.2397 90.7809 84.4201 92.1305 86.4691C90.1034 86.7809 88.149 87.0911 86.0952 86.8054C85.4585 85.9914 84.3147 79.4985 83.9625 78.0033C83.6801 76.8254 83.3574 75.6587 82.9943 74.5032Z" fill="#106EB2"/>
<path d="M43.0411 50.9537C43.5166 50.3334 44.0628 49.5954 44.3048 48.8475C44.3121 48.8252 44.3184 48.8025 44.3251 48.7799L44.4327 48.729C44.713 48.9125 44.7799 48.9821 45.1127 48.9274C45.1041 49.3718 45.1459 49.7295 45.4695 50.061C45.72 50.3175 46.4111 50.5964 46.5038 50.888C46.5918 51.8208 46.3904 52.7582 46.3811 53.6921C46.9452 53.8786 47.3918 54.2765 47.7782 54.7159C48.7372 55.8066 49.4797 57.2146 50.267 58.4391C51.1416 59.7988 52.0802 61.1249 52.9194 62.5054C53.1047 62.8103 53.9033 64.3121 54.1491 64.4639C54.1737 64.4791 54.207 64.4618 54.236 64.4607L54.2683 64.4051C56.2928 62.7813 58.0722 60.7314 59.8529 58.8475C60.1158 59.5586 59.9896 59.9205 59.685 60.5843C58.9918 62.0949 54.9697 69.0642 53.8015 69.547C53.6437 69.6121 53.5734 69.6079 53.4234 69.5326C52.5297 69.0829 50.7296 65.8678 50.2854 64.8824C50.1193 65.2417 50.2464 65.9331 50.2475 66.3405C50.3062 67.6757 50.3891 73.571 49.9056 74.4487L49.8508 74.4877C48.6667 74.7619 47.4439 74.9842 46.2254 75.005C46.0863 75.052 46.1293 75.0487 46.0002 75.0559C44.1457 75.1605 40.3108 75.1072 38.8825 73.8934L38.7806 74.4074C38.8534 74.5939 38.9151 74.8104 39.0178 74.9796C39.2949 75.5959 39.5576 76.2121 39.9171 76.786C39.466 77.2118 39.2236 77.2958 38.6165 77.3802C38.1985 76.5917 37.5332 75.9025 36.9419 75.2385C35.7996 73.8567 32.6243 69.7755 32.1331 68.2467C31.5806 66.5271 33.8081 62.5617 34.6001 60.9434C35.7422 58.8887 36.6212 56.6627 37.9016 54.6868C38.1918 54.0488 38.5351 53.4759 39.0865 53.025C39.9573 52.3131 41.0388 52.1825 42.1194 52.3084L42.426 52.3693L43.0411 50.9537Z" fill="#FDFEFE"/>
<path d="M50.2474 66.3407C49.7528 65.1794 49.1676 64.059 48.6875 62.8883C48.3865 62.1546 48.2129 61.337 47.8425 60.6394C47.6699 60.3143 47.5659 59.997 47.4655 59.6443C47.6832 59.7482 47.9748 60.4943 48.0904 60.7313C48.4673 61.5035 48.8235 62.2958 49.2421 63.046C49.5785 63.649 50.014 64.2512 50.2853 64.8827C50.1192 65.2419 50.2464 65.9333 50.2474 66.3407Z" fill="#D9F4FD"/>
<path d="M43.0411 50.9537C43.5166 50.3334 44.0627 49.5954 44.3048 48.8475C44.312 48.8252 44.3184 48.8025 44.325 48.7799L44.4327 48.729C44.7129 48.9125 44.7798 48.9821 45.1126 48.9274C45.104 49.3718 45.1458 49.7295 45.4694 50.061C45.7199 50.3175 46.411 50.5964 46.5037 50.888C46.5918 51.8208 46.3903 52.7582 46.381 53.6921C45.069 53.2145 43.7757 52.7317 42.4259 52.3693L43.0411 50.9537Z" fill="#DF6663"/>
<path d="M37.9016 54.6869C38.1918 54.0489 38.5351 53.4761 39.0865 53.0252C39.9573 52.3132 41.0388 52.1826 42.1194 52.3085C41.8933 52.3253 41.6864 52.2939 41.5164 52.4721C40.982 53.0324 41.9689 58.4066 42.1338 59.432C42.6534 62.6646 43.351 65.84 44.077 69.0315C44.5174 70.967 44.9303 73.0789 45.6203 74.9405C45.781 75.0202 45.901 75.0023 46.0733 74.9937C46.174 74.9887 46.1306 74.9858 46.2254 75.0051C46.0863 75.0521 46.1293 75.0488 46.0002 75.056C44.1457 75.1607 40.3108 75.1074 38.8825 73.8935L38.7806 74.4075C38.8534 74.594 38.9151 74.8105 39.0178 74.9798C39.2949 75.596 39.5576 76.2122 39.9171 76.7862C39.466 77.212 39.2236 77.2959 38.6165 77.3803C38.1985 76.5918 37.5332 75.9027 36.9419 75.2386C35.7996 73.8568 32.6243 69.7756 32.1331 68.2468C31.5806 66.5272 33.8081 62.5619 34.6001 60.9435C35.7422 58.8889 36.6212 56.6629 37.9016 54.6869Z" fill="#D9F4FD"/>
<path d="M37.9016 54.6868C37.941 55.719 37.8879 56.7532 37.9092 57.7866C37.9603 59.7041 38.0478 61.6199 38.1718 63.534C38.1183 65.9017 38.495 69.0592 38.6903 71.489C38.7534 72.2753 38.8985 73.1098 38.8825 73.8934L38.7806 74.4074C38.8534 74.5939 38.9151 74.8104 39.0178 74.9797C39.2949 75.5959 39.5576 76.2121 39.9171 76.786C39.466 77.2119 39.2236 77.2958 38.6165 77.3802C38.1985 76.5917 37.5332 75.9025 36.9419 75.2385C35.7996 73.8567 32.6243 69.7755 32.1331 68.2467C31.5806 66.5271 33.8081 62.5617 34.6001 60.9434C35.7422 58.8887 36.6212 56.6627 37.9016 54.6868Z" fill="url(#paint2_linear_217_2198)"/>
<path d="M35.4854 67.6658C36.3312 66.1575 37.1427 64.5952 38.0455 63.1245L38.1718 63.534C38.1183 65.9017 38.495 69.0592 38.6903 71.489C38.7534 72.2753 38.8985 73.1098 38.8825 73.8934L38.7806 74.4074C38.2528 73.6566 37.9049 72.6414 37.5149 71.802C36.8794 70.4032 36.2029 69.0244 35.4854 67.6658Z" fill="#00E5BC"/>
<path d="M70.7622 31.0015C73.4142 30.7353 76.4243 31.8492 78.4971 33.4599C80.6858 35.1609 82.2581 37.8734 82.5874 40.6308C82.6111 40.8162 82.6301 41.0021 82.6445 41.1886C82.6589 41.375 82.6686 41.5617 82.6736 41.7486C82.6788 41.9354 82.6792 42.1223 82.675 42.3093C82.6708 42.4962 82.6619 42.6829 82.6484 42.8693C82.6348 43.0558 82.6167 43.2419 82.5939 43.4274C82.5712 43.6129 82.5438 43.7978 82.5118 43.982C82.4798 44.1662 82.4432 44.3495 82.402 44.5319C82.3608 44.7144 82.3152 44.8956 82.265 45.0757C82.2149 45.2558 82.1603 45.4345 82.1012 45.6119C82.0421 45.7893 81.9787 45.9651 81.9108 46.1393C81.8431 46.3136 81.7709 46.486 81.6944 46.6566C81.618 46.8273 81.5374 46.9959 81.4527 47.1625C81.3678 47.3291 81.2789 47.4935 81.1859 47.6556C81.0929 47.8179 80.9959 47.9777 80.8949 48.1351C80.7939 48.2924 80.6891 48.4471 80.5804 48.5992C80.4716 48.7513 80.3593 48.9007 80.2432 49.0472C78.1677 51.6702 75.3489 52.9348 72.0843 53.3081C69.0518 53.4064 66.3603 52.676 64.0195 50.6887C61.7152 48.7324 60.3711 46.1064 60.1492 43.0822C59.9265 40.0502 61.0118 36.9377 63.0091 34.6535C64.9823 32.3972 67.8114 31.21 70.7622 31.0015Z" fill="#D9F4FD"/>
<path d="M70.3323 32.5082C70.3465 32.5064 70.3606 32.504 70.3749 32.5028C72.9633 32.298 75.5141 32.9677 77.5333 34.6394C77.6599 34.7459 77.7839 34.8554 77.9052 34.968C78.0264 35.0804 78.1448 35.1958 78.2605 35.3141C78.3761 35.4324 78.4889 35.5534 78.5987 35.6772C78.7084 35.801 78.8151 35.9274 78.9187 36.0564C79.0222 36.1853 79.1227 36.3167 79.2199 36.4506C79.3171 36.5845 79.411 36.7207 79.5015 36.8591C79.5921 36.9976 79.6792 37.1382 79.7629 37.2808C79.8466 37.4236 79.9269 37.5682 80.0036 37.7148C80.0802 37.8614 80.1532 38.0097 80.2227 38.1599C80.2921 38.31 80.3579 38.4618 80.4199 38.6152C80.482 38.7685 80.5403 38.9233 80.5947 39.0795C80.6493 39.2357 80.7 39.3932 80.7468 39.5518C80.7936 39.7105 80.8365 39.8702 80.8756 40.0309C80.9146 40.1917 80.9498 40.3533 80.981 40.5158C81.0121 40.6783 81.0393 40.8414 81.0625 41.0052C81.0858 41.1691 81.105 41.3333 81.1202 41.498C81.3423 44.0286 80.6665 46.4929 79.0203 48.4503C77.3688 50.4137 74.9226 51.7325 72.3625 51.9605C69.8304 52.2707 67.3445 51.5596 65.3192 50.0253C65.1905 49.9296 65.0643 49.8307 64.9405 49.7288C64.8168 49.6267 64.6957 49.5216 64.5772 49.4136C64.4587 49.3055 64.3429 49.1945 64.2299 49.0807C64.117 48.9668 64.0069 48.8503 63.8998 48.731C63.7926 48.6116 63.6885 48.4896 63.5874 48.3651C63.4863 48.2406 63.3884 48.1136 63.2937 47.9843C63.199 47.8548 63.1075 47.7231 63.0194 47.5891C62.9312 47.4551 62.8464 47.319 62.7651 47.1808C62.6837 47.0426 62.6059 46.9025 62.5315 46.7605C62.4571 46.6183 62.3863 46.4745 62.319 46.3289C62.2519 46.1832 62.1884 46.036 62.1285 45.8872C62.0687 45.7384 62.0126 45.5883 61.9603 45.4367C61.9078 45.2851 61.8592 45.1322 61.8145 44.9782C61.7698 44.8242 61.729 44.6692 61.6919 44.5132C61.655 44.357 61.6219 44.2001 61.5927 44.0425C61.5635 43.8848 61.5383 43.7264 61.5171 43.5675C61.1791 41.0783 61.9456 38.2643 63.469 36.2702C65.1631 34.0528 67.6082 32.881 70.3323 32.5082Z" fill="#1AEB86"/>
<path d="M77.2909 37.4724C77.7571 37.4246 78.0875 37.4648 78.4549 37.7745C78.7092 37.9886 78.8987 38.281 78.9037 38.6221C78.9077 38.9019 78.7847 39.1714 78.6193 39.3911C77.7523 40.5434 76.5369 41.5581 75.5121 42.5796L70.4606 47.6851C70.1337 48.0128 69.7518 48.3913 69.2549 48.3747C68.4762 48.3487 66.031 45.4233 65.3522 44.6984C64.8357 44.1859 63.7966 43.3841 63.7817 42.6102C63.7751 42.2643 63.9294 41.9312 64.1698 41.6872C64.4026 41.4505 64.7197 41.2967 65.0558 41.3073C65.2964 41.315 65.5017 41.3969 65.6959 41.5356C66.1836 41.8835 66.6007 42.3901 67.0257 42.8139L69.4329 45.2096C71.0095 43.5346 72.6818 41.9484 74.3091 40.3229C75.2312 39.4015 76.1958 38.1654 77.2909 37.4724Z" fill="#D9F4FD"/>
<path d="M27.9416 5.71576C28.0202 5.40591 28.0993 5.09501 28.2041 4.79271C28.2416 4.68259 28.2818 4.57352 28.3248 4.4655C28.3677 4.35739 28.4133 4.25043 28.4616 4.14463C28.5098 4.03883 28.5607 3.93429 28.6143 3.83101C28.6677 3.72773 28.7237 3.62585 28.7823 3.52539C28.8409 3.42493 28.9019 3.32597 28.9655 3.22853C29.029 3.13119 29.0949 3.03545 29.1633 2.94133C29.2316 2.84721 29.3022 2.75485 29.3751 2.66425C29.4481 2.57365 29.5233 2.48492 29.6006 2.39804C29.678 2.31127 29.7575 2.22646 29.839 2.14361C29.9206 2.06076 30.0043 1.97998 30.09 1.90126C30.1755 1.82254 30.263 1.74603 30.3525 1.67174C30.442 1.59745 30.5333 1.52543 30.6263 1.45567C30.7194 1.3859 30.8141 1.31851 30.9105 1.25348C31.0069 1.18845 31.1049 1.12589 31.2045 1.06579C31.304 1.00569 31.405 0.948112 31.5075 0.893048C31.6099 0.837984 31.7136 0.785488 31.8187 0.735558C31.9265 0.683313 32.0356 0.633785 32.1458 0.586976C32.256 0.540066 32.3673 0.495874 32.4798 0.4544C32.5922 0.413027 32.7056 0.374372 32.8198 0.338434C32.9341 0.302497 33.0492 0.269377 33.1652 0.239077C33.281 0.208777 33.3976 0.181346 33.5149 0.156784C33.6321 0.132221 33.7498 0.110528 33.8682 0.0917037C33.9865 0.0727786 34.1052 0.056823 34.2243 0.0438372C34.3434 0.0307508 34.4627 0.0205842 34.5823 0.0133363C34.7019 0.0061891 34.8216 0.00191097 34.9414 0.000501657C35.0611 -0.000907654 35.1809 0.000652388 35.3006 0.00518232C35.4203 0.00961158 35.5398 0.0170098 35.6592 0.0273783C35.7785 0.0376461 35.8975 0.0508334 36.0163 0.0669398C36.135 0.0830463 36.2532 0.102072 36.371 0.124017C36.4888 0.145861 36.606 0.170625 36.7225 0.198308C36.8391 0.22589 36.9549 0.256341 37.07 0.289661C37.185 0.322881 37.2992 0.358919 37.4126 0.397776C39.5108 1.13751 40.915 2.57743 41.8647 4.54991C42.2561 4.37974 42.6453 4.25063 43.053 4.12742C45.3338 4.09782 46.2156 4.66588 47.824 6.19986C48.9783 5.54906 50.181 5.33102 51.477 5.69689C52.9969 6.12617 54.1107 7.12185 54.9309 8.44293C53.2643 8.58457 51.5413 8.50001 49.8675 8.49865L40.9406 8.48219C39.594 8.47721 38.1723 8.38721 36.8338 8.50001C34.9524 8.38691 33.0078 8.47932 31.1201 8.47283L19.1927 8.44489C19.9787 6.99184 20.9188 5.93139 22.499 5.33676C24.3987 4.62209 26.1432 4.88829 27.9416 5.71576Z" fill="#FDFEFE"/>
<path d="M99.6741 10.4918C102.23 8.06725 105.743 6.63443 109.284 6.72714C109.389 6.73087 109.494 6.7359 109.599 6.74224C109.705 6.74848 109.81 6.75603 109.915 6.76489C110.02 6.77375 110.125 6.78387 110.23 6.79524C110.335 6.80662 110.439 6.81925 110.544 6.83314C110.648 6.84713 110.753 6.86233 110.857 6.87874C110.961 6.89515 111.065 6.91282 111.168 6.93174C111.272 6.95077 111.376 6.971 111.479 6.99244C111.582 7.01389 111.685 7.03658 111.788 7.06054C111.89 7.0845 111.993 7.10967 112.095 7.13604C112.197 7.16252 112.299 7.19015 112.4 7.21894C112.501 7.24783 112.602 7.27793 112.703 7.30924C112.804 7.34064 112.904 7.37321 113.004 7.40693C113.104 7.44066 113.203 7.47559 113.302 7.51173C113.401 7.54786 113.5 7.58521 113.598 7.62377C113.696 7.66232 113.794 7.70203 113.891 7.7429C113.988 7.78387 114.085 7.82595 114.181 7.86914C114.277 7.91242 114.373 7.95682 114.468 8.00232C114.563 8.04792 114.657 8.09463 114.751 8.14244C114.845 8.19026 114.939 8.23923 115.031 8.28936C115.124 8.33949 115.216 8.39068 115.308 8.44293C115.399 8.49527 115.49 8.54873 115.581 8.60329C115.671 8.65775 115.76 8.71336 115.849 8.77014C115.938 8.82681 116.026 8.88455 116.114 8.94333C116.201 9.00212 116.288 9.06202 116.374 9.12302C116.46 9.18392 116.545 9.24588 116.63 9.3089C116.715 9.37181 116.798 9.43579 116.881 9.50082C116.964 9.56585 117.047 9.63183 117.128 9.69877C117.209 9.76582 117.29 9.83382 117.37 9.90277C117.449 9.97173 117.528 10.0416 117.606 10.1125C117.685 10.1834 117.762 10.2552 117.838 10.3278C117.914 10.4006 117.99 10.4743 118.064 10.5487C118.139 10.6233 118.213 10.6988 118.285 10.7751C119.847 12.4347 120.871 14.3558 121.424 16.5586C123.845 15.1069 126.617 14.5672 129.382 15.2744C132.081 15.9649 134.292 17.6329 135.687 20.0414C135.934 20.4673 136.164 20.9185 136.331 21.3818L104.748 21.397C102.917 21.4197 101.082 21.3993 99.2504 21.3994C99.2217 19.903 99.6149 17.7486 98.642 16.4893C98.0801 15.7619 97.3162 15.4945 96.4397 15.3805C96.6294 13.948 98.6874 11.5145 99.6741 10.4918Z" fill="#FDFEFE"/>
<circle cx="71.3873" cy="68.4154" r="10.8575" fill="#D9F4FD"/>
<circle cx="71.5181" cy="68.2848" r="9.41858" fill="#DF6663"/>
<path fill-rule="evenodd" clip-rule="evenodd" d="M66.6223 62.9958C67.082 62.5444 67.8206 62.5511 68.272 63.0108L76.668 71.5613C77.1194 72.021 77.1127 72.7596 76.653 73.211C76.1933 73.6624 75.4547 73.6557 75.0033 73.196L66.6072 64.6454C66.1559 64.1857 66.1626 63.4472 66.6223 62.9958Z" fill="#D9F4FD"/>
<path fill-rule="evenodd" clip-rule="evenodd" d="M75.876 63.1679C76.3549 63.5988 76.3939 64.3364 75.963 64.8153L68.4876 73.1243C68.0567 73.6032 67.3192 73.6422 66.8402 73.2113C66.3612 72.7804 66.3223 72.0428 66.7532 71.5638L74.2285 63.2549C74.6594 62.7759 75.397 62.737 75.876 63.1679Z" fill="#D9F4FD"/>
<defs>
<linearGradient id="paint0_linear_217_2198" x1="115.342" y1="89.227" x2="121.15" y2="94.2521" gradientUnits="userSpaceOnUse">
<stop stop-color="#00445F"/>
<stop offset="1" stop-color="#036C75"/>
</linearGradient>
<linearGradient id="paint1_linear_217_2198" x1="69.9032" y1="85.3604" x2="68.0149" y2="94.1192" gradientUnits="userSpaceOnUse">
<stop stop-color="#032255"/>
<stop offset="1" stop-color="#095B8C"/>
</linearGradient>
<linearGradient id="paint2_linear_217_2198" x1="42.8557" y1="63.465" x2="32.8959" y2="69.5167" gradientUnits="userSpaceOnUse">
<stop stop-color="#83B1D9"/>
<stop offset="1" stop-color="#B5E1FD"/>
</linearGradient>
</defs>
</svg>
