<svg width="161" height="148" viewBox="0 0 161 148" fill="none" xmlns="http://www.w3.org/2000/svg">
<mask id="mask0_217_2278" style="mask-type:alpha" maskUnits="userSpaceOnUse" x="96" y="72" width="61" height="58">
<path d="M139.479 72.5135C135.527 71.7126 125.458 72.2996 120.917 72.6932L105.885 107.38L96.3783 129.316C96.6754 128.63 99.0186 126.079 106.015 121.359C113.011 116.64 123.696 116.51 128.164 117.035L140.615 106.716L137.599 105.409C135.625 104.553 132.235 104.007 130.788 103.841C133.095 101.774 138.613 96.7938 142.229 93.4103C145.845 90.0267 152.93 81.057 156.02 76.9951C152.153 75.8349 143.431 73.3143 139.479 72.5135Z" fill="#D9D9D9"/>
</mask>
<g mask="url(#mask0_217_2278)">
<path d="M186.776 23.3123L186.614 23.2419L147.291 6.20027L147.113 6.12291L88.3067 -19.3626L46.3857 -37.5304L46.3371 -37.418L46.3067 -37.3481L31.2989 -2.71849L31.2752 -2.66379L-5.46976 82.1228L-14.4569 102.86L125.933 163.703L125.97 163.618L135.058 142.649L141.611 127.529L159.933 85.2517L165.188 73.1247L186.776 23.3123Z" fill="url(#paint0_linear_217_2278)"/>
<path d="M98.741 66.1749C98.1319 67.6306 97.4744 69.0691 96.8414 70.5148C96.4702 71.3626 95.7329 72.6112 96.1305 73.5439C96.1638 73.6212 96.2018 73.6962 96.2446 73.7687C96.2874 73.8413 96.3347 73.9109 96.3864 73.9774C96.4382 74.0439 96.4939 74.1068 96.5536 74.1662C96.6133 74.2257 96.6765 74.2811 96.7432 74.3325C97.4636 74.8798 98.5175 75.2219 99.3463 75.5825C100.574 76.1168 101.799 76.6688 103.04 77.1713C103.813 77.4843 104.424 77.6652 105.224 77.2857C105.571 77.1207 105.846 76.6872 106.03 76.3603C106.605 75.3446 107.014 74.176 107.477 73.1011C108.017 71.8478 108.634 70.5895 109.1 69.3084C109.294 68.7747 109.425 68.2707 109.154 67.7377C108.973 67.3831 108.665 67.0562 108.322 66.8549C107.207 66.1985 105.746 65.7183 104.544 65.1986C103.566 64.7756 102.487 64.1566 101.468 63.8864C101.052 63.7758 100.742 63.972 100.403 64.1858C100.423 64.1972 100.443 64.209 100.463 64.2203C101.096 64.5761 101.807 64.8381 102.475 65.1263L106.165 66.7074C106.784 66.9733 107.519 67.2129 108.068 67.6088C108.271 67.7546 108.414 67.9355 108.492 68.174C108.572 68.4201 108.554 68.6246 108.481 68.8687C108.07 70.2499 107.171 71.9233 106.578 73.2794C106.214 74.1119 105.934 75.0652 105.492 75.8546C105.242 76.3024 104.927 76.6365 104.418 76.765C104.329 76.7877 104.241 76.8022 104.15 76.8169C102.749 76.2457 101.354 75.6599 99.9649 75.0595C99.0103 74.6525 97.9833 74.2758 97.0866 73.7514C96.8625 73.415 96.5977 73.0674 96.6784 72.6407C96.9013 71.4633 98.3808 68.5282 98.9349 67.2627C98.8778 66.8988 98.8131 66.5362 98.741 66.1749Z" fill="#ECA290"/>
<path d="M92.3393 108.221C92.8766 106.325 95.2798 102.381 95.4203 100.711C95.4669 100.156 95.3206 99.6969 94.9581 99.2719C94.8077 99.0958 94.6475 98.9616 94.4454 98.8474C93.5777 98.3574 87.849 95.8386 87.1344 95.7989C86.7205 95.7758 86.4109 95.9761 86.1119 96.2382L86.349 96.675C86.6592 96.6487 87.0177 96.5941 87.3246 96.6529C88.3655 96.8521 93.0787 98.9709 94.2346 99.5738C94.5256 99.9873 94.6708 100.289 94.7227 100.792C94.0461 102.394 93.3593 103.991 92.6621 105.584C92.3093 106.396 91.9978 107.301 91.5386 108.056C91.3867 108.305 91.2303 108.535 90.9493 108.647C90.7388 108.732 90.4726 108.757 90.2513 108.705C89.4411 108.515 88.5859 108.038 87.8225 107.706C86.5724 107.161 85.2969 106.645 84.064 106.064C83.6835 105.885 82.9385 105.467 82.8287 105.032C82.63 104.246 84.5538 100.008 85.0901 99.2495L85.0557 99.0209L84.9015 98.5529C84.7371 98.689 84.5493 98.8351 84.4176 99.0037C83.779 99.821 82.9263 102.325 82.4212 103.414C82.1577 104.057 81.9996 104.713 82.2689 105.391C82.4172 105.764 82.6154 106.012 82.934 106.25C83.7481 106.859 88.3497 108.824 89.5494 109.298C90.0985 109.515 90.6504 109.684 91.2176 109.436C91.7626 109.198 92.0582 108.714 92.3393 108.221Z" fill="url(#paint1_linear_217_2278)"/>
<path d="M91.5981 82.4351C90.9908 83.7007 90.4363 84.9933 89.8701 86.2779C89.5374 87.0332 89.1412 87.8017 88.8883 88.5847C88.6889 89.2022 88.6048 89.7244 88.9182 90.3172C89.0494 90.5656 89.2312 90.8116 89.463 90.9754C90.1589 91.4671 95.6191 93.8281 96.4909 94.0575C97.0191 94.1967 97.5641 94.2806 98.0504 93.9867C98.3429 93.8101 98.6012 93.5737 98.7823 93.282C99.2317 92.5578 102.242 85.6427 102.394 84.8924C102.48 84.4637 102.365 83.9882 102.113 83.6337C101.897 83.3314 101.57 83.1006 101.251 82.9202C100.479 82.4842 95.0584 80.134 94.322 80.0445C93.7504 79.9751 93.251 80.1672 92.8019 80.5123L92.9794 80.629L93.0268 80.679C93.1316 80.7882 93.2107 80.8832 93.3576 80.9345C93.7265 80.8664 94.1736 80.7392 94.5472 80.8203C95.0144 80.9217 100.729 83.4188 101.154 83.6984C101.376 83.8437 101.619 84.0533 101.655 84.3312C101.693 84.6324 101.584 84.9789 101.485 85.2591C101.138 86.2484 98.3221 92.6535 98.0429 92.9924C97.851 93.2256 97.5027 93.3709 97.2051 93.3937C96.6056 93.4397 91.3469 91.1224 90.5639 90.7122C90.2866 90.567 90.0219 90.3964 89.7929 90.1817C89.5582 89.9618 89.4368 89.7514 89.4298 89.421C89.4238 89.1347 89.4951 88.85 89.5913 88.5825C89.8143 87.9629 91.6254 83.8154 91.8783 83.5644L91.7853 83.0364L91.5981 82.4351Z" fill="#B59890"/>
<path d="M100.226 64.2496C99.3099 63.0476 98.3039 61.9281 97.301 60.7986C97.8229 62.4468 98.5548 64.4726 98.7407 66.1746C98.8128 66.536 98.8775 66.8986 98.9346 67.2625C98.3805 68.5279 96.901 71.4631 96.6782 72.6405C96.5974 73.0672 96.8622 73.4148 97.0863 73.7511C97.983 74.2756 99.01 74.6523 99.9646 75.0593C101.354 75.6597 102.749 76.2455 104.15 76.8166C104.24 76.802 104.329 76.7875 104.418 76.7648C104.927 76.6362 105.242 76.3022 105.492 75.8543C105.934 75.0649 106.214 74.1117 106.578 73.2792C107.171 71.9231 108.069 70.2496 108.481 68.8684C108.554 68.6243 108.571 68.4199 108.492 68.1737C108.414 67.9353 108.27 67.7544 108.068 67.6085C107.519 67.2127 106.784 66.9731 106.164 66.7072L102.475 65.1261C101.807 64.8379 101.096 64.5759 100.463 64.22C100.443 64.2087 100.423 64.197 100.403 64.1856L100.226 64.2496Z" fill="#F6E4D8"/>
<path d="M101.169 73.1666C100.507 71.8311 99.8199 68.9969 99.1529 68.0806C99.296 69.1284 99.4885 70.167 99.7304 71.1965C99.9721 72.2259 100.262 73.2416 100.6 74.2435C101.653 74.0885 105.46 72.608 106.056 71.8231C106.104 71.7592 106.15 71.694 106.195 71.6276C105.864 71.5218 101.872 72.9558 101.169 73.1666Z" fill="#0BA670"/>
<path d="M100.226 64.25C99.3098 63.048 98.3037 61.9285 97.3009 60.799C97.8228 62.4472 98.5546 64.473 98.7405 66.1751C98.8127 66.5364 98.8773 66.899 98.9345 67.2629C98.989 67.4899 99.0294 67.8939 99.1527 68.0805C99.8196 68.9969 100.507 71.8311 101.169 73.1665C101.871 72.9558 105.864 71.5218 106.195 71.6276C106.301 71.5229 106.395 71.4075 106.468 71.2769C106.645 70.9625 106.8 70.3795 106.678 70.0249C106.613 69.8373 106.509 69.715 106.323 69.637C105.381 69.2418 103.27 70.3717 102.398 70.7388C102.119 68.4979 101.345 66.2077 100.226 64.25Z" fill="#00E5BC"/>
<path d="M92.802 80.5122C92.164 78.9977 90.9027 77.537 89.9481 76.1988C90.4306 77.7438 91.4649 80.9331 91.5982 82.435L91.7854 83.0363L91.8784 83.5643C91.6255 83.8153 89.8143 87.9628 89.5914 88.5824C89.4952 88.8499 89.4239 89.1346 89.4299 89.4209C89.4369 89.7513 89.5583 89.9617 89.793 90.1816C90.0219 90.3963 90.2867 90.5669 90.564 90.7122C91.347 91.1224 96.6057 93.4396 97.2052 93.3936C97.5028 93.3708 97.8511 93.2255 98.043 92.9923C98.3222 92.6534 101.138 86.2483 101.485 85.259C101.584 84.9788 101.693 84.6323 101.655 84.3311C101.619 84.0532 101.376 83.8436 101.155 83.6983C100.729 83.4187 95.0145 80.9216 94.5473 80.8202C94.1737 80.7391 93.7266 80.8663 93.3577 80.9344C93.2108 80.8832 93.1317 80.7881 93.0269 80.6789L92.9795 80.6289L92.802 80.5122Z" fill="#F6E4D8"/>
<path d="M98.788 88.1902C98.0382 87.8212 95.9617 88.9727 95.1351 89.2077C94.834 89.2935 94.3825 89.3942 94.1272 89.1482C93.415 88.4626 92.5785 83.7332 92.0254 83.1701C91.9612 83.1048 91.8654 83.0809 91.7853 83.0362L91.8782 83.5642C92.4746 85.6201 92.8773 88.7795 93.8828 90.5604C94.7831 90.28 98.1518 88.9962 98.7251 88.3991L98.788 88.1902Z" fill="#0BA670"/>
<path d="M92.8019 80.512C92.1639 78.9976 90.9027 77.5369 89.9481 76.1987C90.4305 77.7436 91.4649 80.933 91.5981 82.4349L91.7853 83.0362C91.8655 83.0808 91.9613 83.1048 92.0255 83.17C92.5786 83.7332 93.415 88.4625 94.1272 89.1481C94.3826 89.3942 94.8341 89.2934 95.1352 89.2077C95.9618 88.9726 98.0383 87.8211 98.7881 88.1902C99.1284 88.0301 99.3344 87.8765 99.5 87.5271C99.6562 87.1973 99.8248 86.7223 99.6711 86.3672C99.6125 86.2322 99.4856 86.1361 99.3477 86.0887C98.2056 85.6956 96.1728 86.8949 95.0924 87.3738C95.0877 87.1482 95.0767 86.923 95.0594 86.698C95.0421 86.473 95.0185 86.2487 94.9887 86.0251C94.9589 85.8015 94.923 85.5788 94.8808 85.3572C94.8386 85.1356 94.7902 84.9153 94.7357 84.6963C94.6812 84.4774 94.6206 84.2601 94.554 84.0445C94.4875 83.8291 94.4149 83.6156 94.3364 83.404C94.2579 83.1925 94.1736 82.9834 94.0835 82.7766C93.9933 82.5697 93.8974 82.3656 93.7959 82.164C93.5596 81.6846 93.2361 81.2319 93.0272 80.7429L92.9795 80.6287L92.8019 80.512Z" fill="#00E5BC"/>
<path d="M117.441 32.0374L115.69 36.0799C118.399 37.2893 121.118 38.477 123.846 39.6429C124.994 40.1396 126.55 40.6463 127.58 41.3244C127.851 41.5036 128.062 41.8202 128.167 42.1254C128.289 42.4789 128.277 42.8568 128.145 43.2039C127.465 44.9917 126.635 46.7481 125.879 48.507L122.22 57.0946L110.967 83.0836L100.935 106.255L97.4871 114.228C96.8614 115.672 96.2748 117.159 95.5788 118.57C95.0458 120.006 94.3641 121.407 93.7452 122.81C93.489 123.39 93.1397 124.031 92.9855 124.641C92.3791 125.337 91.7855 125.87 90.8119 125.922C90.44 125.941 90.0864 125.817 89.742 125.688C87.7357 124.938 85.764 123.974 83.7927 123.126C82.2809 122.475 80.6353 121.898 79.1818 121.141C78.3544 120.884 77.543 120.489 76.7485 120.145L72.8195 118.448C70.5952 117.493 68.344 116.605 66.1223 115.643C57.8865 112.065 49.7195 108.337 41.6213 104.458C41.0299 104.172 38.9862 103.411 38.662 102.978L38.7338 102.723C38.2611 103.71 37.0527 105.889 36.7974 106.814C38.685 107.525 40.5376 108.419 42.3919 109.218L53.8101 114.107L91.0646 130.272C91.9873 130.731 92.9724 131.209 94.035 131.031C94.8395 130.896 95.4515 130.419 95.9049 129.759C95.9766 129.655 96.0385 129.56 96.1244 129.466C96.1429 129.445 96.1631 129.426 96.1825 129.407C96.3436 129.14 96.5057 128.878 96.6336 128.593C96.6403 128.081 99.4087 122.093 99.841 121.126C100.168 120.07 100.779 119.006 101.224 117.987C102.399 115.296 103.617 112.613 104.727 109.896C104.942 109.128 105.359 108.356 105.686 107.63C106.377 106.095 107.122 104.551 107.717 102.977C107.91 102.6 108.078 102.205 108.257 101.821C109.52 99.0181 110.734 96.1594 111.892 93.3113C112.487 91.6251 113.35 89.9831 114.062 88.339L118.703 77.5936C119.323 76.1555 120.417 74.0703 120.796 72.6508C121.771 70.223 122.861 67.8268 123.9 65.425L130.155 50.9675L132.382 45.7842C132.806 44.801 133.297 43.8102 133.638 42.7978C133.791 42.3424 133.875 41.8743 133.863 41.3923C133.837 40.4145 133.458 39.613 132.768 38.9326C132.264 38.2013 119.242 33.0368 117.441 32.0374Z" fill="#00E5BC"/>
<path d="M120.796 72.6512C121.771 70.2234 122.861 67.8272 123.9 65.4253L130.156 50.9679L132.382 45.7845C132.806 44.8014 133.297 43.8106 133.638 42.7981C133.791 42.3428 133.876 41.8746 133.863 41.3927C133.837 40.4149 133.458 39.6134 132.768 38.933C133.083 39.8414 133.358 40.6934 133.044 41.6515C132.68 42.759 132.074 43.8676 131.602 44.9359L128.867 51.2284L119.206 73.5736L103.771 109.221L98.1536 122.215C97.218 124.376 96.353 126.614 95.3227 128.728C94.9686 129.455 94.589 129.856 93.7931 130.114C92.9539 130.387 91.9308 130.361 91.0647 130.273C91.9875 130.732 92.9725 131.21 94.0352 131.031C94.8396 130.896 95.4517 130.42 95.9051 129.76C95.9767 129.655 96.0387 129.56 96.1245 129.466C96.1431 129.446 96.1633 129.427 96.1827 129.407C96.3438 129.14 96.5059 128.879 96.6338 128.593C96.6405 128.082 99.4089 122.093 99.8411 121.127C100.169 120.071 100.779 119.007 101.224 117.987C102.399 115.296 103.617 112.614 104.727 109.896C104.942 109.128 105.36 108.357 105.687 107.63C106.377 106.095 107.122 104.551 107.717 102.977C107.91 102.601 108.078 102.206 108.257 101.822C109.52 99.0185 110.734 96.1597 111.892 93.3116C112.487 91.6255 113.35 89.9835 114.062 88.3394L118.703 77.594C119.323 76.1559 120.418 74.0706 120.796 72.6512Z" fill="url(#paint2_linear_217_2278)"/>
<path d="M139.676 124.156C138.804 124.919 135.041 128.109 134.172 128.423L133.278 129.013C132.237 129.698 128.93 131.786 127.929 132.086C127.366 132.538 126.571 132.883 125.924 133.208C123.897 134.225 121.827 135.149 119.717 135.98C118.204 136.469 116.785 137.104 115.222 137.44C114.942 137.459 114.677 137.475 114.405 137.394C113.065 136.998 111.716 136.289 110.431 135.729L101.99 132.013C100.041 131.175 98.1049 130.307 96.1831 129.407C96.1637 129.427 96.1435 129.445 96.1249 129.466C96.0391 129.56 95.9771 129.655 95.9055 129.759C95.4521 130.42 94.84 130.896 94.0355 131.031C92.9729 131.209 91.9879 130.732 91.0651 130.273L53.8107 114.107L42.3924 109.218C40.5382 108.419 38.6855 107.525 36.7979 106.814C36.3454 107.79 35.8839 108.762 35.4135 109.729C35.2072 110.189 34.9936 110.855 34.6432 111.211C34.4497 111.405 34.3297 111.61 34.1943 111.847C33.7901 111.624 33.2078 111.44 32.7531 111.341C32.7835 110.931 32.893 110.587 32.7373 110.193L32.6978 110.136C32.7153 109.852 32.8792 109.582 32.9991 109.328L33.1974 108.745C29.6936 107.269 26.5197 105.259 23.2418 103.361C22.947 103.754 22.6462 104.145 22.3591 104.544L21.5764 104.26L20.7637 103.966L20.4252 103.814C20.5998 103.197 20.9606 102.609 21.2559 102.041C22.023 100.675 22.7838 99.2871 23.474 97.8812C23.2206 97.8491 22.9678 97.8135 22.7154 97.7746C18.5361 97.1263 14.8037 95.1483 12.2666 91.6948C11.7346 90.906 11.2884 90.0751 10.8344 89.2401C5.42878 86.8051 -0.0762203 84.5877 -5.46903 82.1224L-14.4562 102.86L125.934 163.702L125.971 163.617L135.058 142.649L141.611 127.528L141.444 127.64L141.42 127.429C140.779 126.431 140.151 125.241 139.676 124.156Z" fill="#F6E4D8"/>
<path d="M139.675 124.156C138.804 124.919 135.041 128.109 134.172 128.423L133.277 129.013C132.236 129.698 128.93 131.786 127.929 132.086C127.365 132.538 126.571 132.883 125.924 133.208C123.896 134.225 121.827 135.149 119.716 135.98C120.284 136.282 120.899 136.524 121.485 136.787C122.441 137.146 123.379 137.599 124.317 138.005L131.138 140.959C132.406 141.508 133.674 142.113 134.971 142.591L141.444 127.64L141.419 127.429C140.779 126.431 140.15 125.241 139.675 124.156Z" fill="#00E5BC"/>
<path d="M115.221 137.44C114.941 137.459 114.676 137.475 114.404 137.394C113.065 136.998 111.716 136.289 110.43 135.729L101.989 132.013C100.04 131.175 98.1042 130.307 96.1824 129.407C96.163 129.427 96.1428 129.445 96.1242 129.466C96.0384 129.56 95.9764 129.655 95.9048 129.759C95.4514 130.42 94.8393 130.896 94.0348 131.031C92.9722 131.209 91.9872 130.732 91.0644 130.273L53.81 114.107L42.3917 109.218C40.5375 108.419 38.6848 107.525 36.7972 106.814C36.3447 107.79 35.8832 108.761 35.4128 109.729C37.1199 110.409 38.8046 111.169 40.4959 111.89L56.8804 119.037C67.432 123.614 78.0334 128.073 88.6846 132.413C93.7734 134.538 98.8976 136.574 104.057 138.521C106.78 139.541 109.567 140.52 112.347 141.373C113.915 141.855 122.871 144.252 123.916 143.679C124.025 143.619 124.007 143.544 124.032 143.433C123.711 142.256 118.21 139.122 117.018 138.466C116.589 138.229 115.569 137.874 115.285 137.524C115.263 137.497 115.242 137.468 115.221 137.44Z" fill="#ECA290"/>
<path d="M186.776 23.3123L186.614 23.2419L147.291 6.20027L147.113 6.12291L88.3067 -19.3626L88.3012 -19.2741L88.6274 -19.0595C89.6112 -17.0436 90.6646 -15.1376 91.4338 -13.0218C94.5381 -4.48367 94.9641 6.4112 91.9703 15.0403C91.8568 15.3638 91.7386 15.6855 91.6158 16.0056C91.0451 15.7742 90.5034 15.6282 89.9067 15.8996C88.8141 16.3964 88.3203 18.2356 87.8852 19.28L87.1305 21.0038L86.1178 23.4428C85.8625 24.0469 85.6258 24.6708 85.3303 25.2562C85.6839 25.7358 97.1047 30.4436 98.8078 31.1898C100.253 31.823 101.657 32.5977 103.139 33.1398C104.7 33.839 106.254 34.5629 107.848 35.1841C109.938 36.1011 112.039 36.9931 114.15 37.8603L114.809 38.1169L115.69 36.0804L117.441 32.0379C119.242 33.0373 132.264 38.2018 132.768 38.9332C133.458 39.6136 133.837 40.4151 133.863 41.3928C133.875 41.8748 133.791 42.3429 133.637 42.7983C133.296 43.8107 132.806 44.8016 132.382 45.7847L130.155 50.968L123.899 65.4255C122.861 67.8274 121.771 70.2236 120.796 72.6514C120.417 74.0708 119.323 76.1561 118.703 77.5942L114.062 88.3396C113.35 89.9836 112.487 91.6256 111.892 93.3118C110.733 96.1599 109.519 99.0186 108.257 101.822C108.078 102.206 107.91 102.601 107.717 102.978C107.122 104.551 106.377 106.095 105.686 107.63C105.359 108.357 104.942 109.128 104.727 109.896C103.616 112.614 102.399 115.296 101.224 117.987C100.778 119.007 100.168 120.071 99.8408 121.127C99.4086 122.093 96.6401 128.082 96.6335 128.593C96.5055 128.879 96.3434 129.14 96.1823 129.407C98.1042 130.307 100.04 131.176 101.989 132.013L110.43 135.729C111.716 136.29 113.065 136.998 114.404 137.395C114.676 137.475 114.941 137.46 115.221 137.441C116.784 137.104 118.203 136.47 119.716 135.981C121.827 135.15 123.896 134.226 125.924 133.209C126.571 132.883 127.365 132.538 127.928 132.087C128.929 131.787 132.236 129.699 133.277 129.013L134.172 128.423C135.04 128.109 138.803 124.92 139.675 124.156C140.15 125.241 140.779 126.431 141.419 127.43L141.444 127.641L141.611 127.529L159.933 85.2517L165.188 73.1247L186.776 23.3123Z" fill="#9EEBD8"/>
<path d="M186.776 23.3123L186.614 23.2419L147.291 6.20027L147.113 6.12291C146.376 6.08668 134.22 0.637281 132.801 0.0223138C130.386 -0.904941 128.052 -2.19319 125.605 -3.00931C133.192 3.43879 139.813 14.0671 140.636 24.1365C141.088 29.6664 139.939 34.0057 139.179 39.3728C138.897 41.3704 138.648 43.4219 138.61 45.4412C138.465 53.1129 140.627 61.19 144.801 67.643C145.662 68.9749 146.588 70.3209 147.579 71.5601C148.288 72.4469 149.397 73.5616 149.945 74.5229C151.367 75.1017 155.008 75.6846 155.91 76.8888C155.383 77.7583 154.87 78.6406 154.276 79.4667C155.006 80.1527 155.648 80.9249 156.333 81.6552C157.463 82.8517 158.614 84.0275 159.786 85.1826L159.897 85.081L159.933 85.2517L165.188 73.1247L186.776 23.3123Z" fill="#00E5BC"/>
<path d="M186.776 23.3123L186.614 23.2419L186.608 23.3332C186.495 24.0907 185.669 25.6523 185.336 26.424L182.191 33.6852L170.598 60.4225L166.912 68.9321C166.318 70.3009 165.632 71.6711 165.115 73.0671C165.097 73.0665 165.08 73.0677 165.062 73.0655C164.451 72.9886 163.619 72.3732 163.1 72.0514C159.309 69.6998 155.694 66.5755 153.07 62.9483C146.623 54.0368 145.496 42.5657 147.202 31.9587C147.943 27.3473 149.211 22.8224 149.205 18.1124C149.203 15.9131 149.049 13.7012 148.554 11.554C148.413 10.9424 147.06 6.36809 147.079 6.25286L147.237 6.27922L147.291 6.20027L147.113 6.12291C146.376 6.08668 134.22 0.637281 132.801 0.0223138C130.386 -0.904941 128.052 -2.19319 125.605 -3.00931C133.192 3.43879 139.813 14.0671 140.636 24.1365C141.088 29.6664 139.939 34.0057 139.179 39.3728C138.897 41.3704 138.648 43.4219 138.61 45.4412C138.465 53.1129 140.627 61.19 144.801 67.643C145.662 68.9749 146.588 70.3209 147.579 71.5601C148.288 72.4469 149.397 73.5616 149.945 74.5229C151.367 75.1017 155.008 75.6846 155.91 76.8888C155.383 77.7583 154.87 78.6406 154.276 79.4667C155.006 80.1527 155.648 80.9249 156.333 81.6552C157.463 82.8517 158.614 84.0275 159.786 85.1826L159.897 85.081L159.933 85.2517L165.188 73.1247L186.776 23.3123Z" fill="#66D7BF"/>
<path d="M155.91 76.8888C155.008 75.6845 151.368 75.1016 149.946 74.5229C147.102 73.769 144.225 73.1795 141.314 72.7542C139.559 74.985 137.357 76.9159 135.363 78.9283C134.692 79.606 133.973 80.5866 133.205 81.1334C135.232 78.1454 137.524 75.3375 139.667 72.433C135.567 72.1124 131.47 71.8274 127.356 72.0247C126.145 72.0787 124.938 72.1771 123.735 72.32C122.867 72.4253 121.64 72.7145 120.796 72.6513C120.418 74.0707 119.323 76.156 118.703 77.5941L114.062 88.3395C113.351 89.9836 112.487 91.6256 111.893 93.3117C110.734 96.1599 109.52 99.0186 108.257 101.822C108.079 102.206 107.91 102.601 107.717 102.978C107.122 104.551 106.378 106.095 105.687 107.63C105.36 108.357 104.942 109.128 104.727 109.896C103.617 112.614 102.399 115.296 101.224 117.987C100.779 119.007 100.169 120.071 99.8412 121.127C99.409 122.093 96.6405 128.082 96.6339 128.593C96.506 128.879 96.3439 129.14 96.1827 129.407C98.1046 130.307 100.04 131.176 101.99 132.013L110.431 135.729C111.716 136.29 113.065 136.998 114.405 137.395C114.676 137.475 114.942 137.46 115.221 137.441C116.784 137.104 118.204 136.47 119.716 135.981C121.827 135.15 123.896 134.225 125.924 133.208C126.571 132.883 127.365 132.538 127.929 132.087C128.93 131.787 132.236 129.699 133.277 129.013L134.172 128.423C135.041 128.109 138.804 124.92 139.675 124.156C140.15 125.241 140.779 126.431 141.419 127.43L141.444 127.64L141.611 127.529L159.933 85.2516L159.897 85.0809L159.786 85.1826C158.614 84.0274 157.463 82.8516 156.333 81.6552C155.649 80.9248 155.006 80.1526 154.277 79.4666C154.871 78.6406 155.384 77.7583 155.91 76.8888Z" fill="#02706A"/>
<path d="M112.601 127.856C113.437 128.308 114.285 128.742 115.111 129.212C115.556 129.465 116.085 129.906 116.559 130.067C116.676 130.106 116.72 130.051 116.825 130.002L116.882 129.842C116.57 129.33 114.818 128.454 114.226 128.172L113.796 128.019L113.927 128.045L113.87 128.111C114.306 128.32 115.585 128.846 115.749 129.27C114.569 129.089 113.753 128.094 112.601 127.856Z" fill="#00E5BC"/>
<path d="M125.532 123.529C125.228 123.552 124.732 123.54 124.472 123.703C124.744 123.832 125.189 123.695 125.482 123.648C127.055 124.327 128.455 125.426 129.824 126.443L129.725 126.408L129.726 126.565L129.524 126.691L129.441 126.551L129.478 126.708L129.339 126.777C129.362 127.171 130.044 127.779 130.338 128.044C130.504 128.195 130.685 128.316 130.921 128.298C131.519 128.251 131.828 128.062 132.378 128.482C132.6 128.651 132.808 128.847 133.016 129.032C132.543 129.334 132.079 129.658 131.595 129.94C130.839 130.38 128.377 131.527 127.929 132.086C128.93 131.786 132.236 129.698 133.277 129.013C132.565 128.51 131.901 127.921 131.221 127.374C129.973 126.371 128.722 125.401 127.383 124.523C126.776 124.178 126.172 123.808 125.532 123.529Z" fill="#039886"/>
<path d="M118.137 124.867C118.253 124.756 118.376 124.604 118.4 124.445L118.286 124.314L118.151 124.31L118.066 124.24C116.785 124.488 115.503 124.975 114.28 125.422C110.364 126.856 106.772 128.614 103.35 131.004C103.058 131.406 102.522 131.605 102.27 132.016C102.349 132.058 102.437 132.112 102.524 132.138C102.583 132.155 102.768 132.183 102.818 132.174C103.18 132.106 106.13 130.08 106.836 129.725L106.916 129.686C107.656 130.155 111 132.148 111.631 132.18C111.276 131.282 108.328 129.942 107.377 129.447C108.726 128.638 110.097 127.923 111.553 127.323C111.893 127.524 112.223 127.732 112.601 127.855C113.754 128.094 114.57 129.089 115.75 129.27C115.586 128.846 114.306 128.319 113.87 128.11L113.928 128.045L113.797 128.019L114.226 128.172C113.606 127.717 112.764 127.411 112.067 127.075C113.654 126.389 115.347 125.949 116.969 125.352L116.963 125.264C117.469 125.041 118.1 125.792 119.054 125.641C118.75 125.481 118.341 125.408 118.071 125.207C117.954 125.119 117.991 125.169 117.972 125.009L118.137 124.867Z" fill="#30A8A7"/>
<path d="M141.467 122.479C140.7 122.114 139.999 121.616 139.21 121.289C138.394 121.542 135.522 121.524 134.443 121.607C133.451 121.684 127.276 122.467 126.783 122.356C126.634 122.407 126.482 122.469 126.33 122.507C125.415 122.657 122.22 123.407 121.609 123.362C120.444 123.634 119.188 123.829 118.065 124.24L118.15 124.31L118.286 124.314L118.399 124.445C118.376 124.604 118.253 124.756 118.136 124.867L117.971 125.009C117.99 125.169 117.953 125.119 118.071 125.207C118.34 125.408 118.749 125.481 119.053 125.641C118.099 125.792 117.468 125.041 116.963 125.264L116.968 125.352C117.11 125.334 117.248 125.325 117.388 125.361C118.19 125.566 121.668 127.439 122.628 127.943C123.046 128.163 123.783 128.708 124.227 128.713C124.35 128.595 124.363 128.522 124.393 128.356C124.107 127.72 118.462 125.505 118.118 125.051L118.232 124.955C118.829 124.918 119.493 124.685 120.08 124.552C121.516 124.227 123.009 123.87 124.472 123.703C124.732 123.54 125.227 123.553 125.532 123.529C126.172 123.808 126.775 124.178 127.382 124.523C127.131 123.92 126.332 124.018 126.024 123.586C126.075 123.509 126.054 123.514 126.147 123.481C126.688 123.286 127.499 123.637 127.974 123.885C127.717 123.672 127.422 123.495 127.146 123.309C131.926 122.625 136.642 122.384 141.467 122.479Z" fill="#00E5BC"/>
<path d="M138.681 120.925C137.402 120.325 136.156 119.65 134.851 119.107C133.862 118.696 132.668 118.438 131.755 117.909C130.484 119.393 128.293 120.986 126.783 122.356C127.276 122.467 133.451 121.684 134.444 121.607C135.522 121.524 138.394 121.542 139.211 121.289L138.681 120.925Z" fill="#0BA670"/>
<path d="M141.468 122.479C136.642 122.384 131.926 122.625 127.146 123.309C127.422 123.495 127.718 123.673 127.974 123.885C127.499 123.637 126.688 123.286 126.147 123.481C126.054 123.515 126.075 123.509 126.024 123.586C126.332 124.018 127.131 123.92 127.382 124.523C128.722 125.402 129.972 126.371 131.22 127.374C131.901 127.921 132.565 128.51 133.277 129.013L134.172 128.423C135.04 128.109 138.803 124.919 139.675 124.156C140.308 123.637 140.928 123.096 141.468 122.479Z" fill="#039886"/>
<path d="M127.975 123.885C127.5 123.637 126.689 123.286 126.147 123.481C126.055 123.514 126.076 123.509 126.025 123.586C126.332 124.018 127.131 123.92 127.383 124.523C128.723 125.401 129.973 126.371 131.221 127.374C131.902 127.921 132.565 128.51 133.278 129.013L134.172 128.423C132.177 126.849 130.185 125.15 127.975 123.885Z" fill="#66D7BF"/>
<path d="M131.755 117.909L131.539 117.887C130.397 117.576 129.252 117.228 128.096 116.974C127.993 116.952 127.893 116.927 127.792 116.902C125.831 116.416 122.979 116.444 120.949 116.61C120.21 116.67 119.456 116.813 118.718 116.84L118.677 116.899L118.308 116.91C117.38 117.194 116.401 117.327 115.457 117.561C114.676 117.754 113.643 118.158 112.871 118.225L112.738 118.274C111.157 117.57 109.646 116.649 108.076 115.901C106.473 116.782 104.854 117.658 103.331 118.674C102.151 119.461 101.04 120.376 99.8405 121.127C99.4083 122.093 96.6398 128.081 96.6332 128.593C96.5053 128.878 96.3432 129.14 96.1821 129.407C98.1039 130.307 100.04 131.175 101.989 132.013C102.39 131.639 102.853 131.241 103.349 131.004C106.771 128.614 110.363 126.856 114.279 125.422C115.502 124.975 116.784 124.488 118.065 124.24C119.188 123.829 120.444 123.634 121.609 123.362C122.22 123.407 125.415 122.657 126.33 122.507C126.482 122.469 126.634 122.407 126.783 122.356C128.293 120.986 130.483 119.392 131.755 117.909Z" fill="url(#paint3_linear_217_2278)"/>
<path d="M113.458 120.711L113.284 120.773C112.721 121.421 110.283 125.785 110.25 126.465C110.35 126.391 110.442 126.316 110.53 126.227C111.27 125.48 113.454 121.705 113.458 120.711Z" fill="#00E5BC"/>
<path d="M120.715 121.389C121.4 120.359 122.41 119.476 122.999 118.386L122.948 118.309C122.402 118.41 121.607 119.575 121.209 120.002C120.188 121.236 119.097 122.465 118.198 123.79L118.228 123.857C119.32 123.439 119.858 122.111 120.715 121.389Z" fill="#00E5BC"/>
<path d="M112.739 118.274C111.157 117.57 109.647 116.649 108.077 115.901C106.474 116.782 104.854 117.658 103.332 118.674C102.151 119.461 101.041 120.376 99.8412 121.127C99.4089 122.093 96.6405 128.081 96.6338 128.593C98.2484 127.366 99.7167 125.979 101.286 124.7C103.789 122.659 106.964 120.569 109.925 119.29C110.837 118.896 111.803 118.605 112.739 118.274Z" fill="#30A8A7"/>
<path d="M131.755 117.909L131.539 117.887C130.397 117.576 129.252 117.228 128.096 116.974C127.993 116.952 127.893 116.927 127.792 116.902C125.831 116.416 122.979 116.444 120.949 116.61C120.21 116.67 119.456 116.813 118.718 116.84L118.677 116.899C118.699 116.942 118.723 116.984 118.744 117.027C118.809 117.162 118.818 117.249 118.824 117.396C118.844 117.94 119.191 118.702 119.584 119.073C119.983 119.451 120.492 119.65 120.896 120.015C121.012 120.022 121.095 120.03 121.208 120.002C121.606 119.575 122.401 118.41 122.947 118.308L122.998 118.386C122.409 119.476 121.4 120.359 120.715 121.388L120.724 121.517C120.248 122.116 119.663 122.677 119.236 123.304C119.038 123.597 118.661 123.653 118.508 123.973L118.556 124.007L118.692 123.958C119.191 123.78 121.186 123.18 121.609 123.362C122.22 123.407 125.415 122.657 126.33 122.507C126.482 122.469 126.634 122.407 126.783 122.356C128.293 120.986 130.483 119.392 131.755 117.909Z" fill="#039886"/>
<path d="M131.755 117.909L131.539 117.887C129.61 119.234 127.825 120.669 126.33 122.507C126.482 122.469 126.634 122.407 126.783 122.356C128.293 120.986 130.483 119.392 131.755 117.909Z" fill="#66D7BF"/>
<path d="M132.967 112.997C134.643 111.644 136.294 110.258 137.953 108.883C138.605 108.342 140.021 107.334 140.454 106.709C140.326 106.567 140.18 106.561 140 106.509C138.083 105.498 135.779 104.873 133.677 104.388C132.772 104.179 131.766 104.04 130.892 103.736C127.849 102.858 121.663 103.023 118.467 103.46C117.403 103.605 115.812 104.129 114.835 104.071C112.652 103.34 110.382 102.707 108.257 101.822C108.078 102.206 107.91 102.6 107.717 102.977C107.122 104.551 106.377 106.095 105.686 107.63C105.359 108.356 104.942 109.128 104.727 109.896C103.616 112.614 102.399 115.296 101.224 117.987C100.778 119.006 100.168 120.071 99.8408 121.127C101.041 120.376 102.151 119.461 103.331 118.674C104.854 117.658 106.473 116.782 108.076 115.901C109.646 116.649 111.157 117.57 112.738 118.274L112.871 118.225C113.643 118.158 114.677 117.754 115.457 117.561C116.401 117.327 117.38 117.194 118.308 116.91L118.678 116.899L118.718 116.84C119.456 116.813 120.21 116.67 120.95 116.61C122.979 116.444 125.831 116.416 127.792 116.902C127.894 116.927 127.994 116.952 128.096 116.974L128.085 116.907C128.226 116.636 132.413 113.338 132.967 112.997Z" fill="#00E5BC"/>
<path d="M118.528 111.388C119.431 111.838 122.99 113.601 123.775 113.656C123.914 113.666 124.057 113.678 124.162 113.58C123.764 113.061 119.826 111.482 118.993 111.192C118.838 111.254 118.675 111.308 118.528 111.388Z" fill="#66D7BF"/>
<path d="M113.302 113.772C113.066 113.65 112.886 113.555 112.619 113.537L112.477 113.625L112.469 113.776C114.037 114.837 116.568 116.219 118.309 116.91L118.678 116.899L118.719 116.841C117.343 115.743 114.913 114.51 113.302 113.772Z" fill="#66D7BF"/>
<path d="M117.931 105.199L117.713 105.222C116.753 106.055 114.439 110.638 113.817 111.987C113.848 111.979 113.88 111.973 113.91 111.961C114.715 111.664 117.466 106.245 117.931 105.199Z" fill="#66D7BF"/>
<path d="M109.681 108.396C109.633 108.389 109.554 108.375 109.507 108.379C109.346 108.394 109.3 108.475 109.213 108.598C108.654 109.386 108.197 110.306 107.702 111.138C106.565 113.047 105.426 114.989 104.238 116.865L104.429 116.797C106.123 114.712 108.675 110.875 109.681 108.396Z" fill="#66D7BF"/>
<path d="M112.8 104.781C111.685 104.239 108.463 103.667 107.75 103.106L107.717 102.978C107.122 104.551 106.377 106.095 105.686 107.63C105.359 108.357 104.942 109.128 104.727 109.896C105.119 109.228 105.391 108.452 105.697 107.739C108.059 106.724 110.26 105.345 112.8 104.781Z" fill="#02706A"/>
<path d="M112.469 113.775C111.316 113.951 109.725 114.989 108.679 115.563C109.501 116.005 112.561 117.438 112.847 118.144C112.857 118.17 112.863 118.198 112.871 118.225C113.643 118.158 114.676 117.754 115.457 117.561C116.401 117.327 117.38 117.194 118.308 116.91C116.567 116.219 114.037 114.837 112.469 113.775Z" fill="#30A8A7"/>
<path d="M159.786 85.1828C158.614 84.0277 157.463 82.8519 156.333 81.6554C155.649 80.925 155.006 80.1528 154.277 79.4669C152.636 81.8839 150.774 84.1795 148.886 86.4046C147.213 88.3929 145.475 90.3224 143.672 92.1931C141.869 94.0638 140.005 95.8714 138.079 97.616C135.736 99.7207 133.238 101.64 130.892 103.737C131.766 104.041 132.772 104.18 133.677 104.388C135.779 104.873 138.083 105.499 140 106.51C140.181 106.561 140.326 106.567 140.455 106.71C140.021 107.334 138.606 108.343 137.953 108.884C136.294 110.258 134.643 111.644 132.967 112.997C132.413 113.339 128.226 116.636 128.086 116.908L128.096 116.974C129.252 117.229 130.397 117.577 131.54 117.887L131.755 117.909C132.668 118.438 133.862 118.696 134.851 119.107C136.156 119.65 137.402 120.325 138.681 120.925L139.211 121.29C140 121.616 140.701 122.115 141.468 122.479C140.928 123.096 140.308 123.638 139.675 124.157C140.15 125.241 140.779 126.432 141.419 127.43L141.444 127.641L141.611 127.529L159.933 85.2519L159.897 85.0812L159.786 85.1828Z" fill="#9EEBD8"/>
<path d="M159.897 85.0807L159.787 85.1823C159.317 86.5783 158.658 87.9367 158.075 89.2904C157.026 91.7533 155.959 94.2084 154.875 96.6556L146.912 115.057L143.343 123.329C142.821 124.533 142.176 126.391 141.42 127.429L141.445 127.64L141.612 127.528L159.934 85.2514L159.897 85.0807Z" fill="#ABE4DB"/>
<path d="M132.967 112.997C132.413 113.339 128.226 116.636 128.086 116.907L128.097 116.974C129.253 117.228 130.398 117.576 131.54 117.887L131.755 117.909C132.668 118.437 133.863 118.696 134.851 119.107C136.156 119.65 137.402 120.325 138.681 120.924C138.382 120.26 137.901 119.605 137.505 118.994C136.119 116.859 134.67 114.89 132.967 112.997Z" fill="#66D7BF"/>
<path d="M155.91 76.888C155.008 75.6838 151.367 75.1009 149.945 74.5221C147.102 73.7683 144.225 73.1787 141.314 72.7535C139.558 74.9843 137.356 76.9151 135.363 78.9276C134.692 79.6053 133.972 80.5858 133.205 81.1327C135.232 78.1447 137.524 75.3368 139.666 72.4323C135.567 72.1117 131.47 71.8267 127.355 72.024C126.145 72.0779 124.938 72.1764 123.734 72.3193C122.866 72.4246 121.64 72.7137 120.796 72.6506C120.417 74.07 119.323 76.1553 118.703 77.5934L114.062 88.3388C113.35 89.9828 112.487 91.6248 111.892 93.311C110.733 96.1591 109.519 99.0178 108.257 101.821C110.382 102.707 112.652 103.34 114.835 104.07C115.812 104.129 117.403 103.604 118.467 103.459C121.663 103.023 127.849 102.858 130.892 103.736C133.237 101.639 135.736 99.7198 138.079 97.615C140.004 95.8704 141.869 94.0628 143.672 92.1921C145.475 90.3214 147.213 88.3919 148.886 86.4037C150.774 84.1786 152.636 81.8829 154.276 79.4659C154.87 78.6399 155.383 77.7576 155.91 76.888Z" fill="url(#paint4_linear_217_2278)"/>
<path d="M132.215 91.5231C130.899 90.8175 124.288 88.5674 122.909 88.3735C122.754 88.3517 122.618 88.3765 122.466 88.4068C123.686 89.0644 130.744 91.2689 132.215 91.5231Z" fill="#66D7BF"/>
<path d="M144.284 85.9034C142.073 84.7351 139.621 83.8774 137.307 82.9226C136.733 82.9127 135.841 83.3224 135.312 83.5686C138.282 84.4721 141.258 85.2131 144.284 85.9034Z" fill="#ABE4DB"/>
<path d="M155.91 76.888C155.008 75.6838 151.367 75.1009 149.945 74.5221C147.102 73.7683 144.225 73.1787 141.314 72.7535C139.558 74.9843 137.356 76.9151 135.363 78.9276C134.692 79.6053 133.972 80.5858 133.205 81.1327C135.232 78.1447 137.524 75.3368 139.666 72.4323C135.567 72.1117 131.47 71.8267 127.355 72.024C126.145 72.0779 124.938 72.1764 123.734 72.3193C122.866 72.4246 121.64 72.7137 120.796 72.6506C120.417 74.07 119.323 76.1553 118.703 77.5934L114.062 88.3388C113.35 89.9828 112.487 91.6248 111.892 93.311C114.78 94.59 117.953 95.4682 120.961 96.442C122.047 96.7938 123.56 97.4411 124.655 97.5441C120.779 95.605 116.799 94.0062 112.819 92.3036C115.753 91.0926 118.658 89.8 121.599 88.6101C124.264 87.5318 126.979 86.5338 129.68 85.5486C131.517 84.8784 133.419 84.0426 135.313 83.5677C135.841 83.3215 136.733 82.9119 137.308 82.9217C141.939 81.1907 146.623 79.6175 151.361 78.2022C152.751 77.7795 154.52 77.0836 155.91 76.888Z" fill="#00E5BC"/>
<path d="M127.356 73.7949C127.217 73.7543 127.136 73.743 126.994 73.7663C126.529 74.0913 119.507 85.9992 119.033 87.2275L119.079 87.3298C119.321 87.0245 119.554 86.7125 119.778 86.3937C121.591 83.8413 123.17 81.0916 124.823 78.4319C125.549 77.2636 126.781 75.5438 127.322 74.3492C127.429 74.1141 127.396 74.0339 127.356 73.7949Z" fill="#66D7BF"/>
</g>
<mask id="mask1_217_2278" style="mask-type:alpha" maskUnits="userSpaceOnUse" x="0" y="0" width="93" height="148">
<path d="M59.2479 69.015C57.5893 79.7036 53.4122 88.7336 52.7979 91.4057L86.1536 89.9315L92.3272 137.201L34.3693 147.152L0 80.3486L16.9543 29.1172L37.2257 0L55.9307 20.64L59.8929 25.7079C59.5857 27.8579 59.8007 34.4614 60.5379 42.0172C61.58 52.6994 60.1638 63.1123 59.2479 69.015Z" fill="#D9D9D9"/>
</mask>
<g mask="url(#mask1_217_2278)">
<path d="M44.2966 96.969L44.6429 96.9854C45.1163 98.9587 45.197 101.167 45.4092 103.187C45.6076 105.077 45.9377 107.059 45.9594 108.956L45.6369 108.982C45.2879 106.569 45.0583 104.144 44.7879 101.722C44.613 100.155 44.3434 98.5441 44.2966 96.969Z" fill="#035E60"/>
<path d="M45.96 108.957C46.7261 108.944 47.491 108.926 48.2571 108.953L48.6931 108.955C50.7509 108.938 54.8192 108.883 56.7649 109.33C57.7266 109.369 58.6855 109.564 59.625 109.763C59.5858 110.888 59.5263 112.012 59.4466 113.135L58.5307 113.326C57.8012 117.073 57.0189 120.808 56.184 124.533C55.7961 126.312 55.4653 128.12 55.018 129.884C54.716 131.525 54.2342 133.125 53.9223 134.761L39.8553 134.726C39.7568 134.235 39.6722 133.735 39.5498 133.249L39.2063 131.278C38.6875 128.679 38.2819 126.05 37.8116 123.441C37.2667 120.418 36.6648 117.4 36.2 114.365L36.0701 113.51C35.7047 113.457 35.311 113.475 34.9408 113.466C34.8618 112.315 34.6401 111.174 34.5564 110.022L34.7081 109.867L34.7197 109.809C35.8669 109.556 36.9733 109.422 38.1461 109.361C40.6023 109.133 43.1714 108.848 45.6375 108.983L45.96 108.957Z" fill="#07426D"/>
<path d="M45.96 108.957C46.7261 108.944 47.491 108.926 48.2571 108.953L48.6931 108.955C50.7509 108.938 54.8192 108.883 56.7649 109.33C57.7266 109.369 58.6855 109.564 59.625 109.763C59.5858 110.888 59.5263 112.012 59.4466 113.135L58.5307 113.326C54.3911 113.748 50.1494 113.688 45.9888 113.676C42.7061 113.666 39.3458 113.711 36.0701 113.51C35.7047 113.457 35.311 113.475 34.9408 113.466C34.8618 112.315 34.6401 111.174 34.5564 110.022L34.7081 109.867L34.7197 109.809C35.8669 109.556 36.9733 109.422 38.1461 109.361C40.6023 109.133 43.1714 108.848 45.6375 108.983L45.96 108.957Z" fill="#07426D"/>
<path d="M45.9597 108.957C46.7258 108.944 47.4907 108.926 48.2568 108.953L48.6928 108.955C50.7506 108.938 54.8189 108.883 56.7646 109.33C57.7263 109.369 58.6852 109.564 59.6247 109.763C59.3368 109.964 59.0759 110.091 58.7353 110.182C55.1747 111.13 39.5346 110.892 35.6703 110.197C35.3231 110.134 35.0013 110.072 34.7078 109.867L34.7194 109.809C35.8666 109.556 36.973 109.422 38.1458 109.361C40.602 109.133 43.1711 108.848 45.6372 108.983L45.9597 108.957Z" fill="#106EB2"/>
<path d="M45.9597 108.957C46.7257 108.944 47.4907 108.926 48.2568 108.953L48.6928 108.955C50.7505 108.938 54.8188 108.883 56.7645 109.33C55.4413 109.503 54.1381 109.595 52.8048 109.646C50.8952 109.719 39.1403 109.893 38.1458 109.361C40.6019 109.133 43.171 108.848 45.6372 108.983L45.9597 108.957Z" fill="#033445"/>
<path d="M36.1987 114.365C41.4463 115.002 46.9164 115.054 52.1909 114.773C53.5699 114.7 54.9821 114.665 56.3496 114.477C53.8303 121.186 49.2812 128.977 42.535 132.077C41.5852 132.514 40.45 132.752 39.5485 133.249L39.205 131.278C38.6862 128.679 38.2806 126.049 37.8103 123.44C37.2654 120.418 36.6635 117.4 36.1987 114.365Z" fill="#106EB2"/>
<path d="M40.5338 11.1494C41.1902 11.2169 41.4844 11.5939 41.8808 12.0729C41.9318 12.1344 41.981 12.1978 42.0289 12.2619C46.336 16.825 49.8406 23.2752 51.7091 29.2407C52.3386 31.2508 52.7619 33.3181 53.1211 35.3913C53.6514 38.6028 53.9306 43.5568 53.3044 46.7289C53.082 47.8551 52.5918 48.9768 52.2332 50.0709C51.853 51.2308 51.5526 52.4287 51.1428 53.5768L50.9878 54.2692C48.8346 54.897 46.6641 55.4576 44.4762 55.9511L44.0227 56.049L43.8176 56.1437C43.7315 56.3798 44.0461 69.4224 44.136 70.8276C44.1109 71.0277 44.0871 71.228 44.0649 71.4286C44.0347 70.9665 44.0233 70.5062 44.0153 70.0435L43.6357 69.8802C43.4975 69.6624 43.5336 69.6259 43.5673 69.3653C43.4418 69.0122 43.3071 68.7008 43.3478 68.318C43.0583 69.3474 43.864 71.4571 43.7232 72.6679L43.5152 73.0079C42.3024 67.6453 40.6363 62.4299 37.7914 57.6982C37.0928 56.536 36.2858 55.446 35.5222 54.3266C34.2664 49.9946 33.8227 45.1571 33.8934 40.6585C34.0234 32.3802 35.8023 22.4692 38.7624 14.7395C39.1858 13.6347 39.6887 11.9684 40.5338 11.1494Z" fill="#058376"/>
<path d="M43.0216 64.4858C43.5581 65.9789 43.4878 67.7908 43.5673 69.3648C43.4418 69.0117 43.3071 68.7003 43.3478 68.3175C43.0583 69.3469 43.864 71.4566 43.7232 72.6674C43.1598 70.8363 43.0004 66.4833 43.0216 64.4858Z" fill="#06AB94"/>
<path d="M40.719 11.5627C40.9783 11.6728 41.1484 11.6831 41.2617 11.965C41.62 12.8562 41.9314 16.8575 42.0468 18.0526C42.9857 27.7766 43.3187 37.5172 43.5983 47.277C43.6475 49.0796 43.6859 50.8825 43.7135 52.6856C43.7299 53.609 43.663 54.6397 43.8102 55.5457C43.8421 55.7416 43.9202 55.8813 44.0231 56.0486L43.8179 56.1433C43.7319 56.3794 44.0465 69.422 44.1364 70.8272C44.1112 71.0273 44.0875 71.2277 44.0653 71.4282C44.035 70.9662 44.0236 70.5058 44.0157 70.0431L43.6361 69.8798C43.4978 69.662 43.534 69.6255 43.5677 69.3649C43.4883 67.7909 43.5585 65.979 43.022 64.4859C42.6486 59.3545 42.6431 54.1694 42.4209 49.0258L40.719 11.5627Z" fill="#06AB94"/>
<path d="M40.5339 11.1494C41.1904 11.2169 41.4845 11.5939 41.8809 12.0729C41.9319 12.1344 41.9811 12.1978 42.029 12.2619C46.3362 16.825 49.8407 23.2752 51.7092 29.2407C52.3387 31.2508 52.762 33.3181 53.1212 35.3913C53.6516 38.6028 53.9308 43.5568 53.3046 46.7289C53.0821 47.8551 52.5919 48.9768 52.2333 50.0709C51.8531 51.2308 51.5528 52.4287 51.1429 53.5768L50.9879 54.2692C48.8347 54.897 46.6642 55.4576 44.4764 55.9511L44.0228 56.049C43.92 55.8816 43.8419 55.742 43.81 55.5461C43.6627 54.6401 43.7296 53.6094 43.7132 52.686C43.6857 50.8829 43.6473 49.08 43.5981 47.2774C43.3185 37.5176 42.9855 27.777 42.0466 18.0529C41.9312 16.8579 41.6197 12.8566 41.2615 11.9654C41.1482 11.6835 40.9781 11.6732 40.7188 11.5631L40.5339 11.1494Z" fill="#06AB94"/>
<path d="M40.5339 11.1494C41.1904 11.2169 41.4845 11.5939 41.8809 12.0729C41.9319 12.1344 41.9811 12.1978 42.029 12.2619C41.9212 13.6334 42.3609 15.4707 42.5163 16.8765C42.7736 19.346 42.9864 21.8194 43.1547 24.2965C43.8798 34.2738 44.3237 44.2635 44.4863 54.2656C45.3631 54.1591 50.5447 53.2469 50.9507 53.4413L51.0275 53.5582L51.1429 53.5768L50.9879 54.2692C48.8347 54.897 46.6642 55.4576 44.4764 55.9511L44.0228 56.049C43.92 55.8816 43.8419 55.742 43.81 55.5461C43.6627 54.6401 43.7296 53.6094 43.7132 52.686C43.6857 50.8829 43.6473 49.08 43.5981 47.2774C43.3185 37.5176 42.9855 27.777 42.0466 18.0529C41.9312 16.8579 41.6197 12.8566 41.2615 11.9654C41.1482 11.6835 40.9781 11.6732 40.7188 11.5631L40.5339 11.1494Z" fill="#04907E"/>
<path d="M51.0275 53.5581L51.1428 53.5767L50.9878 54.2691C48.8347 54.8969 46.6641 55.4575 44.4763 55.9511C44.3587 55.6424 44.3598 55.2747 44.3274 54.9461C46.5845 54.7217 48.8269 54.0953 51.0275 53.5581Z" fill="#00E5BC"/>
<path d="M21.9143 61.0513C21.2194 55.8742 21.1722 50.8124 21.4257 45.6039C21.4659 44.7791 21.3615 43.6395 21.5999 42.8586L21.7457 42.8848L22.4193 43.3079C26.2063 45.4434 29.6065 47.7218 32.6273 50.8802C33.5386 51.833 34.5822 53.5833 35.5221 54.3262C36.2858 55.4455 37.0928 56.5356 37.7914 57.6977C40.6362 62.4294 42.3023 67.6449 43.5151 73.0074C43.7353 74.1937 43.9615 75.3797 44.1308 76.5746C44.2434 77.3689 44.2845 78.1938 44.4465 78.9764C44.499 79.5499 44.5036 80.2012 44.6958 80.7467C44.7021 82.0496 45.0806 83.4059 45.0169 84.6935C45.1844 86.5104 45.6418 95.6399 44.7507 96.8837C44.7218 96.924 44.6785 96.9519 44.6426 96.9858L44.2963 96.9694L44.3002 96.8621C38.9944 93.2829 33.384 87.9959 29.7506 82.7064L28.768 81.4145C28.0711 80.091 27.1717 78.8775 26.4993 77.5307C24.2063 72.9381 22.9267 67.6495 22.1462 62.6021L22.0539 62.2916C22.0542 61.8867 21.9644 61.4545 21.9143 61.0513Z" fill="#00E5BC"/>
<path d="M22.0542 62.292C24.7614 62.6864 27.5759 63.3968 30.2165 64.121C30.2139 64.2753 30.2388 64.2027 30.1243 64.3319C29.0074 64.2635 27.8661 63.9369 26.7783 63.6832L22.1465 62.6025L22.0542 62.292Z" fill="#06AB94"/>
<path d="M45.0174 84.6934C45.185 86.5102 45.6424 95.6397 44.7513 96.8835C44.7224 96.9238 44.6791 96.9517 44.6432 96.9856L44.2969 96.9692L44.3008 96.8619C44.1406 96.3596 43.6506 96.233 43.2787 95.918C42.973 95.6593 42.9426 95.0817 42.8615 94.7049C42.515 93.0946 41.8831 91.4141 41.3006 89.8685C40.9912 89.0475 40.3974 88.0741 40.2927 87.2089C41.3091 88.0969 42.6466 94.6031 43.6099 95.4877C43.6703 95.3412 42.8959 92.6654 42.8208 92.238L42.8871 92.0454C42.6061 90.9347 40.9694 85.5072 41.2247 84.81C41.4067 85.3785 41.633 85.9623 41.76 86.5441C42.0794 86.9794 42.1973 87.5551 42.4264 88.0455L42.5552 87.9705C42.6269 87.9296 42.701 87.892 42.7712 87.8485C43.3747 87.475 43.8832 87.3574 44.5698 87.2313C44.6011 87.2256 44.8175 87.1915 44.8567 87.1705C45.1988 86.989 44.8285 85.3186 44.9662 84.852C44.9821 84.7988 45.0005 84.7462 45.0174 84.6934Z" fill="#06AB94"/>
<path d="M29.8757 82.6599C30.8169 83.634 33.0635 83.9337 34.3707 84.2168L34.9427 84.3428C36.1728 84.8406 38.9148 85.3481 39.7407 85.8352C39.9188 86.2956 40.1027 86.7537 40.2925 87.2094C40.3972 88.0746 40.9909 89.048 41.3004 89.869C41.8829 91.4146 42.5148 93.0951 42.8613 94.7054C42.9423 95.0823 42.9727 95.6598 43.2785 95.9185C43.6504 96.2335 44.1404 96.3601 44.3005 96.8625C38.9948 93.2833 33.3844 87.9963 29.751 82.7067L29.8757 82.6599Z" fill="#04907E"/>
<path d="M50.8566 92.3359L51.1983 92.4729C50.7394 94.064 50.4726 98.4507 50.0369 99.4426C49.7878 101.769 49.4032 104.099 49.0652 106.415C48.9426 107.256 48.7659 108.11 48.6924 108.955L48.2563 108.953C48.6878 105.86 49.0377 102.699 49.6516 99.637C49.6672 98.9002 49.8559 98.0965 49.9636 97.3638C50.2092 95.6898 50.3939 93.9661 50.8566 92.3359Z" fill="#035E60"/>
<path d="M48.9128 70.271L49.0689 70.2695C49.4487 71.2278 50.3639 72.1756 51.0063 72.996C51.7695 74.0463 52.4526 75.1666 53.226 76.203L53.3497 76.5238C52.7382 78.6313 52.2296 80.7939 51.7523 82.9355C51.5385 83.8949 51.254 84.9333 51.1504 85.908C50.8478 87.0432 50.8342 88.5546 50.2034 89.5537C50.0541 88.9629 49.9929 88.3485 49.9119 87.7448C49.6583 86.4032 49.5737 84.993 49.4451 83.6321C49.0247 79.1856 48.9167 74.735 48.9128 70.271Z" fill="#06AB94"/>
<path d="M49.9119 87.7446C50.0534 87.8325 50.1848 87.958 50.3149 88.0632L50.4376 88.0297C50.8335 86.7802 50.8169 85.3708 51.2586 84.1693C51.5826 83.288 51.7004 82.2474 51.9073 81.3246C52.2853 79.6401 52.736 77.9736 53.0462 76.2743C52.8713 75.8661 51.3329 73.6432 50.9886 73.2487C50.9641 73.2207 50.937 73.1951 50.9111 73.1682L51.0063 72.9958C51.7695 74.0461 52.4526 75.1664 53.2261 76.2028L53.3497 76.5236C52.7383 78.6311 52.2296 80.7937 51.7523 82.9353C51.5386 83.8947 51.254 84.9331 51.1505 85.9078C50.8479 87.043 50.8342 88.5544 50.2034 89.5536C50.0541 88.9627 49.993 88.3483 49.9119 87.7446Z" fill="#058376"/>
<path d="M44.4768 55.951C46.6647 55.4575 48.8352 54.8968 50.9884 54.269L50.8537 54.5879C50.3362 57.0785 49.6641 59.5361 49.1492 62.0293C48.493 65.2071 47.7912 68.3531 47.0533 71.5128C46.6267 73.3399 46.2502 75.217 45.6601 76.9976C45.4003 78.2599 45.0407 79.5053 44.6965 80.747C44.5043 80.2015 44.4997 79.5503 44.4472 78.9768C44.2852 78.1941 44.2441 77.3693 44.1315 76.575C43.9621 75.3801 43.736 74.194 43.5158 73.0078L43.7238 72.6678C43.8646 71.457 43.0589 69.3473 43.3484 68.3179C43.3077 68.7006 43.4424 69.0121 43.5679 69.3652C43.5342 69.6258 43.4981 69.6622 43.6363 69.8801L44.0159 70.0433C44.0239 70.5061 44.0353 70.9664 44.0655 71.4284C44.0877 71.2279 44.1114 71.0276 44.1366 70.8275C44.0467 69.4223 43.7321 56.3797 43.8182 56.1436L44.0233 56.0489L44.4768 55.951Z" fill="#06AB94"/>
<path d="M44.4768 55.951C46.6647 55.4575 48.8352 54.8968 50.9884 54.269L50.8537 54.5879C48.7025 55.0394 46.5692 55.693 44.4261 56.2009C44.7639 63.375 45.1091 70.5859 45.1756 77.767L45.277 77.7769L45.5518 77.021L45.6601 76.9976C45.4003 78.2599 45.0407 79.5053 44.6965 80.747C44.5043 80.2015 44.4997 79.5503 44.4472 78.9768C44.2852 78.1941 44.2441 77.3693 44.1315 76.575C43.9621 75.3801 43.736 74.194 43.5158 73.0078L43.7238 72.6678C43.8646 71.457 43.0589 69.3473 43.3484 68.3179C43.3077 68.7006 43.4424 69.0121 43.5679 69.3652C43.5342 69.6258 43.4981 69.6622 43.6363 69.8801L44.0159 70.0433C44.0239 70.5061 44.0353 70.9664 44.0655 71.4284C44.0877 71.2279 44.1114 71.0276 44.1366 70.8275C44.0467 69.4223 43.7321 56.3797 43.8182 56.1436L44.0233 56.0489L44.4768 55.951Z" fill="#058376"/>
<path d="M43.7238 72.6678C43.8646 71.457 43.0589 69.3473 43.3484 68.3179C43.3077 68.7006 43.4424 69.0121 43.5679 69.3652C43.5342 69.6257 43.4981 69.6622 43.6363 69.8801L44.0159 70.0433C44.0239 70.5061 44.0353 70.9664 44.0655 71.4284C44.0877 71.2279 44.1114 71.0276 44.1366 70.8275C44.6458 71.6798 43.8068 76.5575 44.9001 77.9265C45.0319 77.9343 45.1596 77.9387 45.2919 77.9389C45.145 78.5454 44.9853 79.1321 44.775 79.72L44.7254 79.7123L44.6182 79.3159L44.522 79.321C44.5312 79.2757 44.5422 79.2305 44.5494 79.1846C44.5765 79.0114 44.5607 78.9296 44.5113 78.7669L44.4472 78.9768C44.2852 78.1941 44.2441 77.3692 44.1315 76.575C43.9621 75.3801 43.736 74.194 43.5158 73.0078L43.7238 72.6678Z" fill="#04907E"/>
<path d="M61.5866 33.8609C62.4887 32.8998 62.3857 31.002 64.0968 30.172C66.2373 29.1339 68.5707 28.4283 70.7729 27.5137C72.8246 26.6616 74.8408 25.5315 76.9496 24.843C77.2345 25.0033 77.3239 25.2352 77.4957 25.5094L77.5248 25.8212C77.501 25.8446 77.4778 25.8686 77.4538 25.8916C76.6642 26.649 75.6202 27.2227 74.6601 27.7374C73.3131 28.4596 71.9551 29.159 70.6266 29.9153C67.6432 31.6139 66.4558 33.0036 66.3458 36.521C66.1715 42.0962 68.1913 50.3885 70.8157 55.2767C72.0043 54.3094 73.884 53.08 75.4989 53.238C75.7488 53.2625 75.9493 53.3778 76.1596 53.5044C76.4611 53.5135 76.7259 53.7226 76.9787 53.8726L76.9699 54.1915L77.0749 54.2851L76.9292 54.4198C77.4015 54.9301 78.2219 57.0169 78.4716 57.7463L77.7406 57.6188C77.4026 57.6805 77.0891 57.7358 76.7718 57.8704C75.5588 58.4741 74.5594 59.2151 73.7268 60.2959C73.0063 61.4958 72.5384 62.6699 72.2225 64.031L72.2026 64.4492C72.566 64.613 73.0166 64.7614 73.3314 65.0039C72.0804 65.0101 70.7937 64.8356 69.5531 64.681C69.1761 64.5524 68.776 64.4534 68.4096 64.301C67.9841 64.1241 67.4895 63.7828 67.3177 63.337C67.0043 62.5228 67.542 61.496 67.8796 60.7616C66.6562 59.0525 65.7769 57.0737 64.9581 55.1464C64.9816 56.5074 65.2373 57.9068 65.3713 59.2652C65.6785 62.207 65.9315 65.1534 66.1306 68.1045C66.2032 69.259 66.1787 72.9173 66.473 73.6622L66.5443 73.7243C66.6447 74.1614 66.6156 74.5549 66.5841 74.9962C66.5677 74.7207 66.5836 74.4365 66.4726 74.1819C65.443 75.9508 64.4044 77.7117 63.1905 79.3629C61.7778 81.2846 52.9798 91.7008 51.3096 92.4446C51.2744 92.4602 51.2351 92.4637 51.1979 92.4731L50.8562 92.3362L50.7278 91.6534C50.4958 90.9797 50.3659 90.2483 50.2029 89.5535C50.8338 88.5543 50.8474 87.043 51.15 85.9078C51.2536 84.9331 51.5381 83.8946 51.7519 82.9352C52.2292 80.7937 52.7378 78.6311 53.3493 76.5236L53.2256 76.2027C52.4522 75.1663 51.769 74.046 51.0059 72.9958C50.3635 72.1753 49.4483 71.2276 49.0685 70.2693L48.9124 70.2708C48.8613 67.5612 49.2366 64.8516 49.6315 62.178C51.1778 51.7056 54.6733 42.0002 61.5866 33.8609Z" fill="#00E5BC"/>
<path d="M63.298 50.4961C63.6645 51.585 64.0486 52.6677 64.4502 53.7441C64.6107 54.184 64.87 54.6928 64.9588 55.1462C64.9822 56.5071 65.238 57.9066 65.372 59.265C65.6791 62.2068 65.9322 65.1532 66.1312 68.1042C66.2039 69.2588 66.1793 72.917 66.4736 73.6619L66.545 73.724C66.6454 74.1611 66.6163 74.5546 66.5848 74.996C66.5684 74.7205 66.5842 74.4363 66.4733 74.1816C65.4437 75.9506 64.405 77.7114 63.1912 79.3626C61.7784 81.2844 52.9804 91.7005 51.3103 92.4443C51.2751 92.46 51.2358 92.4635 51.1986 92.4729L50.8569 92.336L50.7285 91.6532C50.4964 90.9794 50.3665 90.248 50.2036 89.5532C50.8344 88.5541 50.8481 87.0427 51.1507 85.9075C51.1426 86.4009 50.8412 87.6759 50.9435 87.989L51.0867 87.9785C51.6842 87.2661 51.9132 85.8134 52.207 84.9199C52.6885 83.9642 53.0175 81.8857 53.3451 80.7554C54.4601 76.9076 55.5877 73.028 56.8005 69.2098C57.9963 65.4659 59.261 61.7456 60.5947 58.0487C61.1048 56.6464 63.1935 51.6792 63.298 50.4961Z" fill="#058376"/>
<path d="M51.1507 85.908C51.1426 86.4013 50.8412 87.6764 50.9435 87.9895L51.0867 87.979C51.6842 87.2665 51.9132 85.8138 52.207 84.9204C52.2405 85.1591 52.2698 85.4021 52.244 85.643C52.1465 86.55 51.8183 87.4639 51.639 88.361C51.4138 89.4885 51.3493 90.6972 51.0029 91.7941C50.8798 91.7557 50.823 91.7456 50.7285 91.6537C50.4964 90.9799 50.3665 90.2485 50.2036 89.5537C50.8344 88.5545 50.8481 87.0432 51.1507 85.908Z" fill="#06AB94"/>
</g>
<path d="M91.6102 83.7461C91.6866 84.3447 91.7713 84.9433 91.8174 85.545L86.6204 86.3742C85.6514 86.5369 84.6555 86.7721 83.6801 86.8706C83.5517 86.7824 83.4395 86.7398 83.2877 86.7139C82.7599 86.6233 82.1964 86.609 81.6618 86.5661C80.1807 86.447 78.5663 86.3732 77.127 86.0118C78.6633 85.7205 80.2228 85.5284 81.7666 85.2771C85.0422 84.7303 88.3234 84.22 91.6102 83.7461Z" fill="#71C8B8"/>
<path d="M91.4978 82.854C91.4237 82.8221 91.3506 82.7905 91.2786 82.7539C87.4682 80.8171 83.8129 78.5219 80.0782 76.4393L73.4047 72.673C71.4381 71.5877 69.395 70.5532 67.5048 69.3432C67.3446 69.2406 67.2326 69.1566 67.1707 68.9751C67.2668 68.8458 67.3366 68.8551 67.4851 68.8123C68.2556 69.1407 69.1378 69.3127 69.9504 69.526L74.267 70.6448L89.2844 74.5173L89.3331 74.5416C89.9825 75.5991 90.6223 76.6624 91.2526 77.7314C91.6692 78.4316 92.0791 79.2668 92.6262 79.8694C92.2185 80.4317 91.7406 80.9381 91.3312 81.4973L91.4978 82.854Z" fill="#2E5F86"/>
<path d="M58.5991 133.649C57.4404 129.392 56.1224 125.166 54.8802 120.932L49.8098 103.422L47.8172 96.591C47.4034 95.1939 46.9373 93.798 46.5795 92.3856C46.5237 92.1655 46.431 91.8685 46.5015 91.6467C46.6586 91.1525 47.2785 90.8527 47.7145 90.6394C47.5615 91.243 47.7365 91.8178 47.885 92.4041C48.4944 94.8099 49.2846 97.1742 49.971 99.5592L54.8602 116.444L57.4656 125.392C57.9369 127.055 58.4344 129.274 59.0768 130.837C59.6092 130.896 60.2369 131.042 60.7668 131.023C66.8445 131.535 72.8987 132.256 78.9664 132.863C79.1445 132.929 79.3452 132.983 79.4436 133.161C79.4986 133.26 79.5265 133.388 79.5635 133.495C79.7808 134.129 79.9957 135.01 79.8981 135.673L79.9676 135.809L58.5991 133.649Z" fill="#AEFFF1"/>
<path d="M146.91 116.77C147.146 116.709 147.381 116.651 147.62 116.603C147.618 117.432 147.604 118.263 147.616 119.092C143.332 120.135 139.09 121.391 134.828 122.523L98.8923 132.17L87.3649 135.272C86.4252 135.516 84.4089 136.167 83.5847 136.232C83.4916 135.239 83.3841 134.243 83.3252 133.247C86.0295 132.627 88.7009 131.832 91.3853 131.13L112.91 125.441L134.479 119.926C137.199 119.249 139.915 118.557 142.626 117.848C144.052 117.485 145.498 117.179 146.91 116.77Z" fill="#A1FFEE"/>
<path d="M47.7145 90.6392C48.5585 90.3006 50.2421 90.1561 51.2078 90.0085L58.5697 88.8992L69.8065 87.1231C72.2419 86.7325 74.6787 86.3165 77.1265 86.011C78.5658 86.3724 80.1802 86.4462 81.6613 86.5653C82.196 86.6082 82.7594 86.6225 83.2872 86.713C83.439 86.739 83.5512 86.7816 83.6796 86.8698C81.0555 87.4531 78.342 87.7734 75.691 88.2308L57.7379 91.283L52.6847 92.1359C51.6634 92.31 50.6216 92.462 49.6134 92.6972C52.8854 103.52 56.091 114.363 59.2303 125.225C59.5522 126.273 59.8569 127.331 60.2008 128.372L64.9564 127.222C65.6738 127.05 66.516 126.927 67.1957 126.656C71.1185 125.847 75.012 124.797 78.9128 123.879L84.3556 122.658C85.5029 122.404 86.7025 122.2 87.8218 121.846C89.3606 121.628 91.0325 121.134 92.5532 120.772C95.723 120.018 98.9217 119.236 102.122 118.624C102.606 118.857 103.947 118.197 104.578 118.218L104.565 118.484C104.675 118.554 104.78 118.577 104.911 118.537C104.983 118.515 105.017 118.492 105.078 118.456L104.945 118.54L104.964 118.612L104.764 118.969C104.912 119.044 105.137 118.978 105.305 118.956C105.112 119.052 105.053 119.061 104.942 119.252C104.953 119.42 104.939 119.42 105.059 119.534C105.415 119.549 105.785 119.336 106.11 119.544C106.045 119.621 105.973 119.618 105.877 119.644L105.896 119.709C105.097 120.041 104.194 120.232 103.359 120.461L99.0866 121.64C98.5144 121.8 97.6302 121.926 97.1588 122.271C95.3736 122.784 93.5042 123.104 91.6909 123.511C89.1555 124.091 86.6245 124.689 84.0977 125.306L60.8121 130.939L60.7668 131.023C60.2369 131.042 59.6092 130.895 59.0767 130.836C58.4344 129.274 57.9369 127.055 57.4656 125.392L54.8602 116.443L49.9709 99.5589C49.2846 97.174 48.4944 94.8097 47.885 92.4039C47.7365 91.8175 47.5614 91.2428 47.7145 90.6392Z" fill="#71C8B8"/>
<path d="M107.562 93.8254C108.553 95.221 109.502 96.6471 110.503 98.0343C110.679 98.3503 110.891 98.6775 111.16 98.9218L111.307 98.9191C111.498 98.4047 112.052 97.8591 112.404 97.4311C112.857 98.9506 113.417 100.441 113.921 101.944C114.981 105.143 116.059 108.336 117.153 111.523C117.461 112.426 118.376 115.589 118.751 116.17L109.783 118.6C108.492 118.956 107.201 119.415 105.897 119.709L105.878 119.645C105.973 119.619 106.046 119.622 106.111 119.544C105.786 119.337 105.416 119.549 105.06 119.534C104.94 119.421 104.953 119.42 104.943 119.253C105.054 119.061 105.113 119.052 105.306 118.956C105.138 118.978 104.913 119.044 104.765 118.969L104.965 118.613L104.946 118.54L105.078 118.456C105.017 118.492 104.983 118.516 104.912 118.537C104.781 118.578 104.675 118.554 104.566 118.484L104.578 118.218C103.947 118.197 102.607 118.857 102.122 118.624C98.9225 119.236 95.7238 120.019 92.554 120.773C91.0332 121.134 89.3614 121.628 87.8226 121.846L87.7669 121.791C86.9955 121.883 86.266 122.231 85.4863 122.279C85.5946 121.949 87.7319 119.309 88.1031 118.815C90.5411 115.548 93.0222 112.313 95.5463 109.111L102.606 100.242C103.586 98.9855 104.58 97.7397 105.588 96.505C106.261 95.6645 107.069 94.7846 107.562 93.8254Z" fill="#014F41"/>
<path d="M112.403 97.4312C112.856 98.9507 113.416 100.441 113.92 101.944C114.981 105.143 116.058 108.336 117.153 111.523C117.46 112.426 118.375 115.589 118.751 116.17L109.782 118.6C108.491 118.956 107.201 119.415 105.897 119.709L105.877 119.645C105.973 119.619 106.045 119.622 106.11 119.544C105.785 119.337 105.415 119.549 105.059 119.534C104.939 119.421 104.953 119.42 104.942 119.253C105.054 119.061 105.112 119.052 105.305 118.956C105.138 118.978 104.913 119.044 104.764 118.969L104.964 118.613L104.945 118.54L105.078 118.456C105.017 118.492 104.983 118.516 104.911 118.538C104.78 118.578 104.675 118.554 104.565 118.484L104.578 118.218C103.947 118.197 102.606 118.857 102.122 118.624L111.581 116.507C113.398 116.108 115.236 115.766 117.043 115.326L112.962 103.449C112.497 102.106 112.099 100.731 111.588 99.4051C111.519 99.2241 111.464 99.0427 111.306 98.9192C111.497 98.4048 112.052 97.8592 112.403 97.4312Z" fill="#71C8B8"/>
<path d="M118.751 116.17C119.333 116.128 119.915 116.152 120.498 116.167C120.842 116.168 121.185 116.164 121.528 116.194L139.561 116.575C140.993 116.615 142.425 116.641 143.858 116.654C144.859 116.667 145.918 116.647 146.91 116.77C145.498 117.18 144.052 117.485 142.626 117.848C139.915 118.557 137.199 119.25 134.479 119.926L112.91 125.441L91.3853 131.13C88.7009 131.832 86.0295 132.627 83.3252 133.247C83.3841 134.244 83.4916 135.239 83.5847 136.233C82.9948 136.013 80.7736 135.908 79.9678 135.81L79.8983 135.673C79.9959 135.01 79.7811 134.129 79.5638 133.496C79.5268 133.388 79.4988 133.261 79.4438 133.161C79.3455 132.984 79.1448 132.929 78.9666 132.864C72.899 132.256 66.8447 131.536 60.7671 131.023L60.8124 130.939L84.098 125.307C86.6247 124.69 89.1558 124.091 91.6911 123.511C93.5044 123.104 95.3739 122.784 97.1591 122.272C97.6304 121.926 98.5146 121.8 99.0869 121.64L103.36 120.461C104.194 120.232 105.098 120.041 105.897 119.71C107.201 119.415 108.491 118.957 109.782 118.6L118.751 116.17Z" fill="#C6FFF5"/>
<path d="M120.498 116.166C120.842 116.167 121.185 116.163 121.528 116.194C121.005 116.367 120.494 116.207 119.977 116.374C119.046 116.675 118.007 116.855 117.116 117.242C116.594 117.468 116.168 117.894 115.63 118.07C114.775 118.351 113.91 118.31 113.049 118.492C112.201 118.67 109.699 119.562 109.006 119.462C110.074 119.032 111.752 118.748 112.93 118.408C114.684 117.901 116.415 117.322 118.163 116.795C118.908 116.57 119.724 116.245 120.498 116.166Z" fill="#C6FFF5"/>
<path d="M78.967 132.863C80.4159 132.968 81.8723 133.261 83.3256 133.247C83.3845 134.243 83.492 135.239 83.5851 136.232C82.9952 136.012 80.774 135.907 79.9683 135.809L79.8987 135.673C79.9963 135.009 79.7815 134.129 79.5642 133.495C79.5272 133.388 79.4992 133.26 79.4442 133.161C79.3459 132.983 79.1452 132.929 78.967 132.863Z" fill="#88FFEA"/>
<path d="M118.751 116.17C119.333 116.128 119.915 116.152 120.498 116.167C119.724 116.246 118.908 116.57 118.163 116.795C116.416 117.322 114.684 117.902 112.93 118.408C111.752 118.749 110.074 119.033 109.006 119.462C106.219 120.166 103.426 120.842 100.626 121.49C99.5418 121.75 98.272 122.23 97.1592 122.272C97.6305 121.926 98.5147 121.8 99.0869 121.64L103.36 120.461C104.194 120.232 105.098 120.041 105.897 119.71C107.201 119.415 108.491 118.957 109.783 118.6L118.751 116.17Z" fill="#C6FFF5"/>
<path d="M110.928 119.756C111.505 119.69 114.028 120.06 114.788 120.127L121.541 120.704C122.721 120.805 123.928 120.863 125.098 121.036C124.384 121.348 123.576 121.498 122.822 121.689L119.026 122.653L100.965 127.257C99.4438 127.22 97.5221 126.847 95.9615 126.666C93.826 126.434 91.6924 126.186 89.5607 125.921C88.7508 125.816 87.7866 125.778 87.0195 125.506C89.2181 125.064 91.42 124.45 93.6055 123.933L110.928 119.756Z" fill="#8BFFEA"/>
<path d="M95.5123 76.3584C96.1116 76.9398 96.6973 77.9956 97.1885 78.7164C98.6475 80.8569 100.038 83.0798 101.591 85.1503C102.346 86.2842 103.181 87.361 103.918 88.5077C104.752 89.6231 105.513 90.8077 106.294 91.9609C106.72 92.5558 107.22 93.1784 107.562 93.8253C107.069 94.7844 106.261 95.6643 105.587 96.5048C104.579 97.7396 103.586 98.9854 102.606 100.242L95.5458 109.111C93.0218 112.313 90.5407 115.548 88.1026 118.815C87.7315 119.309 85.5941 121.948 85.4859 122.279C86.2655 122.231 86.995 121.882 87.7665 121.791L87.8221 121.846C86.7028 122.2 85.5032 122.405 84.3559 122.659L78.9131 123.879C75.0123 124.797 71.1188 125.847 67.196 126.656C67.4985 126.023 68.1411 125.377 68.5843 124.82C69.7541 123.33 70.9467 121.859 72.162 120.406L86.6086 102.9C87.8096 101.462 89.0224 100.033 90.2471 98.6144C91.0357 97.7025 92.1359 96.6446 92.7215 95.601C92.651 93.4022 92.3791 91.179 92.1661 88.9891C92.0318 87.8428 91.948 86.691 91.8172 85.5444C91.7711 84.9426 91.6864 84.344 91.61 83.7455C91.5599 83.4525 91.5345 83.1488 91.4978 82.8536L91.3312 81.497C91.7406 80.9377 92.2185 80.4313 92.6262 79.869C93.5723 78.7209 94.4638 77.4669 95.4621 76.3704L95.5123 76.3584Z" fill="#076F6B"/>
<path d="M106.294 91.9612C106.72 92.5561 107.22 93.1787 107.562 93.8256C107.069 94.7847 106.261 95.6647 105.587 96.5052C104.58 97.7399 103.586 98.9857 102.606 100.243L95.546 109.111C93.0219 112.313 90.5409 115.548 88.1028 118.816C87.7316 119.309 85.5943 121.949 85.4861 122.279C86.2657 122.231 86.9952 121.883 87.7667 121.791L87.8223 121.846C86.703 122.2 85.5034 122.405 84.3561 122.659L78.9133 123.879C78.8223 123.822 78.8589 123.862 78.8123 123.751C79.2325 122.938 80.0334 122.162 80.6296 121.464L84.582 116.892L97.0876 102.536C98.9204 100.5 100.731 98.4435 102.52 96.3679C103.798 94.9077 105.087 93.4835 106.294 91.9612Z" fill="#07967C"/>
<path d="M95.5123 76.3584C96.1116 76.9398 96.6974 77.9956 97.1886 78.7164C98.6476 80.8569 100.038 83.0798 101.591 85.1503C102.346 86.2842 103.181 87.361 103.918 88.5077C102.92 89.5477 102.016 90.7078 101.084 91.8093C99.2703 93.9524 97.445 96.0801 95.6674 98.2537C94.7911 99.3252 93.9741 100.461 93.0781 101.513L93.1218 100.49C92.9646 98.8621 92.8734 97.2287 92.7216 95.601C92.6511 93.4022 92.3791 91.179 92.1662 88.9891C92.0319 87.8428 91.9481 86.691 91.8173 85.5444C91.7711 84.9426 91.6865 84.344 91.6101 83.7455C91.5599 83.4525 91.5346 83.1488 91.4978 82.8536L91.3313 81.497C91.7406 80.9377 92.2186 80.4313 92.6263 79.869C93.5724 78.7209 94.4639 77.4669 95.4622 76.3704L95.5123 76.3584Z" fill="#101E3D"/>
<path d="M95.4622 76.3706C95.3016 79.1913 94.9614 82.0028 94.664 84.812C94.2799 88.4098 93.9191 92.0099 93.5815 95.6124C93.4291 97.2281 93.2048 98.8714 93.1218 100.491C92.9646 98.8623 92.8734 97.229 92.7216 95.6013C92.6511 93.4024 92.3791 91.1793 92.1662 88.9893C92.0319 87.843 91.9481 86.6913 91.8173 85.5446C91.7711 84.9429 91.6865 84.3443 91.6101 83.7457C91.5599 83.4528 91.5346 83.1491 91.4978 82.8538L91.3313 81.4972C91.7406 80.9379 92.2186 80.4316 92.6263 79.8692C93.5724 78.7211 94.4639 77.4671 95.4622 76.3706Z" fill="#57AAB4"/>
<path d="M160.388 38.5994C160.593 38.528 160.797 38.4528 161 38.374C160.606 38.8281 160.221 39.2935 159.808 39.73C159.379 40.3346 158.851 40.8891 158.366 41.4493C157.644 42.2742 156.938 43.1134 156.249 43.9669C152.778 48.2182 149.275 52.443 145.74 56.6414L124.507 82.4336C120.451 87.4103 116.287 92.3176 112.403 97.4311C112.052 97.8592 111.497 98.4048 111.306 98.9192L111.159 98.9219C110.89 98.6776 110.678 98.3504 110.503 98.0344C109.501 96.6472 108.552 95.2211 107.562 93.8255C107.22 93.1786 106.72 92.556 106.293 91.9611C105.512 90.808 104.752 89.6234 103.918 88.508C103.18 87.3612 102.346 86.2845 101.591 85.1505C103.604 83.7641 105.516 82.1974 107.431 80.6777L114.096 75.4247C121.493 69.6586 128.839 63.8299 136.136 57.9384C142.758 52.6058 149.484 47.4039 156.049 42.001C156.575 41.5677 157.096 41.1061 157.65 40.7106C158.43 40.1546 159.215 39.6815 159.942 39.0445L159.934 38.9519C160.134 38.8514 160.261 38.7869 160.388 38.5994Z" fill="#60EFD6"/>
<path d="M110.013 94.0424C111.423 92.2479 113.005 90.5743 114.495 88.8447C117.188 85.6529 119.907 82.4826 122.651 79.3337C126.222 75.1848 129.829 71.0676 133.473 66.9823C135.793 64.3649 138.077 61.7216 140.492 59.19L152.738 46.4366C154.597 44.5079 156.709 42.7344 158.321 40.5899C158.484 40.374 160.122 39.0469 160.299 39.0215L160.291 39.0466C160.096 39.2323 159.928 39.4329 159.757 39.6409L159.808 39.73C159.38 40.3346 158.851 40.8891 158.366 41.4492C157.644 42.2742 156.938 43.1134 156.25 43.9669C152.778 48.2181 149.275 52.4429 145.74 56.6414L124.507 82.4336C120.451 87.4102 116.287 92.3176 112.403 97.4311C112.052 97.8591 111.498 98.4047 111.306 98.9191L111.16 98.9218C110.891 98.6776 110.679 98.3503 110.503 98.0343C110.556 97.2977 110.133 94.9504 110.013 94.0424Z" fill="#5AEEFB"/>
<path d="M91.8173 85.5442C91.9481 86.6908 92.0319 87.8426 92.1662 88.9889C92.3792 91.1788 92.6511 93.402 92.7216 95.6008C92.136 96.6444 91.0358 97.7023 90.2472 98.6142C89.0225 100.033 87.8097 101.461 86.6087 102.9L72.1621 120.406C70.9468 121.859 69.7542 123.33 68.5844 124.819C68.1412 125.377 67.4986 126.023 67.1961 126.656C66.5164 126.927 65.6742 127.05 64.9568 127.222L60.2012 128.372C59.8573 127.331 59.5526 126.273 59.2308 125.225C56.0914 114.363 52.8857 103.52 49.6138 92.6972C50.622 92.462 51.6638 92.31 52.6851 92.1359L57.7383 91.283L75.6914 88.2308C78.3424 87.7734 81.0559 87.4531 83.68 86.8698C84.6555 86.7712 85.6513 86.5361 86.6203 86.3734L91.8173 85.5442Z" fill="#00E5BC"/>
<path d="M59.231 125.225C59.9652 124.777 61.074 123.374 61.6866 122.703L66.0276 117.919C70.7689 112.71 75.5707 107.548 80.2472 102.282L85.4553 96.445C87.6578 93.9308 89.8283 91.3804 92.1664 88.989C92.3794 91.179 92.6513 93.4021 92.7218 95.601C92.1362 96.6445 91.036 97.7024 90.2474 98.6143C89.0227 100.033 87.8099 101.462 86.6089 102.9L72.1623 120.406C70.947 121.859 69.7544 123.33 68.5846 124.82C68.1414 125.377 67.4988 126.023 67.1963 126.656C66.5166 126.927 65.6744 127.05 64.957 127.223L60.2014 128.372C59.8575 127.331 59.5528 126.274 59.231 125.225Z" fill="#07967C"/>
<path d="M157.441 39.6101C158.145 39.2099 159.579 38.814 160.388 38.5989C160.26 38.7864 160.134 38.8509 159.934 38.9514L159.942 39.044C159.215 39.681 158.43 40.1541 157.65 40.7101C157.096 41.1056 156.575 41.5672 156.049 42.0005C149.484 47.4034 142.758 52.6053 136.136 57.9379C128.839 63.8294 121.492 69.6581 114.096 75.4241L107.431 80.6771C105.516 82.1969 103.604 83.7636 101.591 85.15C100.038 83.0795 98.6471 80.8566 97.1881 78.7161C96.6969 77.9954 96.1111 76.9395 95.5118 76.3581L95.4616 76.3701C94.4634 77.4666 93.5718 78.7206 92.6258 79.8687C92.0787 79.2661 91.6687 78.431 91.2522 77.7307C90.6219 76.6617 89.982 75.5984 89.3326 74.5409L89.2839 74.5166L74.2665 70.6442L69.9499 69.5254C69.1374 69.3121 68.2551 69.14 67.4846 68.8116C70.3706 67.7737 73.3128 66.8652 76.229 65.9146L87.628 62.1614C102.721 57.2195 117.84 52.3587 132.985 47.5791C138.052 46.0188 143.098 44.3934 148.123 42.7028C151.237 41.6886 154.355 40.711 157.441 39.6101Z" fill="#106EB2"/>
<path d="M157.442 39.6101C158.145 39.2099 159.579 38.814 160.388 38.5989C160.261 38.7864 160.134 38.8509 159.934 38.9514C158.323 39.5148 155.992 41.1235 154.469 42.0342L145.77 47.1578L112.975 66.1483L101.151 73.0043C99.4342 73.9986 97.6797 74.9301 95.9818 75.9573C95.831 76.0485 95.6326 76.1475 95.5392 76.3003C95.5281 76.3185 95.5211 76.3389 95.512 76.3581L95.4619 76.3701C94.4636 77.4666 93.5721 78.7206 92.626 79.8687C92.0789 79.2661 91.669 78.431 91.2524 77.7307C90.6221 76.6617 89.9823 75.5984 89.3329 74.5409L89.2842 74.5166C108.432 65.3215 127.385 55.74 146.142 45.7722L154.072 41.5532C155.035 41.0303 156.147 40.5671 157.055 39.9673C157.205 39.8683 157.325 39.7454 157.442 39.6101Z" fill="#3B849A"/>
<path d="M89.3325 74.5417L93.563 75.7088C94.1009 75.8581 94.8136 75.9671 95.3022 76.2177C95.3787 76.2568 95.4146 76.3036 95.4615 76.3709C94.4633 77.4674 93.5717 78.7214 92.6257 79.8695C92.0786 79.2669 91.6686 78.4318 91.2521 77.7316C90.6218 76.6625 89.9819 75.5992 89.3325 74.5417Z" fill="#101E3D"/>
<path d="M159.934 38.9517L159.942 39.0443C159.215 39.6813 158.43 40.1544 157.65 40.7104C157.096 41.1059 156.575 41.5675 156.049 42.0008C149.484 47.4037 142.758 52.6056 136.136 57.9382C128.839 63.8297 121.493 69.6584 114.096 75.4245L107.431 80.6774C105.516 82.1972 103.604 83.7639 101.591 85.1503C100.038 83.0798 98.6472 80.8569 97.1882 78.7164C96.697 77.9957 96.1113 76.9398 95.512 76.3584C95.521 76.3392 95.5281 76.3188 95.5392 76.3006C95.6325 76.1478 95.8309 76.0488 95.9817 75.9576C97.6796 74.9304 99.4341 73.9989 101.151 73.0046L112.975 66.1486L145.77 47.1581L154.469 42.0345C155.991 41.1238 158.323 39.5151 159.934 38.9517Z" fill="#F4ECE5"/>
<defs>
<linearGradient id="paint0_linear_217_2278" x1="65.0962" y1="115.428" x2="100.178" y2="28.7391" gradientUnits="userSpaceOnUse">
<stop stop-color="#95DFD1"/>
<stop offset="1" stop-color="white"/>
</linearGradient>
<linearGradient id="paint1_linear_217_2278" x1="83.9105" y1="100.337" x2="93.7345" y2="104.882" gradientUnits="userSpaceOnUse">
<stop stop-color="#B98D86"/>
<stop offset="1" stop-color="#969696"/>
</linearGradient>
<linearGradient id="paint2_linear_217_2278" x1="119.352" y1="88.9866" x2="108.479" y2="82.7231" gradientUnits="userSpaceOnUse">
<stop stop-color="#00696B"/>
<stop offset="1" stop-color="#1F9EAC"/>
</linearGradient>
<linearGradient id="paint3_linear_217_2278" x1="96.3407" y1="129.217" x2="120.985" y2="119.998" gradientUnits="userSpaceOnUse">
<stop stop-color="#044958"/>
<stop offset="1" stop-color="#009586"/>
</linearGradient>
<linearGradient id="paint4_linear_217_2278" x1="121.576" y1="108.621" x2="141.921" y2="69.8704" gradientUnits="userSpaceOnUse">
<stop stop-color="#007F7D"/>
<stop offset="1" stop-color="#02C5A1"/>
</linearGradient>
</defs>
</svg>
