<svg xmlns="http://www.w3.org/2000/svg" width="17" height="12" fill="none" viewBox="0 0 17 12"><path fill="#FDFDFD" d="M3.031 6.585a5.507 5.507 0 0 0 5.47 4.915c.77 0 1.53-.16 2.234-.475a33.955 33.955 0 0 1-3.993-1.98 34.17 34.17 0 0 1-3.71-2.46ZM15.898 8.61a9.453 9.453 0 0 0-1.063-1.157 6.412 6.412 0 0 1-.343 1.063c.897.922 1.037 1.417 1.005 1.514-.062.07-.533.215-1.817-.11a12.787 12.787 0 0 1-1.035-.311c.23-.264.435-.55.61-.852l.017-.027a5.48 5.48 0 0 0 .697-3.324A5.51 5.51 0 0 0 8.5.5a5.48 5.48 0 0 0-3.325 1.122c-.579.44-1.066.99-1.432 1.62l-.016.027a5.484 5.484 0 0 0-.432.954 12.275 12.275 0 0 1-.788-.74c-.924-.946-1.034-1.425-1.005-1.514.067-.076.566-.205 1.817.11.225-.297.476-.575.75-.83A9.457 9.457 0 0 0 2.504.907C1.544.796.916.985.636 1.469c-.101.174-.198.471-.085.893.168.627.766 1.388 1.613 2.185.27.254.564.511.878.77a25.768 25.768 0 0 0 1.743 1.308 35.277 35.277 0 0 0 3.35 2.053 32.82 32.82 0 0 0 2.883 1.382c.275.114.544.22.806.318.372.138.73.26 1.073.362l.034.01c.804.24 1.482.366 2.015.375h.055c.676 0 1.134-.2 1.362-.593.284-.489.127-1.135-.465-1.922Z"/></svg>