<svg xmlns="http://www.w3.org/2000/svg" fill="none" viewBox="0 0 17 17"><path fill="#000210" fill-rule="evenodd" d="m14.056.32-.138 1.08a1.92 1.92 0 0 1-1.661 1.662l-.76.097-.761-.097A1.92 1.92 0 0 1 9.074 1.4L8.936.32 8.798 1.4a1.92 1.92 0 0 1-1.661 1.662l-.76.097-.761-.097A1.92 1.92 0 0 1 3.954 1.4L3.816.32 3.678 1.4a1.92 1.92 0 0 1-1.661 1.662l-1.08.137 1.08.138A1.92 1.92 0 0 1 3.678 5l.097.76-.097.761a1.92 1.92 0 0 1-1.661 1.662l-1.08.137 1.08.138a1.92 1.92 0 0 1 1.661 1.662l.097.76-.097.761a1.92 1.92 0 0 1-1.661 1.662l-1.08.138 1.08.137a1.92 1.92 0 0 1 1.661 1.662l.138 1.08.138-1.08a1.92 1.92 0 0 1 1.662-1.662l.76-.097.76.097a1.92 1.92 0 0 1 1.662 1.662l.138 1.08.138-1.08a1.92 1.92 0 0 1 1.662-1.662l.76-.097.76.097a1.92 1.92 0 0 1 1.662 1.662l.138 1.08.138-1.08a1.92 1.92 0 0 1 1.662-1.662l1.08-.137-1.08-.138a1.92 1.92 0 0 1-1.662-1.662l-.097-.76.097-.761a1.92 1.92 0 0 1 1.662-1.662l1.08-.138-1.08-.137a1.92 1.92 0 0 1-1.662-1.662l-.097-.76.097-.761a1.92 1.92 0 0 1 1.662-1.662l1.08-.138-1.08-.137A1.92 1.92 0 0 1 14.194 1.4L14.056.32Zm-7.68 13.079-.76-.097a1.92 1.92 0 0 1-1.662-1.662l-.097-.76.097-.761a1.92 1.92 0 0 1 1.662-1.662l.76-.097.76.097a1.92 1.92 0 0 1 1.662 1.662l.097.76-.097.761a1.92 1.92 0 0 1-1.661 1.662l-.76.097Zm-2.422-8.4-.097.76.097.761a1.92 1.92 0 0 0 1.662 1.662l.76.097.76-.097A1.92 1.92 0 0 0 8.799 6.52l.097-.76-.097-.761a1.92 1.92 0 0 0-1.661-1.662l-.76-.097-.761.097A1.92 1.92 0 0 0 3.954 5Zm5.12 5.12-.097.76.097.761a1.92 1.92 0 0 0 1.662 1.662l.76.097.76-.097a1.92 1.92 0 0 0 1.662-1.662l.097-.76-.097-.761a1.92 1.92 0 0 0-1.661-1.662l-.76-.097-.761.097a1.92 1.92 0 0 0-1.662 1.662Zm2.422-1.84-.76-.097A1.92 1.92 0 0 1 9.074 6.52l-.097-.76.097-.761a1.92 1.92 0 0 1 1.662-1.662l.76-.097.76.097A1.92 1.92 0 0 1 13.919 5l.097.76-.097.761a1.92 1.92 0 0 1-1.661 1.662l-.76.097Z" clip-rule="evenodd"/></svg>