<svg xmlns="http://www.w3.org/2000/svg" width="16" height="16" fill="none" viewBox="0 0 16 16"><path fill="#FDFDFD" d="m8 0 .401 2.476c.158.973 1.39 1.304 2.014.54L12 1.072l-.89 2.345c-.35.921.552 1.824 1.474 1.474L14.928 4l-1.944 1.585c-.764.623-.433 1.856.54 2.014L16 8l-2.476.401c-.973.158-1.303 1.39-.54 2.014L14.928 12l-2.345-.89c-.921-.35-1.824.552-1.474 1.474L12 14.928l-1.585-1.944c-.623-.764-1.856-.433-2.014.54L8 16l-.401-2.476c-.158-.973-1.39-1.303-2.014-.54L4 14.928l.89-2.345c.35-.921-.552-1.824-1.474-1.474L1.072 12l1.944-1.585c.763-.623.433-1.856-.54-2.014L0 8l2.476-.4c.973-.159 1.303-1.392.54-2.015L1.072 4l2.344.89c.922.35 1.825-.552 1.475-1.473L4 1.071l1.585 1.944c.623.764 1.856.433 2.014-.54L8 0Z"/></svg>