<svg xmlns="http://www.w3.org/2000/svg" width="263" height="51" fill="none" viewBox="0 0 263 51"><g clip-path="url(#a)"><path fill="url(#b)" fill-rule="evenodd" d="M24.997 25.498c0-8.284 6.716-15 15.001-15s15 6.716 15 15c0 8.285-6.715 15-15 15s-15-6.715-15-15Zm7.878 7.497a.31.31 0 0 0 .31-.309h-.003V18.31a.31.31 0 0 0-.309-.31h-2.379a.31.31 0 0 0-.309.31v14.377c0 .17.138.31.31.31h2.38Zm17.636-11.998a.31.31 0 0 0 .31-.31h.004V18.31a.31.31 0 0 0-.31-.31h-14.38a.31.31 0 0 0-.309.31v2.379a.31.31 0 0 0 .31.309h5.689v11.69c0 .169.137.308.309.308h2.379a.31.31 0 0 0 .309-.309v-11.69h5.69ZM24.535 18.46l-7.036 7.035 7.036 7.036a.273.273 0 0 1-.193.465h-3.175a.992.992 0 0 1-.702-.29l-5.089-5.088L12.997 30v2.69a.31.31 0 0 1-.309.308H10.31a.31.31 0 0 1-.309-.309v-14.38a.31.31 0 0 1 .309-.308h2.38c.168 0 .308.137.308.309v7.444l7.468-7.468a.995.995 0 0 1 .702-.29h3.175c.244 0 .364.294.193.466Z" clip-rule="evenodd"/><path fill="#FEFEFE" d="M33.184 32.686h.1v-.1h-.1v.1Zm-.002 0h-.1v.1h.1v-.1ZM50.82 20.688v-.1h-.1v.1h.1Zm.005 0v.1h.1v-.1h-.1Zm-9 .309h.1v-.1h-.1v.1Zm2.997 0v-.1h-.1v.1h.1Zm-27.323 4.5-.07-.071-.071.07.07.071.071-.07Zm7.036-7.036-.07-.07.07.07Zm0 14.07.07-.07-.07.07Zm-4.07.177.07-.071-.07.07Zm-5.089-5.089.071-.07-.07-.071-.071.07.07.071ZM12.997 30l-.07-.071-.03.029v.041h.1Zm0-4.246h-.1v.24l.17-.17-.07-.07Zm7.468-7.468.07.071-.07-.07ZM39.998 10.4c-8.34 0-15.1 6.76-15.1 15.1h.2c0-8.23 6.67-14.9 14.9-14.9v-.2Zm15.1 15.1c0-8.34-6.76-15.1-15.1-15.1v.2c8.23 0 14.9 6.67 14.9 14.9h.2Zm-15.1 15.1c8.34 0 15.1-6.761 15.1-15.1h-.2c0 8.229-6.67 14.9-14.9 14.9v.2Zm-15.1-15.1c0 8.339 6.76 15.1 15.1 15.1v-.2c-8.23 0-14.9-6.672-14.9-14.9h-.2Zm8.186 7.187a.21.21 0 0 1-.209.21v.2a.41.41 0 0 0 .41-.41h-.2Zm.098.1h.002v-.2h-.002v.2Zm-.1-14.477v14.377h.2V18.31h-.2Zm-.209-.21a.21.21 0 0 1 .21.21h.2a.41.41 0 0 0-.41-.41v.2Zm-2.379 0h2.38v-.2h-2.38v.2Zm-.209.21a.21.21 0 0 1 .21-.21v-.2a.41.41 0 0 0-.41.41h.2Zm0 14.377V18.31h-.2v14.377h.2Zm.21.21a.21.21 0 0 1-.21-.21h-.2c0 .224.182.41.41.41v-.2Zm2.38 0h-2.38v.2h2.38v-.2Zm17.845-12.21a.21.21 0 0 1-.209.209v.2a.41.41 0 0 0 .41-.41h-.2Zm.105-.1h-.005v.2h.005v-.2Zm-.1-2.28v2.38h.2v-2.38h-.2Zm-.21-.208a.21.21 0 0 1 .21.209h.2a.41.41 0 0 0-.41-.41v.2Zm-14.38 0h14.38v-.2h-14.38v.2Zm-.209.209a.21.21 0 0 1 .21-.21v-.2a.41.41 0 0 0-.41.41h.2Zm0 2.379v-2.38h-.2v2.38h.2Zm.21.209a.21.21 0 0 1-.21-.21h-.2a.41.41 0 0 0 .41.41v-.2Zm5.689 0h-5.69v.2h5.69v-.2Zm.1 11.79v-11.69h-.2v11.69h.2Zm.209.208a.21.21 0 0 1-.21-.209h-.2c0 .224.183.41.41.41v-.2Zm2.379 0h-2.38v.2h2.38v-.2Zm.209-.209a.21.21 0 0 1-.21.21v.2a.41.41 0 0 0 .41-.41h-.2Zm0-11.69v11.69h.2v-11.69h-.2Zm5.79-.1h-5.69v.2h5.69v-.2ZM17.57 25.568l7.036-7.035-.142-.142-7.035 7.036.141.141Zm7.036 6.894-7.036-7.035-.141.141 7.035 7.035.142-.14Zm-.264.636a.373.373 0 0 0 .264-.636l-.142.142a.173.173 0 0 1-.122.294v.2Zm-3.175 0h3.175v-.2h-3.175v.2Zm-.773-.319c.205.205.483.32.773.32v-.2a.892.892 0 0 1-.632-.261l-.141.141Zm-5.088-5.088 5.088 5.088.141-.141-5.088-5.088-.141.141Zm-2.238 2.379 2.379-2.379-.141-.141-2.38 2.379.142.141Zm.03 2.62V30h-.2v2.69h.2Zm-.41.408a.41.41 0 0 0 .41-.409h-.2a.21.21 0 0 1-.21.21v.2Zm-2.379 0h2.38v-.2h-2.38v.2Zm-.409-.409a.41.41 0 0 0 .409.41v-.2a.21.21 0 0 1-.209-.21h-.2Zm0-14.38v14.38h.2v-14.38h-.2Zm.409-.408a.41.41 0 0 0-.409.409h.2a.21.21 0 0 1 .209-.21v-.2Zm2.38 0h-2.38v.2h2.38v-.2Zm.408.409a.41.41 0 0 0-.409-.41v.2a.21.21 0 0 1 .21.21h.2Zm0 7.444V18.31h-.2v7.444h.2Zm7.297-7.538-7.467 7.467.14.141 7.468-7.467-.141-.141Zm.773-.32c-.288 0-.568.114-.773.32l.141.141a.895.895 0 0 1 .632-.26v-.2Zm3.175 0h-3.175v.2h3.175v-.2Zm.264.637a.373.373 0 0 0-.264-.637v.2c.154 0 .231.186.122.295l.142.142Z"/></g><path fill="url(#c)" d="M68.478 33C64.356 33 61 29.62 61 25.5s3.356-7.5 7.478-7.5c3.24 0 6.002 2.098 6.999 5.032l-2.167.894c-.652-2.118-2.53-3.614-4.832-3.614-2.819 0-5.081 2.332-5.081 5.188 0 2.876 2.262 5.188 5.081 5.188 2.301 0 4.18-1.496 4.832-3.614l2.186.894C74.48 30.882 71.719 33 68.478 33Z"/><path fill="url(#d)" d="M77.473 32.786V18.214h6.424c2.626 0 4.62 1.943 4.62 4.488 0 2.565-1.994 4.527-4.62 4.527H79.85v5.557h-2.378Zm2.378-7.85h3.969c1.342 0 2.3-.913 2.3-2.234 0-1.302-.958-2.215-2.3-2.215h-3.97v4.45Z"/><path fill="url(#e)" d="m87.466 32.786 6.059-14.572h2.435L102 32.786h-2.493l-1.687-4.1h-6.174l-1.688 4.1h-2.492Zm5.1-6.334H96.9l-2.167-5.266-2.167 5.266Z"/><path fill="#000" d="m130 27.4-4.22 5.6h-3.04l5.64-7.5-5.64-7.5h3.04l4.22 5.6 4.2-5.6h3.04l-5.64 7.5 5.64 7.5h-3.04l-4.2-5.6Z"/><g fill="#ED1C24" clip-path="url(#f)"><path d="M166.424 25.88v8.433c0 2.698.721 3.002 3.794 3.116v.987H158v-.987c2.542-.114 3.263-.418 3.263-3.116V16.687c0-2.698-.721-3.002-3.187-3.116v-.987h21.046l.152 5.698h-1.063c-.91-2.887-1.897-3.799-6.943-3.799h-3.402c-1.177 0-1.442.266-1.442 1.33v8.167h3.895c4.022 0 4.895-.721 5.388-3.419h.987v9.118h-.987c-.531-3.04-2.049-3.8-5.388-3.8h-3.895Zm20.384 12.536h-6.534v-.987c1.52-.228 2.165-.798 3.419-2.394l3.647-4.558-4.331-6.8c-.608-.95-1.139-1.824-2.431-2.128v-.988h8.813v.988c-.987 0-1.671.304-1.671.874 0 .608.418 1.026.798 1.633l1.747 2.736 1.444-1.824c.57-.722 1.329-1.633 1.329-2.317 0-.798-.532-1.102-1.747-1.102v-.988h6.61v.988c-1.52.152-2.507 1.216-4.179 3.42l-2.545 3.38 4.748 7.332c.988 1.52 1.596 1.748 2.432 1.748v.987h-9.118v-.987c1.14-.038 1.824-.304 1.824-.722 0-.342-.342-.836-.988-1.862l-1.861-2.887-1.52 1.976c-1.064 1.405-1.709 2.165-1.709 2.735 0 .532.835.76 1.823.76v.987Z"/><path fill-rule="evenodd" d="M209.519 12.584h-10.162v1.069c2.369.192 3.173 1.31 3.173 3.514v16.25c0 2.272-.716 3.866-3.173 4.055v.944h11.333v-.954c-2.26-.112-3.551-1.408-3.551-3.667v-6.373c3.731.265 7.632.314 10.564-2.321 2.772-2.48 3.238-7.526.257-10.042-1.789-1.514-4.606-2.475-8.441-2.475Zm-2.38 3.144c0-.755.175-.985.944-.985 2.55 0 4.297.38 5.404 1.204 2.299 1.71 2.16 6.043.097 7.878-1.864 1.658-4.078 1.893-6.445 1.705v-9.802Zm20.746 7.227v-3.027c-1.989.785-3.975 1.582-6.011 2.238l-.433 1.169c1.801-.386 2.494.052 2.494 2.013v9.27c0 1.846-.909 2.836-2.938 2.836v.962h10.118v-.962c-1.925-.085-3.23-.87-3.23-2.837v-7.914c0-1.773 1.145-3.368 2.28-3.368.897 0 1.458 1.33 2.507 1.33 1.185 0 1.862-.978 1.862-2.09 0-1.437-1.057-2.393-2.47-2.393-1.878 0-3.129 1.38-4.179 2.773Z" clip-rule="evenodd"/><path d="M252.502 29.172c0 5.352-3.454 9.244-8.484 9.244-5.031 0-8.484-3.892-8.484-9.244s3.453-9.244 8.484-9.244c5.03 0 8.484 3.892 8.484 9.244Zm-4.73 0c0-5.426-1.089-7.747-3.754-7.747s-3.754 2.32-3.754 7.747 1.089 7.747 3.754 7.747 3.754-2.32 3.754-7.747Z"/></g><defs><linearGradient id="b" x1="43.3538" x2="41.977" y1="10.4985" y2="40.9274" gradientUnits="userSpaceOnUse"><stop stop-color="#65B2FF"/><stop offset="1" stop-color="#6638F4"/></linearGradient><linearGradient id="c" x1="91.3899" x2="91.0116" y1="18" y2="33.2362" gradientUnits="userSpaceOnUse"><stop stop-color="#65B2FF"/><stop offset="1" stop-color="#6638F4"/></linearGradient><linearGradient id="d" x1="91.3899" x2="91.0116" y1="18" y2="33.2362" gradientUnits="userSpaceOnUse"><stop stop-color="#65B2FF"/><stop offset="1" stop-color="#6638F4"/></linearGradient><linearGradient id="e" x1="91.3899" x2="91.0116" y1="18" y2="33.2362" gradientUnits="userSpaceOnUse"><stop stop-color="#65B2FF"/><stop offset="1" stop-color="#6638F4"/></linearGradient><clipPath id="a"><path fill="#fff" d="M10 10.5h45v30H10z"/></clipPath><clipPath id="f"><path fill="#fff" d="M158 12.584h94.502v25.832H158z"/></clipPath></defs></svg>