<svg width="166" height="35" viewBox="0 0 166 35" fill="none" xmlns="http://www.w3.org/2000/svg">
<path d="M0.52265 33.9604V4.25135H13.3824C16.0421 4.25135 18.334 4.68992 20.258 5.56704C22.182 6.41587 23.6675 7.64668 24.7143 9.25946C25.7612 10.8722 26.2847 12.7963 26.2847 15.0315C26.2847 17.2385 25.7612 19.1483 24.7143 20.7611C23.6675 22.3456 22.182 23.5623 20.258 24.4111C18.334 25.2599 16.0421 25.6843 13.3824 25.6843H4.34239L7.39818 22.671V33.9604H0.52265ZM19.4091 33.9604L11.9819 23.1803H19.3243L26.8364 33.9604H19.4091ZM7.39818 23.4349L4.34239 20.2094H13.0005C15.1225 20.2094 16.707 19.7567 17.7539 18.8513C18.8008 17.9175 19.3243 16.6443 19.3243 15.0315C19.3243 13.3904 18.8008 12.1172 17.7539 11.2118C16.707 10.3064 15.1225 9.85364 13.0005 9.85364H4.34239L7.39818 6.58564V23.4349Z" fill="#00E5BC"/>
<path d="M45.0637 33.9604V29.5041L44.6393 28.5279V20.5489C44.6393 19.1342 44.2008 18.0307 43.3236 17.2385C42.4748 16.4462 41.1591 16.0501 39.3766 16.0501C38.1599 16.0501 36.9574 16.2482 35.769 16.6443C34.609 17.0121 33.6187 17.5214 32.7981 18.1722L30.4214 13.5461C31.6664 12.6689 33.166 11.9899 34.9202 11.5089C36.6745 11.0279 38.457 10.7874 40.2678 10.7874C43.7481 10.7874 46.4502 11.6079 48.3742 13.249C50.2982 14.89 51.2602 17.4507 51.2602 20.9309V33.9604H45.0637ZM38.1033 34.3C36.3208 34.3 34.7929 34.0029 33.5196 33.4087C32.2464 32.7862 31.2702 31.9515 30.5912 30.9047C29.9121 29.8578 29.5726 28.6835 29.5726 27.382C29.5726 26.0239 29.898 24.8355 30.5487 23.8169C31.2278 22.7983 32.2888 22.0061 33.7318 21.4402C35.1749 20.846 37.0564 20.5489 39.3766 20.5489H45.4457V24.4111H40.0981C38.5419 24.4111 37.4667 24.6657 36.8725 25.175C36.3066 25.6843 36.0237 26.321 36.0237 27.0849C36.0237 27.9337 36.3491 28.6128 36.9998 29.1221C37.6789 29.6031 38.5985 29.8436 39.7585 29.8436C40.862 29.8436 41.8523 29.589 42.7295 29.0797C43.6066 28.5421 44.2432 27.764 44.6393 26.7454L45.6579 29.8012C45.1769 31.2725 44.2998 32.3901 43.0265 33.1541C41.7533 33.918 40.1122 34.3 38.1033 34.3ZM58.0588 33.9604V10.6176C58.0588 8.0428 58.8228 5.99146 60.3507 4.46356C61.8786 2.90737 64.0572 2.12927 66.8867 2.12927C67.8487 2.12927 68.7682 2.22831 69.6454 2.42637C70.5508 2.62443 71.3147 2.93566 71.9372 3.36008L70.1971 8.15598C69.8293 7.90133 69.419 7.70327 68.9663 7.5618C68.5136 7.42032 68.0326 7.34959 67.5233 7.34959C66.5613 7.34959 65.8115 7.63253 65.2739 8.19842C64.7646 8.73601 64.5099 9.55655 64.5099 10.66V12.7821L64.6797 15.6257V33.9604H58.0588ZM54.5362 16.7292V11.6362H70.3669V16.7292H54.5362ZM74.1017 33.9604V11.1269H80.7226V33.9604H74.1017ZM77.4122 7.94377C76.1955 7.94377 75.2052 7.59009 74.4413 6.88273C73.6773 6.17537 73.2953 5.29825 73.2953 4.25135C73.2953 3.20446 73.6773 2.32734 74.4413 1.61998C75.2052 0.912617 76.1955 0.558937 77.4122 0.558937C78.6288 0.558937 79.6191 0.89847 80.3831 1.57754C81.147 2.22831 81.529 3.07714 81.529 4.12403C81.529 5.22751 81.147 6.14708 80.3831 6.88273C79.6474 7.59009 78.6571 7.94377 77.4122 7.94377ZM100.724 10.7874C102.535 10.7874 104.147 11.1552 105.562 11.8908C107.005 12.5982 108.137 13.7017 108.958 15.2013C109.778 16.6726 110.188 18.5683 110.188 20.8884V33.9604H103.567V21.907C103.567 20.0679 103.157 18.7098 102.337 17.8327C101.544 16.9555 100.413 16.517 98.9413 16.517C97.8944 16.517 96.9466 16.7433 96.0977 17.196C95.2772 17.6204 94.6264 18.2854 94.1454 19.1908C93.6927 20.0962 93.4664 21.2563 93.4664 22.671V33.9604H86.8455V11.1269H93.1693V17.4507L91.9809 15.5408C92.8014 14.0129 93.9757 12.8387 95.5036 12.0182C97.0314 11.1976 98.7716 10.7874 100.724 10.7874ZM130.196 33.9604V29.5041L129.771 28.5279V20.5489C129.771 19.1342 129.333 18.0307 128.455 17.2385C127.607 16.4462 126.291 16.0501 124.508 16.0501C123.292 16.0501 122.089 16.2482 120.901 16.6443C119.741 17.0121 118.75 17.5214 117.93 18.1722L115.553 13.5461C116.798 12.6689 118.298 11.9899 120.052 11.5089C121.806 11.0279 123.589 10.7874 125.4 10.7874C128.88 10.7874 131.582 11.6079 133.506 13.249C135.43 14.89 136.392 17.4507 136.392 20.9309V33.9604H130.196ZM123.235 34.3C121.453 34.3 119.925 34.0029 118.651 33.4087C117.378 32.7862 116.402 31.9515 115.723 30.9047C115.044 29.8578 114.704 28.6835 114.704 27.382C114.704 26.0239 115.03 24.8355 115.681 23.8169C116.36 22.7983 117.421 22.0061 118.864 21.4402C120.307 20.846 122.188 20.5489 124.508 20.5489H130.578V24.4111H125.23C123.674 24.4111 122.599 24.6657 122.004 25.175C121.438 25.6843 121.155 26.321 121.155 27.0849C121.155 27.9337 121.481 28.6128 122.132 29.1221C122.811 29.6031 123.73 29.8436 124.89 29.8436C125.994 29.8436 126.984 29.589 127.861 29.0797C128.738 28.5421 129.375 27.764 129.771 26.7454L130.79 29.8012C130.309 31.2725 129.432 32.3901 128.158 33.1541C126.885 33.918 125.244 34.3 123.235 34.3ZM152.354 34.3C150.204 34.3 148.265 33.819 146.54 32.857C144.814 31.8667 143.441 30.4944 142.423 28.7401C141.432 26.9859 140.937 24.9204 140.937 22.5437C140.937 20.1386 141.432 18.059 142.423 16.3048C143.441 14.5505 144.814 13.1924 146.54 12.2304C148.265 11.2684 150.204 10.7874 152.354 10.7874C154.278 10.7874 155.962 11.2118 157.405 12.0606C158.848 12.9094 159.965 14.1968 160.757 15.9228C161.55 17.6487 161.946 19.8557 161.946 22.5437C161.946 25.2033 161.564 27.4103 160.8 29.1646C160.036 30.8905 158.932 32.1779 157.489 33.0267C156.075 33.8756 154.363 34.3 152.354 34.3ZM153.5 28.8675C154.575 28.8675 155.551 28.6128 156.428 28.1035C157.306 27.5942 157.999 26.8727 158.508 25.939C159.046 24.977 159.314 23.8452 159.314 22.5437C159.314 21.2138 159.046 20.0821 158.508 19.1483C157.999 18.2146 157.306 17.4931 156.428 16.9838C155.551 16.4745 154.575 16.2199 153.5 16.2199C152.396 16.2199 151.406 16.4745 150.529 16.9838C149.652 17.4931 148.945 18.2146 148.407 19.1483C147.898 20.0821 147.643 21.2138 147.643 22.5437C147.643 23.8452 147.898 24.977 148.407 25.939C148.945 26.8727 149.652 27.5942 150.529 28.1035C151.406 28.6128 152.396 28.8675 153.5 28.8675ZM159.484 33.9604V29.2919L159.612 22.5012L159.187 15.753V2.46881H165.808V33.9604H159.484Z" fill="white"/>
</svg>
