<svg width="83" height="83" viewBox="0 0 83 83" fill="none" xmlns="http://www.w3.org/2000/svg">
<path d="M0.986069 41.7323C0.986069 19.2286 19.2288 0.98584 41.7325 0.98584C64.2361 0.98584 82.4789 19.2286 82.4789 41.7323C82.4789 64.2359 64.2361 82.4787 41.7325 82.4787C19.2288 82.4787 0.986069 64.2359 0.986069 41.7323Z" fill="black"/>
<path fill-rule="evenodd" clip-rule="evenodd" d="M40.5114 0.98584C40.3062 17.5039 39.1787 26.7878 32.9834 32.9831C26.7881 39.1784 17.5041 40.306 0.986069 40.5111V42.9533C17.5041 43.1585 26.7881 44.286 32.9834 50.4814C39.1787 56.6767 40.3062 65.9606 40.5114 82.4787H42.9535C43.1587 65.9606 44.2863 56.6767 50.4816 50.4813C56.6769 44.286 65.9608 43.1585 82.4789 42.9533V40.5111C65.9608 40.3059 56.6769 39.1784 50.4815 32.9831C44.2863 26.7878 43.1587 17.5038 42.9535 0.98584H40.5114Z" fill="white"/>
</svg>
