<svg width="99" height="89" viewBox="0 0 99 89" fill="none" xmlns="http://www.w3.org/2000/svg">
<path d="M96.0609 16.4995C101.013 26.8928 99.1553 39.7427 90.5178 48.3802L50.9997 87.8904C50.0785 88.8116 48.5825 88.8116 47.6612 87.8904L36.1577 76.3869L96.0609 16.4995Z" fill="#FFBE0A"/>
<path d="M51.0081 8.86234L18.7259 41.1445L9.82068 50.0497L22.9934 63.2224L82.8572 3.35858L82.7863 3.28774C72.4088 -1.6097 59.614 0.25638 51.0081 8.86234Z" fill="#FF2373"/>
<path d="M22.9935 63.2223L36.1662 76.395L96.0614 16.5076C94.7308 13.7124 92.9198 11.0984 90.6049 8.79136C88.298 6.48437 85.676 4.66556 82.8887 3.34277L22.9935 63.2223Z" fill="#FF784B"/>
<path d="M23.0721 36.798L2.95475 16.6807C-2.03718 27.1054 -0.22621 39.9474 8.38762 48.5613L9.84424 50.0179L23.0721 36.798Z" fill="#964BFF"/>
<path d="M36.2997 23.5704L16.1903 3.46094C13.3951 4.79947 10.7653 6.62618 8.4504 8.94105C6.12766 11.2638 4.30887 13.8857 2.97034 16.6809L23.0798 36.7903L36.2997 23.5704Z" fill="#BE3CFA"/>
<path d="M49.5274 10.3427L48.0707 8.88606C39.4569 0.272226 26.6149 -1.52299 16.1901 3.46106L36.2995 23.5705L49.5274 10.3427Z" fill="#DC46E1"/>
</svg>
