<svg width="60" height="98" viewBox="0 0 60 98" fill="none" xmlns="http://www.w3.org/2000/svg">
<path d="M30.093 49.2534C43.7917 49.2534 54.8943 38.2518 54.8943 24.6781C54.8941 11.1044 43.7915 0.10498 30.093 0.10498C16.3894 0.10498 5.28226 11.1044 5.28226 24.6781C5.28206 38.2518 16.3894 49.2534 30.093 49.2534ZM30.093 12.5882C36.831 12.5882 42.2936 18.0002 42.2936 24.6779C42.2936 31.3557 36.831 36.7676 30.093 36.7676C23.3478 36.7676 17.8874 31.3557 17.8874 24.6779C17.8874 18.0002 23.3476 12.5882 30.093 12.5882ZM58.6817 52.2522C57.2845 49.4645 53.4057 47.1462 48.2491 51.169C41.279 56.607 30.0928 56.607 30.0928 56.607C30.0928 56.607 18.8993 56.607 11.9292 51.169C6.77502 47.1462 2.89879 49.4645 1.49905 52.2522C-0.946362 57.1096 1.81245 59.4587 8.03858 63.4177C13.3554 66.8005 20.6629 68.0639 25.3792 68.5357L21.4406 72.4377C15.8942 77.9301 10.5415 83.2377 6.82546 86.9193C4.60253 89.1191 4.60253 92.687 6.82546 94.8868L7.49291 95.553C9.71584 97.7528 13.3147 97.7528 15.5375 95.553L30.1526 81.0712C35.7038 86.5662 41.0565 91.8714 44.7724 95.553C46.9953 97.7528 50.5942 97.7528 52.8169 95.553L53.4844 94.8868C55.7073 92.6845 55.7073 89.1191 53.4844 86.917L38.8692 72.4379L34.9213 68.5239C39.6422 68.0404 46.8683 66.772 52.142 63.4179C58.3683 59.4585 61.1225 57.1094 58.6817 52.2522Z" fill="#E25F00"/>
</svg>
