<svg width="86" height="86" viewBox="0 0 86 86" fill="none" xmlns="http://www.w3.org/2000/svg">
<path fill-rule="evenodd" clip-rule="evenodd" d="M43.0063 0.141602C19.3357 0.141602 0.141174 19.3311 0.141174 43.0068C0.141174 60.5531 10.6962 75.6345 25.8028 82.2629C25.6819 79.2738 25.7827 75.6748 26.5438 72.4186C27.3705 68.9406 32.0582 49.0656 32.0582 49.0656C32.0582 49.0656 30.6922 46.3286 30.6922 42.281C30.6922 35.9298 34.3769 31.1866 38.9588 31.1866C42.8551 31.1866 44.7403 34.1152 44.7403 37.6234C44.7403 41.54 42.2402 47.4022 40.9549 52.8309C39.8812 57.3825 43.2332 61.0874 47.7193 61.0874C55.8397 61.0874 61.3087 50.6584 61.3087 38.2989C61.3087 28.9083 54.9828 21.8766 43.4751 21.8766C30.4754 21.8766 22.3752 31.5697 22.3752 42.3969C22.3752 46.137 23.4741 48.7682 25.198 50.8046C25.9944 51.7472 26.1002 52.1202 25.8129 53.1989C25.6113 53.9802 25.1375 55.8855 24.9409 56.6365C24.6536 57.7203 23.7765 58.1134 22.7987 57.7102C16.8054 55.2655 14.0179 48.7077 14.0179 41.3333C14.0179 29.1603 24.2856 14.5527 44.6496 14.5527C61.0164 14.5527 71.7881 26.4031 71.7881 39.1104C71.7881 55.9258 62.4429 68.4869 48.6569 68.4869C44.0346 68.4869 39.6796 65.9869 38.1875 63.149C38.1875 63.149 35.6975 73.0235 35.1733 74.9288C34.266 78.2304 32.4866 81.537 30.8585 84.1077C34.7146 85.2469 38.7874 85.8669 43.0063 85.8669C66.677 85.8669 85.8665 66.6774 85.8665 43.0068C85.8665 19.3311 66.677 0.141602 43.0063 0.141602Z" fill="#CC2127"/>
</svg>
