<svg width="112" height="98" viewBox="0 0 112 98" fill="none" xmlns="http://www.w3.org/2000/svg">
<path d="M59.0016 58.7991H17.9483V42.3512H59.0016C61.3996 42.3512 63.067 42.7743 63.9038 43.5134C64.7406 44.2524 65.259 45.6231 65.259 47.6253V53.5313C65.259 55.641 64.7406 57.0116 63.9038 57.7507C63.067 58.4897 61.3996 58.8055 59.0016 58.8055V58.7991ZM61.8181 26.8442H0.53772L0.53772 97.1843H17.9483V74.2997H50.034L65.259 97.1843H84.7552L67.9692 74.1924C74.1578 73.2638 76.9368 71.3437 79.2286 68.1791C81.5204 65.0146 82.6695 59.9551 82.6695 53.2028V47.9285C82.6695 43.9239 82.2511 40.7593 81.5204 38.3339C80.7898 35.9083 79.5408 33.7986 77.7673 31.9037C75.8939 30.1098 73.808 28.8465 71.3039 28.0001C68.7998 27.2611 65.6711 26.8379 61.8181 26.8379V26.8442Z" fill="#100943"/>
<path d="M98.1314 26.8379C105.519 26.8379 111.507 20.8493 111.507 13.4621C111.507 6.07494 105.519 0.0864258 98.1314 0.0864258C90.7442 0.0864258 84.7557 6.07494 84.7557 13.4621C84.7557 20.8493 90.7442 26.8379 98.1314 26.8379Z" fill="#ED143B"/>
</svg>
