<svg width="98" height="98" viewBox="0 0 98 98" fill="none" xmlns="http://www.w3.org/2000/svg">
<path d="M86.5946 12.3281C74.6624 17.27 23.499 38.4626 9.36254 44.2386C-0.117995 47.9383 5.43204 51.4072 5.43204 51.4072C5.43204 51.4072 13.5248 54.1817 20.4626 56.2628C27.3994 58.344 31.0991 56.032 31.0991 56.032L63.703 34.0646C75.2647 26.2027 72.4902 32.6769 69.7147 35.4524C63.703 41.465 53.7599 50.9446 45.4353 58.5757C41.7356 61.8129 43.585 64.5874 45.2045 65.9751C51.2162 71.0626 67.6345 81.4683 68.5587 82.1617C73.4434 85.6199 83.052 90.5978 84.5134 80.0805L90.2943 43.777C92.1446 31.5219 93.994 20.191 94.2248 16.9539C94.9191 9.09095 86.5946 12.3281 86.5946 12.3281Z" fill="#0FA2F0"/>
</svg>
