<svg width="105" height="114" viewBox="0 0 105 114" fill="none" xmlns="http://www.w3.org/2000/svg">
<path d="M19.4366 73.5904C20.114 67.9817 22.4143 64.8417 26.7491 61.6227C32.9516 57.2628 40.6991 59.7289 40.6991 59.7289V45.0987C42.5829 45.0502 44.4672 45.162 46.3299 45.4321V64.2599C46.3299 64.2599 38.5846 61.7939 32.3825 66.1559C28.0499 69.3727 25.7448 72.5154 25.0698 78.1241C25.0486 81.1697 25.6202 85.1507 28.2523 88.5929C27.6013 88.2591 26.9381 87.879 26.2623 87.4524C20.4644 83.559 19.4084 77.7184 19.4366 73.5904ZM78.3206 18.0469C74.0539 13.3715 72.4401 8.65102 71.8571 5.33496H77.2243C77.2243 5.33496 76.1541 14.0298 83.9535 22.5804L84.0619 22.6953C81.9596 21.373 80.0319 19.8123 78.3206 18.0469ZM104.176 31.3022V49.7512C104.176 49.7512 97.3275 49.4833 92.2589 48.1937C85.1811 46.39 80.6323 43.6241 80.6323 43.6241C80.6323 43.6241 77.49 41.6518 77.236 41.5143V79.6118C77.236 81.7332 76.6552 87.0307 74.884 91.4491C72.5719 97.2294 69.004 101.023 68.3477 101.799C68.3477 101.799 64.0082 106.927 56.3522 110.381C49.4513 113.496 43.3922 113.417 41.5812 113.496C41.5812 113.496 31.1076 113.911 21.6828 107.786C19.6448 106.436 17.7424 104.907 16.0002 103.219L16.0473 103.253C25.4743 109.377 35.9456 108.963 35.9456 108.963C37.7593 108.884 43.8179 108.963 50.7166 105.847C58.3657 102.394 62.7121 97.2654 62.7121 97.2654C63.3614 96.4899 66.9458 92.6957 69.2484 86.9136C71.0148 82.4974 71.6004 77.1973 71.6004 75.0764V36.9833C71.8545 37.1228 74.9945 39.0951 74.9945 39.0951C74.9945 39.0951 79.546 41.8637 86.6233 43.6648C91.6941 44.9544 98.5412 45.2227 98.5412 45.2227V30.7657C100.884 31.2909 102.881 31.4331 104.176 31.3022Z" fill="#EE1D52"/>
<path d="M98.5452 30.7657V45.2179C98.5452 45.2179 91.6981 44.9496 86.6273 43.6605C79.55 41.8568 74.9985 39.0908 74.9985 39.0908C74.9985 39.0908 71.8585 37.1185 71.6044 36.9785V75.0807C71.6044 77.2021 71.0236 82.5018 69.2524 86.918C66.9403 92.7005 63.3724 96.4942 62.7161 97.2697C62.7161 97.2697 58.3744 102.398 50.7206 105.852C43.8219 108.967 37.7632 108.889 35.9496 108.967C35.9496 108.967 25.4783 109.382 16.0513 103.257L16.0042 103.223C15.0089 102.259 14.0721 101.242 13.1982 100.176C10.1899 96.5077 8.34594 92.1704 7.88256 90.9328V90.9172C7.13699 88.7667 5.5705 83.6019 5.78455 78.5996C6.16323 69.7741 9.26794 64.357 10.0888 62.9998C12.2628 59.2993 15.0904 55.988 18.4457 53.2142C21.4065 50.8201 24.7625 48.9155 28.376 47.5782C32.2824 46.0082 36.4654 45.1663 40.7009 45.0987V59.7289C40.7009 59.7289 32.953 57.2719 26.753 61.6227C22.4183 64.8417 20.118 67.9817 19.4406 73.5904C19.4124 77.7184 20.4684 83.559 26.2615 87.4546C26.9373 87.8829 27.6005 88.263 28.2516 88.5951C29.2633 89.9107 30.4952 91.0572 31.8971 91.9879C37.556 95.5701 42.2978 95.8202 48.3616 93.4937C52.4046 91.9384 55.4481 88.433 56.8594 84.5486C57.7463 82.1233 57.7346 79.6816 57.7346 77.157V5.33496H71.8468C72.4302 8.65102 74.0436 13.3715 78.3103 18.0469C80.0216 19.8123 81.9497 21.373 84.0516 22.6953C84.6728 23.3378 87.848 26.5141 91.9239 28.4641C94.0314 29.472 96.2534 30.2443 98.5452 30.7657Z" fill="black"/>
<path d="M28.3736 47.5778C24.7601 48.9155 21.4041 50.8202 18.4433 53.2138C15.0869 55.9941 12.26 59.3124 10.0888 63.0199C9.26791 64.3727 6.16321 69.7942 5.78453 78.6197C5.57048 83.6219 7.13696 88.7868 7.88253 90.9372V90.9528C8.35294 92.1796 10.1899 96.5164 13.1982 100.196C14.072 101.262 15.0089 102.28 16.0042 103.243C12.8153 101.129 9.97122 98.5741 7.56501 95.6599C4.58259 92.0239 2.74328 87.7317 2.26347 86.4646C2.26291 86.4555 2.26291 86.4464 2.26347 86.4378V86.4217C1.51552 84.2735 -0.0556481 79.1065 0.163082 74.0977C0.541764 65.2722 3.64651 59.8551 4.46738 58.4979C6.63799 54.7895 9.46497 51.4713 12.8219 48.6919C15.7821 46.2969 19.1382 44.3923 22.7522 43.0559C25.0065 42.1594 27.3549 41.4984 29.7568 41.0836C33.3763 40.478 37.0734 40.4251 40.7102 40.9279V45.0984C36.4709 45.1647 32.2835 46.0065 28.3736 47.5778Z" fill="#69C9D0"/>
<path d="M71.8553 5.33495H57.7427V77.1594C57.7427 79.6839 57.7427 82.1187 56.868 84.5509C55.4427 88.4331 52.4106 91.9382 48.3698 93.4939C42.3042 95.8295 37.5624 95.5703 31.9056 91.988C30.5012 91.0613 29.2662 89.9186 28.2506 88.6065C33.0699 91.0704 37.3834 91.0275 42.7273 88.9719C46.7659 87.4162 49.8024 83.9107 51.2229 80.0268C52.1119 77.6011 52.1002 75.1598 52.1002 72.637V0.799316L71.587 0.799316C71.587 0.799316 71.3685 2.5847 71.8553 5.33495ZM98.5416 26.7688V30.7657C96.2542 30.2435 94.0365 29.4712 91.9325 28.4641C87.8565 26.5141 84.6809 23.3378 84.0602 22.6953C84.7806 23.1487 85.5283 23.5612 86.299 23.9307C91.2549 26.3022 96.1354 27.01 98.5416 26.7688Z" fill="#69C9D0"/>
</svg>
