<svg width="94" height="94" viewBox="0 0 94 94" fill="none" xmlns="http://www.w3.org/2000/svg">
<mask id="mask0_253_14" style="mask-type:luminance" maskUnits="userSpaceOnUse" x="0" y="0" width="94" height="94">
<path d="M93.3328 0.404785L0.405075 0.404785L0.405075 93.3325H93.3328V0.404785Z" fill="white"/>
</mask>
<g mask="url(#mask0_253_14)">
<path fill-rule="evenodd" clip-rule="evenodd" d="M6.93738 6.93709C0.405075 13.4694 0.405075 23.983 0.405075 45.0101L0.405075 48.7272C0.405075 69.7543 0.405075 80.2679 6.93738 86.8003C13.4697 93.3325 23.9833 93.3325 45.0104 93.3325H48.7275C69.7546 93.3325 80.2682 93.3325 86.8006 86.8003C93.3328 80.2679 93.3328 69.7543 93.3328 48.7272V45.0101C93.3328 23.983 93.3328 13.4694 86.8006 6.93709C80.2682 0.404785 69.7546 0.404785 48.7275 0.404785L45.0104 0.404785C23.9833 0.404785 13.4697 0.404785 6.93738 6.93709ZM16.0868 28.6705C16.5901 52.8317 28.6706 67.3516 49.8504 67.3516H51.051V53.5286C58.8337 54.303 64.7187 59.9949 67.0805 67.3516H78.0773C75.0572 56.3552 67.1192 50.2761 62.1631 47.9529C67.1192 45.0877 74.0889 38.1181 75.7538 28.6705H65.7638C63.5955 36.3371 57.1687 43.3065 51.051 43.9648V28.6705H41.0609V55.4646C34.8657 53.9158 27.0445 46.4042 26.696 28.6705H16.0868Z" fill="#0077FF"/>
</g>
</svg>
