<svg width="110" height="77" viewBox="0 0 110 77" fill="none" xmlns="http://www.w3.org/2000/svg">
<path d="M107.714 11.9917C106.456 7.28887 102.76 3.59315 98.057 2.33427C89.5326 0.050293 55.3719 0.050293 55.3719 0.050293C55.3719 0.050293 21.2112 0.050293 12.6957 2.33427C7.99291 3.59315 4.29719 7.28887 3.03831 11.9917C0.754333 20.5071 0.754333 38.2844 0.754333 38.2844C0.754333 38.2844 0.754333 56.0616 3.03831 64.577C4.29719 69.2799 7.99291 72.9756 12.6957 74.2345C21.2112 76.5184 55.3719 76.5184 55.3719 76.5184C55.3719 76.5184 89.5325 76.5184 98.048 74.2345C102.751 72.9756 106.447 69.2799 107.705 64.577C109.989 56.0616 109.989 38.2844 109.989 38.2844C109.989 38.2844 109.989 20.5071 107.705 11.9917H107.714Z" fill="#FF0000"/>
<path d="M44.4467 54.6678L72.8345 38.2843L44.4467 21.9009V54.6678Z" fill="white"/>
</svg>
