<svg xmlns="http://www.w3.org/2000/svg" width="548.000000pt" height="548.000000pt" version="1.0" viewBox="0 0 548.000000 548.000000"><g fill="#fff"><path d="M225 15.4c-1.9.7-11.6 5.9-21.5 11.5-9.9 5.7-25.2 14.4-34 19.4-8.8 4.9-17.3 9.8-19 10.7-1.6 1-9.5 5.4-17.5 10-8 4.5-15 8.6-15.7 9.2-.7.6-1.3.7-1.3.2 0-.5-.4-.4-.8.2-.6 1-6.6 4.5-16.7 9.8-2.2 1.2-4.1 2.4-4.3 2.8-.2.5-.7.8-1.1.8-.5 0-10 5.2-21.2 11.6-28.3 16.1-42.7 24.3-47.4 26.8-2.2 1.1-4.2 2.3-4.5 2.6-.3.3-2.7 1.7-5.3 3-6.1 3.1-10.4 7.3-12.8 12.5C.1 150.3 0 155.7 0 274.3v123.8l2.2 4.2c2 4 5.7 7.8 9.8 10.1 1 .6 4.3 2.4 7.2 4 2.9 1.5 6.1 3.5 7.1 4.4.9.8 1.7 1.1 1.7.7 0-.4.8-.1 1.8.7.9.8 4.9 3.2 8.7 5.3 10.5 5.7 11 6 11.5 6.5.3.3 2.3 1.5 4.5 2.7 2.2 1.1 5.8 3.1 8 4.3 2.2 1.3 6 3.4 8.5 4.8 2.5 1.3 5 2.8 5.5 3.2.6.4 3.7 2.2 7 4 3.3 1.8 15.9 8.9 28 15.8s23.6 13.4 25.5 14.5c1.9 1 11.6 6.5 21.5 12.2 9.9 5.6 19.6 11.1 21.5 12.2 1.9 1.1 7.6 4.3 12.5 7 5 2.8 10.6 6 12.5 7.2 1.9 1.1 4.9 2.7 6.5 3.6 1.7.8 5.7 3 9 4.8 10.9 5.9 15.7 5.1 34.7-6 6-3.5 11.2-6.3 11.4-6.3.3 0 1.8-.8 3.2-1.9 2.5-1.7 12-7 19.7-11 1.6-.9 3.2-1.9 3.5-2.2.3-.3 7.9-4.7 17-9.7 9.1-5.1 18.5-10.4 21-11.9 8.8-5.1 12.8-7.3 27.2-15.2l5.7-3.2 4.9 3.1c2.7 1.6 5.2 3 5.6 3 .4 0 2.7 1.3 5.1 3 2.4 1.6 4.6 3 4.9 3 .2 0 9.1 4.9 19.7 11 10.6 6 19.4 11 19.6 11 .2 0 2.1 1.1 4.2 2.4 3.8 2.5 11.4 4.3 16.1 4.1 4.1-.3 13-2.6 13-3.5 0-.4.8-1.1 1.8-1.4.9-.3 2.6-1.2 3.7-1.9 1.2-.6 7.7-4.3 14.5-8.1 6.9-3.8 12.8-7.4 13.2-8 .4-.6.8-.7.8-.3 0 .5 1.2 0 2.8-1.1 1.5-1 3.4-2.2 4.2-2.5.8-.4 2.9-1.5 4.5-2.6 1.7-1 10-5.7 18.5-10.5 16.1-9.1 20.3-12.5 24.2-19.8l2.3-4.3v-102l-2.9-4.9c-3.6-6.2-8.1-10.4-14.2-13.6-2.7-1.4-6-3.2-7.4-4.1-1.4-.9-4.7-2.9-7.5-4.3-2.7-1.5-5.7-3.1-6.5-3.7-.8-.5-10.7-6.1-22-12.5s-20.9-12-21.4-12.5c-.6-.5-1-28.1-1-66.6-.1-40.8-.5-66.4-1.1-67.3-.5-.8-1-2.2-1.2-3-.4-3.1-17.7-15.9-20.5-15.2-.3.1-1.2-.5-1.8-1.3-.7-.8-1.6-1.5-2.1-1.5s-2.6-1.1-4.7-2.3c-2-1.3-6.4-3.9-9.7-5.7-10.6-5.9-22.2-12.5-24.5-14-.8-.6-2.2-1.3-3-1.7-.8-.4-5.2-2.9-9.8-5.5-4.6-2.6-8.6-4.8-8.8-4.8-.2 0-2.1-1.1-4.2-2.3-2-1.3-5.7-3.5-8.2-4.9-2.5-1.4-6.3-3.5-8.5-4.8-2.2-1.3-6-3.4-8.5-4.8s-7.4-4.2-11-6.2c-3.6-2-8.5-4.8-11-6.2-2.5-1.4-6.1-3.4-8-4.5-1.9-1.1-6.2-3.5-9.5-5.4-3.3-1.8-6.1-3.7-6.3-4.1-.2-.4-.9-.8-1.5-.8-.7 0-3.9-1.6-7.2-3.6-3.3-2.1-8-4.8-10.5-6.1-2.5-1.3-5.8-3.2-7.5-4.2-1.6-.9-5.5-3.1-8.5-4.8-3-1.6-9.4-5.3-14.1-8-14.6-8.4-20.1-9.8-27.9-6.9zm196 221.5v44.9l-5.7 3.3c-3.2 1.8-8.3 4.6-11.3 6.2-3 1.6-5.9 3.3-6.5 3.7-.5.4-3.1 1.9-5.6 3.3-21.7 11.9-44.6 25.4-45.7 26.8-.7 1-1.9 2.5-2.8 3.3-.8.9-2.5 3.7-3.6 6.3-2.1 4.7-2.2 6-2.3 48.8 0 24.2-.4 44.6-.8 45.3-.5.6-1.2 1.2-1.8 1.2-.5 0-8.2 4.2-17.2 9.3-8.9 5.1-16.9 9.6-17.7 10-.8.4-2.2 1.1-3 1.7-3.8 2.5-19.3 11-20.1 11-.5 0-.9.4-.9 1 0 .5-.4 1-.9 1s-5.2 2.5-10.6 5.5c-5.3 3-9.8 5.5-10 5.5-.1 0-.2-42.3-.3-93.9 0-85.8.2-94.1 1.7-95.4.9-.8 12.6-7.6 26.1-15.2 13.5-7.6 27.9-15.7 32-18.1 4.1-2.4 7.9-4.3 8.4-4.3.5.1 1.2-.3 1.5-.8.3-.6 3.5-2.6 7.1-4.5l6.5-3.6v37.9c0 20.9.3 37.9.6 37.9.4 0 1-2.4 1.4-5.3.4-2.8.8-5.9 1-6.7.2-.8.6-2.9.9-4.5 1-5.5 5.6-19.7 6.7-21.1.6-.8.9-1.4.6-1.4-2.3 0 14.5-31.3 20.8-38.7.5-.7 2.1-2.7 3.5-4.5 2.4-3.1 22.9-23.8 26.5-26.7 2.3-1.8 20.7-14.1 21.1-14.1.2 0 .4 20.2.4 44.9z"/><path d="M337.5 317.1c-.4.6-.5 1.2-.2 1.5.2.3.7-.2 1-1.1.7-1.7.1-2-.8-.4z"/></g></svg>