<svg xmlns="http://www.w3.org/2000/svg" width="198" height="32" fill="none" viewBox="0 0 198 32"><g clip-path="url(#a)"><path fill="#fff" d="m191.214 6.336-6.756 5.991v-5.99h-4.889v15.122h4.889v-6.365l7.232 6.365h6.315l-8.894-7.924 8.25-7.199zm-20.275 5.641h-6.756v-5.64h-4.891v15.122h4.891v-5.963h6.756v5.963h4.889V6.336h-4.889z"/><mask id="b" width="198" height="32" x="0" y="0" maskUnits="userSpaceOnUse" style="mask-type:luminance"><path fill="#fff" d="M198 .118H0v31.48h198z"/></mask><g fill="#fff" mask="url(#b)"><path d="M29.029 14.529c-.117 2.821-.576 3.384-2.582 3.384v3.546h.747c4.998 0 6.2-2.043 6.384-6.582l.204-5.023h4.685V21.46h4.889V6.336H29.368zm26.479-3.599h-3.53V6.335h-4.89V21.46h8.488c5.331 0 7.23-2.74 7.23-5.32 0-3.33-2.649-5.212-7.298-5.212m-.373 7.2h-3.157v-3.843h3.157c1.699 0 2.715.591 2.715 1.853 0 1.37-.984 1.987-2.715 1.987M78.727 5.986V.372h-4.889v5.614c-5.6.376-9.37 3.52-9.37 7.898s3.77 7.55 9.37 7.926v5.696h4.89V21.81c5.6-.349 9.37-3.52 9.37-7.926 0-4.406-3.77-7.55-9.37-7.898m-4.889 12.17c-2.714-.294-4.413-1.907-4.413-4.27 0-2.363 1.699-3.976 4.413-4.27v8.543zm4.89 0V9.613c2.714.297 4.413 1.908 4.413 4.27 0 2.364-1.699 3.977-4.414 4.271m27.704-1.342v-5.076c0-3.707-2.987-6.045-8.011-6.045-5.025 0-7.944 2.473-8.183 5.051h4.957c.168-.563.916-1.53 3.226-1.53 1.902 0 3.122.698 3.122 2.524h-4.856c-4.346 0-6.927 1.8-6.927 4.808s2.823 5.291 6.891 5.291c2.984 0 4.642-1.116 5.365-1.96.644 1.02 2.071 1.584 3.938 1.584h1.698v-3.492c-.883 0-1.223-.322-1.223-1.155m-4.889-.993c0 1.746-1.562 2.74-3.598 2.74-1.766 0-3.158-.51-3.158-2.015 0-1.505 1.528-1.72 2.851-1.72h3.905v.993zm25.848-7.334h-5.465v-4.27h12.664V.371h-17.789v21.087h10.593c5.873 0 9.234-2.31 9.234-6.554 0-4.001-3.361-6.42-9.234-6.42m-.236 9.16h-5.229v-5.481h5.229c2.715 0 4.245.993 4.245 2.739s-1.528 2.74-4.245 2.74m28.176-.83v-5.076c0-3.707-2.986-6.045-8.011-6.045-5.025 0-7.943 2.473-8.183 5.051h4.957c.169-.563.916-1.53 3.226-1.53 1.902 0 3.122.698 3.122 2.524h-4.856c-4.345 0-6.927 1.8-6.927 4.808s2.824 5.291 6.892 5.291c2.984 0 4.641-1.116 5.364-1.96.644 1.02 2.071 1.584 3.938 1.584h1.698v-3.492c-.883 0-1.222-.322-1.222-1.155m-4.889-.993c0 1.746-1.563 2.74-3.598 2.74-1.767 0-3.158-.51-3.158-2.015 0-1.505 1.527-1.72 2.851-1.72h3.905v.993zM26.143 27.3H0v4.298h26.143zM17.822 3.266c-.747-1.76-1.606-3.148-4.549-3.148-2.943 0-3.859 1.382-4.641 3.148L.542 21.459h5.364l1.867-4.324h10.321l1.731 4.324h5.704zM9.335 13.482l3.666-8.623h.136l3.462 8.623H9.333z"/></g></g><defs><clipPath id="a"><path fill="#fff" d="M0 .118h198v31.48H0z"/></clipPath></defs></svg>