<svg xmlns="http://www.w3.org/2000/svg" width="84" height="82" fill="none" viewBox="0 0 84 82"><g clip-path="url(#a)"><path fill="#FDFDFD" d="m73.985 61.252-.45.79-.55.989-.067.095c-.753 1.086-1.45 2.214-2.33 3.209l-.108.12.013-.009-.1.104h.02a.514.514 0 0 1-.198.27v-.007l-.1.1.014-.011-.102.103h.02a22.556 22.556 0 0 1-2.356 2.6c-.749.82-1.57 1.571-2.455 2.243-.22.251-.48.466-.768.636v-.02l-.102.1.009-.013-.114.107a28.721 28.721 0 0 1-4.018 2.773l-.327.205-.02-.022c-.692.374-1.359.8-2.097 1.087-1.188.68-2.46 1.169-3.737 1.652-1.683.63-3.388 1.185-5.162 1.51-2.31.443-4.191.789-5.201.713-.49.09-4.492.158-4.735.143-1.43-.09-2.856-.19-4.264-.463-1.352-.162-2.672-.477-3.98-.85a.219.219 0 0 1-.084-.037 16.573 16.573 0 0 1-1.287-.345l-.052-.016a23.041 23.041 0 0 1-1.938-.678c-.385-.152-.766-.31-1.147-.468-1.66-.689-3.282-1.453-4.797-2.426-1.982-1.259-3.594-2.292-4.278-3.038-.416-.27-3.379-2.955-3.546-3.133-.976-1.042-1.95-2.092-2.786-3.254-.874-1.043-1.622-2.174-2.314-3.338a.196.196 0 0 1-.033-.082 18.951 18.951 0 0 1-1.538-2.78c-.227-.374-.481-.734-.597-1.164-.44.077-.679.1-1.176.17.409 1.196 1.967 3.897 2.089 4.177a64.332 64.332 0 0 0 3.136 4.476c.394.465 2.31 2.624 2.343 2.657l-.005-.014.188.188h-.015l1.092 1.086v-.018l.187.18.006-.014.155.124a44.149 44.149 0 0 0 5.136 4.013l.11.096.016-.022.321.201c3.037 1.798 6.212 3.378 9.592 4.37h.012c.27.09.45.15.513.18 1.772.442 3.556.828 5.36 1.116.606.069 3.485.33 3.532.332l-.013-.008.265.01-.013.005 1.542.046-.011-.013.262.007-.005-.014.197-.016a44.452 44.452 0 0 0 6.497-.588l.146-.005v-.028l.371-.073a53.25 53.25 0 0 0 2.897-.719v.006c.13-.007.26-.025.389-.052a43.101 43.101 0 0 0 4.69-1.636 37.997 37.997 0 0 0 2.78-1.282c.965-.498 1.898-1.079 2.837-1.634l1.088-.713 1.065-.746v.029l.096-.106 1.81-1.414.155-.11a5.07 5.07 0 0 1 .82-.718v.011l.1-.098h-.007l.243-.214.024.009-.022-.013.384-.346.077-.067.1-.082.103-.1.09-.09.08-.079.09-.09.09-.09.095-.101.083-.084.63-.63v.01l.102-.1.18-.18.09-.09-.015.005.18-.193-.01.005.106-.123a.662.662 0 0 1 .27-.311c.902-1.015 1.74-2.087 2.59-3.146l.116-.169.079-.098c.034-.046.07-.09.104-.137l-.012-.023.02-.018.083-.095-.012.009.1-.103h-.023l.833-1.237v-.008l.09-.1-.014.013.101-.18c.035-.055.068-.112.101-.168l1.196-2.088c-.525-.165-.525-.146-1.21-.332"/><path fill="#FDFDFD" d="M30.176 79.258a17.236 17.236 0 0 1-.827-.234c.24.07.48.134.721.191z"/><path fill="#FAFE01" d="M81.122 57.818a.196.196 0 0 0 .219.033l.043.331c-.006.127-.118.143-.199.191a.541.541 0 0 1-.36-.103c-.502-.305-.756-.796-1.007-1.298-.25-.501-.422-1.014-.756-1.457-.393-.522-.882-.54-1.31-.043-.225.262-.367.576-.51.886-.194.417-.361.844-.57 1.253-.344.68-.826 1.163-1.676 1.055l-.285-.008c-.486-.305-.65-.835-.901-1.301-.208-.394-.37-.809-.588-1.2-.518-.925-1.183-.937-1.706-.02-.256.449-.45.932-.667 1.404a5.065 5.065 0 0 1-.578.999c-.511.67-1.63.644-2.096-.123-.325-.54-.55-1.119-.85-1.666-.223-.41-.395-.911-.991-.907-.596.005-.771.5-.986.916-.285.553-.513 1.136-.806 1.685-.282.527-.647.951-1.352.925a1.214 1.214 0 0 1-.981-.527c-.36-.477-.565-1.037-.82-1.569-.155-.323-.312-.644-.586-.89a.705.705 0 0 0-.967-.01c-.34.29-.504.695-.683 1.085-.247.54-.467 1.09-.786 1.596-.554.88-1.712.928-2.28.007-.319-.523-.529-1.096-.819-1.63-.22-.406-.412-.883-.962-.891-.579-.008-.785.489-1.002.907-.336.643-.54 1.348-.963 1.954-.252.36-.548.642-1.043.681-.64.05-1.013-.297-1.29-.783-.285-.503-.515-1.038-.782-1.551-.208-.398-.41-.859-.933-.867-.54-.009-.769.455-.986.866-.345.657-.555 1.382-.982 1.996-.26.376-.57.666-1.081.697-.582.035-.943-.27-1.204-.707-.282-.469-.49-.982-.744-1.468-.225-.433-.405-.91-.959-1.05-.222-.057-.118-.254-.1-.378.019-.147.17-.09.259-.067a1.495 1.495 0 0 1 .947.768c.275.505.513 1.029.772 1.542.067.133.148.258.226.386.418.686 1.024.706 1.485.048.3-.429.474-.922.694-1.392.194-.414.348-.85.67-1.193.703-.752 1.549-.685 2.13.173.294.434.47.927.713 1.388.108.228.228.45.36.664.445.66 1.011.652 1.464-.01.26-.382.428-.81.614-1.232.168-.397.366-.78.591-1.148.581-.914 1.792-.946 2.32.052.241.455.463.92.695 1.38.148.29.281.592.52.826.349.343.759.347 1.102 0 .288-.29.444-.665.61-1.029.24-.526.456-1.063.761-1.56.582-.944 1.837-.944 2.324.012.175.344.354.685.53 1.028.142.277.27.563.43.83.513.857 1.161.853 1.65-.026.266-.477.47-.989.704-1.484a4.42 4.42 0 0 1 .666-1.053c.444-.506 1.509-.481 1.921.162.279.455.527.928.744 1.415.153.323.294.654.536.926.394.443.882.443 1.256-.017.285-.35.444-.772.63-1.177.18-.39.354-.787.56-1.168.63-1.158 1.927-1.169 2.508.009.21.425.416.854.63 1.277.105.214.225.42.361.616.425.587 1.006.578 1.418-.025.355-.519.55-1.12.82-1.681a4.52 4.52 0 0 1 .669-1.053c.394-.45 1.34-.501 1.796.04.441.525.639 1.168.957 1.752.18.322.299.68.631.899.061.052.114.123.211.102"/><path fill="#FDFDFD" d="M11.725 37.001c.18-.157.18-.397.255-.598.673-1.818 2.027-2.727 3.901-3 .748-.108 1.483-.062 2.224 0a.044.044 0 0 0 .054.008c.11.113.258.08.392.101l-.014-.005c.045.083.121.078.198.072a.06.06 0 0 0 .058.012c.047.081.127.086.209.09l.36.18.185.101-.011-.004c.067.09.162.154.27.184v-.012l.102.1-.01-.011.102.095h-.006l.727.76a.119.119 0 0 0 .09.13.846.846 0 0 0 .033.258c.478.995.581 2.058.582 3.14 0 1.528.017 3.048 0 4.573-.031 2.24.12 4.482-.09 6.718-.118 1.258-.576 2.378-1.572 3.213-1.383 1.15-3.021 1.244-4.716 1.08-.62-.06-1.138-.42-1.726-.572h.006c0-.058-.04-.083-.09-.09a.133.133 0 0 0-.128-.098l-.315-.29c-.395-.48-.67-1.027-.91-1.594a.194.194 0 0 0-.077-.211.04.04 0 0 0 .001-.046.04.04 0 0 0-.011-.011c-.031-.504-.18-.99-.175-1.503.06-4.257-.11-8.513.102-12.77m5.936 13.836c.034-.034.187-.18.186-.246.027-.043.053-.09.08-.128.016-.015.26-1.134.26-1.547.007-2.103.028-4.205 0-6.307-.019-1.654.096-3.31-.07-4.961-.056-.746-.337-1.108-1.012-1.305-.676-.196-1.515.035-1.867.551-.19.277-.307.6-.721.63-.115.007-.224.142-.244.318.283.015.597-.04.594.42-.011 2.721-.005 5.444 0 8.166 0 .196-.019.327-.258.385-.24.059-.367.244-.37.505-.004.26.128.459.355.513.265.063.276.214.27.421-.005.51-.017 1.018 0 1.529.042.97.53 1.495 1.362 1.5.373.032.743.045 1.072-.18.043-.03.34-.234.374-.27zm1.822-2.967c.316-.048.52-.214.513-.554-.006-.34-.197-.52-.532-.532a.52.52 0 0 0-.545.566c.02.337.225.494.56.52zm-7.475 1.73a.813.813 0 0 0 .621.121c.144-.02.327.06.334-.17a.407.407 0 0 0-.316-.395c-.282-.08-.117.114-.121.223 0 .09-.118.06-.187.078-.112.026-.25-.03-.335.143zm7.862 2.163c-.17-.286-.295-.36-.477-.3-.076.023-.162.077-.132.146.083.192.291.069.43.14.057.014.116.019.175.014z"/><path fill="#C0C1BF" d="M13.324 53.614c.587.152 1.106.512 1.725.572 1.694.164 3.33.07 4.711-1.088.997-.835 1.454-1.956 1.572-3.213.209-2.236.058-4.478.09-6.718.021-1.528 0-3.05 0-4.574 0-1.078-.104-2.144-.582-3.14a.85.85 0 0 1-.033-.257c.343.16.517.505.801.729a4.88 4.88 0 0 1 1.099 2.824c.015.117.037.234.066.349l.017 3.55c0 .195-.014.39-.014.583-.009 2.529-.016 5.057-.023 7.585-.078.547-.143 1.097-.311 1.629l-.349.809-.386.613c-.093.109-.188.217-.283.325l-.703.585-.099.071-.18.106c-.573.292-1.193.45-1.802.625v-.01c-.817.04-1.63.114-2.449-.05a4.616 4.616 0 0 1-2.056-1.008c-.067-.09-.954-.768-1.022-1.079 0 0 .34-.025.245.341z"/><path fill="#FDFDFD" d="M8.29 34.014a.553.553 0 0 0 .366-.059c.51.043 1.03-.108 1.532.065 0 .225-.01.45-.01.673v2.691a.756.756 0 0 1-.338.657c-.068.047-.173-.238-.26-.034-.064.154.096.27.223.278.425.037.377.33.377.615v7.357c0 .278.025.53-.345.61a.295.295 0 0 0-.243.25.293.293 0 0 0 .01.123c.15-.015.165-.232.304-.208.13.403.26.809.264 1.216.015 1.9 0 3.799.014 5.697 0 .337-.13.45-.443.46-.958.028-1.914.067-2.872.1 0-.49-.012-.983-.013-1.474a4453.8 4453.8 0 0 1-.008-8.495c0-2.029.002-4.057.007-6.086 0-.373 0-.747.013-1.12.005-.222-.046-.309-.31-.29a70.03 70.03 0 0 1-2.643.128c-.665.023-.666.013-.666.657V54.24c0 .288.012.525-.4.53-.942.013-1.884.063-2.826.098 0-.225-.005-.45-.006-.673-.005-2.529 0-15.663 0-19.187 0-.594 0-.594.606-.608 1-.008 1.999-.068 2.993-.18l.043.011.04-.015c1.537.023 3.059-.168 4.59-.202m-7.193 3.633c-.39-.258-.721-.207-.855.094-.032.07-.062.143 0 .204.063.061.17.064.201.013.145-.233.418-.18.654-.311"/><path fill="#C0C1BF" d="M6.87 54.506c.957-.034 1.914-.073 2.872-.1.312-.01.445-.124.443-.461-.014-1.898 0-3.798-.014-5.697 0-.41-.134-.81-.264-1.216-.139-.024-.154.193-.304.208a.292.292 0 0 1 .233-.374c.37-.079.345-.331.345-.61-.005-2.451-.005-4.904 0-7.356 0-.285.048-.578-.377-.615-.128-.01-.287-.124-.222-.278.09-.204.19.081.26.034a.759.759 0 0 0 .336-.657v-2.69c0-.226.007-.45.011-.673l.802.744c.09.115.165.257.34.27l.005.006c0 .135.104.194.2.258 0 6.633.003 13.267.01 19.9 0 .417-.103.575-.541.573-.811 0-1.614.06-2.42.096-.294.046-.5-.083-.699-.294-.324-.345-.678-.662-1.02-.988a.128.128 0 0 1 .004-.08M4.513 56.12c-.864.033-1.73.033-2.59.112-.476.044-.795-.12-1.075-.462a2.875 2.875 0 0 0-.291-.27l-.096-.095-.42-.421L0 54.851l.024.017c.942-.035 1.884-.085 2.826-.098.412-.005.4-.242.4-.53V37.825c0-.644 0-.634.666-.657a70.03 70.03 0 0 0 2.644-.128c.263-.019.314.068.309.29-.01.373-.01.747-.013 1.12-.63.032-1.256.065-1.884.09-.27.013-.385.116-.377.413.023.776.008 12.262.005 16.6-.005.192.053.395-.087.566m11.711-4.845c-.832-.004-1.32-.53-1.361-1.5-.022-.508-.01-1.016 0-1.528 0-.208-.008-.36-.27-.421-.227-.054-.36-.253-.356-.514.004-.26.143-.45.37-.504.227-.055.259-.19.259-.386 0-2.721-.01-5.444 0-8.166 0-.459-.312-.404-.595-.42.02-.18.129-.31.244-.318.416-.026.534-.348.721-.629.352-.516 1.188-.749 1.867-.55.678.197.956.557 1.012 1.303-1.102-.079-1.872.563-1.892 1.662-.027 1.775 0 3.55 0 5.326.003 2.217.003 4.432.001 6.645m3.254-3.404c-.334-.026-.54-.18-.564-.52a.518.518 0 0 1 .545-.566c.335.012.526.198.533.532.006.333-.198.503-.514.554m-7.474 1.73c.085-.173.223-.117.33-.143.069-.017.18.013.187-.078 0-.11-.16-.303.122-.223a.409.409 0 0 1 .315.395c-.006.23-.19.15-.333.17a.814.814 0 0 1-.621-.121m7.862 2.163a.534.534 0 0 1-.18-.015c-.14-.07-.348.053-.43-.14-.03-.068.055-.121.132-.146.183-.058.308.015.478.301M1.097 37.647c-.236.131-.509.078-.653.31-.031.052-.142.044-.2-.012-.06-.056-.034-.135 0-.204.135-.3.463-.349.853-.094"/><path fill="#FDFDFD" d="M46.845 4.43c-.228.052-.047.372-.192.38-.563.034-.329.425-.352.704l-.83-.059-1.178-.137-.81-.03a.97.97 0 0 0-.532-.063c-1.442-.05-2.884-.07-4.325.007-.076-.019-.15-.03-.19.061l-.343.017a4.192 4.192 0 0 0-1.368.097l-.257.01c-1.683.164-3.334.508-4.983.87-.412.09-1.892.506-2.124.649l-.92.317c-.402.079-.767.27-1.15.404-.9.327-1.785.674-2.624 1.134-.232.044-.424.18-.623.29a24.792 24.792 0 0 0-2.974 1.624l-.638.411a1.296 1.296 0 0 0-.45.29l-.1.09v-.02a29.152 29.152 0 0 0-4.415 3.425h.016a1.91 1.91 0 0 0-.09.09.112.112 0 0 0-.103.102v-.022l-.195.186h.025c-.06.007-.1.03-.104.09-.056.005-.09.03-.09.09-.053 0-.09.022-.09.073l-.02-.006a.046.046 0 0 0-.046.04 20.09 20.09 0 0 0-1.716 1.709l-.379.45a25.56 25.56 0 0 0-3.034 3.827L9 22.454l-.139.138c-.063.242-.31.39-.337.652-.212.217-.229.597-.583.697l-.892-.55c.122-.381.355-.7.59-1.016l.048-.193c.216-.233.393-.5.523-.79l.45-.645.103-.18-.016.015.097-.1c.062-.09.123-.18.18-.27h-.012l.09-.097c.296-.238 1.145-1.494 1.172-1.528.064-.09.939-1.114.94-1.142l-.007-.01c.047-.01.066-.045.072-.09a.104.104 0 0 0 .085-.09l1.532-1.627-.01.012.1-.101.091-.09.09-.09.09-.09.174-.172.086-.09.005-.005.095-.095.09-.09.09-.09.08-.076.102-.101-.013.011.104-.102v.017c.262-.185.5-.4.713-.64h-.006l.09-.09.101-.1-.01.017.09-.09.013-.014.077-.076c.04-.015.09-.02.101-.068l.015.008a.062.062 0 0 0 .059-.04l2.618-2.057.176-.126.28-.213.715-.47a41.872 41.872 0 0 1 6.08-3.305c.135-.058.738-.246 1-.46.123-.082.303-.045.4-.18a.18.18 0 0 0 .074-.012.201.201 0 0 0 .224-.074.029.029 0 0 0 .044-.009l.09-.017 1.357-.505c.457-.135.932-.217 1.351-.458.261.015.498-.078.73-.18a.063.063 0 0 0 .073-.013l.801-.188 1.282-.299 1.783-.325a44.713 44.713 0 0 1 4.152-.47c1.102-.108 2.209-.025 3.313-.075h.36l.187.005c.235.06.468.138.72.08l.27.006.895.064z"/><path fill="#FDFDFD" d="m11.202 17.429.008.012h-.03zm.082-.093v.013a.04.04 0 0 1-.014 0zm3.559-1.837h.01l-.009.03a.134.134 0 0 1 0-.03m.091-.073h.013l-.012.019a.113.113 0 0 1-.001-.019m.093-.087h.012l-.013.018zm.2-1.927.013-.024v.028zm.181 1.574-.014.012.012-.012z"/><path fill="#FAFE01" d="M4.09 29.585a3.983 3.983 0 0 1-1.17-.733c-.598-.558-.766-1.324-.35-2.122.764-1.451 1.871-2.569 3.382-3.258.36-.162.721-.13 1.094-.08l.893.55.5.76c.498 1.243.858 2.516.86 3.873a2.99 2.99 0 0 0-.101.338c-.133.71-.588 1.086-1.262 1.258-.469.122-.942.082-1.415.082-.301-.17-.658-.09-.959-.193-.49-.166-.981-.319-1.471-.475M56.51 0l1.56 1.558c.149.158.28.341.45.467.17.126.102.258.068.4V2.42c-.09-.048-.119.03-.155.09l-.013.032c-1.137 1.124-2.268 2.254-3.414 3.368-.225.218-.036.298.078.412 1.231 1.224 2.464 2.445 3.723 3.695-.712.705-1.41 1.38-2.09 2.074-.21.216-.3.049-.422-.073C55.151 10.875 54 9.74 52.871 8.585c-.224-.228-.335-.212-.55.006-1.097 1.117-2.222 2.216-3.323 3.34-.221.225-.33.18-.517-.02-.56-.58-1.12-1.16-1.712-1.707-.276-.25-.19-.37.025-.582 1.108-1.083 2.198-2.197 3.313-3.285.213-.209.209-.318 0-.516-.811-.758-1.636-1.503-2.389-2.315-.36-.384-.81-.674-1.1-1.131-.1-.16-.108-.229.022-.36.631-.617 1.262-1.233 1.875-1.872.226-.238.322-.068.457.066 1.102 1.1 2.219 2.186 3.297 3.308.291.303.436.263.679-.017.283-.327.609-.618.916-.925l.44-.45L56.227.228z"/><path fill="#FDFDFD" d="M63.555 12.742a1.415 1.415 0 0 0-.476-.36l-.158-.09.011.015-.098-.094a3.781 3.781 0 0 0-.804-.55h.006a14.635 14.635 0 0 0-1.988-1.264v.013l-.19-.138c-.416-.34-.963-.474-1.352-.858.157.03.243-.043.29-.19.077-.235.165-.465.247-.698.404.038.665.401 1.058.463l2.46 1.516.173.099h-.013a.425.425 0 0 0 .276.19l-.006-.011c.043.071.09.135.191.097h-.023v.022c.339.296.704.56 1.092.79a56.548 56.548 0 0 1 4.95 4.388c.273.359.578.692.91.996v-.015l.09.114c.396.507.772 1.031 1.262 1.457a.12.12 0 0 0 .052.126.122.122 0 0 0 .044.018l-.014-.008c.014.054.037.1.102.103h-.028a.374.374 0 0 0 .203.27l-.005-.012.102.1h-.021c.196.331.428.64.693.919h.025v-.025c-.025.1.04.149.106.198l1.803 2.78c.044.162.127.312.242.436l1.023 1.88.292.614.399.83c.223.533.445 1.066.666 1.6-.115.14-.863.21-1.252.263a4.088 4.088 0 0 0-.535-1.273s-.666-1.363-.998-2.046c-.131-.384-.356-.719-.565-1.062a16.71 16.71 0 0 0-1.335-2.167 5.305 5.305 0 0 0-.624-.907v.015l-.099-.145a14.14 14.14 0 0 0-1.523-2.013c-.594-.561-.969-1.314-1.608-1.837a2.414 2.414 0 0 0-.555-.6l-.081-.081c-.432-.442-.816-.935-1.352-1.265v.01l-.1-.1.011.005a.27.27 0 0 0-.18-.196v.016l-.107-.1.011.015-.1-.108-.076-.073-.14-.107a14.512 14.512 0 0 0-1.869-1.574z"/><path fill="#FAFE01" d="M37.547 24.719c.235.005.474.045.694-.078.754-.24 1.441-.079 2.084.345.126.161.262.316.375.486.112.17.234.335.023.505-.21.17-.35.035-.48-.127a.473.473 0 0 0-.103-.07c-.261-.437-.54-.606-1.081-.617.288.296.56.562.559.988 0 .644-.372 1.133-.964 1.22-.645.095-1.198-.294-1.351-.952-.055-.235-.09-.486-.006-.709.148-.417-.064-.329-.312-.27a3.578 3.578 0 0 0-1.87 1.15l-.249.067c-.319-.233-.244-.445.007-.692.625-.619 1.402-.945 2.224-1.194l.172-.024zm.908 2.082a.601.601 0 0 0 .596-.598c-.015-.321-.487-.782-.823-.77-.387.012-.367.336-.377.589-.018.462.25.785.604.78zm-20.344 3.19a.205.205 0 0 0-.1-.18l-.071-.111.005.007-.205-.414c.07-.34.318-.369.583-.3.461.122.797 0 1.05-.414.084-.137.2-.315.428-.245.213.065.253.255.262.428.025.493.226.802.754.86.155.017.325.1.352.296a.379.379 0 0 1-.265.426c-.611.163-.72.6-.74 1.146-.012.337-.253.405-.532.194a.898.898 0 0 1-.197-.18c-.235-.325-.53-.377-.901-.25-.2.068-.437.188-.622-.034s.033-.386.09-.573c.032-.098.06-.196.09-.294l.02-.015-.01-.021a.124.124 0 0 0 .077-.146.135.135 0 0 0-.068-.18m.616.63c.39-.242.631-.015.922.27-.036-.45.18-.682.593-.882-.494-.065-.655-.317-.654-.802-.255.416-.547.515-.945.45.296.297.22.593.088.963zm11.504-10.086c.308.09.245.331.216.55-.165 1.237-.332 2.472-.5 3.707-.113.842-.22 1.684-.341 2.524-.028.194 0 .476-.279.491-.337.019-.36-.234-.323-.499.217-1.594.433-3.189.648-4.784.073-.53.159-1.06.219-1.592.02-.175.036-.326.224-.392zm-7.406 6.04c-.201-.09-.406-.18-.604-.286-.173-.09-.302-.213-.207-.427.085-.193.243-.19.416-.125.209.076.42.147.63.221l1.082.611c1.166.82 2.096 1.857 2.854 3.056.031.05.069.098.102.147.115.173.201.36 0 .513-.2.154-.36 0-.478-.163-.27-.378-.51-.773-.793-1.14-.53-.688-1.121-1.32-1.88-1.77a3.02 3.02 0 0 0-.924-.544l-.165-.077zm11.08-2.497c.025.166-.105.248-.206.322-1.474 1.096-2.447 2.557-3.124 4.237-.034.082-.073.162-.107.245-.084.21-.244.26-.435.18-.19-.08-.161-.264-.099-.416.45-1.093.956-2.158 1.712-3.08a10.46 10.46 0 0 1 1.685-1.626c.114-.09.24-.187.407-.11a.315.315 0 0 1 .167.248m-5.767-1.194c-.117.18-.28.428-.437.677-.64 1.015-.523.87-1.427.282-.86-.56-.991-.385-.28-1.425.593-.862.355-.972 1.43-.278.187.12.373.242.558.367.103.07.184.155.156.377m-.732.06c-.012-.117-.654-.563-.682-.523a7.649 7.649 0 0 0-.427.665c-.03.052.624.514.662.468.167-.206.315-.427.447-.61m.707 5.431c.027.236.066.471.08.708a.24.24 0 0 1-.166.268.245.245 0 0 1-.112.008c-.143-.019-.34-.042-.355-.261-.083-1.242-.332-2.461-.515-3.685-.03-.202-.055-.41.207-.463.29-.06.355.154.389.373.132.854.258 1.707.393 2.562a.67.67 0 0 0 .102.194h.016c-.018.071-.04.142-.053.212-.002.03 0 .061.008.09zm-4.391-3.132c-.226-.483-.12-.895.27-1.247l.386-.13c.63.07.95.34.981.835.033.513-.276.817-.968.953l-.298-.111h-.012zm1.038-.49a.262.262 0 0 0-.288-.28c-.17 0-.27.113-.26.287a.253.253 0 0 0 .278.27c.184 0 .247-.132.27-.277m11.245-1.144c-.18.37-.45.629-.89.618a.799.799 0 0 1-.742-.48.858.858 0 0 1 .378-1.173c.442-.216.932-.04 1.171.399.085.153.079.312.108.47zm-.966.007c.236.026.348-.052.377-.226.029-.173-.072-.27-.24-.306-.193-.037-.279.09-.313.237a.235.235 0 0 0 .176.295M21.433 25.55c-.034.306-.23.506-.565.538-.319.028-.607-.27-.604-.582a.587.587 0 0 1 .609-.567c.345.007.565.229.56.61"/><path fill="#C0C1BF" d="m46.538 5.58-.238-.067c.023-.278-.21-.67.352-.703.146-.008-.035-.328.193-.38a.684.684 0 0 1 .404.104c-.242.349-.117.949-.711 1.045M58.877 8.35l.082.102.095.084c-.082.233-.17.463-.246.698-.047.147-.133.22-.29.19-.158 0-.288-.095-.242-.239.096-.289.217-.57.36-.838.05-.1.159.012.24.002"/><path fill="#FAFE01" d="M26.377 18.757c-.413.175-.468.14-.546-.345l.113-.207.103-.151v.013l.231-.1c.52.2.195.51.099.79m2.598 2.4c-.238.052-.416-.18-.396-.27.056-.246.29-.343.551-.35.216-.008.353.066.338.299-.02.322-.292.272-.493.321m2.896.166c-.06.18-.09.36-.286.325-.246-.044-.506-.124-.54-.429-.02-.16.071-.308.256-.286a.733.733 0 0 1 .57.39m-5.881-1.928c.014-.247.148-.367.391-.372a.07.07 0 0 0 .07.027c.02.05.047.086.11.068.274.09.331.294.206.514-.147.257-.352.125-.53.006-.096-.065-.204-.123-.247-.243m4.402.02c-.012.18-.096.316-.299.304-.322-.019-.293-.298-.323-.505-.024-.172.036-.339.26-.334.36.006.29.313.362.535m1.616 1.12c-.112.02-.223.039-.334.062-.2.042-.406.059-.456-.196-.05-.254.14-.35.36-.38.22-.032.43-.046.47.244a.951.951 0 0 1-.03.258zm-7.133-2.245a.405.405 0 0 1 .414.031c.166.12.387.206.286.47-.108.282-.325.171-.52.113-.16-.175-.431-.318-.18-.614m4.763 1.564c.017.256-.09.378-.256.36-.236-.03-.486-.116-.54-.39a.258.258 0 0 1 .281-.323c.239.032.45.159.514.353m-4.423.177c-.36-.282-.14-.546.074-.737.215-.192.415-.097.493.192-.1.27-.191.558-.567.545m6.214-.644c-.097.218-.16.495-.477.5a.244.244 0 0 1-.246-.303c.048-.254.17-.488.465-.505.16-.009.265.116.258.308"/><path fill="#FDFDFD" d="m4.87 31.177-.192.283-.435 1.593c-.136.629-.69.624-1.153.757-.445-.415.251-1.79.27-2.145.147-.243.594-1.695.734-2.075.491.156.865.207 1.165.375.197.196-.355 1.069-.389 1.212m77.847-1.021c-.127.127-.12.305-.156.46-.945 4.201-1.873 8.406-2.825 12.606-.36 1.597-.615 3.225-1.244 4.753-.443 1.074-1.14 1.913-2.206 2.433-1.126.55-2.326.63-3.546.6l-.02-2.786a.069.069 0 0 0 .012-.067c.493-.052 2.012-.366 2.08-.466l-.01.008a.25.25 0 0 0 .191-.192l-.013.01c.052-.015.097-.037.096-.101l.006.016a.34.34 0 0 0 .18-.279h-.009c.495-.67-.489-3.945-.725-4.434-.21-1.125-.564-2.21-.912-3.298a1.225 1.225 0 0 0-.17-.543v.004a.478.478 0 0 0-.094-.352v-.008a28.9 28.9 0 0 0-.81-2.796.08.08 0 0 0-.01-.075.205.205 0 0 0-.079-.22.027.027 0 0 0 .007-.011.027.027 0 0 0-.004-.026.027.027 0 0 0-.01-.009l-.091-.434-.986-3.595a12.532 12.532 0 0 0-.081 1.888c0 .241-.073.341-.329.354-.82.041-1.64.147-2.46.147-.472 0-.56.151-.558.586.014 5.424.017 10.847.008 16.27 0 .134-.005.27 0 .403.01.19-.08.262-.265.27-.985.05-1.97.11-2.955.167l-.03-1.336V35.386c.007-.297.017-.595.018-.893 0-.584 0-.584-.6-.546l-2.769.172h-.038c.01-.989-.054-1.973.024-2.958a.031.031 0 0 0 .024.011 2428.203 2428.203 0 0 0 9.196-.482c.456-.03 2.991-.147 3.417-.217.17-.027.365-.083.463.144-.009.149.013.298.064.438.53 2.08 1.08 4.157 1.575 6.245.365 1.528.664 3.08.99 4.62h.067l.45-2.94c.128-.808.255-1.617.381-2.426.326-1.334 1.191-5.585 1.262-5.975.047-.28.147-.45.487-.412.444.057 2.709-.12 3.007-.011m-15.808 4.426c.05-.168.28.032.278-.132-.002-.163-.158-.254-.307-.282-.29-.056-.484.098-.618.34-.145.262-.037.484.18.616a.542.542 0 0 0 .73-.127c.245-.301-.237-.243-.263-.415m-25.413-2.356c1.289-.105 2.584-.082 3.868-.241l2.974-.119c.27.09.568-.22.822.062-.006.209-.016.418-.016.63v17.308c0 .687-.006 1.374 0 2.062 0 .212-.046.329-.294.34-1 .046-2 .11-3 .167-.005-.3-.011-.598-.018-.894.17-.256.536-.484.248-.837-.196-.239-.18-.482-.194-.745-.01-.248.053-.502-.055-.743l-.016-12.833c.006-.387.01-.776.022-1.164.007-.211-.083-.297-.294-.285-.702.04-1.404.074-2.106.11-.29.014-.404.15-.41.454-.05 2.209-.121 4.418-.18 6.627-.041 1.688-.049 3.376-.114 5.062-.034.877-.103 1.754-.343 2.607-.406 1.454-1.279 2.433-2.766 2.833a7.069 7.069 0 0 1-2.083.255l-.015-.61c.005-.58.042-1.163 0-1.741-.031-.461.12-.664.583-.622a1.82 1.82 0 0 0 .677-.187c.43-.18.524-.578.614-.975.138-.975.157-5.115.28-6.197.013-.706.235-6.936.264-7.812.015-.685.04-1.37.043-2.056 0-.3.136-.426.427-.428.366-.003.725-.018 1.082-.028m7.209 15.363.01.015-.014-.012c0-.18-.06-.364.06-.517.172-.219 0-.298-.146-.36-.39-.152-.733.168-.65.63.07-.133.15-.26.238-.381a.16.16 0 0 1 .135-.074.161.161 0 0 1 .135.074c.06.074.081.18-.008.234-.18.105-.44.222-.307.45.132.227.342-.162.545-.059zm-1.86-13.85c-.313-.08-.36.287-.578.285-.147 0-.18.053-.18.18a.224.224 0 0 0 .134.211c.1.042.173-.022.224-.094.14-.189.263-.38.4-.581m-.09.934c.242-.138.426-.238.387-.51-.111 0-.15.065-.192.125-.068.096-.178.166-.196.385zM26.833 33.05c.76-.16 1.539-.09 2.307-.162.842-.082 1.692-.073 2.54-.111.13-.015.261-.04.39-.073l1.24-.03a.76.76 0 0 0 .469-.067l1.237-.024c.29.128.625-.18.901.09-.162.738-.056 1.487-.061 2.23 0 .398-.062.6-.526.596-.354 0-.715.045-1.074.06-1.286.055-2.571.128-3.858.18-.253.011-.334.113-.332.36a475.82 475.82 0 0 1 0 4.534c0 .213.05.345.3.329.36-.024.721-.03 1.082-.045a.362.362 0 0 0 .13.028c1.704-.241 3.227.077 4.415 1.423a.188.188 0 0 0 .116.191l.007-.013c.156.494.43.947.52 1.465.282 1.645.23 3.297.09 4.943-.2 2.37-1.83 4.017-4.198 4.186-1.892.136-3.79.197-5.685.29 0-.09-.01-.179-.01-.269zm6.735 15.433c0-1.042-.003-2.084-.01-3.126l-.005-.156c-.18-1.085-.555-1.409-1.65-1.383-.522.011-1.043.065-1.565.083-.23.008-.27.13-.27.317 0 1.941.005 3.882 0 5.821 0 .3.132.352.385.323.326-.037.654-.056.981-.082.339.03.68-.008 1.004-.112.476-.132.901-.375.98-.947l-.01-.01c.145-.223.127-.481.16-.728m-1.934-5.478c-.147-.043.171-.658-.367-.295-.036.024-.09.062-.104 0-.078-.34-.27-.214-.413-.084-.175.155-.18.36-.07.568.059.105.104.235.24.238.136.002.11-.147.156-.23.082-.15.192-.25.325-.04.043.068.045.198.173.114.08-.05.09-.145.06-.271m-3.198 3.186c-.008.167.014.328-.06.478a.458.458 0 0 0 .034.466c.055.09.134.02.198-.009a.441.441 0 0 0 .263-.43c-.004-.267-.142-.442-.435-.505m29.634-14.83.072.068c0 .028.003.056.008.083-.024.36.079.71.135 1.06.369 2.308.742 4.615 1.119 6.922.378 2.337.755 4.674 1.13 7.011.258 1.6.506 3.204.777 4.804.046.27-.024.342-.27.354-.985.043-1.97.09-2.954.144l-.311-2.214c-.054-.383-.116-.766-.16-1.15-.026-.225-.131-.31-.356-.297-1.09.06-2.18.117-3.272.172-.235.012-.392.059-.43.338-.139 1.035-.31 2.067-.442 3.098-.03.248-.118.305-.35.347-.684.124-1.379.01-2.062.13-.553.096-.612 0-.52-.568.124-.765.306-1.522.336-2.3.074-.067.067-.159.08-.246.17-1.107 1.68-10.681 1.868-11.857.131-.888.262-1.776.391-2.663l.244-1.28c.07-.482.137-.964.212-1.447.025-.164.11-.246.3-.252.64-.018 1.28-.052 1.92-.09.844-.054 1.69-.112 2.535-.167m-1.73 9.168c0-.66-.166-1.297-.256-1.945-.147-1.062-.317-2.121-.49-3.275-.041.137-.058.18-.065.22-.296 1.944-.596 3.889-.886 5.834-.192 1.282-.36 2.568-.563 3.849-.045.284.048.33.295.326a7.12 7.12 0 0 0 1.253-.096c.416.016.832-.002 1.245-.056.18-.028-.307-3.59-.534-4.857zm-2.153-.214a.565.565 0 0 0 .43-.387.378.378 0 0 0-.069-.339c-.27.344-.552-.246-.835.006-.126.112-.188.23-.13.39a.27.27 0 0 0 .1.144c.163.091.368.067.504.185z"/><path fill="#C0C1BF" d="M50.518 49.357c-.03.779-.212 1.535-.336 2.3-.09.572-.033.665.52.568.683-.12 1.378-.005 2.062-.13.232-.041.32-.099.35-.346.133-1.035.303-2.067.442-3.098.038-.28.196-.327.43-.338 1.091-.052 2.182-.11 3.273-.172.224-.013.33.072.355.296.044.384.106.767.16 1.151h-.427l-1.099.09a4.855 4.855 0 0 0-1.07.046c-.152.026-.236.076-.259.243-.152 1.147-.312 2.293-.47 3.44-.373.164-.772.084-1.158.13h-.533c-.877.18-1.672.116-2.136-.797-.072.063-.108.08-.11.098-.05.81-.05.81-.87.852-.285.015-.57.018-.854.027l-1.166.09c-.342.044-.574-.124-.8-.36-.25-.263-.468-.57-.811-.736l-.16-.27c1-.056 1.999-.12 2.999-.167.248-.01.295-.128.294-.34-.008-.687 0-1.375 0-2.062V32.564c0-.209.01-.418.016-.63l1.307 1.227.047.783V37.9c0 1.344-.01 2.688-.01 4.03.003 2.475.007 4.95.014 7.428m22.843 2.363a2.62 2.62 0 0 0-.54-.54l-.076-.173c1.22.027 2.42-.05 3.546-.6 1.065-.52 1.763-1.36 2.205-2.433.631-1.528.883-3.156 1.245-4.754.951-4.199 1.88-8.404 2.825-12.605.035-.155.028-.333.155-.46l.36.291c.212.221.41.457.638.66.212.19.34.393.27.684l-.16.633a591.02 591.02 0 0 1-.42 1.915v.032l-.037.11-.301 1.424-.592 2.542-.54 2.4-.27 1.277-.019.16a.064.064 0 0 0-.018.067c-.262 1.02-.512 2.044-.694 3.082-.212.866-.41 1.736-.64 2.598-.248.927-.599 1.812-1.172 2.592l-.096.11-.526.516-.09.112v-.01l-.8.464-1.156.373-.667.148-.602.03a.925.925 0 0 0-.455.044c-.462.082-.819-.08-1.094-.45a1.778 1.778 0 0 0-.279-.239m-35.815 1.161a7.069 7.069 0 0 0 2.083-.254c1.488-.4 2.36-1.379 2.767-2.833.24-.857.309-1.734.343-2.607.065-1.686.072-3.374.113-5.062.056-2.209.127-4.418.18-6.627.007-.304.121-.44.41-.454.703-.036 1.404-.07 2.106-.11.211-.013.301.074.294.285-.012.388-.015.776-.021 1.164l-.245.004h-.216l-.351.044-.102.021-.407.023c-.187.111-.1.297-.103.444-.045 1.61-.079 3.22-.115 4.83 0 .135-.013.27-.017.403l-.128 4.195-.033 2.379c-.124.773-.095 1.569-.34 2.325-.073.224-.126.455-.188.683l-.367.706a4.584 4.584 0 0 1-1.374 1.247l-1.054.38c-.09.013-.18.022-.264.039-.849.158-1.712.399-2.343-.495-.172-.278-.495-.422-.628-.73m31.77-14.45-.014 6.91c0 2.26-.015 4.519.012 6.777.005.445-.17.584-.55.576-.901-.02-1.795.09-2.693.118-.468-.437-.953-.855-1.338-1.373.985-.057 1.97-.116 2.954-.167.186-.01.27-.082.266-.27-.005-.135 0-.27 0-.404 0-5.423-.003-10.846-.009-16.269 0-.435.09-.586.559-.586.82 0 1.639-.106 2.46-.147.256-.013.333-.113.329-.355-.02-.63.006-1.26.08-1.887.33 1.198.658 2.397.986 3.595l-.166.06h-.01c-.877.035-1.754.079-2.631.102-.25.006-.247.15-.246.32l.011 1.83v.718zm-11.23 13.369c.984-.05 1.968-.1 2.953-.144.248-.011.318-.09.27-.354-.27-1.599-.518-3.203-.776-4.803a9460.112 9460.112 0 0 0-2.25-13.933c-.056-.351-.159-.698-.134-1.06a.786.786 0 0 0 .07.021c.277.283.54.584.837.845.297.26.48.547.482.941l.483 2.877.395 2.494.148.824.211 1.418 1.488 9.104c.106.678.383 2.71.474 2.885l-.09.072c-.259.108-2.692.16-3.23.18l-.154-.115-.829-.83zM31.447 40.914c-.36.015-.721.022-1.081.045-.25.016-.301-.116-.301-.329.003-1.511.003-3.022 0-4.534 0-.244.079-.346.332-.36 1.287-.054 2.572-.128 3.858-.179.36-.015.721-.064 1.075-.061.464 0 .523-.198.525-.595.005-.744-.101-1.492.061-2.231.381.37.755.746 1.146 1.105.225.205.175 1.425.173 1.785v.45c0 .084-.034.669.025.761a.037.037 0 0 0-.027.038c-.131.186-.328.078-.493.109-.55-.01-4.374.18-4.845.18-.37 0-.557.135-.458.53v2.774zm29.909-6.794 2.768-.171c.6-.038.602-.038.6.546 0 .298-.011.596-.017.893l-2.048.09z"/><path fill="#C0C1BF" d="m74.442 30.617.173.1 1.16 1.259.21.877c.09.433.174.868.34 1.28.12.63.275 1.255.466 1.869l.466 1.887c.118.36.108.756.323 1.086l-.45 2.94h-.057c-.33-1.541-.631-3.089-.991-4.62-.498-2.089-1.046-4.165-1.575-6.245a1.087 1.087 0 0 1-.065-.433m-7.533 3.965c.026.172.508.111.262.415a.541.541 0 0 1-.73.127c-.216-.132-.324-.354-.181-.616.134-.242.328-.396.618-.34.149.028.305.126.307.282.003.157-.227-.036-.276.132m-.308-.055a.138.138 0 0 0-.097.12.135.135 0 0 0 .006.054c.011.071.033.161.124.151.091-.01.085-.103.078-.172-.006-.07-.016-.148-.111-.153M26.844 53.43c1.892-.09 3.793-.154 5.685-.29 2.367-.17 3.997-1.815 4.2-4.185.14-1.65.193-3.302-.09-4.943-.09-.518-.36-.971-.518-1.465a4.543 4.543 0 0 1 1.774 2.47c.11.38.167.777.25 1.168.04 1.243.079 2.487-.029 3.73-.463-.043-.614.16-.583.621.04.578 0 1.16 0 1.74a5.063 5.063 0 0 1-1.55 1.592c-.532.234-1.064.462-1.646.555-1.628.259-3.281.173-4.914.36-.81.09-1.532-.006-2.043-.731l-.173-.175-.387-.459zm21.859-5.84c-.203-.104-.41.29-.549.055-.14-.236.124-.34.307-.45.09-.05.068-.16.009-.234a.16.16 0 0 0-.27 0 3.266 3.266 0 0 0-.24.38c-.081-.46.262-.78.651-.628.15.058.318.137.147.36-.12.152-.062.34-.06.516zm-2.868 3.949v-2.326c.108.241.044.496.055.744.013.262 0 .506.194.744.287.354-.08.581-.25.838m1.012-17.799c-.138.202-.263.392-.397.576-.05.072-.124.136-.223.095a.224.224 0 0 1-.135-.211c-.007-.123.03-.18.18-.18.218.006.261-.36.575-.28m-.092.933c.018-.219.128-.289.195-.385.041-.06.08-.129.192-.125.038.272-.145.372-.387.51"/><path fill="#C0C1BF" d="M31.434 50.28c-.327.026-.655.045-.981.082-.253.029-.387-.023-.386-.323.01-1.94.006-3.88 0-5.82 0-.188.037-.31.27-.318.523-.018 1.044-.072 1.566-.084 1.095-.025 1.47.299 1.65 1.384-.645-.09-1.28.112-1.924.064-.235-.018-.2.172-.2.314 0 1.181.007 2.361.01 3.542zm.2-7.275c.03.126.02.221-.06.27-.128.083-.13-.047-.173-.115-.133-.209-.242-.11-.325.04-.046.083-.011.233-.156.23-.145-.003-.18-.133-.24-.238-.112-.207-.105-.413.07-.568.147-.13.335-.256.413.084.014.06.068.023.104 0 .54-.361.22.257.367.297m-3.198 3.186c.293.063.431.238.435.505a.438.438 0 0 1-.263.43c-.064.03-.143.095-.198.01a.457.457 0 0 1-.035-.467c.075-.15.053-.31.061-.478m27.192-.751a7.12 7.12 0 0 1-1.253.097c-.247.005-.34-.042-.294-.326.2-1.281.37-2.566.562-3.85.29-1.944.59-3.889.886-5.834.007-.041.024-.081.064-.219.174 1.154.344 2.213.491 3.275.09.648.258 1.286.255 1.946l-.433 3.012c-.146.625-.239 1.26-.278 1.9m-1.441-5.127c-.136-.118-.34-.09-.504-.186a.27.27 0 0 1-.1-.143c-.058-.161.004-.279.13-.391.283-.252.561.338.835-.006a.377.377 0 0 1 .07.34.563.563 0 0 1-.431.386"/><path fill="#FDFDFD" d="M66.6 34.527c.096.005.107.082.113.153.007.07.013.162-.078.172-.091.011-.113-.08-.124-.15a.138.138 0 0 1 .008-.107.138.138 0 0 1 .082-.068M29.297 79.01a23.041 23.041 0 0 1-1.938-.678l.248.066c.555.228 1.118.432 1.69.612"/></g><defs><clipPath id="a"><path fill="#fff" d="M0 0h84v82H0z"/></clipPath></defs></svg>