<svg xmlns="http://www.w3.org/2000/svg" width="20" height="20" fill="none"><path fill="#FCFDFD" fill-rule="evenodd" d="M.639 4.387C.909 4.09 1.294 4 1.669 4H3.65c.347 0 .703.078.998.354.26.244.396.576.495.875.471 1.394 1.099 2.699 1.682 3.646.245.399.475.721.674.956V7.116c-.033-.54-.18-.792-.3-.962-.035-.05-.07-.094-.112-.148l-.006-.008a3 3 0 0 1-.144-.196 1.2 1.2 0 0 1-.22-.682c0-.578.466-1.12 1.146-1.12h3.089c.333 0 .71.1.965.444.22.296.256.66.256.95V9.02l.092-.093c.65-.753 1.224-1.725 1.64-2.532a20 20 0 0 0 .647-1.377l.008-.019.002-.004.005-.014.006-.013c.091-.2.237-.445.487-.638.26-.202.585-.31.962-.31h1.964c.383 0 .834.1 1.103.493.252.367.2.785.116 1.07-.09.388-.32.882-.572 1.357-.269.51-.6 1.07-.919 1.585a59 59 0 0 1-1.069 1.663l-.059.09-.066.101-.015.026-.063.107-.01.02.04.057.003.006c.066.092.24.27.516.548l.002.002c.25.251.554.558.803.856.42.49.806.956 1.11 1.377.296.409.556.83.674 1.223l.003.01.003.009c.104.386.11.853-.198 1.226-.297.36-.743.454-1.116.454H16.31c-.289 0-.55-.063-.798-.199a2.6 2.6 0 0 1-.602-.484 13 13 0 0 1-.456-.507l-.12-.138a22 22 0 0 0-.793-.861c-.767-.761-1.177-1.005-1.367-1.082v1.819c0 .297-.042.785-.514 1.11-.376.259-.915.322-1.546.322-2.342 0-4.83-1.443-6.542-3.982-1.246-1.8-2.045-3.388-2.535-4.604a13 13 0 0 1-.521-1.533c-.104-.389-.164-.722-.164-.943 0-.195.026-.543.287-.83Zm17.293.933h-1.909a.4.4 0 0 0-.123.015.1.1 0 0 0-.043.022.4.4 0 0 0-.095.14l-.007.017a12 12 0 0 1-.176.406c-.12.27-.296.644-.517 1.072-.438.847-1.071 1.932-1.826 2.802l-.013.014-.013.013a4.7 4.7 0 0 1-.63.57c-.219.152-.46.253-.75.253a.9.9 0 0 1-.75-.431c-.148-.231-.206-.513-.206-.806V5.394q0-.055-.002-.094H8.186l.075.102c.25.352.492.84.538 1.659v3.013c0 .316-.019.661-.164.932a.9.9 0 0 1-.412.393c-.168.078-.33.089-.435.089-.275 0-.504-.123-.657-.227a3 3 0 0 1-.474-.421c-.3-.325-.621-.769-.938-1.284-.637-1.034-1.306-2.43-1.807-3.913V5.64a2 2 0 0 0-.107-.267.4.4 0 0 0-.04-.063.5.5 0 0 0-.114-.01H1.66l.016.1q.028.164.097.427c.093.35.244.818.471 1.382.454 1.127 1.208 2.63 2.4 4.352l.005.007c1.53 2.271 3.652 3.412 5.466 3.412.293 0 .495-.017.633-.042a1 1 0 0 0 .126-.03l.002-.06v-1.82c0-.162.007-.325.034-.474a1.1 1.1 0 0 1 .216-.497c.29-.36.721-.365.914-.365.568 0 1.249.335 2.422 1.5l.008.008c.344.354.617.66.841.915l.135.153c.161.185.286.327.4.446.142.147.228.213.29.246a.33.33 0 0 0 .174.04h1.964l.068-.003-.007-.03c-.055-.175-.205-.446-.48-.827-.272-.376-.63-.81-1.047-1.296l-.005-.007a13 13 0 0 0-.732-.778l-.042-.042c-.222-.223-.472-.475-.608-.664-.172-.237-.333-.53-.307-.892.021-.297.172-.549.26-.697l.004-.004a1 1 0 0 1 .047-.08l.078-.118.06-.092.21-.317c.225-.343.527-.81.838-1.312.31-.503.625-1.035.875-1.508.243-.461.395-.81.447-1.013Z" clip-rule="evenodd"/></svg>