<svg width="720" height="27" viewBox="0 0 720 27" fill="none" xmlns="http://www.w3.org/2000/svg">
<g clip-path="url(#clip0_2023_15)">
<path d="M400.308 18.3838C465.013 38.0557 474.349 25.4976 467.033 35.8747L454.911 50.6014L-49.1654 50.376C-55.8956 44.2459 -68.9313 39.6308 -57.9436 18.1788C-44.209 -8.63612 28.9824 5.05948 132.098 22.0834C204.006 33.955 301.918 -11.5289 400.308 18.3838Z" fill="#00E5BC"/>
<path d="M250.213 20.4667C177.779 42.4881 167.329 28.4301 175.518 40.0465L189.088 56.5321L753.369 56.2798C760.903 49.4176 775.495 44.2513 763.195 20.2372C747.82 -9.78041 665.887 5.55092 550.456 24.6081C469.96 37.8976 360.353 -13.0187 250.213 20.4667Z" fill="#00E5BC"/>
<path d="M692.849 25.1447C752.142 43.1711 760.696 31.6634 753.993 41.1725L742.884 54.6673L280.972 54.4608C274.805 48.8435 262.86 44.6144 272.929 24.9568C285.514 0.384869 352.583 12.9349 447.074 28.5348C512.967 39.4134 602.689 -2.26593 692.849 25.1447Z" fill="#00E5BC"/>
</g>
<defs>
<clipPath id="clip0_2023_15">
<rect width="720" height="27" fill="white"/>
</clipPath>
</defs>
</svg>
