<svg width="720" height="27" viewBox="0 0 720 27" fill="none" xmlns="http://www.w3.org/2000/svg">
<g clip-path="url(#clip0_2023_32)">
<path d="M400.308 8.61616C465.013 -11.0557 474.349 1.50242 467.033 -8.87466L454.911 -23.6014L-49.1654 -23.376C-55.8956 -17.2459 -68.9313 -12.6308 -57.9436 8.82117C-44.209 35.6361 28.9824 21.9405 132.098 4.91661C204.006 -6.95498 301.918 38.5289 400.308 8.61616Z" fill="#00E5BC"/>
<path d="M250.213 6.53332C177.779 -15.4881 167.329 -1.43005 175.518 -13.0465L189.088 -29.5321L753.369 -29.2798C760.903 -22.4176 775.495 -17.2513 763.195 6.76281C747.82 36.7804 665.887 21.4491 550.456 2.39191C469.96 -10.8976 360.353 40.0187 250.213 6.53332Z" fill="#00E5BC"/>
<path d="M692.849 1.8553C752.142 -16.1711 760.696 -4.6634 753.993 -14.1725L742.884 -27.6673L280.972 -27.4608C274.805 -21.8435 262.86 -17.6144 272.929 2.04316C285.514 26.6151 352.583 14.0651 447.074 -1.53479C512.967 -12.4134 602.689 29.2659 692.849 1.8553Z" fill="#00E5BC"/>
</g>
<defs>
<clipPath id="clip0_2023_32">
<rect width="720" height="27" fill="white" transform="matrix(1 0 0 -1 0 27)"/>
</clipPath>
</defs>
</svg>
