<svg xmlns="http://www.w3.org/2000/svg" width="80" height="80" fill="none" viewBox="0 0 80 80"><path fill="#66B3FF" d="M20.85 70.211c-1.088 1.882-3.562 2.414-5.156.943A36.254 36.254 0 0 1 7.911 60.83 36.567 36.567 0 0 1 4 44.34C4 24.27 20.117 8 40 8s36 16.27 36 36.34a36.567 36.567 0 0 1-3.911 16.49 36.255 36.255 0 0 1-7.783 10.324c-1.594 1.47-4.068.94-5.157-.943-.926-1.602-.508-3.632.816-4.918a29.119 29.119 0 0 0 7.594-12.51 29.332 29.332 0 0 0-.287-17.785 29.053 29.053 0 0 0-10.496-14.287A28.618 28.618 0 0 0 40 15.269a28.618 28.618 0 0 0-16.776 5.442 29.053 29.053 0 0 0-10.496 14.287 29.332 29.332 0 0 0-.287 17.785 29.119 29.119 0 0 0 7.594 12.51c1.324 1.286 1.742 3.316.816 4.918Z"/><path fill="#66B3FF" d="M23.042 57.844c1.442 1.846 4.169 1.366 5.342-.664.862-1.493.57-3.36-.377-4.798a14.663 14.663 0 0 1-1.319-13.588 14.507 14.507 0 0 1 5.303-6.538A14.304 14.304 0 0 1 40 29.801c2.852 0 5.64.854 8.01 2.455a14.507 14.507 0 0 1 5.302 6.538 14.663 14.663 0 0 1-1.319 13.588c-.947 1.439-1.239 3.305-.377 4.798 1.173 2.03 3.9 2.51 5.342.664a21.882 21.882 0 0 0 3.9-7.838c1.153-4.323.959-8.9-.555-13.108a21.78 21.78 0 0 0-7.907-10.414A21.462 21.462 0 0 0 40 22.536a21.462 21.462 0 0 0-12.396 3.948 21.78 21.78 0 0 0-7.907 10.413 21.998 21.998 0 0 0-.555 13.11 21.882 21.882 0 0 0 3.9 7.837Z"/><path fill="#66B3FF" d="M40 51.762c4.061 0 7.353-3.323 7.353-7.423 0-4.099-3.292-7.422-7.353-7.422s-7.353 3.323-7.353 7.422c0 4.1 3.292 7.423 7.353 7.423Z"/></svg>