<svg xmlns="http://www.w3.org/2000/svg" width="80" height="80" fill="none" viewBox="0 0 80 80"><path fill="#66B3FF" d="M69.096 11.5c0-1.933 1.545-3.5 3.452-3.5C74.454 8 76 9.567 76 11.5v57c0 1.933-1.546 3.5-3.452 3.5-1.907 0-3.452-1.567-3.452-3.5v-57ZM52.329 21c0-2.21 1.766-4 3.945-4s3.945 1.79 3.945 4v47c0 2.21-1.766 4-3.945 4s-3.945-1.79-3.945-4V21ZM35.562 39.5c0-2.485 1.987-4.5 4.438-4.5 2.451 0 4.438 2.015 4.438 4.5v28c0 2.485-1.987 4.5-4.438 4.5-2.451 0-4.438-2.015-4.438-4.5v-28ZM19.78 49c0-2.21 1.767-4 3.946-4 2.179 0 3.945 1.79 3.945 4v19c0 2.21-1.766 4-3.945 4s-3.945-1.79-3.945-4V49ZM4 60.5C4 58.567 5.546 57 7.452 57c1.907 0 3.452 1.567 3.452 3.5v8c0 1.933-1.545 3.5-3.452 3.5C5.546 72 4 70.433 4 68.5v-8Z"/></svg>