<svg xmlns="http://www.w3.org/2000/svg" width="210" height="141" fill="none" viewBox="0 0 210 141"><path fill="#D5E5FD" d="M210 .573c-.317.88-.494 1.47-.736 2.03a874680.214 874680.214 0 0 0-33.799 77.828c-3.9 9.016-7.966 17.922-14.027 25.707-14.287 18.332-32.732 29.387-55.441 32.874a92.806 92.806 0 0 1-13.83 1.055c-29.691.094-59.386.05-89.078.042-.903 0-1.79-.112-3.089-.196.698-1.684 1.227-3.022 1.79-4.338 11.842-27.214 23.69-54.429 35.546-81.645C47.695 30.227 64.764 13.815 88.813 5.18c8.18-2.943 16.655-4.578 25.373-4.61C145.189.475 176.194.398 207.2.34c.841 0 1.682.136 2.8.233Z"/><path fill="#4267E5" d="M102.728 110.27c-2.895-.676-5.325-2.329-7.782-3.905-1.813-1.163-3.85-1.273-5.889-1.461a36.59 36.59 0 0 1-3.997-.53c-3.237-.665-5.376-2.746-6.756-5.72a47.03 47.03 0 0 1-1.476-3.497 11.333 11.333 0 0 0-3.555-4.997c-1.051-.856-2.051-1.783-3.03-2.728-2.806-2.715-3.597-6.047-2.79-9.838.253-1.19.491-2.387.817-3.557.685-2.48.243-4.877-.347-7.288a32.076 32.076 0 0 1-.702-4.12c-.319-2.904.702-5.362 2.666-7.404a39.662 39.662 0 0 1 3.387-3.121 11.685 11.685 0 0 0 3.562-4.994 44.329 44.329 0 0 1 1.863-4.242c1.557-3.08 4.115-4.766 7.453-5.207 1.802-.24 3.617-.403 5.428-.578 1.325-.128 2.492-.666 3.615-1.35 1.37-.836 2.72-1.703 4.124-2.473 3.303-1.81 6.599-1.667 9.85.162a28.74 28.74 0 0 1 2.884 1.77c2.117 1.545 4.504 2.046 7.043 2.176 1.343.074 2.68.247 3.998.52 3.239.661 5.377 2.746 6.747 5.72a60.028 60.028 0 0 1 1.623 3.848c.694 1.838 1.82 3.306 3.304 4.542a58.602 58.602 0 0 1 3.14 2.833c2.792 2.69 3.584 6.002 2.813 9.766-.25 1.225-.502 2.439-.837 3.632-.695 2.482-.241 4.876.349 7.292.323 1.356.557 2.733.701 4.121.32 2.935-.734 5.405-2.719 7.464a39.056 39.056 0 0 1-3.336 3.063 11.638 11.638 0 0 0-3.562 4.995 44.787 44.787 0 0 1-1.864 4.235c-1.557 3.092-4.122 4.757-7.458 5.209a76.605 76.605 0 0 1-4.689.46c-1.82.134-3.41.842-4.927 1.823-1.952 1.262-3.894 2.578-6.194 3.142-.257.062-.506.163-.75.246l-2.707-.009ZM72.323 80.106a4.113 4.113 0 0 0 1.11 2.957c.666.721 1.341 1.455 2.113 2.046 3.102 2.377 5.351 5.362 6.596 9.134.309.933.78 1.812 1.214 2.7.664 1.356 1.79 2.092 3.233 2.31.986.153 1.979.272 2.973.318 3.303.153 6.4.919 9.158 2.871.838.594 1.749 1.072 2.625 1.618 1.809 1.112 3.62 1.13 5.435.015 1.004-.613 2.018-1.217 3.01-1.851 1.814-1.158 3.721-2.076 5.868-2.333a98.502 98.502 0 0 1 4.84-.46c2.207-.165 3.859-1.09 4.712-3.269.379-.966.839-1.9 1.192-2.877 1.082-2.995 2.873-5.433 5.322-7.414a34.76 34.76 0 0 0 2.971-2.79c.772-.79 1.175-1.794 1.018-2.921a53.625 53.625 0 0 0-.708-3.963c-.491-2.24-1.041-4.477-.64-6.787.311-1.798.682-3.59 1.129-5.362.619-2.45.098-4.468-1.887-6.05-.432-.342-.814-.756-1.252-1.09a17.934 17.934 0 0 1-6.296-8.8c-.327-.98-.822-1.905-1.28-2.835-.653-1.33-1.761-2.054-3.177-2.272a27.634 27.634 0 0 0-2.972-.32c-3.328-.153-6.445-.928-9.23-2.892-.919-.65-1.916-1.188-2.89-1.753-1.605-.933-3.227-.934-4.836-.018a57.763 57.763 0 0 0-2.575 1.55c-1.952 1.25-3.942 2.419-6.27 2.738a70.08 70.08 0 0 1-5.061.505c-2.3.153-4 1.106-4.876 3.37-.384.992-.848 1.952-1.214 2.951-1.062 2.89-2.805 5.244-5.165 7.166a39.614 39.614 0 0 0-2.985 2.791c-.84.845-1.252 1.91-1.09 3.124.15 1.072.273 2.175.57 3.217 1.05 3.677 1.182 7.343.074 11.042-.354 1.175-.512 2.42-.76 3.634Z"/><path fill="#4267E5" d="M92.892 72.522a7.751 7.751 0 0 1-5.519-2.324 8.07 8.07 0 0 1-2.31-5.616c-.017-4.443 3.499-7.999 7.92-7.993 4.24 0 7.73 3.573 7.76 7.933.03 4.401-3.497 7.993-7.851 8Zm-4.287-7.967a4.45 4.45 0 0 0 .74 2.424 4.315 4.315 0 0 0 1.934 1.6 4.224 4.224 0 0 0 2.478.237 4.272 4.272 0 0 0 2.19-1.204 4.412 4.412 0 0 0 1.17-2.241 4.466 4.466 0 0 0-.244-2.527 4.367 4.367 0 0 0-1.575-1.965 4.237 4.237 0 0 0-2.38-.745c-.567 0-1.13.114-1.654.336a4.302 4.302 0 0 0-1.402.958c-.4.41-.718.897-.934 1.433a4.474 4.474 0 0 0-.323 1.69v.004Zm26.622 21.117a7.761 7.761 0 0 1-5.515-2.334 8.08 8.08 0 0 1-2.303-5.62c-.023-4.403 3.498-7.966 7.867-7.975a7.67 7.67 0 0 1 2.986.616 7.805 7.805 0 0 1 2.528 1.735 7.985 7.985 0 0 1 1.684 2.59 8.119 8.119 0 0 1-.019 6.097 7.975 7.975 0 0 1-1.7 2.578 7.801 7.801 0 0 1-2.539 1.719 7.68 7.68 0 0 1-2.989.597v-.003Zm4.318-7.966a4.445 4.445 0 0 0-.741-2.424 4.31 4.31 0 0 0-1.933-1.6 4.217 4.217 0 0 0-2.477-.237 4.271 4.271 0 0 0-2.191 1.204 4.415 4.415 0 0 0-1.17 2.241 4.463 4.463 0 0 0 .244 2.527 4.36 4.36 0 0 0 1.575 1.965 4.24 4.24 0 0 0 4.04.415 4.307 4.307 0 0 0 1.407-.958c.402-.412.72-.9.935-1.438a4.465 4.465 0 0 0 .318-1.695h-.007Zm-5.135-21.86a6.23 6.23 0 0 1-.362.929A27929.575 27929.575 0 0 1 97.144 87.26c-.6 1.087-1.598 1.431-2.5.901-.902-.53-1.153-1.575-.559-2.646a35385.238 35385.238 0 0 1 16.941-30.54c.491-.886 1.255-1.266 2.03-1.06.774.205 1.34.91 1.354 1.931Z"/></svg>