<svg xmlns="http://www.w3.org/2000/svg" width="109" height="28" fill="none" viewBox="0 0 109 28"><path fill="#FDFDFD" fill-rule="evenodd" d="M23 6.186 12.635.153a1.12 1.12 0 0 0-1.131 0L1.139 6.186l-.513.3c-.019.009-.037.02-.056.03l-.004.003C.216 6.723 0 7.1 0 7.507v12.727c0 .407.216.784.566.988l10.366 6.035.537.31c.011.008.022.014.034.021.35.204.781.203 1.132-.002l.568-.33 5.465-3.181 3.575 2.081a1.5 1.5 0 0 0 1.513 0l3.952-2.301a1.53 1.53 0 0 0 .757-1.321v-4.601c0-.546-.288-1.05-.757-1.321l-3.573-2.08V7.489c-.006-.4-.221-.77-.566-.972L23 6.187Zm-1.136 8.345V9.49a8.685 8.685 0 0 0-3.169 3.195 8.78 8.78 0 0 0-1.16 4.365v-5.04l-4.332 2.521v10.083l4.33-2.52v-4.16c0-.545.29-1.048.757-1.321l3.575-2.081Zm0-5.043v.003l-.009.003.01-.006Zm35.329 12.767a.463.463 0 0 1-.341-.14.468.468 0 0 1-.14-.343v-7.84h-1.623a.462.462 0 0 1-.341-.141.468.468 0 0 1-.14-.343V12.26c0-.134.046-.248.14-.343a.462.462 0 0 1 .34-.14h1.624v-.807c0-1.222.327-2.13.981-2.72.655-.605 1.644-.907 2.966-.907h1.383c.133 0 .247.047.34.14.094.095.14.209.14.343v1.19a.468.468 0 0 1-.14.342.463.463 0 0 1-.34.141h-1.283c-.52 0-.888.128-1.102.383-.213.255-.32.652-.32 1.19v.704h2.504c.134 0 .248.047.341.141.093.095.14.209.14.343v1.19a.468.468 0 0 1-.14.342.462.462 0 0 1-.34.14h-2.505v7.84a.468.468 0 0 1-.14.343.423.423 0 0 1-.341.141h-1.663Zm-11.83-.201a4.39 4.39 0 0 0 1.883.403c.801 0 1.47-.134 2.004-.403.534-.282.948-.638 1.242-1.068v.786c0 .134.047.248.14.342a.463.463 0 0 0 .341.141h1.663c.147 0 .26-.047.34-.14a.468.468 0 0 0 .141-.343v-6.328c0-1.156-.36-2.09-1.082-2.802-.721-.712-1.87-1.068-3.446-1.068-.962 0-1.77.161-2.425.484-.655.309-1.142.678-1.463 1.108-.307.417-.467.793-.48 1.129 0 .134.04.242.12.322.093.08.2.121.32.121h1.563c.147 0 .247-.08.3-.242l.321-.322a3.39 3.39 0 0 1 .662-.504c.267-.161.62-.242 1.062-.242.64 0 1.108.148 1.402.443.294.296.441.733.441 1.31v.424l-2.745.403c-1.283.201-2.291.584-3.026 1.149-.735.564-1.102 1.303-1.102 2.216 0 .565.16 1.082.48 1.552.335.47.782.847 1.343 1.129Zm4.368-2.257c-.468.483-1.069.725-1.804.725-.494 0-.922-.114-1.282-.342a1.16 1.16 0 0 1-.521-1.008c0-.793.768-1.31 2.304-1.552l2.004-.322v.403c0 .913-.234 1.612-.701 2.096Zm-13.609 2.317a.462.462 0 0 0 .34.141h1.784a.463.463 0 0 0 .34-.14.468.468 0 0 0 .141-.343V16.25c0-.632.18-1.129.541-1.492.36-.362.855-.544 1.483-.544h1.583c.147 0 .26-.047.34-.141a.467.467 0 0 0 .14-.343v-1.47a.428.428 0 0 0-.14-.344.423.423 0 0 0-.34-.14h-.842c-1.255 0-2.217.443-2.885 1.33v-.827a.493.493 0 0 0-.14-.363.487.487 0 0 0-.361-.14h-1.643a.462.462 0 0 0-.34.14.493.493 0 0 0-.141.363v9.493c0 .134.047.248.14.342ZM63.966 9.921a.462.462 0 0 0 .34.141h1.844a.462.462 0 0 0 .341-.14.44.44 0 0 0 .16-.343V8.108a.493.493 0 0 0-.14-.363.487.487 0 0 0-.36-.141h-1.844a.462.462 0 0 0-.34.14.493.493 0 0 0-.141.364v1.47c0 .135.047.25.14.343Zm.08 12.193a.463.463 0 0 0 .341.141h1.703a.463.463 0 0 0 .34-.14.468.468 0 0 0 .141-.343v-9.513a.468.468 0 0 0-.14-.343.463.463 0 0 0-.34-.14h-1.704a.463.463 0 0 0-.34.14.428.428 0 0 0-.14.343v9.513c0 .134.046.248.14.342Zm5.644.141a.463.463 0 0 1-.34-.14.468.468 0 0 1-.14-.343v-9.513c0-.148.046-.262.14-.343a.463.463 0 0 1 .34-.14h1.663c.147 0 .26.046.34.14a.428.428 0 0 1 .141.343v.826c.815-1.007 1.93-1.511 3.346-1.511 1.23 0 2.205.403 2.926 1.21.721.805 1.082 1.914 1.082 3.324v5.664a.468.468 0 0 1-.14.342.423.423 0 0 1-.34.141h-1.804a.463.463 0 0 1-.34-.14.468.468 0 0 1-.141-.343v-5.543c0-.779-.194-1.383-.581-1.813-.374-.444-.915-.665-1.623-.665-.682 0-1.23.221-1.643.665-.415.443-.622 1.048-.622 1.813v5.543a.468.468 0 0 1-.14.342.423.423 0 0 1-.34.141H69.69Zm13.185-.201a4.39 4.39 0 0 0 1.884.403c.802 0 1.469-.134 2.004-.403.534-.282.948-.638 1.242-1.068v.786c0 .134.047.248.14.342a.461.461 0 0 0 .34.141h1.664c.147 0 .26-.047.34-.14a.47.47 0 0 0 .14-.343v-6.328c0-1.156-.36-2.09-1.081-2.802-.722-.712-1.87-1.068-3.446-1.068-.962 0-1.77.161-2.425.484-.655.309-1.143.678-1.463 1.108-.307.417-.468.793-.481 1.129 0 .134.04.242.12.322.094.08.2.121.32.121h1.564c.147 0 .247-.08.3-.242l.32-.322a3.4 3.4 0 0 1 .663-.504c.266-.161.62-.242 1.061-.242.641 0 1.109.148 1.403.443.294.296.44.733.44 1.31v.424l-2.744.403c-1.283.201-2.292.584-3.026 1.149-.735.564-1.102 1.303-1.102 2.216 0 .565.16 1.082.48 1.552.335.47.782.847 1.343 1.129Zm4.369-2.257c-.468.483-1.07.725-1.804.725-.494 0-.922-.114-1.282-.342a1.16 1.16 0 0 1-.522-1.008c0-.793.769-1.31 2.305-1.552l2.004-.322v.403c0 .913-.234 1.612-.701 2.096Zm9.824 2.66c-1.35 0-2.385-.43-3.107-1.29-.721-.873-1.115-2.036-1.182-3.487l-.02-.665.02-.665c.054-1.424.441-2.573 1.163-3.446.734-.887 1.776-1.33 3.126-1.33 1.282 0 2.303.443 3.066 1.33V8.43a.43.43 0 0 1 .139-.343.465.465 0 0 1 .341-.14h1.744c.146 0 .26.046.34.14a.43.43 0 0 1 .141.343v13.342a.47.47 0 0 1-.141.342.423.423 0 0 1-.34.141h-1.623a.466.466 0 0 1-.342-.14.469.469 0 0 1-.139-.343v-.746c-.735.954-1.797 1.43-3.186 1.43Zm.76-2.177c.762 0 1.323-.242 1.684-.725.374-.497.581-1.109.622-1.834.012-.162.019-.417.019-.766 0-.363-.007-.625-.019-.786-.028-.672-.234-1.243-.622-1.713s-.948-.705-1.683-.705c-1.43 0-2.191.886-2.284 2.66l-.02.604.02.605c.093 1.773.855 2.66 2.284 2.66Zm7.701 1.834a.461.461 0 0 0 .34.141h2.024c.147 0 .26-.047.341-.14a.466.466 0 0 0 .14-.343v-2.036a.466.466 0 0 0-.14-.343.463.463 0 0 0-.341-.14h-2.024a.461.461 0 0 0-.34.14.467.467 0 0 0-.141.343v2.036c0 .134.047.248.141.342Z" clip-rule="evenodd"/></svg>