<svg width="114" height="21" viewBox="0 0 114 21" fill="none" xmlns="http://www.w3.org/2000/svg">
<path d="M8.16194 16L9.93301 1.75H12.213L10.4623 16H8.16194ZM0.629795 12.7429V10.5239H13.7805V12.7429H0.629795ZM2.88944 16L4.66051 1.75H6.94051L5.16944 16H2.88944ZM1.32194 7.22607V5.00714H14.4523L14.4727 7.22607H1.32194ZM16.5639 16V1.75H23.526C25.3174 1.75 26.661 2.08928 27.5567 2.76786C28.466 3.44643 28.9207 4.34214 28.9207 5.455C28.9207 6.20143 28.7374 6.85286 28.371 7.40929C28.0046 7.95214 27.5024 8.37286 26.8646 8.67143C26.2267 8.97 25.4939 9.11928 24.666 9.11928L25.0528 8.28464C25.9485 8.28464 26.7424 8.43393 27.4346 8.7325C28.1267 9.0175 28.6628 9.445 29.0428 10.015C29.4364 10.585 29.6332 11.2839 29.6332 12.1118C29.6332 13.3332 29.1514 14.29 28.1878 14.9821C27.2242 15.6607 25.806 16 23.9332 16H16.5639ZM19.8414 13.5164H23.6889C24.5439 13.5164 25.1885 13.3807 25.6228 13.1093C26.0707 12.8243 26.2946 12.3764 26.2946 11.7657C26.2946 11.1686 26.0707 10.7275 25.6228 10.4425C25.1885 10.1439 24.5439 9.99464 23.6889 9.99464H19.5971V7.5925H23.1189C23.9196 7.5925 24.5303 7.45679 24.951 7.18536C25.3853 6.90036 25.6024 6.47286 25.6024 5.90286C25.6024 5.34643 25.3853 4.9325 24.951 4.66107C24.5303 4.37607 23.9196 4.23357 23.1189 4.23357H19.8414V13.5164ZM31.906 16V0.894999H35.0817V16H31.906ZM43.2405 16.1629C42.0733 16.1629 41.0351 15.9186 40.1258 15.43C39.2301 14.9414 38.5176 14.2764 37.9883 13.435C37.4726 12.58 37.2148 11.6096 37.2148 10.5239C37.2148 9.42464 37.4726 8.45428 37.9883 7.61286C38.5176 6.75786 39.2301 6.09286 40.1258 5.61786C41.0351 5.12929 42.0733 4.885 43.2405 4.885C44.3941 4.885 45.4255 5.12929 46.3348 5.61786C47.2441 6.09286 47.9566 6.75107 48.4723 7.5925C48.988 8.43393 49.2458 9.41107 49.2458 10.5239C49.2458 11.6096 48.988 12.58 48.4723 13.435C47.9566 14.2764 47.2441 14.9414 46.3348 15.43C45.4255 15.9186 44.3941 16.1629 43.2405 16.1629ZM43.2405 13.5571C43.7698 13.5571 44.2448 13.435 44.6655 13.1907C45.0862 12.9464 45.4187 12.6004 45.663 12.1525C45.9073 11.6911 46.0294 11.1482 46.0294 10.5239C46.0294 9.88607 45.9073 9.34321 45.663 8.89536C45.4187 8.4475 45.0862 8.10143 44.6655 7.85714C44.2448 7.61286 43.7698 7.49071 43.2405 7.49071C42.7112 7.49071 42.2362 7.61286 41.8155 7.85714C41.3948 8.10143 41.0555 8.4475 40.7976 8.89536C40.5533 9.34321 40.4312 9.88607 40.4312 10.5239C40.4312 11.1482 40.5533 11.6911 40.7976 12.1525C41.0555 12.6004 41.3948 12.9464 41.8155 13.1907C42.2362 13.435 42.7112 13.5571 43.2405 13.5571ZM56.5189 20.1121C55.4875 20.1121 54.49 19.9832 53.5264 19.7254C52.5764 19.4811 51.7825 19.1079 51.1446 18.6057L52.4068 16.3257C52.8682 16.7057 53.4518 17.0043 54.1575 17.2214C54.8768 17.4521 55.5825 17.5675 56.2746 17.5675C57.401 17.5675 58.2153 17.3164 58.7175 16.8143C59.2332 16.3121 59.491 15.5657 59.491 14.575V12.9261L59.6946 10.1779L59.6539 7.40929V5.04786H62.6668V14.1679C62.6668 16.2036 62.1375 17.7032 61.0789 18.6668C60.0203 19.6304 58.5003 20.1121 56.5189 20.1121ZM56.0303 15.4707C55.0125 15.4707 54.0896 15.2536 53.2618 14.8193C52.4475 14.3714 51.7893 13.7539 51.2871 12.9668C50.7985 12.1661 50.5543 11.2364 50.5543 10.1779C50.5543 9.10571 50.7985 8.17607 51.2871 7.38893C51.7893 6.58821 52.4475 5.97071 53.2618 5.53643C54.0896 5.10214 55.0125 4.885 56.0303 4.885C56.9532 4.885 57.7675 5.075 58.4732 5.455C59.1789 5.82143 59.7285 6.39821 60.1221 7.18536C60.5157 7.95893 60.7125 8.95643 60.7125 10.1779C60.7125 11.3857 60.5157 12.3832 60.1221 13.1704C59.7285 13.9439 59.1789 14.5207 58.4732 14.9007C57.7675 15.2807 56.9532 15.4707 56.0303 15.4707ZM56.6614 12.865C57.2178 12.865 57.7132 12.7564 58.1475 12.5393C58.5818 12.3086 58.921 11.9896 59.1653 11.5825C59.4096 11.1754 59.5318 10.7071 59.5318 10.1779C59.5318 9.635 59.4096 9.16679 59.1653 8.77321C58.921 8.36607 58.5818 8.05393 58.1475 7.83679C57.7132 7.60607 57.2178 7.49071 56.6614 7.49071C56.105 7.49071 55.6096 7.60607 55.1753 7.83679C54.741 8.05393 54.395 8.36607 54.1371 8.77321C53.8928 9.16679 53.7707 9.635 53.7707 10.1779C53.7707 10.7071 53.8928 11.1754 54.1371 11.5825C54.395 11.9896 54.741 12.3086 55.1753 12.5393C55.6096 12.7564 56.105 12.865 56.6614 12.865ZM70.7729 20.1121C69.7415 20.1121 68.744 19.9832 67.7804 19.7254C66.8304 19.4811 66.0364 19.1079 65.3986 18.6057L66.6607 16.3257C67.1222 16.7057 67.7057 17.0043 68.4115 17.2214C69.1307 17.4521 69.8365 17.5675 70.5286 17.5675C71.655 17.5675 72.4693 17.3164 72.9715 16.8143C73.4872 16.3121 73.745 15.5657 73.745 14.575V12.9261L73.9486 10.1779L73.9079 7.40929V5.04786H76.9207V14.1679C76.9207 16.2036 76.3915 17.7032 75.3329 18.6668C74.2743 19.6304 72.7543 20.1121 70.7729 20.1121ZM70.2843 15.4707C69.2665 15.4707 68.3436 15.2536 67.5157 14.8193C66.7014 14.3714 66.0432 13.7539 65.5411 12.9668C65.0525 12.1661 64.8082 11.2364 64.8082 10.1779C64.8082 9.10571 65.0525 8.17607 65.5411 7.38893C66.0432 6.58821 66.7014 5.97071 67.5157 5.53643C68.3436 5.10214 69.2665 4.885 70.2843 4.885C71.2072 4.885 72.0215 5.075 72.7272 5.455C73.4329 5.82143 73.9825 6.39821 74.3761 7.18536C74.7697 7.95893 74.9665 8.95643 74.9665 10.1779C74.9665 11.3857 74.7697 12.3832 74.3761 13.1704C73.9825 13.9439 73.4329 14.5207 72.7272 14.9007C72.0215 15.2807 71.2072 15.4707 70.2843 15.4707ZM70.9154 12.865C71.4718 12.865 71.9672 12.7564 72.4015 12.5393C72.8357 12.3086 73.175 11.9896 73.4193 11.5825C73.6636 11.1754 73.7857 10.7071 73.7857 10.1779C73.7857 9.635 73.6636 9.16679 73.4193 8.77321C73.175 8.36607 72.8357 8.05393 72.4015 7.83679C71.9672 7.60607 71.4718 7.49071 70.9154 7.49071C70.359 7.49071 69.8636 7.60607 69.4293 7.83679C68.995 8.05393 68.649 8.36607 68.3911 8.77321C68.1468 9.16679 68.0247 9.635 68.0247 10.1779C68.0247 10.7071 68.1468 11.1754 68.3911 11.5825C68.649 11.9896 68.995 12.3086 69.4293 12.5393C69.8636 12.7564 70.359 12.865 70.9154 12.865ZM85.3119 16.1629C84.0633 16.1629 82.964 15.9186 82.014 15.43C81.0776 14.9414 80.3515 14.2764 79.8358 13.435C79.3201 12.58 79.0622 11.6096 79.0622 10.5239C79.0622 9.42464 79.3133 8.45428 79.8154 7.61286C80.3311 6.75786 81.0301 6.09286 81.9122 5.61786C82.7944 5.12929 83.7919 4.885 84.9047 4.885C85.9769 4.885 86.9404 5.11571 87.7954 5.57714C88.664 6.025 89.3494 6.67643 89.8515 7.53143C90.3536 8.37286 90.6047 9.38393 90.6047 10.5646C90.6047 10.6868 90.5979 10.8293 90.5844 10.9921C90.5708 11.1414 90.5572 11.2839 90.5436 11.4196H81.6476V9.56714H88.8744L87.6529 10.1168C87.6529 9.54679 87.5376 9.05143 87.3069 8.63071C87.0761 8.21 86.7572 7.88429 86.3501 7.65357C85.9429 7.40928 85.4679 7.28714 84.9251 7.28714C84.3822 7.28714 83.9004 7.40928 83.4797 7.65357C83.0726 7.88429 82.7536 8.21679 82.5229 8.65107C82.2922 9.07179 82.1769 9.57393 82.1769 10.1575V10.6461C82.1769 11.2432 82.3058 11.7725 82.5636 12.2339C82.8351 12.6818 83.2083 13.0279 83.6833 13.2721C84.1719 13.5029 84.7419 13.6182 85.3933 13.6182C85.9769 13.6182 86.4858 13.53 86.9201 13.3536C87.3679 13.1771 87.7751 12.9125 88.1415 12.5596L89.8311 14.3918C89.329 14.9618 88.6979 15.4029 87.9379 15.715C87.1779 16.0136 86.3026 16.1629 85.3119 16.1629ZM92.719 16V5.04786H95.7522V8.14214L95.3247 7.24643C95.6504 6.47286 96.1729 5.88928 96.8922 5.49571C97.6115 5.08857 98.4869 4.885 99.5183 4.885V7.81643C99.3826 7.80286 99.2604 7.79607 99.1519 7.79607C99.0433 7.7825 98.9279 7.77571 98.8058 7.77571C97.9372 7.77571 97.2315 8.02679 96.6886 8.52893C96.1594 9.0175 95.8947 9.78429 95.8947 10.8293V16H92.719Z" fill="white"/>
<path d="M99.3061 16L105.434 7.55179V9.95393L99.5708 1.75H103.316L107.368 7.47036L105.8 7.49071L109.79 1.75H113.373L107.551 9.81143V7.45L113.719 16H109.912L105.719 9.95393H107.225L103.093 16H99.3061Z" fill="#00E5BC"/>
</svg>
