<svg width="80" height="18" viewBox="0 0 80 18" fill="none" xmlns="http://www.w3.org/2000/svg">
<path d="M0.689643 17V2.75H6.85786C8.13357 2.75 9.23286 2.96036 10.1557 3.38107C11.0786 3.78821 11.7911 4.37857 12.2932 5.15214C12.7954 5.92571 13.0464 6.84857 13.0464 7.92071C13.0464 8.97929 12.7954 9.89536 12.2932 10.6689C11.7911 11.4289 11.0786 12.0125 10.1557 12.4196C9.23286 12.8268 8.13357 13.0304 6.85786 13.0304H2.52179L3.9875 11.585V17H0.689643ZM9.74857 17L6.18607 11.8293H9.70786L13.3111 17H9.74857ZM3.9875 11.9514L2.52179 10.4043H6.67464C7.6925 10.4043 8.4525 10.1871 8.95464 9.75286C9.45679 9.305 9.70786 8.69429 9.70786 7.92071C9.70786 7.13357 9.45679 6.52286 8.95464 6.08857C8.4525 5.65429 7.6925 5.43714 6.67464 5.43714H2.52179L3.9875 3.86964V11.9514Z" fill="#00E5BC"/>
<path d="M22.0538 17V14.8625L21.8503 14.3943V10.5671C21.8503 9.88857 21.6399 9.35928 21.2192 8.97929C20.812 8.59929 20.181 8.40929 19.326 8.40929C18.7424 8.40929 18.1656 8.50429 17.5956 8.69429C17.0392 8.87071 16.5642 9.115 16.1706 9.42714L15.0306 7.20821C15.6278 6.7875 16.347 6.46178 17.1885 6.23107C18.0299 6.00036 18.8849 5.885 19.7535 5.885C21.4228 5.885 22.7188 6.27857 23.6417 7.06571C24.5645 7.85286 25.026 9.08107 25.026 10.7504V17H22.0538ZM18.7153 17.1629C17.8603 17.1629 17.1274 17.0204 16.5167 16.7354C15.906 16.4368 15.4378 16.0364 15.112 15.5343C14.7863 15.0321 14.6235 14.4689 14.6235 13.8446C14.6235 13.1932 14.7795 12.6232 15.0917 12.1346C15.4174 11.6461 15.9263 11.2661 16.6185 10.9946C17.3106 10.7096 18.2131 10.5671 19.326 10.5671H22.237V12.4196H19.672C18.9256 12.4196 18.4099 12.5418 18.1249 12.7861C17.8535 13.0304 17.7178 13.3357 17.7178 13.7021C17.7178 14.1093 17.8738 14.435 18.186 14.6793C18.5117 14.91 18.9528 15.0254 19.5092 15.0254C20.0385 15.0254 20.5135 14.9032 20.9342 14.6589C21.3549 14.4011 21.6603 14.0279 21.8503 13.5393L22.3388 15.005C22.1081 15.7107 21.6874 16.2468 21.0767 16.6132C20.466 16.9796 19.6788 17.1629 18.7153 17.1629ZM28.2869 17V5.80357C28.2869 4.56857 28.6534 3.58464 29.3862 2.85178C30.1191 2.10536 31.1641 1.73214 32.5212 1.73214C32.9826 1.73214 33.4237 1.77964 33.8444 1.87464C34.2787 1.96964 34.6451 2.11893 34.9437 2.3225L34.1091 4.62286C33.9326 4.50071 33.7359 4.40571 33.5187 4.33786C33.3016 4.27 33.0709 4.23607 32.8266 4.23607C32.3651 4.23607 32.0055 4.37178 31.7476 4.64321C31.5034 4.90107 31.3812 5.29464 31.3812 5.82393V6.84179L31.4626 8.20571V17H28.2869ZM26.5973 8.735V6.29214H34.1905V8.735H26.5973ZM35.9819 17V6.04786H39.1576V17H35.9819ZM37.5698 4.52107C36.9862 4.52107 36.5112 4.35143 36.1448 4.01214C35.7784 3.67286 35.5951 3.25214 35.5951 2.75C35.5951 2.24786 35.7784 1.82714 36.1448 1.48786C36.5112 1.14857 36.9862 0.978927 37.5698 0.978927C38.1534 0.978927 38.6284 1.14178 38.9948 1.4675C39.3612 1.77964 39.5444 2.18679 39.5444 2.68893C39.5444 3.21821 39.3612 3.65928 38.9948 4.01214C38.6419 4.35143 38.1669 4.52107 37.5698 4.52107ZM48.7513 5.885C49.6198 5.885 50.3934 6.06143 51.072 6.41428C51.7641 6.75357 52.307 7.28286 52.7006 8.00214C53.0941 8.70786 53.2909 9.61714 53.2909 10.73V17H50.1152V11.2186C50.1152 10.3364 49.9184 9.685 49.5248 9.26428C49.1448 8.84357 48.602 8.63321 47.8963 8.63321C47.3941 8.63321 46.9395 8.74179 46.5323 8.95893C46.1388 9.1625 45.8266 9.48143 45.5959 9.91571C45.3788 10.35 45.2702 10.9064 45.2702 11.585V17H42.0945V6.04786H45.1277V9.08107L44.5577 8.165C44.9513 7.43214 45.5145 6.86893 46.2473 6.47536C46.9802 6.08179 47.8148 5.885 48.7513 5.885ZM62.8874 17V14.8625L62.6838 14.3943V10.5671C62.6838 9.88857 62.4735 9.35928 62.0528 8.97929C61.6456 8.59929 61.0145 8.40929 60.1595 8.40929C59.576 8.40929 58.9992 8.50429 58.4292 8.69429C57.8728 8.87071 57.3978 9.115 57.0042 9.42714L55.8642 7.20821C56.4613 6.7875 57.1806 6.46178 58.022 6.23107C58.8635 6.00036 59.7185 5.885 60.587 5.885C62.2563 5.885 63.5524 6.27857 64.4753 7.06571C65.3981 7.85286 65.8595 9.08107 65.8595 10.7504V17H62.8874ZM59.5488 17.1629C58.6938 17.1629 57.961 17.0204 57.3503 16.7354C56.7395 16.4368 56.2713 16.0364 55.9456 15.5343C55.6199 15.0321 55.457 14.4689 55.457 13.8446C55.457 13.1932 55.6131 12.6232 55.9253 12.1346C56.251 11.6461 56.7599 11.2661 57.452 10.9946C58.1442 10.7096 59.0467 10.5671 60.1595 10.5671H63.0706V12.4196H60.5056C59.7592 12.4196 59.2435 12.5418 58.9585 12.7861C58.687 13.0304 58.5513 13.3357 58.5513 13.7021C58.5513 14.1093 58.7074 14.435 59.0195 14.6793C59.3453 14.91 59.7863 15.0254 60.3428 15.0254C60.872 15.0254 61.347 14.9032 61.7678 14.6589C62.1885 14.4011 62.4938 14.0279 62.6838 13.5393L63.1724 15.005C62.9417 15.7107 62.521 16.2468 61.9103 16.6132C61.2995 16.9796 60.5124 17.1629 59.5488 17.1629ZM73.5157 17.1629C72.4843 17.1629 71.5547 16.9321 70.7268 16.4707C69.8989 15.9957 69.2407 15.3375 68.7522 14.4961C68.2772 13.6546 68.0397 12.6639 68.0397 11.5239C68.0397 10.3704 68.2772 9.37286 68.7522 8.53143C69.2407 7.69 69.8989 7.03857 70.7268 6.57714C71.5547 6.11571 72.4843 5.885 73.5157 5.885C74.4386 5.885 75.2461 6.08857 75.9382 6.49571C76.6304 6.90286 77.1664 7.52036 77.5464 8.34821C77.9264 9.17607 78.1164 10.2346 78.1164 11.5239C78.1164 12.7996 77.9332 13.8582 77.5668 14.6996C77.2004 15.5275 76.6711 16.145 75.9789 16.5521C75.3004 16.9593 74.4793 17.1629 73.5157 17.1629ZM74.0654 14.5571C74.5811 14.5571 75.0493 14.435 75.47 14.1907C75.8907 13.9464 76.2232 13.6004 76.4675 13.1525C76.7254 12.6911 76.8543 12.1482 76.8543 11.5239C76.8543 10.8861 76.7254 10.3432 76.4675 9.89536C76.2232 9.4475 75.8907 9.10143 75.47 8.85714C75.0493 8.61286 74.5811 8.49071 74.0654 8.49071C73.5361 8.49071 73.0611 8.61286 72.6404 8.85714C72.2197 9.10143 71.8804 9.4475 71.6225 9.89536C71.3782 10.3432 71.2561 10.8861 71.2561 11.5239C71.2561 12.1482 71.3782 12.6911 71.6225 13.1525C71.8804 13.6004 72.2197 13.9464 72.6404 14.1907C73.0611 14.435 73.5361 14.5571 74.0654 14.5571ZM76.9357 17V14.7607L76.9968 11.5036L76.7932 8.26679V1.895H79.9689V17H76.9357Z" fill="#131313"/>
</svg>
