<svg xmlns="http://www.w3.org/2000/svg" width="20" height="20" fill="none"><path fill="#FCFDFD" fill-rule="evenodd" d="M5.806 2.66a3.57 3.57 0 0 0-3.564 3.564v8.385c0 1.965 1.6 3.564 3.564 3.564h8.385a3.57 3.57 0 0 0 3.564-3.564V6.224a3.57 3.57 0 0 0-3.564-3.564zM.832 6.224A4.98 4.98 0 0 1 5.806 1.25h8.385a4.98 4.98 0 0 1 4.974 4.974v8.385a4.98 4.98 0 0 1-4.974 4.974H5.806A4.98 4.98 0 0 1 .832 14.61zm13.665-.622a.327.327 0 0 0-.326.326.327.327 0 0 0 .652 0 .327.327 0 0 0-.326-.326m-1.736.326a1.738 1.738 0 0 1 3.473 0 1.738 1.738 0 0 1-3.473 0M9.937 7.534a2.825 2.825 0 0 0-2.82 2.82 2.825 2.825 0 0 0 2.82 2.821 2.825 2.825 0 0 0 2.82-2.82 2.825 2.825 0 0 0-2.82-2.82Zm-4.23 2.82a4.235 4.235 0 0 1 4.23-4.23 4.235 4.235 0 0 1 4.23 4.23 4.235 4.235 0 0 1-4.23 4.232 4.235 4.235 0 0 1-4.23-4.232" clip-rule="evenodd"/></svg>